<svg xmlns="http://www.w3.org/2000/svg" viewBox="0 0 80 80"><path d="M24,58.75H56a.7502.7502,0,0,0,.75-.75V22a.7502.7502,0,0,0-.75-.75H24a.7502.7502,0,0,0-.75.75V58A.7502.7502,0,0,0,24,58.75Zm.75-36h30.5v10.5H24.75Zm0,12h30.5v10.5H24.75Zm0,12h30.5v10.5H24.75Z"/><rect x="40" y="51.25" width="12" height="1.5"/><rect x="40" y="39.25" width="12" height="1.5"/><rect x="40" y="27.25" width="12" height="1.5"/><path d="M10,54.75H20v-1.5H10.75V26.75H20v-1.5H10a.7502.7502,0,0,0-.75.75V54A.7502.7502,0,0,0,10,54.75Z"/><path d="M70.75,54V26a.7502.7502,0,0,0-.75-.75H60v1.5h9.25v26.5H60v1.5H70A.7502.7502,0,0,0,70.75,54Z"/><circle cx="28" cy="28" r="1"/><circle cx="32" cy="28" r="1"/><circle cx="36" cy="28" r="1"/><circle cx="28" cy="40" r="1"/><circle cx="32" cy="40" r="1"/><circle cx="36" cy="40" r="1"/><circle cx="28" cy="52" r="1"/><circle cx="32" cy="52" r="1"/><circle cx="36" cy="52" r="1"/></svg>