<svg xmlns="http://www.w3.org/2000/svg" viewBox="0 0 80 80"><path d="M39.25,8V20.18945l-4.71973-4.71972-1.06054,1.06054,6,6a.74971.74971,0,0,0,1.06054,0l6-6-1.06054-1.06054L40.75,20.18945V8Z"/><path d="M20,66.75H61.667a9.08325,9.08325,0,0,0,0-18.1665,8.88462,8.88462,0,0,0-4.49023,1.21875,17.404,17.404,0,0,0-33.251-3.80127A10.58906,10.58906,0,0,0,20,45.25a10.75,10.75,0,0,0,0,21.5Zm0-20a9.1545,9.1545,0,0,1,4.01562.92773.7491.7491,0,0,0,1.03126-.41992,15.9031,15.9031,0,0,1,30.79394,3.91455.75047.75047,0,0,0,1.207.52344A7.48766,7.48766,0,0,1,61.667,50.0835a7.58325,7.58325,0,0,1,0,15.1665H20a9.25,9.25,0,0,1,0-18.5Z"/><path d="M19.25,20V30a.7502.7502,0,0,0,.75.75H60a.7502.7502,0,0,0,.75-.75V20h-1.5v9.25H20.75V20Z"/></svg>