<svg xmlns="http://www.w3.org/2000/svg" viewBox="0 0 80 80"><path d="M60.75,41.288V33.25h-6V30A3.25377,3.25377,0,0,1,58,26.75v-1.5A4.7554,4.7554,0,0,0,53.25,30v3.25H47.53613l-4,8H28A10.758,10.758,0,0,0,17.919,48.30249,8.75333,8.75333,0,0,0,10,43.25H9.25v17.5H10A8.75305,8.75305,0,0,0,17.919,55.69751,10.75827,10.75827,0,0,0,28,62.75H60a10.74391,10.74391,0,0,0,.75-21.462Zm-50,17.92347V44.78857a7.25036,7.25036,0,0,1,0,14.42286ZM48.46387,34.75H59.25v6.5H45.21387ZM60,61.25H28a9.25,9.25,0,0,1,0-18.5H60a9.25,9.25,0,0,1,0,18.5Z"/><path d="M37,48.25A3.75,3.75,0,1,0,40.75,52,3.75442,3.75442,0,0,0,37,48.25Zm0,6A2.25,2.25,0,1,1,39.25,52,2.25278,2.25278,0,0,1,37,54.25Z"/><path d="M49,48.25A3.75,3.75,0,1,0,52.75,52,3.75442,3.75442,0,0,0,49,48.25Zm0,6A2.25,2.25,0,1,1,51.25,52,2.25278,2.25278,0,0,1,49,54.25Z"/><path d="M61,48.25A3.75,3.75,0,1,0,64.75,52,3.75442,3.75442,0,0,0,61,48.25Zm0,6A2.25,2.25,0,1,1,63.25,52,2.25278,2.25278,0,0,1,61,54.25Z"/><path d="M37.25,32A2.75,2.75,0,1,0,40,29.25,2.7528,2.7528,0,0,0,37.25,32Zm4,0A1.25,1.25,0,1,1,40,30.75,1.25116,1.25116,0,0,1,41.25,32Z"/><path d="M35,28.75A3.75,3.75,0,1,0,31.25,25,3.75442,3.75442,0,0,0,35,28.75Zm0-6A2.25,2.25,0,1,1,32.75,25,2.25278,2.25278,0,0,1,35,22.75Z"/><path d="M48.75,16A4.75,4.75,0,1,0,44,20.75,4.7554,4.7554,0,0,0,48.75,16Zm-8,0A3.25,3.25,0,1,1,44,19.25,3.25377,3.25377,0,0,1,40.75,16Z"/></svg>