<svg xmlns="http://www.w3.org/2000/svg" viewBox="0 0 80 80"><path d="M12,60.75H39.25v2.5H28v1.5H52v-1.5H40.75v-2.5H68a2.87078,2.87078,0,0,0,2.75-2.97217V22.22217A2.87078,2.87078,0,0,0,68,19.25H40.75V8h-1.5V19.25H12a2.87078,2.87078,0,0,0-2.75,2.97217V57.77783A2.87078,2.87078,0,0,0,12,60.75ZM10.75,22.22217A1.37639,1.37639,0,0,1,12,20.75H68a1.37639,1.37639,0,0,1,1.25,1.47217V57.77783A1.37639,1.37639,0,0,1,68,59.25H12a1.37639,1.37639,0,0,1-1.25-1.47217Z"/><path d="M29,51.75049A3.75642,3.75642,0,0,0,32.67432,48.75H58v-1.5H32.67407a3.74992,3.74992,0,0,0-7.34814,0H22v1.5h3.32568A3.75642,3.75642,0,0,0,29,51.75049Zm0-6a2.25,2.25,0,1,1-2.25,2.25A2.25278,2.25278,0,0,1,29,45.75049Z"/><path d="M51,43.75049A3.75642,3.75642,0,0,0,54.67432,40.75H58v-1.5H54.67407a3.74992,3.74992,0,0,0-7.34814,0H22v1.5H47.32568A3.75642,3.75642,0,0,0,51,43.75049Zm0-6a2.25,2.25,0,1,1-2.25,2.25A2.25278,2.25278,0,0,1,51,37.75049Z"/><path d="M37,35.75049A3.75642,3.75642,0,0,0,40.67432,32.75H58v-1.5H40.67407a3.74992,3.74992,0,0,0-7.34814,0H22v1.5H33.32568A3.75642,3.75642,0,0,0,37,35.75049Zm0-6a2.25,2.25,0,1,1-2.25,2.25A2.25278,2.25278,0,0,1,37,29.75049Z"/></svg>