<svg xmlns="http://www.w3.org/2000/svg" viewBox="0 0 80 80"><path d="M40,51.25A4.7554,4.7554,0,0,0,35.25,56v3.25H32a.7502.7502,0,0,0-.75.75V70a.7502.7502,0,0,0,.75.75H48a.7502.7502,0,0,0,.75-.75V60a.7502.7502,0,0,0-.75-.75H44.75V56A4.7554,4.7554,0,0,0,40,51.25ZM36.75,56a3.25,3.25,0,0,1,6.5,0v3.25h-6.5Zm10.5,4.75v8.5H32.75v-8.5h14.5Z"/><path d="M40,15.25A8.75,8.75,0,1,0,48.75,24,8.75967,8.75967,0,0,0,40,15.25Zm0,16A7.25,7.25,0,1,1,47.25,24,7.258,7.258,0,0,1,40,31.25Z"/><path d="M70.75,54.0835V11.9165A2.7122,2.7122,0,0,0,68,9.25H12a2.7122,2.7122,0,0,0-2.75,2.6665V64a.7502.7502,0,0,0,.75.75h8a.74932.74932,0,0,0,.71094-.5127L21.21069,56.75H32v-1.5H12a1.21176,1.21176,0,0,1-1.25-1.1665V48.75h58.5v5.3335A1.21176,1.21176,0,0,1,68,55.25H48v1.5H58.78931l2.49975,7.4873A.74932.74932,0,0,0,62,64.75h8a.7502.7502,0,0,0,.75-.75ZM12,56.75h7.62939L17.46,63.25H10.75V56.445A2.78268,2.78268,0,0,0,12,56.75Zm57.25,6.5H62.54l-2.16943-6.5H68a2.78268,2.78268,0,0,0,1.25-.305Zm-18-16H28.75V42.46143A5.5017,5.5017,0,0,1,34,36.75H46a5.5017,5.5017,0,0,1,5.25,5.71143Zm18,0H52.75V42.46143A7.00018,7.00018,0,0,0,46,35.25H34a7.00018,7.00018,0,0,0-6.75,7.21143V47.25H10.75V11.9165A1.21176,1.21176,0,0,1,12,10.75H68a1.21176,1.21176,0,0,1,1.25,1.1665Z"/><circle cx="64" cy="16" r="1"/></svg>