<svg xmlns="http://www.w3.org/2000/svg" viewBox="0 0 80 80"><path d="M13.46973,44.53027l1.06054-1.06054L11.81055,40.75H31.25v14.5H10v1.5H31.25V70a.7502.7502,0,0,0,.75.75H48a.7502.7502,0,0,0,.75-.75V56.75H68.18945l-2.71972,2.71973,1.06054,1.06054,4-4a.74972.74972,0,0,0,0-1.06054l-4-4-1.06054,1.06054L68.18945,55.25H48.75V40.75H70v-1.5H48.75V24.75H68.18945l-2.71972,2.71973,1.06054,1.06054,4-4a.74972.74972,0,0,0,0-1.06054l-4-4-1.06054,1.06054L68.18945,23.25H48.75V10A.7502.7502,0,0,0,48,9.25H32a.7502.7502,0,0,0-.75.75V23.25H10v1.5H31.25v14.5H11.81055l2.71972-2.71973-1.06054-1.06054-4,4a.74972.74972,0,0,0,0,1.06054ZM32.75,10.75h14.5v12.5H40v1.5h7.25v14.5H40v1.5h7.25v14.5H40v1.5h7.25v12.5H32.75Z"/></svg>