<svg xmlns="http://www.w3.org/2000/svg" viewBox="0 0 80 80"><path d="M62.75,18a.7502.7502,0,0,0-.75-.75H52.75V8h-1.5v9.25H40.75V8h-1.5v9.25H28.75V8h-1.5v9.25H18a.7502.7502,0,0,0-.75.75v9.25H8v1.5h9.25v10.5H8v1.5h9.25v10.5H8v1.5h9.25V62a.7502.7502,0,0,0,.75.75h9.25V72h1.5V62.75h10.5V72h1.5V62.75h10.5V72h1.5V62.75H62a.7502.7502,0,0,0,.75-.75V52.75H72v-1.5H62.75V40.75H72v-1.5H62.75V28.75H72v-1.5H62.75Zm-1.5,43.25H18.75V18.75h42.5Z"/><path d="M39.25,33.81055V47.25h-2v1.5h5.5v-1.5h-2V32a.74993.74993,0,0,0-1.28027-.53027L36.93945,34,38,35.06055Z"/></svg>