<svg xmlns="http://www.w3.org/2000/svg" viewBox="0 0 80 80"><path d="M13.51562,22.75H23v-1.5H13.51562a2.60508,2.60508,0,0,0-2.6289,2.57373V56.17627A2.60508,2.60508,0,0,0,13.51562,58.75H39.25v4.5H26v1.5H54v-1.5H40.75v-4.5H66.12109A2.60508,2.60508,0,0,0,68.75,56.17627V23.82373A2.60508,2.60508,0,0,0,66.12109,21.25H57v1.5h9.12109A1.10373,1.10373,0,0,1,67.25,23.82373V51.25H12.38672V23.82373A1.10372,1.10372,0,0,1,13.51562,22.75ZM67.25,52.75v3.42627A1.10373,1.10373,0,0,1,66.12109,57.25H13.51562a1.10372,1.10372,0,0,1-1.1289-1.07373V52.75Z"/><path d="M25.25,32.98779a2.74331,2.74331,0,0,0,4.64551,1.9834l7.45,4.34821A2.71259,2.71259,0,0,0,37.25,40a2.75,2.75,0,0,0,5.5,0,2.71259,2.71259,0,0,0-.09546-.6806l7.45-4.34821A2.743,2.743,0,1,0,52.75,30.35486V21.41223a2.74218,2.74218,0,1,0-2.78174-4.47l-7.31347-4.26208A2.72109,2.72109,0,0,0,42.75,12a2.75,2.75,0,0,0-5.5,0,2.72109,2.72109,0,0,0,.09521.68018l-7.31347,4.26208a2.74134,2.74134,0,1,0-2.78174,4.47v8.94263A2.74489,2.74489,0,0,0,25.25,32.98779Zm2.75,1.25a1.25,1.25,0,1,1,1.25-1.25A1.25116,1.25116,0,0,1,28,34.23779ZM40,41.25A1.25,1.25,0,1,1,41.25,40,1.25116,1.25116,0,0,1,40,41.25Zm13.25-8.26221a1.25,1.25,0,1,1-1.25-1.25A1.25116,1.25116,0,0,1,53.25,32.98779ZM52,17.5293a1.25,1.25,0,1,1-1.25,1.25A1.25116,1.25116,0,0,1,52,17.5293ZM40,10.75A1.25,1.25,0,1,1,38.75,12,1.25116,1.25116,0,0,1,40,10.75Zm-1.9021,3.228a2.72933,2.72933,0,0,0,3.8042,0l7.39746,4.311A2.7,2.7,0,0,0,51.25,21.41223v8.94263a2.69211,2.69211,0,0,0-1.90234,3.32086l-7.4458,4.346a2.7295,2.7295,0,0,0-3.80372,0l-7.4458-4.346A2.69211,2.69211,0,0,0,28.75,30.35486V21.41223A2.7,2.7,0,0,0,30.70044,18.289ZM26.75,18.7793a1.25,1.25,0,1,1,1.25,1.25A1.25116,1.25116,0,0,1,26.75,18.7793Z"/></svg>