<svg xmlns="http://www.w3.org/2000/svg" viewBox="0 0 80 80"><path d="M26,45.25v1.5h3.25V50a.7502.7502,0,0,0,.75.75h3.25V54h1.5V50.75h4.5V54h1.5V50.75h4.5V54h1.5V50.75H50a.7502.7502,0,0,0,.75-.75V46.75H54v-1.5H50.75v-4.5H54v-1.5H50.75v-4.5H54v-1.5H50.75V30a.7502.7502,0,0,0-.75-.75H46.75V26h-1.5v3.25h-4.5V26h-1.5v3.25h-4.5V26h-1.5v3.25H30a.7502.7502,0,0,0-.75.75v3.25H26v1.5h3.25v4.5H26v1.5h3.25v4.5Zm4.75-14.5h18.5v18.5H30.75Z"/><path d="M67.31445,25.86279l-1.332.69043A28.92523,28.92523,0,0,1,69.25,40,29.28292,29.28292,0,0,1,40,69.25a28.9906,28.9906,0,0,1-20.60278-8.5H26v-1.5H18a.7502.7502,0,0,0-.75.75v8h1.5V62.21808A30.47112,30.47112,0,0,0,40,70.75,30.76074,30.76074,0,0,0,67.31445,25.86279Z"/><path d="M14.01758,53.44678A28.92523,28.92523,0,0,1,10.75,40,29.28292,29.28292,0,0,1,40,10.75a28.9906,28.9906,0,0,1,20.60278,8.5H54v1.5h8a.7502.7502,0,0,0,.75-.75V12h-1.5v5.78192A30.47112,30.47112,0,0,0,40,9.25,30.76074,30.76074,0,0,0,12.68555,54.13721Z"/></svg>