<svg xmlns="http://www.w3.org/2000/svg" viewBox="0 0 80 80"><path d="M17.48926,48.30322a4.7762,4.7762,0,1,0,4.40234,2.98706L29.582,46.75H39.25V61.32593a4.75,4.75,0,1,0,1.5,0V46.75h9.459L58.144,51.311a4.85043,4.85043,0,1,0,.77784-1.28345L52.8833,46.5564a5.18244,5.18244,0,0,0-1.32764-10.19507,5.0642,5.0642,0,0,0-2.13867.47217,9.62829,9.62829,0,0,0-.34717-1.1958l9.83643-5.62537a4.71665,4.71665,0,1,0-.769-1.28723L48.458,34.26025a9.57263,9.57263,0,0,0-7.708-4.9779V18.67407a4.75,4.75,0,1,0-1.5,0V29.30518a9.63412,9.63412,0,0,0-7.64844,4.92334l-9.67871-5.56043a4.70684,4.70684,0,0,0,.31641-1.66272,4.80916,4.80916,0,1,0-1.0669,2.96216l8.04493,4.62183a6.076,6.076,0,0,0-1.95655,11.7893l-6.15381,3.63306A4.72064,4.72064,0,0,0,17.48926,48.30322Zm0,8a3.25,3.25,0,1,1,3.25-3.25A3.25377,3.25377,0,0,1,17.48926,56.30322Zm45.06347-6.5a3.25,3.25,0,1,1-3.25,3.25A3.25376,3.25376,0,0,1,62.55273,49.80322Zm0-26.04785a3.25,3.25,0,1,1-3.25,3.25A3.25376,3.25376,0,0,1,62.55273,23.75537Zm-45.06347,6.5a3.25,3.25,0,1,1,3.25-3.25A3.25377,3.25377,0,0,1,17.48926,30.25537ZM43.25,66A3.25,3.25,0,1,1,40,62.75,3.25377,3.25377,0,0,1,43.25,66Zm-6.5-52A3.25,3.25,0,1,1,40,17.25,3.25377,3.25377,0,0,1,36.75,14Zm-12,26.6665A4.575,4.575,0,0,1,31.32324,36.543a.7491.7491,0,0,0,1.03125-.41992,8.13128,8.13128,0,0,1,15.74512,2.001.74989.74989,0,0,0,1.20605.52344,3.65383,3.65383,0,0,1,2.25-.78613,3.69434,3.69434,0,1,1,0,7.38867H29.333A4.58827,4.58827,0,0,1,24.75,40.6665Z"/><path d="M62.73438,15.13477a.98452.98452,0,0,1-.9834-.9834h-1.5a2.4834,2.4834,0,1,0,2.4834-2.48389H62.04V10.856h2.42773v-1.5H60.54v3.81152h2.19434a.98365.98365,0,0,1,0,1.96729Z"/><path d="M68.2666,10.75a.98453.98453,0,0,1,.9834.9834h1.5a2.4834,2.4834,0,0,0-4.9668,0v2.5332a2.4834,2.4834,0,0,0,4.9668.00147v-1.9834H67.99023v1.5H69.25v.48193a.9834.9834,0,1,1-1.9668,0V11.7334A.98453.98453,0,0,1,68.2666,10.75Z"/></svg>