<svg xmlns="http://www.w3.org/2000/svg" viewBox="0 0 80 80"><path d="M58,27.25H46a.7502.7502,0,0,0-.75.75v8a.7502.7502,0,0,0,.75.75H58A3.152,3.152,0,0,1,61.40625,40a3.27774,3.27774,0,0,1-.83984,2.24121A3.37769,3.37769,0,0,1,58,43.25H46a.7502.7502,0,0,0-.75.75v8a.7502.7502,0,0,0,.75.75H58c8.75977,0,12.75-6.60938,12.75-12.75S66.75977,27.25,58,27.25Zm-6.75,8h-4.5v-6.5h4.5Zm0,16h-4.5v-6.5h4.5Zm6.75,0H52.75v-6.5H58a4.83435,4.83435,0,0,0,3.668-1.49121A4.77141,4.77141,0,0,0,62.90625,40,4.67259,4.67259,0,0,0,58,35.25H52.75v-6.5H58c7.72949,0,11.25,5.83154,11.25,11.25S65.72949,51.25,58,51.25Z"/><path d="M12,48.75l6.72754.00049a12.73614,12.73614,0,0,0,2.0437,1.74512c.01392.011.02417.02557.03931.03564l.13672.0918.0083-.01221a12.74063,12.74063,0,1,0,.66845-21.6543l.752,1.29834a11.24275,11.24275,0,0,1,12.93969,18.274,7.59851,7.59851,0,0,0-4.27954-4.59918,5.364,5.364,0,1,0-5.94409.0011,7.59816,7.59816,0,0,0-4.31372,4.67553,11.19808,11.19808,0,0,1-1.16309-1.10583.74847.74847,0,0,0-.55859-.25L12,47.25Zm12.19922-9.2793a3.86377,3.86377,0,1,1,3.89258,3.86042l-.02344-.001-.0293.0014A3.86654,3.86654,0,0,1,24.19922,39.4707Zm-.50684,7.166a6.20108,6.20108,0,0,1,4.34668-1.80524c.0083.00006.01612.0025.02442.0025l.023-.00231a6.10914,6.10914,0,0,1,5.92871,4.65875,11.15888,11.15888,0,0,1-11.93042.06231A6.2533,6.2533,0,0,1,23.69238,46.63672Z"/><path d="M15.97559,44.25l1.41406-.5A11.20793,11.20793,0,0,1,16.75,40a.7502.7502,0,0,0-.75-.75H8v1.5h7.27148A12.678,12.678,0,0,0,15.97559,44.25Z"/><path d="M17.39258,36.24951a11.15578,11.15578,0,0,1,2.22558-3.749A.75021.75021,0,0,0,19.05957,31.25H12v1.5h5.5127a12.59654,12.59654,0,0,0-1.53418,3.00049Z"/></svg>