<svg xmlns="http://www.w3.org/2000/svg" viewBox="0 0 80 80"><path d="M32,52.75H58v-1.5H56.75V16a.7502.7502,0,0,0-.75-.75H48a.7502.7502,0,0,0-.75.75V51.25h-2.5V26a.7502.7502,0,0,0-.75-.75H36a.7502.7502,0,0,0-.75.75V51.25h-2.5V36a.7502.7502,0,0,0-.75-.75H24a.7502.7502,0,0,0-.75.75V51.25H22v1.5H32Zm16.75-36h6.5v34.5h-6.5Zm-12,10h6.5v24.5h-6.5Zm-12,10h6.5v14.5h-6.5Z"/><path d="M33.25,11.81049V18h1.5V10A.7502.7502,0,0,0,34,9.25H26v1.5h6.18945L12.53809,30.3999A10.74985,10.74985,0,0,0,20.13965,48.751v-1.5a9.25,9.25,0,0,1-6.541-15.79053Z"/><path d="M69.79,37.88623A10.58214,10.58214,0,0,0,59.85938,31.25v1.5a9.25026,9.25026,0,0,1,6.54,15.791L46.75,68.19092V62h-1.5v8a.7502.7502,0,0,0,.75.75h8v-1.5H47.812L67.46,49.60156A10.5825,10.5825,0,0,0,69.79,37.88623Z"/></svg>