<svg xmlns="http://www.w3.org/2000/svg" viewBox="0 0 80 80"><path d="M66.75,28a4.73184,4.73184,0,0,0-8.48682-2.89746L44.4585,17.58276A4.69554,4.69554,0,0,0,44.75,16a4.75,4.75,0,0,0-9.5,0,4.69547,4.69547,0,0,0,.2915,1.5827L21.73682,25.10254A4.73642,4.73642,0,1,0,17.25,32.67413V47.32587a4.74018,4.74018,0,1,0,4.48682,7.57159L35.5415,62.4173A4.69547,4.69547,0,0,0,35.25,64a4.75,4.75,0,0,0,9.5,0,4.69582,4.69582,0,0,0-.2915-1.58276l13.80468-7.51978A4.73642,4.73642,0,1,0,62.75,47.32587V32.67413A4.74528,4.74528,0,0,0,66.75,28Zm-7.8208,3.59344-4.26074,6.96918-2.61768-4.28113,6.2124-3.384A4.76374,4.76374,0,0,0,58.9292,31.59344Zm1.27.79712a4.712,4.712,0,0,0,1.05078.28357V47.32587a4.712,4.712,0,0,0-1.05078.28357L55.54688,40ZM33.08838,51.25l-3.0376-4.96851,6.2124-3.384A4.726,4.726,0,0,0,39.25,44.67413V51.25ZM39.25,52.75v6.57587a4.712,4.712,0,0,0-1.05078.28357L34.00537,52.75Zm0-24v6.57587a4.726,4.726,0,0,0-2.98682,1.77667l-6.2124-3.384L33.08838,28.75Zm-5.24463-1.5,4.19385-6.85944a4.712,4.712,0,0,0,1.05078.28357V27.25ZM35.5415,38.4173a4.44239,4.44239,0,0,0,0,3.1654l-6.27392,3.41761L26.21045,40l3.05713-5.00031ZM31.33105,51.25H22.67432a4.69538,4.69538,0,0,0-.21582-.83276l6.27392-3.41755ZM36.75,40A3.25,3.25,0,1,1,40,43.25,3.25377,3.25377,0,0,1,36.75,40ZM46.91162,28.75l3.0376,4.96851-6.2124,3.384A4.726,4.726,0,0,0,40.75,35.32587V28.75ZM40.75,27.25V20.67413a4.712,4.712,0,0,0,1.05078-.28357L45.99463,27.25Zm7.919,1.5h8.65673a4.69474,4.69474,0,0,0,.21582.8327l-6.27392,3.41761Zm-7.919,24h5.24463l-4.19385,6.85938A4.71193,4.71193,0,0,0,40.75,59.32587Zm0-1.5V44.67413a4.726,4.726,0,0,0,2.98682-1.77667l6.2124,3.384L46.91162,51.25Zm3.7085-9.66724a4.44271,4.44271,0,0,0,0-3.16552l6.27392-3.41755L53.78955,40l-3.05713,5.00031Zm-.72168-22.6853L57.5415,26.4173a4.69474,4.69474,0,0,0-.21582.8327H47.752L43.0708,19.59344A4.76374,4.76374,0,0,0,43.73682,18.89746ZM40,12.75A3.25,3.25,0,1,1,36.75,16,3.25377,3.25377,0,0,1,40,12.75Zm-3.73682,6.14746a4.76374,4.76374,0,0,0,.666.696L32.24805,27.25H22.67432a4.69538,4.69538,0,0,0-.21582-.83276ZM22.67432,28.75h8.65673l-2.59863,4.25031L22.4585,29.58276A4.69538,4.69538,0,0,0,22.67432,28.75Zm-.9375,2.14746,6.2124,3.384-2.61768,4.28113L21.0708,31.59344A4.76374,4.76374,0,0,0,21.73682,30.89746ZM24.45312,40l-4.65234,7.60938A4.71193,4.71193,0,0,0,18.75,47.32587V32.67413a4.712,4.712,0,0,0,1.05078-.28357ZM14.75,28A3.25,3.25,0,1,1,18,31.25,3.25377,3.25377,0,0,1,14.75,28ZM18,55.25A3.25,3.25,0,1,1,21.25,52,3.25377,3.25377,0,0,1,18,55.25Zm3.0708-6.84344,4.26074-6.96918,2.61768,4.28113-6.2124,3.384A4.76374,4.76374,0,0,0,21.0708,48.40656Zm15.19238,12.696L22.4585,53.58276a4.69538,4.69538,0,0,0,.21582-.83276h9.57373l4.68115,7.65656A4.76374,4.76374,0,0,0,36.26318,61.10254ZM40,67.25A3.25,3.25,0,1,1,43.25,64,3.25377,3.25377,0,0,1,40,67.25Zm3.73682-6.14746a4.76374,4.76374,0,0,0-.666-.696L47.752,52.75h9.57373a4.69474,4.69474,0,0,0,.21582.8327ZM57.32568,51.25H48.669l2.59863-4.25031L57.5415,50.4173A4.69474,4.69474,0,0,0,57.32568,51.25Zm.9375-2.14746-6.2124-3.384,2.61768-4.28113,4.26074,6.96918A4.76374,4.76374,0,0,0,58.26318,49.10254ZM65.25,52A3.25,3.25,0,1,1,62,48.75,3.25377,3.25377,0,0,1,65.25,52ZM62,31.25A3.25,3.25,0,1,1,65.25,28,3.25377,3.25377,0,0,1,62,31.25Z"/></svg>