<svg xmlns="http://www.w3.org/2000/svg" viewBox="0 0 80 80"><path d="M68.01367,19.25h-56a2.7528,2.7528,0,0,0-2.75,2.75V56a2.7528,2.7528,0,0,0,2.75,2.75h27.25v2.5h-13.25v1.5h28v-1.5h-13.25v-2.5h27.25a2.7528,2.7528,0,0,0,2.75-2.75V22A2.7528,2.7528,0,0,0,68.01367,19.25Zm1.25,36.75a1.25116,1.25116,0,0,1-1.25,1.25h-56a1.25116,1.25116,0,0,1-1.25-1.25V52.75h58.5Zm0-4.75h-58.5V22a1.25116,1.25116,0,0,1,1.25-1.25h56a1.25116,1.25116,0,0,1,1.25,1.25Z"/><path d="M21.46973,29.46973l-6,6a.74972.74972,0,0,0,0,1.06054l6,6,1.06054-1.06054L17.06055,36l5.46972-5.46973Z"/><path d="M58.53027,29.46973l-1.06054,1.06054L62.93945,36l-5.46972,5.46973,1.06054,1.06054,6-6a.74972.74972,0,0,0,0-1.06054Z"/><path d="M48,33.25a2.71714,2.71714,0,0,0-1.331.35846L42.3916,29.331A2.71884,2.71884,0,0,0,42.75,28a2.75,2.75,0,0,0-5.5,0,2.71884,2.71884,0,0,0,.3584,1.331l-4.27735,4.27747A2.71714,2.71714,0,0,0,32,33.25,2.75,2.75,0,1,0,34.75,36a2.71884,2.71884,0,0,0-.3584-1.331L38.669,30.39154a2.65049,2.65049,0,0,0,2.6621,0L45.6084,34.669a2.65065,2.65065,0,0,0,0,2.662l-4.27735,4.27747A2.71714,2.71714,0,0,0,40,41.25,2.75,2.75,0,1,0,42.75,44a2.71884,2.71884,0,0,0-.3584-1.331L46.669,38.39154A2.71714,2.71714,0,0,0,48,38.75a2.75,2.75,0,0,0,0-5.5Zm-16,4A1.25,1.25,0,1,1,33.25,36,1.25116,1.25116,0,0,1,32,37.25Zm8-8A1.25,1.25,0,1,1,41.25,28,1.25116,1.25116,0,0,1,40,29.25Zm0,16A1.25,1.25,0,1,1,41.25,44,1.25116,1.25116,0,0,1,40,45.25Zm8-8A1.25,1.25,0,1,1,49.25,36,1.25116,1.25116,0,0,1,48,37.25Z"/><path d="M40,38.75A2.75,2.75,0,1,0,37.25,36a2.71884,2.71884,0,0,0,.3584,1.331l-4.72852,4.72858,1.06055,1.06055L38.669,38.39154A2.71714,2.71714,0,0,0,40,38.75Zm0-4A1.25,1.25,0,1,1,38.75,36,1.25116,1.25116,0,0,1,40,34.75Z"/></svg>