<svg xmlns="http://www.w3.org/2000/svg" viewBox="0 0 80 80"><path d="M45.55273,42.04736a9.55174,9.55174,0,1,0-.55712,14.00885l6.47412,6.47406,1.06054-1.06054-6.47412-6.47412A9.556,9.556,0,0,0,45.55273,42.04736ZM44.49219,54.49219a8.05005,8.05005,0,1,1,0-11.38428A8.05959,8.05959,0,0,1,44.49219,54.49219Z"/><path d="M40,9.25A16.76884,16.76884,0,0,0,23.25,26v7.25H16a.7502.7502,0,0,0-.75.75V68.3335a.7502.7502,0,0,0,.75.75H64a.7502.7502,0,0,0,.75-.75V34a.7502.7502,0,0,0-.75-.75H56.75V26A16.76884,16.76884,0,0,0,40,9.25ZM24.75,26a15.25,15.25,0,0,1,30.5,0v7.25H24.75Zm38.5,8.75V67.5835H16.75V34.75h46.5Z"/></svg>