<svg xmlns="http://www.w3.org/2000/svg" viewBox="0 0 80 80"><path d="M40,9.25A30.60852,30.60852,0,0,0,10.63281,30.85645l1.43164.44531A29.25028,29.25028,0,1,1,12.80469,50.791l-1.39453.55371A30.75367,30.75367,0,1,0,40,9.25Z"/><path d="M24.71582,27.72412a3.46587,3.46587,0,1,0,2.55591,5.78662l4.64526,2.669a4.35471,4.35471,0,0,0-1.08545,8.19018l-3.60595,2.129a3.63114,3.63114,0,1,0,.76464,1.29041l5.00123-2.95288H39.249v9.45019a3.46582,3.46582,0,1,0,1.5,0V44.83643H46.8667L52.033,47.80591a3.41723,3.41723,0,0,0-.18628,1.06958,3.49158,3.49158,0,1,0,.94556-2.36377l-3.45581-1.98633a3.76568,3.76568,0,0,0-1.4917-7.22412,3.67466,3.67466,0,0,0-1.28223.23c-.03247-.12524-.0874-.2395-.12646-.36157L52.78149,33.541a3.63258,3.63258,0,1,0-.75317-1.29651L45.8208,35.79419A6.71507,6.71507,0,0,0,40.749,32.53625v-6.797a3.46582,3.46582,0,1,0-1.5,0v6.78808a6.79422,6.79422,0,0,0-5.04077,3.238l-6.196-3.55981a3.415,3.415,0,0,0,.16943-1.01563A3.46965,3.46965,0,0,0,24.71582,27.72412Zm0,5.43164a1.96582,1.96582,0,1,1,1.96582-1.96582A1.968,1.968,0,0,1,24.71582,33.15576Zm0,17.68555a1.96582,1.96582,0,1,1,1.96582-1.96582A1.968,1.968,0,0,1,24.71582,50.84131ZM55.3125,46.90967a1.96582,1.96582,0,1,1-1.96582,1.96582A1.9678,1.9678,0,0,1,55.3125,46.90967Zm0-17.68555a1.96582,1.96582,0,1,1-1.96582,1.96582A1.9678,1.9678,0,0,1,55.3125,29.22412ZM41.96484,57.66553A1.96582,1.96582,0,1,1,39.999,55.69971,1.968,1.968,0,0,1,41.96484,57.66553ZM38.0332,22.36035A1.96582,1.96582,0,1,1,39.999,24.32617,1.968,1.968,0,0,1,38.0332,22.36035ZM34.002,37.88232a.74983.74983,0,0,0,1.03223-.41943,5.28032,5.28032,0,0,1,10.22461,1.29883.75048.75048,0,0,0,1.207.52344,2.2378,2.2378,0,0,1,1.37891-.48389,2.26758,2.26758,0,0,1,0,4.53516H32.75684a2.87085,2.87085,0,1,1,0-5.7417A2.83079,2.83079,0,0,1,34.002,37.88232Z"/><path d="M19.25,39.25H16.67407a3.75,3.75,0,1,0,0,1.5H19.25v2h1.5v-2h2.5v2h1.5v-2H26v-1.5H19.25Zm-6.25,3A2.25,2.25,0,1,1,15.25,40,2.25278,2.25278,0,0,1,13,42.25Z"/></svg>