<svg xmlns="http://www.w3.org/2000/svg" viewBox="0 0 80 80"><rect x="26" y="31.25" width="28" height="1.5"/><rect x="26" y="37.25" width="28" height="1.5"/><rect x="26" y="43.25" width="28" height="1.5"/><rect x="26" y="49.25" width="20" height="1.5"/><path d="M61,70.75A9.75,9.75,0,1,0,51.25,61,9.76128,9.76128,0,0,0,61,70.75Zm0-18A8.25,8.25,0,1,1,52.75,61,8.25965,8.25965,0,0,1,61,52.75Z"/><path d="M60,64.75a.74671.74671,0,0,0,.53027-.21973l6-6-1.06054-1.06054L60,62.93945l-2.46973-2.46972-1.06054,1.06054,3,3A.74671.74671,0,0,0,60,64.75Z"/><path d="M60.75,48V24a.75027.75027,0,0,0-.21973-.53027l-14-14A.74942.74942,0,0,0,46,9.25H20a.7502.7502,0,0,0-.75.75V70a.7502.7502,0,0,0,.75.75H50v-1.5H20.75V10.75h24.5V24a.7502.7502,0,0,0,.75.75H59.25V48Zm-14-24.75V11.81055L58.18945,23.25Z"/></svg>