<svg xmlns="http://www.w3.org/2000/svg" viewBox="0 0 80 80"><path d="M70.75,21.25h-1.5V57.24219C55.10352,56.95361,48.044,48.481,40.57617,39.52,33.09082,30.5376,25.35156,21.25,10,21.25a.7502.7502,0,0,0-.75.75V58.75h1.5V22.75781C24.89648,23.04639,31.95605,31.519,39.42383,40.48,46.90918,49.4624,54.64844,58.75,70,58.75a.7502.7502,0,0,0,.75-.75Z"/><rect x="17.25" y="28" width="1.5" height="24"/><rect x="27.25" y="34" width="1.5" height="12"/><rect x="61.25" y="28" width="1.5" height="24"/><rect x="53.25" y="34" width="1.5" height="12"/><path d="M14,58.75c10.27246,0,18.07031-8.1958,24.57227-15.87842l-1.14454-.96875C31.14258,49.32812,23.63086,57.25,14,57.25Z"/><path d="M66,21.25c-10.27246,0-18.07031,8.1958-24.57227,15.87842l1.14454.96875C48.85742,30.67188,56.36914,22.75,66,22.75Z"/></svg>