<svg xmlns="http://www.w3.org/2000/svg" viewBox="0 0 80 80"><path d="M51.22754,63.71191A5.21958,5.21958,0,0,1,47.51465,65.25H32.82812a2.73171,2.73171,0,0,0-1.94433.80566l-3.41406,3.41407,1.06054,1.06054,3.41407-3.41406a1.257,1.257,0,0,1,.88378-.36621H47.51465A6.71157,6.71157,0,0,0,52.28809,64.773L66.50977,50.55029a3.606,3.606,0,0,0,0-5.10058,3.633,3.633,0,0,0-5.02051.00146l-1.41748,1.42432-.6001-.56885A3.54278,3.54278,0,0,0,54.542,46.354l-6.91723,6.95923A3.714,3.714,0,0,0,47,53.25H32.48535a6.71157,6.71157,0,0,0-4.77344,1.977L13.46973,69.46973l1.06054,1.06054L28.77246,56.28809A5.21958,5.21958,0,0,1,32.48535,54.75H47A2.25278,2.25278,0,0,1,49.25,57a2.30346,2.30346,0,0,1-.70654,1.45984l-.0503.05041.001.001a2.20622,2.20622,0,0,1-1.42871.73047L35.999,59.25l.002,1.5,11.06543-.0083a3.70934,3.70934,0,0,0,2.55932-1.24426L62.55078,46.51025a2.07843,2.07843,0,0,1,2.89844,2.9795Zm-.54712-7.39953a3.74978,3.74978,0,0,0-1.54663-2.389L55.59863,47.419a2.04518,2.04518,0,0,1,2.8418-.023l.57324.54284Z"/><path d="M40,42.75A16.75,16.75,0,1,0,23.25,26,16.76884,16.76884,0,0,0,40,42.75Zm0-32A15.25,15.25,0,1,1,24.75,26,15.2672,15.2672,0,0,1,40,10.75Z"/></svg>