<svg xmlns="http://www.w3.org/2000/svg" viewBox="0 0 80 80"><path d="M10,70.75H72v-1.5H10.75V8H9.25V70A.7502.7502,0,0,0,10,70.75Z"/><path d="M32.76562,56V41.81067L35.5,44.54541l1.06055-1.06055L32.5459,39.46973a.74972.74972,0,0,0-1.06055,0l-4.01562,4.01513,1.06054,1.06055,2.73535-2.735V56Z"/><path d="M48.73438,56V25.81042l2.73535,2.735,1.06054-1.06055-4.01562-4.01513a.772.772,0,0,0-1.06055,0l-4.01465,4.01513L44.5,28.54541l2.73438-2.73474V56Z"/><path d="M68.60645,10.39307a1.15789,1.15789,0,0,1,.33984.82129h1.25a2.39845,2.39845,0,0,0-.70508-1.70459,2.32193,2.32193,0,0,0-1.08008-.59485V8h-1.25v.91449a2.31616,2.31616,0,0,0-1.08008.59528,2.39689,2.39689,0,0,0-.70605,1.70459c0,1.24414.76465,2.0498,2.27148,2.395,1.19922.27441,1.29981.751,1.29981,1.17626a1.156,1.156,0,0,1-.33984.82081,1.18755,1.18755,0,0,1-1.64063,0,1.15367,1.15367,0,0,1-.34082-.82081h-1.25a2.38523,2.38523,0,0,0,1.78613,2.31885V18h1.25v-.89575a2.38259,2.38259,0,0,0,1.78516-2.31861c0-1.24414-.76367-2.0498-2.27051-2.395-1.20019-.27441-1.30078-.751-1.30078-1.17626a1.1556,1.1556,0,0,1,.34082-.82129A1.18946,1.18946,0,0,1,68.60645,10.39307Z"/></svg>