<svg xmlns="http://www.w3.org/2000/svg" viewBox="0 0 80 80"><path d="M57.92578,54.21875a4.787,4.787,0,1,0,.91675-4.206L52.86572,46.562a5.183,5.183,0,0,0-1.31006-10.20068,5.0642,5.0642,0,0,0-2.13867.47217,9.60518,9.60518,0,0,0-.34961-1.20258l9.76734-5.63916a4.78491,4.78491,0,1,0-.74048-1.30432L48.4541,34.25323A9.57266,9.57266,0,0,0,40.75,29.28235V18.67419A4.74124,4.74124,0,0,0,40.01172,9.25H40.001a4.74089,4.74089,0,0,0-.751,9.42352V29.30518a9.63423,9.63423,0,0,0-7.67188,4.96612l-9.66943-5.58215a4.71972,4.71972,0,0,0-2.04053-5.79706,4.75313,4.75313,0,1,0-1.166,8.69873,4.69978,4.69978,0,0,0,2.45532-1.60358l7.97876,4.6062a6.07476,6.07476,0,0,0-1.89209,11.77918l-6.09277,3.63275a4.75767,4.75767,0,1,0,.75049,1.2984L29.53906,46.75H39.25V61.32581A4.74124,4.74124,0,0,0,39.98828,70.75H39.999a4.74089,4.74089,0,0,0,.751-9.42352V46.75h9.44189l7.89942,4.56085A4.70268,4.70268,0,0,0,57.92578,54.21875Zm1.78027-2.8501a3.227,3.227,0,0,1,1.97657-1.50976,3.274,3.274,0,0,1,.83984-.11035,3.25279,3.25279,0,1,1-2.81641,1.62011Zm1.19141-27.187a3.23785,3.23785,0,0,1,1.61426-.4331,3.27682,3.27682,0,0,1,.85351.11425,3.24979,3.24979,0,1,1-2.46777.31885ZM20.294,28.63135A3.24837,3.24837,0,1,1,20.625,26.166,3.227,3.227,0,0,1,20.294,28.63135Zm-1.19141,27.187a3.24947,3.24947,0,1,1,1.19922-4.437A3.23206,3.23206,0,0,1,19.10254,55.81836ZM36.75,13.99268A3.25,3.25,0,0,1,40.001,10.75h.00683a3.25,3.25,0,0,1-.00879,6.5h-.00683A3.254,3.254,0,0,1,36.75,13.99268Zm6.5,52.01464A3.25,3.25,0,0,1,39.999,69.25h-.00683a3.25,3.25,0,0,1,.00879-6.5h.00683A3.254,3.254,0,0,1,43.25,66.00732ZM29.333,45.25a4.58326,4.58326,0,1,1,1.99023-8.707.7491.7491,0,0,0,1.03125-.41992,8.13128,8.13128,0,0,1,15.74512,2.001.74989.74989,0,0,0,1.20605.52344,3.65383,3.65383,0,0,1,2.25-.78613,3.69434,3.69434,0,1,1,0,7.38867Z"/></svg>