<svg xmlns="http://www.w3.org/2000/svg" viewBox="0 0 80 80"><path d="M9.25,65.87256a.7502.7502,0,0,0,.75.75H70a.7502.7502,0,0,0,.75-.75v-16a.7502.7502,0,0,0-.75-.75H40.75v-19.25h-1.5v19.25H10a.7502.7502,0,0,0-.75.75Zm1.5-15.25h58.5v14.5H10.75Z"/><rect x="34" y="57.12256" width="30" height="1.5"/><circle cx="16" cy="57.97876" r="1"/><circle cx="22" cy="57.97876" r="1"/><circle cx="28" cy="57.97876" r="1"/><circle cx="40" cy="23.97876" r="1"/><path d="M28.8623,12.0874l-1.02539-1.09472A17.86174,17.86174,0,0,0,22.207,23.97852a17.66153,17.66153,0,0,0,5.334,12.70263l1.05078-1.07129a16.291,16.291,0,0,1,.2705-23.52246Z"/><path d="M57.793,23.97852a17.64265,17.64265,0,0,0-5.46973-12.834l-1.03906,1.082a16.29169,16.29169,0,0,1,.23633,23.273l1.06054,1.06055A17.67656,17.67656,0,0,0,57.793,23.97852Z"/><path d="M35.668,20.31152a5.67605,5.67605,0,0,0-.23731,7.03418q.15528.21094.33008.40625l1.1211-.99609c-.085-.09619-.166-.19531-.24317-.29981a4.1766,4.1766,0,0,1,.17383-5.17578Z"/><path d="M43.126,26.74707l1.123.99512q.16407-.18531.31055-.38281a5.67714,5.67714,0,0,0,.08887-6.6377,5.33533,5.33533,0,0,0-.332-.42773l-1.13868.97558c.085.09961.165.20313.24219.3125a4.177,4.177,0,0,1-.06543,4.88379Q43.2461,26.61158,43.126,26.74707Z"/><path d="M31.335,31.64551l1.11914-.99805q-.30907-.34716-.58594-.72217a10.1057,10.1057,0,0,1,.42188-12.52l-1.14453-.96972a11.606,11.606,0,0,0-.48438,14.38037Q30.979,31.24659,31.335,31.64551Z"/><path d="M47.56152,30.62988l1.123.99317c.22266-.25147.43555-.51221.63574-.78223A11.60805,11.60805,0,0,0,49.5,17.27148c-.21094-.30029-.43652-.58984-.67285-.86816l-1.14258.97168q.31054.36474.58789.7583a10.10786,10.10786,0,0,1-.15723,11.814C47.94043,30.18311,47.75488,30.41064,47.56152,30.62988Z"/></svg>