<svg xmlns="http://www.w3.org/2000/svg" viewBox="0 0 80 80"><path d="M15,59.25a5.771,5.771,0,1,0,4.55518,2.25482L30.13037,50.92969a14.659,14.659,0,0,0,19.739.00018l10.57544,10.575a5.77053,5.77053,0,1,0,1.06055-1.06048l-10.57544-10.575a14.6591,14.6591,0,0,0,0-19.73876l10.575-10.57532a5.771,5.771,0,1,0-1.06054-1.06067l-10.575,10.57544a14.659,14.659,0,0,0-19.73876.00006L19.55518,18.49518a5.77053,5.77053,0,1,0-1.06055,1.06048l10.57544,10.575a14.65907,14.65907,0,0,0-.00025,19.73846L18.49463,60.44427A5.71372,5.71372,0,0,0,15,59.25Zm50,1.5A4.25,4.25,0,1,1,60.75,65,4.25475,4.25475,0,0,1,65,60.75Zm0-50A4.25,4.25,0,1,1,60.75,15,4.25475,4.25475,0,0,1,65,10.75Zm-50,8.5A4.25,4.25,0,1,1,19.25,15,4.25475,4.25475,0,0,1,15,19.25ZM40.53027,40.53027l.002-.00146v-.00049l.001-.001.00391-.00341v-.00049l.001-.00147a.74947.74947,0,0,0,.18847-.33447v-.00342a.74258.74258,0,0,0,.0166-.08105v-.00049l.001-.00537a.90365.90365,0,0,0,.00586-.103V26.788a13.24087,13.24087,0,1,1-9.55957,23.08149ZM39.25,26.788V39.25H26.78809A13.24633,13.24633,0,0,1,39.25,26.788ZM26.78809,40.75H38.18945l-8.05932,8.059A13.17586,13.17586,0,0,1,26.78809,40.75ZM15,69.25A4.25,4.25,0,1,1,19.25,65,4.25475,4.25475,0,0,1,15,69.25Z"/></svg>