<svg xmlns="http://www.w3.org/2000/svg" viewBox="0 0 80 80"><path d="M20,50.75h2v-1.5H20a9.25,9.25,0,0,1,0-18.5,9.1545,9.1545,0,0,1,4.01562.92773.7491.7491,0,0,0,1.03126-.41992,15.9031,15.9031,0,0,1,30.79394,3.91455.75047.75047,0,0,0,1.207.52344A7.48766,7.48766,0,0,1,61.667,34.0835a7.58325,7.58325,0,0,1,0,15.1665H58v1.5h3.667a9.08325,9.08325,0,0,0,0-18.1665,8.88462,8.88462,0,0,0-4.49023,1.21875,17.404,17.404,0,0,0-33.251-3.80127A10.58906,10.58906,0,0,0,20,29.25a10.75,10.75,0,0,0,0,21.5Z"/><path d="M44.76953,37.25H35.23047a2.75311,2.75311,0,0,0-2.75,2.75v.63477H28.1543a2.44522,2.44522,0,0,0-2.44239,2.44238V58a2.75311,2.75311,0,0,0,2.75,2.75H51.53809a2.75311,2.75311,0,0,0,2.75-2.75V43.07715a2.44522,2.44522,0,0,0-2.44239-2.44238H47.51953V40A2.75311,2.75311,0,0,0,44.76953,37.25ZM33.98047,40a1.25116,1.25116,0,0,1,1.25-1.25h9.53906a1.25116,1.25116,0,0,1,1.25,1.25v.63477H33.98047ZM52.78809,58a1.25116,1.25116,0,0,1-1.25,1.25H28.46191a1.25116,1.25116,0,0,1-1.25-1.25V48.71387a2.4272,2.4272,0,0,0,.94239.18994H51.8457a2.4272,2.4272,0,0,0,.94239-.18994Zm-1.25-15.86523h.30761a.94358.94358,0,0,1,.94239.94238v3.38428a.94358.94358,0,0,1-.94239.94238H28.1543a.94358.94358,0,0,1-.94239-.94238V43.07715a.94358.94358,0,0,1,.94239-.94238H51.53809Z"/></svg>