<svg xmlns="http://www.w3.org/2000/svg" viewBox="0 0 80 80"><path d="M10,56.75H70a.7502.7502,0,0,0,.75-.75V40a.7502.7502,0,0,0-.75-.75H24.75V18h-1.5V39.25h-4.5V24h-1.5V39.25H10a.7502.7502,0,0,0-.75.75V56A.7502.7502,0,0,0,10,56.75Zm.75-16h58.5v14.5H10.75Z"/><rect x="23.25" y="48" width="1.5" height="4"/><rect x="17.25" y="50" width="1.5" height="2"/><rect x="29.25" y="46" width="1.5" height="6"/><rect x="35.25" y="44" width="1.5" height="8"/><circle cx="50" cy="48" r="1"/><circle cx="56" cy="48" r="1"/><circle cx="62" cy="48" r="1"/></svg>