<svg xmlns="http://www.w3.org/2000/svg" viewBox="0 0 80 80"><path d="M41.44629,56.04785l-.35742-1.457C38.29,55.27881,37.25,56.7417,37.25,59.98926A2.73926,2.73926,0,1,0,39.98926,57.25a2.69763,2.69763,0,0,0-.73609.11328A3.133,3.133,0,0,1,41.44629,56.04785ZM39.98926,58.75A1.23926,1.23926,0,1,1,38.75,59.98926,1.24064,1.24064,0,0,1,39.98926,58.75Z"/><path d="M10.52051,30.53955A42.17576,42.17576,0,0,1,40,18.75,42.17576,42.17576,0,0,1,69.47949,30.53955l1.041-1.0791A43.66483,43.66483,0,0,0,40,17.25,43.66483,43.66483,0,0,0,9.47949,29.46045Z"/><path d="M60.52148,39.46045a29.75127,29.75127,0,0,0-41.043,0l1.043,1.0791a28.24873,28.24873,0,0,1,38.957,0Z"/><path d="M50.52051,49.46045a15.24885,15.24885,0,0,0-21.041,0l1.041,1.0791a13.75116,13.75116,0,0,1,18.959,0Z"/></svg>