<svg xmlns="http://www.w3.org/2000/svg" viewBox="0 0 80 80"><path d="M43.35547,12.41406A27.57224,27.57224,0,0,0,17.40161,30.70312a9.72671,9.72671,0,0,0,.25318,19.22828A27.56276,27.56276,0,1,0,43.35547,12.41406Zm-32.584,27.88379a8.23926,8.23926,0,1,1,8.23926,8.23926A8.24881,8.24881,0,0,1,10.77148,40.29785Zm32.584,25.74561A26.17614,26.17614,0,0,1,19.31738,50.02161,9.73689,9.73689,0,0,0,28.72705,40.75H41.25V46h1.5V40.75h4.5V46h1.5V40.75h4.5V46h1.5V40a.7502.7502,0,0,0-.75-.75H28.69141a9.75,9.75,0,0,0-9.62574-8.6886,26.05885,26.05885,0,1,1,24.2898,35.48206Z"/></svg>