<svg xmlns="http://www.w3.org/2000/svg" viewBox="0 0 80 80"><polygon points="64 12.75 67.25 12.75 67.25 16 68.75 16 68.75 12.75 72 12.75 72 11.25 68.75 11.25 68.75 8 67.25 8 67.25 11.25 64 11.25 64 12.75"/><path d="M10,70.75H70a.7502.7502,0,0,0,.75-.75V58h-1.5V69.25H10.75V58H9.25V70A.7502.7502,0,0,0,10,70.75Z"/><path d="M10,52.75H70a.7502.7502,0,0,0,.75-.75V40h-1.5V51.25H10.75V40H9.25V52A.7502.7502,0,0,0,10,52.75Z"/><path d="M10,34.75H70a.7502.7502,0,0,0,.75-.75V22h-1.5V33.25H10.75V22H9.25V34A.7502.7502,0,0,0,10,34.75Z"/><path d="M39.25,8V24.18945l-5.6084-5.6084L32.58105,19.6416l6.88868,6.88867a.74971.74971,0,0,0,1.06054,0L47.419,19.6416,46.3584,18.58105,40.75,24.18945V8Z"/></svg>