<svg xmlns="http://www.w3.org/2000/svg" viewBox="0 0 80 80"><rect x="39.25" y="34" width="1.5" height="30"/><rect x="23.25" y="34" width="1.5" height="30"/><path d="M16,70.75H64a.7502.7502,0,0,0,.75-.75V10A.7502.7502,0,0,0,64,9.25H16a.7502.7502,0,0,0-.75.75V70A.7502.7502,0,0,0,16,70.75Zm32.75-60h14.5v58.5H48.75Zm-16,0h14.5v58.5H32.75Zm-16,0h14.5v58.5H16.75Z"/><rect x="55.25" y="34" width="1.5" height="30"/><circle cx="24" cy="16" r="1"/><circle cx="24" cy="22" r="1"/><circle cx="24" cy="28" r="1"/><circle cx="40" cy="16" r="1"/><circle cx="40" cy="22" r="1"/><circle cx="40" cy="28" r="1"/><circle cx="56" cy="16" r="1"/><circle cx="56" cy="22" r="1"/><circle cx="56" cy="28" r="1"/></svg>