<svg xmlns="http://www.w3.org/2000/svg" viewBox="0 0 80 80"><path d="M14,47.25a.7502.7502,0,0,0-.75.75v5.32587a4.75,4.75,0,1,0,1.5,0V48.75h24.5v4.57587a4.75,4.75,0,1,0,1.5,0V48.75h24.5v4.57587a4.75,4.75,0,1,0,1.5,0V48a.7502.7502,0,0,0-.75-.75H40.75v-8.5H54.44434a6.30567,6.30567,0,0,0,0-12.61133,6.14621,6.14621,0,0,0-2.80762.67676,11.85329,11.85329,0,0,0-22.48828-2.4668A7.30371,7.30371,0,0,0,26.667,23.9165a7.41675,7.41675,0,1,0,0,14.8335H39.25v8.5ZM17.25,58A3.25,3.25,0,1,1,14,54.75,3.25377,3.25377,0,0,1,17.25,58Zm52,0A3.25,3.25,0,1,1,66,54.75,3.25377,3.25377,0,0,1,69.25,58ZM26.667,37.25a5.91675,5.91675,0,1,1,0-11.8335,5.85984,5.85984,0,0,1,2.56836.59375.74908.74908,0,0,0,1.03125-.41992,10.35182,10.35182,0,0,1,20.04492,2.54785.75052.75052,0,0,0,1.207.523,4.74342,4.74342,0,0,1,2.92579-1.02246,4.80567,4.80567,0,0,1,0,9.61133ZM40,54.75A3.25,3.25,0,1,1,36.75,58,3.25377,3.25377,0,0,1,40,54.75Z"/></svg>