<svg xmlns="http://www.w3.org/2000/svg" viewBox="0 0 80 80"><path d="M12,62.70215H39.25V65.25H31.5459v1.5H48.4541v-1.5H40.75V62.70215H68a2.7528,2.7528,0,0,0,2.75-2.75V28.083A2.7528,2.7528,0,0,0,68,25.333H64v1.5h4a1.25116,1.25116,0,0,1,1.25,1.25V55.25H10.75V28.083A1.25116,1.25116,0,0,1,12,26.833h4v-1.5H12a2.7528,2.7528,0,0,0-2.75,2.75V59.95215A2.7528,2.7528,0,0,0,12,62.70215ZM10.75,56.75h58.5v3.20215a1.25116,1.25116,0,0,1-1.25,1.25H12a1.25116,1.25116,0,0,1-1.25-1.25Z"/><path d="M19.25,20V30a.7502.7502,0,0,0,.75.75H60a.7502.7502,0,0,0,.75-.75V20h-1.5v9.25H20.75V20Z"/><path d="M39.25,8V20.18945l-4.71973-4.71972-1.06054,1.06054,6,6a.74971.74971,0,0,0,1.06054,0l6-6-1.06054-1.06054L40.75,20.18945V8Z"/></svg>