<svg xmlns="http://www.w3.org/2000/svg" viewBox="0 0 80 80"><path d="M31.46973,37.46973l-6,6a.74972.74972,0,0,0,0,1.06054l6,6,1.06054-1.06054L27.06055,44l5.46972-5.46973Z"/><path d="M48.53027,37.46973l-1.06054,1.06054L52.93945,44l-5.46972,5.46973,1.06054,1.06054,6-6a.74972.74972,0,0,0,0-1.06054Z"/><rect x="27.18399" y="43.25015" width="25.63201" height="1.4997" transform="translate(-15.24007 66.01216) rotate(-69.45269)"/><path d="M9.25,16V64a.7502.7502,0,0,0,.75.75H70a.7502.7502,0,0,0,.75-.75V16a.7502.7502,0,0,0-.75-.75H10A.7502.7502,0,0,0,9.25,16Zm1.5.75h58.5v6.5H10.75Zm0,8h58.5v38.5H10.75Z"/><circle cx="16" cy="20" r="1"/><circle cx="22" cy="20" r="1"/><circle cx="28" cy="20" r="1"/></svg>