<svg xmlns="http://www.w3.org/2000/svg" viewBox="0 0 80 80"><path d="M42.75,18A2.75,2.75,0,1,0,40,20.75,2.7528,2.7528,0,0,0,42.75,18Zm-4,0A1.25,1.25,0,1,1,40,19.25,1.25116,1.25116,0,0,1,38.75,18Z"/><path d="M62.3208,24.75H63a7.75,7.75,0,1,0-5.61377-13.09814L44.344,25.31519A3.76825,3.76825,0,0,0,41,23.25H39A3.7541,3.7541,0,0,0,35.25,27v7.84229L23.40649,47.25H8v1.5H21.97461l-4.29541,4.5H17a7.75,7.75,0,1,0,5.61377,13.09814L39.41187,48.75H72v-1.5H40.84375ZM36.75,27A2.25246,2.25246,0,0,1,39,24.75h2a2.25592,2.25592,0,0,1,2.19055,1.77368L36.75,33.271ZM21.52881,65.312A6.25136,6.25136,0,1,1,17,54.75h1a.75087.75087,0,0,0,.54248-.23193L58.47119,12.688A6.25136,6.25136,0,1,1,63,23.25H62a.75087.75087,0,0,0-.54248.23193Z"/></svg>