<svg xmlns="http://www.w3.org/2000/svg" viewBox="0 0 80 80"><path d="M59.416,23.33838c0-7.38281-5.44873-15.32861-17.41114-15.32861H20.42822V71.99023h25.7417c11.2749,0,17.17432-8.31543,17.17432-16.52978a17.36073,17.36073,0,0,0-5.26563-12.53906,20.06841,20.06841,0,0,0-9.84326-5.10645A16.0483,16.0483,0,0,0,55.02686,33.896,14.6898,14.6898,0,0,0,59.416,23.33838ZM57.03174,43.99561a15.87225,15.87225,0,0,1,4.8125,11.46484c0,7.23877-4.90528,15.02978-15.67432,15.02978H21.92822V38.66748H42.00488C48.25879,38.66748,53.45459,40.50977,57.03174,43.99561ZM42.00488,37.16748H21.92822V9.50977H42.00488c10.93213,0,15.91114,7.16845,15.91114,13.82861a13.20191,13.20191,0,0,1-3.94141,9.48877C51.08984,35.6665,46.95117,37.16748,42.00488,37.16748Z"/></svg>