<svg xmlns="http://www.w3.org/2000/svg" viewBox="0 0 80 80"><path d="M61.05908,23.69067l1.61963,1.61988L63.73926,24.25l-4.29883-4.2998-1.06055,1.06054L59.999,22.63013l-1.78711,1.78662A26.61426,26.61426,0,0,0,42.751,17.40723V14.75H44a2.75,2.75,0,0,0,0-5.5H36a2.75,2.75,0,0,0,0,5.5h1.251v2.65674a26.61658,26.61658,0,0,0-15.68164,7.21753L19.8125,22.86694l1.61914-1.61889L20.37109,20.1875l-4.2998,4.29883,1.06055,1.06055,1.61962-1.61939,1.76026,1.76025a26.74586,26.74586,0,1,0,38.76855-.21826ZM36,13.25a1.25,1.25,0,0,1,0-2.5h8a1.25,1.25,0,0,1,0,2.5H36Zm5.251,1.5v2.54248q-1.24952-.05785-2.5,0V14.75ZM57.85449,61.85449a25.23829,25.23829,0,1,1,0-35.709A25.27737,25.27737,0,0,1,57.85449,61.85449Z"/><path d="M23.91309,27.91309a22.75033,22.75033,0,1,0,32.17382,0A22.7783,22.7783,0,0,0,23.91309,27.91309ZM55.02637,59.02637a21.23927,21.23927,0,1,1,0-30.05274A21.27887,21.27887,0,0,1,55.02637,59.02637Z"/><path d="M50.92578,34.12622l1.70313-1.70337L51.56836,31.3623l-1.70361,1.70362A14.67374,14.67374,0,0,0,40,29.25v1.5a13.18167,13.18167,0,0,1,8.80469,3.37622L41.418,41.51367a2.74645,2.74645,0,0,0-1.3916-.38769,2.77686,2.77686,0,1,0,2.77734,2.77636A2.73752,2.73752,0,0,0,42.46,42.59253l7.40576-7.406A13.22737,13.22737,0,0,1,40,57.25v1.5A14.72453,14.72453,0,0,0,50.92578,34.12622ZM40.02637,45.17969a1.27686,1.27686,0,1,1,1.27734-1.27735A1.27825,1.27825,0,0,1,40.02637,45.17969Z"/><circle cx="31" cy="28.41162" r="1"/><circle cx="40" cy="26" r="1"/><circle cx="49" cy="28.41162" r="1"/><circle cx="55.58838" cy="35" r="1"/><circle cx="58" cy="44" r="1"/><circle cx="55.58838" cy="53" r="1"/><circle cx="49" cy="59.58838" r="1"/><circle cx="40" cy="62" r="1"/><circle cx="31" cy="59.58838" r="1"/><circle cx="24.41162" cy="53" r="1"/><circle cx="22" cy="44" r="1"/><circle cx="24.41162" cy="35" r="1"/></svg>