<svg xmlns="http://www.w3.org/2000/svg" viewBox="0 0 80 80"><path d="M70,17.25H10a.7502.7502,0,0,0-.75.75V62a.7502.7502,0,0,0,.75.75H70a.7502.7502,0,0,0,.75-.75V18A.7502.7502,0,0,0,70,17.25ZM40.77344,34.82593a5.22456,5.22456,0,0,1,0,10.34814ZM10.75,30.75h6.5v18.5h-6.5ZM39.27344,45.17407a5.22456,5.22456,0,0,1,0-10.34814Zm0-11.87988a6.74732,6.74732,0,0,0,0,13.41162V61.25H10.75V50.75H18a.7502.7502,0,0,0,.75-.75V46.70581a6.74732,6.74732,0,0,0,0-13.41162V30a.7502.7502,0,0,0-.75-.75H10.75V18.75H39.27344ZM18.75,45.19629V34.80371a5.25016,5.25016,0,0,1,0,10.39258ZM69.25,49.25h-6.5V30.75h6.5Zm0-20H62a.7502.7502,0,0,0-.75.75v3.29419a6.74732,6.74732,0,0,0,0,13.41162V50a.7502.7502,0,0,0,.75.75h7.25v10.5H40.77344V46.70581a6.74732,6.74732,0,0,0,0-13.41162V18.75H69.25Zm-8,5.55371V45.19629a5.25016,5.25016,0,0,1,0-10.39258Z"/><circle cx="14" cy="40" r="1"/><circle cx="28" cy="38" r="1"/><circle cx="30" cy="44" r="1"/><circle cx="36" cy="48" r="1"/><circle cx="32" cy="48" r="1"/><circle cx="34" cy="52" r="1"/><circle cx="26" cy="52" r="1"/><circle cx="28" cy="56" r="1"/><circle cx="44" cy="56" r="1"/><circle cx="48" cy="52" r="1"/><circle cx="52" cy="50" r="1"/><circle cx="48.01147" cy="46" r="1"/><circle cx="50" cy="38" r="1"/><circle cx="56" cy="32" r="1"/><circle cx="66" cy="40" r="1"/><circle cx="52" cy="30" r="1"/><circle cx="48.01147" cy="30" r="1"/><circle cx="48.01147" cy="26" r="1"/><circle cx="30" cy="34" r="1"/><circle cx="32" cy="30" r="1"/><circle cx="26" cy="30" r="1"/></svg>