<svg xmlns="http://www.w3.org/2000/svg" viewBox="0 0 80 80"><path d="M54,47.25H50a.7502.7502,0,0,0-.75.75v4a.74942.74942,0,0,0,.21973.53027l2,2a.74971.74971,0,0,0,1.06054,0l2-2A.74942.74942,0,0,0,54.75,52V48A.7502.7502,0,0,0,54,47.25Zm-.75,4.43945-1.25,1.25-1.25-1.25V48.75h2.5Z"/><path d="M40,51.25A4.7554,4.7554,0,0,0,35.25,56v8a4.75,4.75,0,0,0,9.5,0V56A4.7554,4.7554,0,0,0,40,51.25ZM43.25,64a3.25,3.25,0,0,1-6.5,0V56a3.25,3.25,0,0,1,6.5,0Z"/><path d="M40,34.75A12.75,12.75,0,1,0,27.25,22,12.76457,12.76457,0,0,0,40,34.75Zm0-24A11.25,11.25,0,1,1,28.75,22,11.26294,11.26294,0,0,1,40,10.75Z"/><path d="M52,39.25H28A12.76457,12.76457,0,0,0,15.25,52V72h1.5V52A11.26294,11.26294,0,0,1,28,40.75h3.68945l7.78028,7.78027a.74971.74971,0,0,0,1.06054,0L48.31055,40.75H52A11.26294,11.26294,0,0,1,63.25,52V72h1.5V52A12.76457,12.76457,0,0,0,52,39.25ZM40,46.93945,33.81055,40.75h12.3789Z"/></svg>