<svg xmlns="http://www.w3.org/2000/svg" viewBox="0 0 80 80"><path d="M60,39.25H20A8.75935,8.75935,0,0,0,11.25,48V60a.7502.7502,0,0,0,.75.75h3.25V72h1.5V64.75h6.5V72h1.5V59.25h-12V48A7.25771,7.25771,0,0,1,20,40.75H30.3667a10.73337,10.73337,0,0,0,19.2666,0H60A7.25771,7.25771,0,0,1,67.25,48V59.25h-12V72h1.5V64.75h6.5V72h1.5V60.75H68a.7502.7502,0,0,0,.75-.75V48A8.75935,8.75935,0,0,0,60,39.25ZM16.75,60.75h6.5v2.5h-6.5ZM40,45.25a9.2488,9.2488,0,0,1-7.93359-4.5H47.93359A9.2488,9.2488,0,0,1,40,45.25Zm23.25,18h-6.5v-2.5h6.5Z"/><path d="M54.75,22A12.76457,12.76457,0,0,0,42,9.25H38A12.76457,12.76457,0,0,0,25.25,22v5A7.75868,7.75868,0,0,0,33,34.75c.04785,0,.09424-.00635.14209-.00732A12.69328,12.69328,0,0,0,40,36.75H56a.7502.7502,0,0,0,.75-.75V28a.7502.7502,0,0,0-.75-.75H52.31445A12.70245,12.70245,0,0,0,52.75,24c0-.41821-.02637-.83521-.06738-1.25H54A.7502.7502,0,0,0,54.75,22ZM41.25,35.17627a11.07267,11.07267,0,0,1-5.72217-.85815A7.74137,7.74137,0,0,0,38.17773,32.75H41.25ZM50.18359,28.75a11.26066,11.26066,0,0,1-1.59521,2.5H39.47314a7.71414,7.71414,0,0,0,1.07032-2.5Zm-9.44629-1.5c.00293-.08374.0127-.16553.0127-.25V22.75H51.17285A11.46755,11.46755,0,0,1,51.25,24a11.204,11.204,0,0,1-.48291,3.25Zm2.0127,5.5h4.30518A11.21022,11.21022,0,0,1,42.75,34.89575Zm12.5,2.5H45.9873a12.82158,12.82158,0,0,0,3.26172-2.5H55.25Zm0-6.5v2.5H50.4751a12.75683,12.75683,0,0,0,1.34765-2.5ZM40,21.25a.7502.7502,0,0,0-.75.75v5a6.25,6.25,0,0,1-12.5,0V22A11.26294,11.26294,0,0,1,38,10.75h4a11.26578,11.26578,0,0,1,11.22559,10.5Z"/><path d="M33.12207,25.25a2.75,2.75,0,1,0,2.75,2.75A2.7528,2.7528,0,0,0,33.12207,25.25Zm0,4a1.25,1.25,0,1,1,1.25-1.25A1.25116,1.25116,0,0,1,33.12207,29.25Z"/><path d="M40,66.75A4.7554,4.7554,0,0,0,44.75,62V56a4.75,4.75,0,0,0-9.5,0v6A4.7554,4.7554,0,0,0,40,66.75ZM36.75,56a3.25,3.25,0,0,1,6.5,0v6a3.25,3.25,0,0,1-6.5,0Z"/></svg>