<svg xmlns="http://www.w3.org/2000/svg" viewBox="0 0 80 80"><path d="M58,27.25H22a.7502.7502,0,0,0-.75.75V52a.7502.7502,0,0,0,.75.75H58a.7502.7502,0,0,0,.75-.75V28A.7502.7502,0,0,0,58,27.25ZM40.76172,36.844a3.24055,3.24055,0,0,1,0,6.31006ZM22.75,34.75h2.5v10.5h-2.5Zm16.51172,8.404a3.24055,3.24055,0,0,1,0-6.31006Zm0-7.83032a4.73212,4.73212,0,0,0,0,9.35059V51.25H22.75v-4.5H26a.7502.7502,0,0,0,.75-.75V44.67432a4.73212,4.73212,0,0,0,0-9.35059V34a.7502.7502,0,0,0-.75-.75H22.75v-4.5H39.26172ZM26.75,43.16309V36.835a3.252,3.252,0,0,1,0,6.32813ZM57.25,45.25h-2.5V44.00488L54.751,44v-8.002l-.001-.00489V34.75h2.5Zm0-12H54a.7502.7502,0,0,0-.75.75v1.324a4.732,4.732,0,0,0,0,9.3501V46a.7502.7502,0,0,0,.75.75h3.25v4.5H40.76172V44.67432a4.73212,4.73212,0,0,0,0-9.35059V28.75H57.25Zm-4,3.58521v6.32763a3.25195,3.25195,0,0,1,0-6.32763Z"/><path d="M60,23.25H20A2.7528,2.7528,0,0,0,17.25,26V54A2.7528,2.7528,0,0,0,20,56.75H60A2.7528,2.7528,0,0,0,62.75,54V26A2.7528,2.7528,0,0,0,60,23.25ZM61.25,54A1.25116,1.25116,0,0,1,60,55.25H20A1.25116,1.25116,0,0,1,18.75,54V26A1.25116,1.25116,0,0,1,20,24.75H60A1.25116,1.25116,0,0,1,61.25,26Z"/><path d="M60,19.25H20A6.758,6.758,0,0,0,13.25,26V54A6.758,6.758,0,0,0,20,60.75H60A6.758,6.758,0,0,0,66.75,54V26A6.758,6.758,0,0,0,60,19.25ZM65.25,54A5.25637,5.25637,0,0,1,60,59.25H20A5.25637,5.25637,0,0,1,14.75,54V26A5.25637,5.25637,0,0,1,20,20.75H60A5.25637,5.25637,0,0,1,65.25,26Z"/><path d="M60,15.25H20A10.762,10.762,0,0,0,9.25,26V54A10.762,10.762,0,0,0,20,64.75H60A10.762,10.762,0,0,0,70.75,54V26A10.762,10.762,0,0,0,60,15.25ZM69.25,54A9.26032,9.26032,0,0,1,60,63.25H20A9.26032,9.26032,0,0,1,10.75,54V26A9.26032,9.26032,0,0,1,20,16.75H60A9.26032,9.26032,0,0,1,69.25,26Z"/></svg>