<svg xmlns="http://www.w3.org/2000/svg" viewBox="0 0 80 80"><path d="M34.25,15A5.75,5.75,0,1,0,40,9.25,5.75608,5.75608,0,0,0,34.25,15Zm10,0A4.25,4.25,0,1,1,40,10.75,4.25444,4.25444,0,0,1,44.25,15Z"/><path d="M54,61.25A4.75,4.75,0,1,0,58.75,66,4.7554,4.7554,0,0,0,54,61.25Zm0,8A3.25,3.25,0,1,1,57.25,66,3.25377,3.25377,0,0,1,54,69.25Z"/><path d="M50.75,44V28A4.7554,4.7554,0,0,0,46,23.25H34A4.7554,4.7554,0,0,0,29.25,28V44A2.7528,2.7528,0,0,0,32,46.75a2.71455,2.71455,0,0,0,1.25-.31445V70a.7502.7502,0,0,0,.75.75H46a.7502.7502,0,0,0,.75-.75V46.43555A2.71455,2.71455,0,0,0,48,46.75,2.7528,2.7528,0,0,0,50.75,44ZM42.18945,24.75,40,26.93945,37.81055,24.75ZM33.25,44a1.25,1.25,0,0,1-2.5,0V36.75h2.5Zm6,25.25h-4.5V69a2.25,2.25,0,0,1,4.5,0Zm0-3.23071a3.675,3.675,0,0,0-4.5,0V56.75h4.5Zm6,3.23071h-4.5V69a2.25,2.25,0,0,1,4.5,0Zm0-3.23071a3.675,3.675,0,0,0-4.5,0V56.75h4.5ZM45.25,48v7.25h-4.5V50a.75.75,0,0,0-1.5,0v5.25h-4.5V44.75h10.5Zm4-4a1.25,1.25,0,0,1-2.5,0V36.75h2.5Zm0-8.75h-2.5V32h-1.5V43.25H34.75V32h-1.5v3.25h-2.5V28A3.25377,3.25377,0,0,1,34,24.75h1.68945l3.78028,3.78027a.74971.74971,0,0,0,1.06054,0L44.31055,24.75H46A3.25377,3.25377,0,0,1,49.25,28Z"/><path d="M40,31.25A2.7528,2.7528,0,0,0,37.25,34v4a2.75,2.75,0,0,0,5.5,0V34A2.7528,2.7528,0,0,0,40,31.25ZM41.25,38a1.25,1.25,0,0,1-2.5,0V34a1.25,1.25,0,0,1,2.5,0Z"/></svg>