<svg xmlns="http://www.w3.org/2000/svg" viewBox="0 0 80 80"><path d="M14.53027,70.53027,28.77344,56.28809A5.21026,5.21026,0,0,1,32.48535,54.75H47A2.25278,2.25278,0,0,1,49.25,57a2.3,2.3,0,0,1-.70312,1.45532l-.0542.05445.00122.00122a2.20452,2.20452,0,0,1-1.428.73022L35.99951,59.25l.001,1.5,11.06592-.00879a3.706,3.706,0,0,0,2.553-1.23633L62.55029,46.50977a2.05351,2.05351,0,0,1,2.89942,0,2.11066,2.11066,0,0,1,0,2.98046L51.22656,63.71191A5.21026,5.21026,0,0,1,47.51465,65.25h-14.686a2.732,2.732,0,0,0-1.94482.80566l-3.41406,3.41407,1.06054,1.06054,3.41407-3.41406a1.242,1.242,0,0,1,.88427-.36621h14.686a6.70134,6.70134,0,0,0,4.77295-1.97754L66.51025,50.55078a3.6119,3.6119,0,0,0,0-5.10156,3.55649,3.55649,0,0,0-5.022.001l-1.417,1.42407-.59961-.56763a3.54049,3.54049,0,0,0-4.92969.04785l-6.91626,6.95874A3.72423,3.72423,0,0,0,47,53.25H32.48535a6.70134,6.70134,0,0,0-4.77295,1.97754L13.46973,69.46973ZM55.59814,47.419a2.042,2.042,0,0,1,2.84229-.02247l.57214.54151-8.33215,8.37329a3.75043,3.75043,0,0,0-1.54688-2.38843Z"/><path d="M40,44.75a.75118.75118,0,0,0,.53271-.22168l16.55713-16.706a10.836,10.836,0,0,0,0-15.3877,10.982,10.982,0,0,0-15.43408-.03027L40,13.86621l-1.623-1.43164a10.99474,10.99474,0,0,0-15.46679,0,10.83595,10.83595,0,0,0-.00391,15.38379l16.561,16.71A.75118.75118,0,0,0,40,44.75ZM21.20459,20.12793A9.28635,9.28635,0,0,1,23.96777,13.499a9.50216,9.50216,0,0,1,13.38428.03028l2.15186,1.89941a.75.75,0,0,0,.99218,0L42.68066,13.499a9.48991,9.48991,0,0,1,13.35157,0,9.33422,9.33422,0,0,1-.00391,13.2627L40,42.93457,23.96777,26.75781A9.28822,9.28822,0,0,1,21.20459,20.12793Z"/><polygon points="40.75 32 40.75 26.75 46 26.75 46 25.25 40.75 25.25 40.75 20 39.25 20 39.25 25.25 34 25.25 34 26.75 39.25 26.75 39.25 32 40.75 32"/></svg>