<svg xmlns="http://www.w3.org/2000/svg" viewBox="0 0 80 80"><path d="M16.499,51.501a24.73236,24.73236,0,0,0,34.44483.50341L69.46973,70.53027l1.06054-1.06054L52.00439,50.94385A24.737,24.737,0,1,0,16.499,51.501Zm1.06055-33.94141a23.25028,23.25028,0,1,1,0,32.88086A23.17748,23.17748,0,0,1,17.55957,17.55957Z"/><path d="M19.90869,36.76465,33.46582,50.52637a.74981.74981,0,0,0,1.06836,0L48.08691,36.76855A9.08955,9.08955,0,0,0,35.26367,23.88281L34,25.00488l-1.23145-1.09179A9.09036,9.09036,0,0,0,19.90869,36.76465Zm1.06445-11.791a7.59236,7.59236,0,0,1,10.76709.03028L33.502,26.56836a.75084.75084,0,0,0,.9961,0L36.292,24.97363A7.59035,7.59035,0,1,1,47.02246,35.71191L34,48.93164,20.97314,35.708a7.59041,7.59041,0,0,1,0-10.73438Z"/><polygon points="33.25 38 34.75 38 34.75 34.75 38 34.75 38 33.25 34.75 33.25 34.75 30 33.25 30 33.25 33.25 30 33.25 30 34.75 33.25 34.75 33.25 38"/></svg>