<svg xmlns="http://www.w3.org/2000/svg" viewBox="0 0 80 80"><path d="M27.25,22A12.75,12.75,0,1,0,40,9.25,12.76457,12.76457,0,0,0,27.25,22Zm1.57373,1.25024,2.53235,1.26612,1.55017,6.20483A11.23981,11.23981,0,0,1,28.82373,23.25024ZM45.24194,31.946a11.18832,11.18832,0,0,1-10.48388,0L32.9502,24.71A8.46711,8.46711,0,0,0,36.335,23.6709a7.7536,7.7536,0,0,1,7.33008,0A8.46711,8.46711,0,0,0,47.0498,24.71Zm1.85181-1.22485,1.55017-6.20483,2.53235-1.26612A11.23981,11.23981,0,0,1,47.09375,30.72119Zm4.1333-9.17309-3.39331,1.69677A7.058,7.058,0,0,1,44.335,22.3291a9.24675,9.24675,0,0,0-8.66992,0,7.058,7.058,0,0,1-3.49878.91577L28.773,21.5481a11.23557,11.23557,0,0,1,22.4541,0Z"/><path d="M64.75,72V52A12.76457,12.76457,0,0,0,52,39.25H28A12.76457,12.76457,0,0,0,15.25,52V72h1.5V52A11.26294,11.26294,0,0,1,28,40.75H52A11.26294,11.26294,0,0,1,63.25,52V72Z"/><path d="M48,60.75a.75072.75072,0,0,0,.53418-.22363l6.77441-6.877A4.92041,4.92041,0,0,0,51.83008,45.25h-.001a4.85481,4.85481,0,0,0-3.44629,1.41113L47.999,47.001l-.34961-.30957a4.92005,4.92005,0,0,0-6.96191,6.9541l6.77832,6.88086A.75072.75072,0,0,0,48,60.75ZM40.75,50.1709a3.41087,3.41087,0,0,1,3.40918-3.415,3.47594,3.47594,0,0,1,2.46191,1.02637l.88086.78222a.75082.75082,0,0,0,.9961,0l.91308-.8125a3.42022,3.42022,0,1,1,4.833,4.84082L48,58.93164l-6.248-6.34277A3.39657,3.39657,0,0,1,40.75,50.1709Z"/></svg>