<svg xmlns="http://www.w3.org/2000/svg" viewBox="0 0 80 80"><path d="M64.04053,31.25l-6.00464-.04565-.00122-.00025h-.09229c-3.76465,0-6.08447-1.3916-8.53955-2.86328C46.86963,26.82129,44.25049,25.25,40.03467,25.25c-4.22363,0-6.85987,1.5752-9.40918,3.09961-2.45557,1.46777-4.77637,2.85449-8.49951,2.85449h-.08692l-.01025.00171V31.2041L16,31.25a6.51569,6.51569,0,0,0-6.71533,6.74414A6.50285,6.50285,0,0,0,15.96436,44.75h5.5415c2.113,5.13745,12.94116,10,18.49414,10,5.57764,0,16.44666-4.86182,18.563-10H64.0708A6.50247,6.50247,0,0,0,70.75,37.99414,6.51432,6.51432,0,0,0,64.04053,31.25Zm-42.75586,12H15.96436a4.99836,4.99836,0,0,1-5.17969-5.25586A5.01256,5.01256,0,0,1,16.00586,32.75l5.27881-.04Zm36,.63867C55.92139,48.16309,45.58691,53.25,40,53.25c-5.56006,0-15.85254-5.08691-17.21533-9.36133V32.69043c3.76074-.15527,6.22412-1.627,8.61035-3.05371C33.87891,28.15234,36.2251,26.75,40.03467,26.75c3.80029,0,6.13037,1.39746,8.59668,2.877,2.38818,1.43262,4.85156,2.91016,8.65332,3.06446ZM64.0708,43.25H58.78467V32.71l5.25.04A5.01113,5.01113,0,0,1,69.25,37.99414,4.998,4.998,0,0,1,64.0708,43.25Z"/><path d="M31.55322,32.38867l.89307,1.20508c.03857-.02832,3.89014-2.84375,7.58838-2.84375,3.69433,0,7.47656,2.81152,7.51416,2.83984l.90283-1.19726c-.16992-.12891-4.21436-3.14258-8.417-3.14258C35.83545,29.25,31.72607,32.26074,31.55322,32.38867Z"/></svg>