<svg xmlns="http://www.w3.org/2000/svg" viewBox="0 0 80 80"><path d="M60.75977,70V26c0-.01709-.00855-.03149-.00977-.04834V10A.7502.7502,0,0,0,60,9.25H20.02832a.7502.7502,0,0,0-.75.75V25.9082A.71874.71874,0,0,0,19.25977,26V70a.75019.75019,0,0,0,.75.75h40A.7502.7502,0,0,0,60.75977,70ZM20.77832,10.75H59.25v14.5H20.77832Zm10.48535,58.5H20.75977v-6.5h10.5039Zm16,0h-14.5v-6.5h14.5Zm11.9961,0H48.76367v-6.5h10.4961Zm0-8h-38.5V26.75h38.5Z"/><rect x="23.25" y="54" width="1.5" height="4"/><rect x="31.25" y="54" width="1.5" height="4"/><rect x="39.25" y="54" width="1.5" height="4"/><rect x="47.25" y="54" width="1.5" height="4"/><rect x="55.25" y="54" width="1.5" height="4"/><rect x="23.25" y="46" width="1.5" height="4"/><rect x="31.25" y="46" width="1.5" height="4"/><rect x="39.25" y="46" width="1.5" height="4"/><rect x="47.25" y="46" width="1.5" height="4"/><rect x="55.25" y="46" width="1.5" height="4"/><rect x="23.25" y="38" width="1.5" height="4"/><rect x="31.25" y="38" width="1.5" height="4"/><rect x="39.25" y="38" width="1.5" height="4"/><rect x="47.25" y="38" width="1.5" height="4"/><rect x="55.25" y="38" width="1.5" height="4"/><path d="M66.75,70V66.63281a2.75,2.75,0,1,0-1.5,0V70Zm-2-6A1.25,1.25,0,1,1,66,65.25,1.25116,1.25116,0,0,1,64.75,64Z"/><path d="M14.75,70V66.63281a2.75,2.75,0,1,0-1.5,0V70Zm-2-6A1.25,1.25,0,1,1,14,65.25,1.25116,1.25116,0,0,1,12.75,64Z"/><polygon points="39.25 22 40.75 22 40.75 18.75 44 18.75 44 17.25 40.75 17.25 40.75 14 39.25 14 39.25 17.25 36 17.25 36 18.75 39.25 18.75 39.25 22"/><rect x="23.25" y="30" width="1.5" height="4"/><rect x="31.25" y="30" width="1.5" height="4"/><rect x="39.25" y="30" width="1.5" height="4"/><rect x="47.25" y="30" width="1.5" height="4"/><rect x="55.25" y="30" width="1.5" height="4"/><circle cx="24" cy="66" r="1"/><circle cx="56" cy="66" r="1"/></svg>