<svg xmlns="http://www.w3.org/2000/svg" viewBox="0 0 80 80"><path d="M30,30.75H50a.7502.7502,0,0,0,.75-.75V18a.7502.7502,0,0,0-.75-.75H30a.7502.7502,0,0,0-.75.75V30A.7502.7502,0,0,0,30,30.75Zm.75-12h18.5v10.5H30.75Z"/><path d="M63,51.90918a5.56339,5.56339,0,0,0,5.75-5.3418V17.25h-1.5v6.48633l-3.83594,4.79492A.75048.75048,0,0,0,63.25,29v5a.7502.7502,0,0,0,.75.75h3.25V46.56738a4.27169,4.27169,0,0,1-8.5,0V10A.7502.7502,0,0,0,58,9.25H21.63281a.7502.7502,0,0,0-.75.75V69.25H11.69922v1.5H68.30078v-1.5H58.75V50.15283A5.93267,5.93267,0,0,0,63,51.90918ZM64.75,33.25V29.2627l2.5-3.125V33.25Zm-7.5,12.56738V69.25H22.38281V10.75H57.25Z"/><rect x="29.25" y="35.25" width="21.5" height="1.5"/></svg>