<svg xmlns="http://www.w3.org/2000/svg" viewBox="0 0 80 80"><path d="M63.39258,35.82324H58.978l-4.876-8.64746A5.75892,5.75892,0,0,0,49.09326,24.25H16.22412a5.7382,5.7382,0,0,0-5.666,4.77051L9.2749,36.44531c-.00354.02051.00464.04029.00293.06055-.0022.02344-.01367.04346-.01367.06738V45a4.74427,4.74427,0,0,0,4.0343,4.67773A6.74856,6.74856,0,0,0,26.72,49.75H53.30835a6.74448,6.74448,0,0,0,13.43274-.29492h3.27307a.7502.7502,0,0,0,.75-.75V43.19531A7.37973,7.37973,0,0,0,63.39258,35.82324ZM40.76416,25.75h8.3291a4.256,4.256,0,0,1,3.70215,2.16211l4.46094,7.91113H40.76416ZM26.75,25.75H39.26416V35.82324H26.75ZM12.03662,29.27637A4.24059,4.24059,0,0,1,16.22412,25.75H25.25V35.82324H10.90479ZM20.01416,54.25a5.25,5.25,0,1,1,5.25-5.25A5.25605,5.25605,0,0,1,20.01416,54.25Zm40,0a5.25,5.25,0,1,1,5.25-5.25A5.25605,5.25605,0,0,1,60.01416,54.25Zm9.25-6.29492H66.6748A6.74407,6.74407,0,0,0,53.30835,48.25H26.72a6.74579,6.74579,0,0,0-13.39966-.07861A3.25268,3.25268,0,0,1,10.76416,45V37.32324H63.39258a5.87809,5.87809,0,0,1,5.87158,5.87207Z"/></svg>