<svg xmlns="http://www.w3.org/2000/svg" viewBox="0 0 80 80"><path d="M67.01416,25.25h-54a3.75442,3.75442,0,0,0-3.75,3.75V47a3.75442,3.75442,0,0,0,3.75,3.75h2.32593a4.73087,4.73087,0,0,0,9.34814,0H55.34009a4.73087,4.73087,0,0,0,9.34814,0h2.32593a3.75442,3.75442,0,0,0,3.75-3.75V29A3.75442,3.75442,0,0,0,67.01416,25.25Zm-16.25,1.5h8.5v8.88135a14.54811,14.54811,0,0,0-3.25-.38135h-5.25Zm-20,0h8.5v8.5h-8.5Zm-10,0h8.5v8.5h-8.5Zm-10,2.25a2.25278,2.25278,0,0,1,2.25-2.25h6.25v8.5h-8.5Zm9.25,24.25a3.25,3.25,0,1,1,3.25-3.25A3.25377,3.25377,0,0,1,20.01416,53.25Zm29.25-4H24.68823a4.73087,4.73087,0,0,0-9.34814,0H13.01416a2.25278,2.25278,0,0,1-2.25-2.25V36.75h38.5Zm0-14h-8.5v-8.5h8.5Zm6.07593,14H50.76416V36.75h5.25a13.07564,13.07564,0,0,1,3.25.41992v8.156A4.73734,4.73734,0,0,0,55.34009,49.25Zm4.67407,4a3.25,3.25,0,1,1,3.25-3.25A3.25377,3.25377,0,0,1,60.01416,53.25Zm7-4H64.68823a4.73734,4.73734,0,0,0-3.92407-3.92407V37.64307a13.30215,13.30215,0,0,1,8.3219,10.23364A2.25364,2.25364,0,0,1,67.01416,49.25Zm2.25-5.69141a14.89053,14.89053,0,0,0-8.5-7.5V26.75h6.25a2.25278,2.25278,0,0,1,2.25,2.25Z"/></svg>