<svg xmlns="http://www.w3.org/2000/svg" viewBox="0 0 80 80"><path d="M64.75,16A2.74218,2.74218,0,0,0,60,14.12451a2.72425,2.72425,0,0,0-4,0,2.72425,2.72425,0,0,0-4,0A2.74218,2.74218,0,0,0,47.25,16v3.25H44.31055l-6.02246-6.02344A6.71313,6.71313,0,0,0,33.51465,11.25H32.75V8h-1.5v7.25H20.75V8h-1.5v7.25H16A2.74218,2.74218,0,0,0,14.12451,20a2.72425,2.72425,0,0,0,0,4,2.72425,2.72425,0,0,0,0,4A2.74218,2.74218,0,0,0,16,32.75h3.25v2.93945l-6.02246,6.02246A6.70666,6.70666,0,0,0,11.25,46.48535V47.25H8v1.5h7.25v10.5H8v1.5h7.25V64A2.74218,2.74218,0,0,0,20,65.87549a2.72425,2.72425,0,0,0,4,0,2.72425,2.72425,0,0,0,4,0A2.74218,2.74218,0,0,0,32.75,64V60.75h2.93945l6.02246,6.02246A6.70666,6.70666,0,0,0,46.48535,68.75H47.25V72h1.5V64.75h10.5V72h1.5V64.75H64A2.74218,2.74218,0,0,0,65.87549,60a2.72425,2.72425,0,0,0,0-4,2.72425,2.72425,0,0,0,0-4A2.74218,2.74218,0,0,0,64,47.25H60.75V44.31055l6.02246-6.02246A6.70666,6.70666,0,0,0,68.75,33.51465V32.75H72v-1.5H64.75V20.75H72v-1.5H64.75ZM31.25,64a1.25,1.25,0,0,1-2.5,0V56a.75.75,0,0,0-1.5,0v8a1.25,1.25,0,0,1-2.5,0V56a.75.75,0,0,0-1.5,0v8a1.25,1.25,0,0,1-2.5,0V56a.75.75,0,0,0-1.5,0v8a1.25,1.25,0,0,1-2.5,0V48a.7502.7502,0,0,0-.75-.75H12.75v-.76465a5.21588,5.21588,0,0,1,1.53809-3.71289l6.24218-6.24219A.74942.74942,0,0,0,20.75,36V32.75h10.5ZM16,31.25a1.25,1.25,0,0,1,0-2.5h8a.75.75,0,0,0,0-1.5H16a1.25,1.25,0,0,1,0-2.5h8a.75.75,0,0,0,0-1.5H16a1.25,1.25,0,0,1,0-2.5h8a.75.75,0,0,0,0-1.5H16a1.25,1.25,0,0,1,0-2.5H32a.7502.7502,0,0,0,.75-.75V12.75h.76465a5.22114,5.22114,0,0,1,3.71289,1.5376l6.24219,6.24267A.74942.74942,0,0,0,44,20.75h3.25v10.5Zm31.25,1.5v14.5H32.75V32.75ZM64,48.75a1.25,1.25,0,0,1,0,2.5H56a.75.75,0,0,0,0,1.5h8a1.25,1.25,0,0,1,0,2.5H56a.75.75,0,0,0,0,1.5h8a1.25,1.25,0,0,1,0,2.5H56a.75.75,0,0,0,0,1.5h8a1.25,1.25,0,0,1,0,2.5H48a.7502.7502,0,0,0-.75.75v3.25h-.76465a5.21588,5.21588,0,0,1-3.71289-1.53809l-6.24219-6.24218A.74942.74942,0,0,0,36,59.25H32.75V48.75Zm3.25-16v.76465a5.21588,5.21588,0,0,1-1.53809,3.71289l-6.24218,6.24219A.74942.74942,0,0,0,59.25,44v3.25H48.75V16a1.25,1.25,0,0,1,2.5,0v8a.75.75,0,0,0,1.5,0V16a1.25,1.25,0,0,1,2.5,0v8a.75.75,0,0,0,1.5,0V16a1.25,1.25,0,0,1,2.5,0v8a.75.75,0,0,0,1.5,0V16a1.25,1.25,0,0,1,2.5,0V32a.7502.7502,0,0,0,.75.75Z"/></svg>