<svg xmlns="http://www.w3.org/2000/svg" viewBox="0 0 80 80"><path d="M48.75,52v-.15332a14.69532,14.69532,0,0,0,0-23.69336V28h-.20508A14.72558,14.72558,0,0,0,26,44.615v.135h.04956A14.70591,14.70591,0,0,0,48.54492,52Zm-9.5-25.21191V28A3.25377,3.25377,0,0,1,36,31.25,4.7554,4.7554,0,0,0,31.25,36,3.25377,3.25377,0,0,1,28,39.25H26.78809A13.2464,13.2464,0,0,1,39.25,26.78809Zm-2,26.17089a13.288,13.288,0,0,1-9.60449-8.209H34A3.25377,3.25377,0,0,1,37.25,48Zm10-1.88208A13.16349,13.16349,0,0,1,40,53.25c-.42188,0-.83789-.02466-1.25-.06348V48A4.7554,4.7554,0,0,0,34,43.25H27.16992a13.17945,13.17945,0,0,1-.38183-2.5H28A4.7554,4.7554,0,0,0,32.75,36,3.25377,3.25377,0,0,1,36,32.75,4.7554,4.7554,0,0,0,40.75,28V26.78809a13.15563,13.15563,0,0,1,6.5,2.135V32A3.25377,3.25377,0,0,1,44,35.25a4.75,4.75,0,0,0,0,9.5A3.25377,3.25377,0,0,1,47.25,48ZM44,43.25a3.25,3.25,0,0,1,0-6.5A4.7554,4.7554,0,0,0,48.75,32V30.07666a13.19141,13.19141,0,0,1,0,19.84668V48A4.7554,4.7554,0,0,0,44,43.25Z"/><path d="M42.75,12A2.75,2.75,0,1,0,40,14.75,2.7528,2.7528,0,0,0,42.75,12Zm-4,0A1.25,1.25,0,1,1,40,13.25,1.25116,1.25116,0,0,1,38.75,12Z"/><path d="M44.75,22V21A3.75442,3.75442,0,0,0,41,17.25H39A3.75442,3.75442,0,0,0,35.25,21v1h1.5V21A2.25278,2.25278,0,0,1,39,18.75h2A2.25278,2.25278,0,0,1,43.25,21v1Z"/><path d="M37.25,68A2.75,2.75,0,1,0,40,65.25,2.7528,2.7528,0,0,0,37.25,68Zm4,0A1.25,1.25,0,1,1,40,66.75,1.25116,1.25116,0,0,1,41.25,68Z"/><path d="M44.75,59V58h-1.5v1A2.25309,2.25309,0,0,1,41,61.25H39A2.25309,2.25309,0,0,1,36.75,59V58h-1.5v1A3.75473,3.75473,0,0,0,39,62.75h2A3.75473,3.75473,0,0,0,44.75,59Z"/><path d="M22.14551,18.25635a2.81376,2.81376,0,0,0-3.88867,0,2.74988,2.74988,0,1,0,3.88867,0ZM21.085,21.085a1.27893,1.27893,0,0,1-1.76758,0,1.25,1.25,0,1,1,1.76758,0Z"/><path d="M25.68066,24.2666a2.2539,2.2539,0,0,1,3.18262,0l.707.707,1.06055-1.06054-.707-.707a3.75691,3.75691,0,0,0-5.30371,0l-1.41407,1.41407a3.75692,3.75692,0,0,0,0,5.30371l.707.707,1.06054-1.06055-.707-.707a2.25391,2.25391,0,0,1,0-3.18262Z"/><path d="M59.79883,62.54883a2.7497,2.7497,0,0,0,1.94433-4.69434,2.8152,2.8152,0,0,0-3.88867,0,2.75,2.75,0,0,0,1.94434,4.69434ZM58.915,58.915a1.24987,1.24987,0,1,1,1.76758,1.76758,1.279,1.279,0,0,1-1.76758,0,1.24955,1.24955,0,0,1,0-1.76758Z"/><path d="M52.72754,57.88965a3.741,3.741,0,0,0,2.65234-1.0957L56.794,55.37988a3.75692,3.75692,0,0,0,0-5.30371l-.707-.707-1.06054,1.06055.707.707a2.25391,2.25391,0,0,1,0,3.18262L54.31934,55.7334a2.2539,2.2539,0,0,1-3.18262,0l-.707-.707-1.06055,1.06054.707.707A3.74052,3.74052,0,0,0,52.72754,57.88965Z"/><path d="M9.25,40A2.75,2.75,0,1,0,12,37.25,2.7528,2.7528,0,0,0,9.25,40Zm4,0A1.25,1.25,0,1,1,12,38.75,1.25116,1.25116,0,0,1,13.25,40Z"/><path d="M21,44.75h1v-1.5H21A2.25309,2.25309,0,0,1,18.75,41V39A2.25309,2.25309,0,0,1,21,36.75h1v-1.5H21A3.75473,3.75473,0,0,0,17.25,39v2A3.75473,3.75473,0,0,0,21,44.75Z"/><path d="M68,37.25A2.75,2.75,0,1,0,70.75,40,2.7528,2.7528,0,0,0,68,37.25Zm0,4A1.25,1.25,0,1,1,69.25,40,1.25116,1.25116,0,0,1,68,41.25Z"/><path d="M62.75,39A3.75473,3.75473,0,0,0,59,35.25H58v1.5h1A2.25309,2.25309,0,0,1,61.25,39v2A2.25309,2.25309,0,0,1,59,43.25H58v1.5h1A3.75473,3.75473,0,0,0,62.75,41Z"/><path d="M20.20117,62.54883a2.74971,2.74971,0,0,0,1.94434-4.69434,2.8152,2.8152,0,0,0-3.88867,0,2.75,2.75,0,0,0,1.94433,4.69434ZM19.31738,58.915A1.24987,1.24987,0,1,1,21.085,60.68262a1.279,1.279,0,0,1-1.76758,0,1.24955,1.24955,0,0,1,0-1.76758Z"/><path d="M24.62012,56.794a3.75691,3.75691,0,0,0,5.30371,0l.707-.707-1.06055-1.06054-.707.707a2.2539,2.2539,0,0,1-3.18262,0L24.2666,54.31934a2.25391,2.25391,0,0,1,0-3.18262l.707-.707-1.06054-1.06055-.707.707a3.75692,3.75692,0,0,0,0,5.30371Z"/><path d="M61.74316,22.14551a2.75312,2.75312,0,0,0,0-3.88916,2.81424,2.81424,0,0,0-3.88867,0,2.74988,2.74988,0,1,0,3.88867,3.88916ZM58.915,19.31689A1.25,1.25,0,0,1,60.68262,21.085a1.27893,1.27893,0,0,1-1.76758,0A1.2519,1.2519,0,0,1,58.915,19.31689Z"/><path d="M55.02637,29.57031l1.06054,1.06055.707-.707a3.75692,3.75692,0,0,0,0-5.30371l-1.41407-1.41407a3.75691,3.75691,0,0,0-5.30371,0l-.707.707,1.06055,1.06054.707-.707a2.2539,2.2539,0,0,1,3.18262,0l1.41406,1.41406a2.25391,2.25391,0,0,1,0,3.18262Z"/></svg>