<svg xmlns="http://www.w3.org/2000/svg" viewBox="0 0 80 80"><path d="M54.72461,43.981l1.46094.34082.18261-.78565A18.79436,18.79436,0,0,0,56.75,40a16.7503,16.7503,0,0,0-32.94531-4.27686l1.44922.38379A15.25078,15.25078,0,0,1,55.25,40a17.18372,17.18372,0,0,1-.34766,3.21924Z"/><path d="M52.32227,43.28467l.123-.53174A14.6412,14.6412,0,0,0,52.75,40a12.75109,12.75109,0,0,0-25.07715-3.26367l-.042.165A6.22188,6.22188,0,0,1,23.794,41.35352l.5332,1.40234a7.74191,7.74191,0,0,0,4.751-5.459l.0459-.18116A11.25113,11.25113,0,0,1,51.25,40a13.05367,13.05367,0,0,1-.27051,2.436l-.1123.48486a31.70664,31.70664,0,0,1-5.71192,11.55176l1.17578.93066A33.22136,33.22136,0,0,0,52.32227,43.28467Z"/><path d="M48.458,42.25l.06445-.27832A10.89753,10.89753,0,0,0,48.75,40a8.751,8.751,0,0,0-17.21-2.24072l-.06641.25342a10.27329,10.27329,0,0,1-6.58593,7.1997l.48828,1.418a11.72689,11.72689,0,0,0,7.54394-8.21875l.07031-.26953A7.25106,7.25106,0,0,1,47.25,40a9.5768,9.5768,0,0,1-.19336,1.6543l-.05371.23144A26.96289,26.96289,0,0,1,38.7334,55.40527l.98242,1.13379A28.47668,28.47668,0,0,0,48.458,42.25Z"/><path d="M44.59961,41.19092A7.80857,7.80857,0,0,0,44.75,40a4.75039,4.75039,0,0,0-9.3418-1.21826.599.599,0,0,0-.01562.07129,14.429,14.429,0,0,1-8.57129,9.91015l.54883,1.39649A15.91517,15.91517,0,0,0,36.86133,39.169q.00879-.03516.01465-.07032A3.25087,3.25087,0,0,1,43.25,40a6.52732,6.52732,0,0,1-.11035.85059,22.42376,22.42376,0,0,1-9.50684,13.3706l.81055,1.26172A23.92643,23.92643,0,0,0,44.59961,41.19092Z"/><path d="M65,9.25a5.73977,5.73977,0,0,0-4.55566,9.24463l-6.97461,6.9751,1.06054,1.06054,6.97461-6.975A5.74653,5.74653,0,1,0,65,9.25Zm0,10A4.25,4.25,0,1,1,69.25,15,4.25475,4.25475,0,0,1,65,19.25Z"/><path d="M15,9.25a5.75,5.75,0,1,0,3.49487,10.30548l6.97486,6.97479,1.06054-1.06054-6.97485-6.9748A5.73976,5.73976,0,0,0,15,9.25Zm0,10A4.25,4.25,0,1,1,19.25,15,4.25475,4.25475,0,0,1,15,19.25Z"/><path d="M65,59.25a5.71371,5.71371,0,0,0-3.49463,1.19434l-6.9751-6.97461-1.06054,1.06054,6.97509,6.97455A5.74292,5.74292,0,1,0,65,59.25Zm0,10A4.25,4.25,0,1,1,69.25,65,4.25475,4.25475,0,0,1,65,69.25Z"/><path d="M15,70.75a5.73972,5.73972,0,0,0,4.55518-9.24518l6.97509-6.97455-1.06054-1.06054-6.9751,6.97461A5.74652,5.74652,0,1,0,15,70.75Zm0-10A4.25,4.25,0,1,1,10.75,65,4.25475,4.25475,0,0,1,15,60.75Z"/><path d="M39.27539,39.81543a18.37515,18.37515,0,0,1-9.55762,12.041l.66211,1.3457a19.8565,19.8565,0,0,0,10.34473-12.999Z"/></svg>