<svg xmlns="http://www.w3.org/2000/svg" viewBox="0 0 80 80"><polygon points="45.604 56.75 45.604 55.25 41.245 55.25 41.245 62.272 45.601 62.272 45.601 60.772 42.745 60.772 42.745 59.458 44.691 59.458 44.691 57.958 42.745 57.958 42.745 56.75 45.604 56.75"/><path d="M70.52051,29.46045A43.66483,43.66483,0,0,0,40,17.25,43.66483,43.66483,0,0,0,9.47949,29.46045l1.041,1.0791A42.17576,42.17576,0,0,1,40,18.75,42.17576,42.17576,0,0,1,69.47949,30.53955Z"/><path d="M60.52148,39.46045a29.75127,29.75127,0,0,0-41.043,0l1.043,1.0791a28.24873,28.24873,0,0,1,38.957,0Z"/><path d="M50.52051,49.46045a15.24885,15.24885,0,0,0-21.041,0l1.041,1.0791a13.75116,13.75116,0,0,1,18.959,0Z"/><path d="M38.37891,56.04785l-.35743-1.457c-2.79785.688-3.83789,2.15088-3.83789,5.39844A2.73926,2.73926,0,1,0,36.92285,57.25a2.70086,2.70086,0,0,0-.73633.11328A3.13274,3.13274,0,0,1,38.37891,56.04785ZM36.92285,58.75a1.23926,1.23926,0,1,1-1.23926,1.23926A1.24063,1.24063,0,0,1,36.92285,58.75Z"/></svg>