<svg xmlns="http://www.w3.org/2000/svg" viewBox="0 0 80 80"><path d="M39.30469,36.54053a2.43013,2.43013,0,0,0-.792-1.91651,3.88583,3.88583,0,0,0-2.623-.77392H33.20117a.19994.19994,0,0,0-.20019.19922v7.90136a.19994.19994,0,0,0,.20019.19922h1.4043a.19994.19994,0,0,0,.20019-.19922V39.187h1.21485l1.78515,2.86914a.20141.20141,0,0,0,.16993.09375h1.668a.19879.19879,0,0,0,.17383-.10205.20145.20145,0,0,0-.00781-.20654l-1.98535-3.02539A2.33019,2.33019,0,0,0,39.30469,36.54053Zm-2.18848.83008a1.64175,1.64175,0,0,1-1.14941.36474H34.80566V35.30176h1.10645c1.04687,0,1.53418.39355,1.53418,1.23877A1.08444,1.08444,0,0,1,37.11621,37.37061Z"/><path d="M45.38281,42.1499h1.416a.19994.19994,0,0,0,.20019-.19922V34.04932a.19994.19994,0,0,0-.20019-.19922h-1.416a.19974.19974,0,0,0-.19922.19922V37.2085H42.09277V34.04932a.19994.19994,0,0,0-.20019-.19922h-1.4043a.19974.19974,0,0,0-.19922.19922v7.90136a.19974.19974,0,0,0,.19922.19922h1.4043a.19994.19994,0,0,0,.20019-.19922V38.70459h3.09082v3.24609A.19974.19974,0,0,0,45.38281,42.1499Z"/><path d="M70.75,61A9.75,9.75,0,1,0,61,70.75,9.76128,9.76128,0,0,0,70.75,61ZM61,69.25A8.25,8.25,0,1,1,69.25,61,8.25965,8.25965,0,0,1,61,69.25Z"/><path d="M60,62.93945l-2.46973-2.46972-1.06054,1.06054,3,3a.74971.74971,0,0,0,1.06054,0l6-6-1.06054-1.06054Z"/><path d="M60.75,48V24a.75027.75027,0,0,0-.21973-.53027l-14-14A.74942.74942,0,0,0,46,9.25H20a.7502.7502,0,0,0-.75.75V70a.7502.7502,0,0,0,.75.75H50v-1.5H20.75V10.75h24.5V24a.7502.7502,0,0,0,.75.75H59.25V48Zm-14-24.75V11.81055L58.18945,23.25Z"/></svg>