<svg xmlns="http://www.w3.org/2000/svg" viewBox="0 0 80 80"><path d="M65.99414,35.144A4.75076,4.75076,0,0,0,61.313,39.16156l-8.20069.1441.0254,1.5,8.17773-.14373A4.74865,4.74865,0,1,0,65.99414,35.144Zm0,8.01172A3.25586,3.25586,0,1,1,69.25,39.8999,3.2597,3.2597,0,0,1,65.99414,43.15576Z"/><path d="M9.25,39.8999a4.74751,4.74751,0,0,0,9.43457.76349l8.17773.14227.0254-1.5-8.20044-.1427A4.7467,4.7467,0,0,0,9.25,39.8999Zm8.01172,0A3.25586,3.25586,0,1,1,14.00586,36.644,3.2597,3.2597,0,0,1,17.26172,39.8999Z"/><path d="M48.03711,33.0791l7.1709-7.35864a4.72531,4.72531,0,0,0,6.13672-.48413,4.75591,4.75591,0,1,0-7.19678-.57715l-7.18506,7.373Zm7.64258-13.5083a3.256,3.256,0,1,1,4.60449,4.605,3.33506,3.33506,0,0,1-4.60449,0A3.26,3.26,0,0,1,55.67969,19.5708Z"/><path d="M31.96289,47.03174l-7.57178,7.75683a4.75962,4.75962,0,1,0,1.0625,1.05994l7.5835-7.76892ZM23.92188,60.937a3.25464,3.25464,0,1,1,0-4.605A3.25944,3.25944,0,0,1,23.92188,60.937Z"/><path d="M39.25,53.18066v8.07288a4.73971,4.73971,0,1,0,1.5.00891V53.18066ZM43.21191,65.938a3.25586,3.25586,0,1,1-3.25586-3.25586A3.26012,3.26012,0,0,1,43.21191,65.938Z"/><path d="M44.71191,14.062a4.75588,4.75588,0,1,0-5.54052,4.67652L39.25,26.938l1.5-.01465-.07861-8.17786A4.74986,4.74986,0,0,0,44.71191,14.062Zm-4.75586,3.25586A3.25611,3.25611,0,1,1,43.21191,14.062,3.2597,3.2597,0,0,1,39.95605,17.31787Z"/><path d="M24.98242,18.51025a4.7669,4.7669,0,1,0-.57739,7.19757l7.57153,7.385,1.04688-1.07422L25.4646,24.64581A4.75153,4.75153,0,0,0,24.98242,18.51025Zm-1.06054,5.66553a3.25464,3.25464,0,1,1,0-4.605A3.25943,3.25943,0,0,1,23.92188,24.17578Z"/><path d="M55.60889,54.78857l-7.57178-7.75683-1.07422,1.04785,7.5835,7.76892a4.75219,4.75219,0,1,0,1.0625-1.05994ZM60.68262,60.937a3.25464,3.25464,0,1,1,0-4.605A3.25944,3.25944,0,0,1,60.68262,60.937Z"/><path d="M29.041,40.5083,39.46973,50.937a.74971.74971,0,0,0,1.06054,0L50.959,40.5083a.74973.74973,0,0,0,0-1.06055L40.53027,29.019a.74972.74972,0,0,0-1.06054,0L29.041,39.44775A.74973.74973,0,0,0,29.041,40.5083ZM40,30.60986,49.36816,39.978,40,49.34619,30.63184,39.978Z"/></svg>