<svg xmlns="http://www.w3.org/2000/svg" viewBox="0 0 80 80"><path d="M54.75,40.24768A15.20516,15.20516,0,0,0,64.75,26V24h-1.5v2a13.71513,13.71513,0,0,1-8.5,12.65552V34a.7502.7502,0,0,0-.75-.75H26a.7502.7502,0,0,0-.75.75v4.65552A13.71513,13.71513,0,0,1,16.75,26V24h-1.5v2a15.20516,15.20516,0,0,0,10,14.24768V47.25H8v1.5H25.25V52a14.78743,14.78743,0,0,0,.46289,3.60278A15.25965,15.25965,0,0,0,15.25,70v2h1.5V70a13.74094,13.74094,0,0,1,9.39868-12.96362A14.9989,14.9989,0,0,0,40,67.0835,14.9989,14.9989,0,0,0,53.85132,57.03638,13.74094,13.74094,0,0,1,63.25,70v2h1.5V70A15.25965,15.25965,0,0,0,54.28711,55.60278,14.78743,14.78743,0,0,0,54.75,52V48.75H72v-1.5H54.75ZM53.25,52a13.62623,13.62623,0,0,1-12.5,13.54321V42h-1.5V65.54321A13.62623,13.62623,0,0,1,26.75,52V34.75h26.5Z"/><path d="M56.75,10V8h-1.5v2a13.66074,13.66074,0,0,1-4.52051,10.12549,14.24394,14.24394,0,0,0-21.459,0A13.66074,13.66074,0,0,1,24.75,10V8h-1.5v2a15.15645,15.15645,0,0,0,5.0647,11.28125A15.094,15.094,0,0,0,25.25,30.3335a.7502.7502,0,0,0,.75.75H54a.7502.7502,0,0,0,.75-.75,15.094,15.094,0,0,0-3.0647-9.05225A15.15645,15.15645,0,0,0,56.75,10ZM53.22852,29.5835h-26.457A13.59131,13.59131,0,0,1,40,16.75,13.59131,13.59131,0,0,1,53.22852,29.5835Z"/></svg>