<svg xmlns="http://www.w3.org/2000/svg" viewBox="0 0 80 80"><path d="M54.44434,50.75a6.30567,6.30567,0,0,0,0-12.61133,6.14621,6.14621,0,0,0-2.80762.67676A11.78462,11.78462,0,0,0,40.75,29.28278V18.75H44a.7502.7502,0,0,0,.75-.75V14.75h6.574a4.78572,4.78572,0,1,0,0-1.5H44.75V10A.7502.7502,0,0,0,44,9.25H36a.7502.7502,0,0,0-.75.75v3.25H28.676a4.78572,4.78572,0,1,0,0,1.5H35.25V18a.7502.7502,0,0,0,.75.75h3.25V29.278a11.89793,11.89793,0,0,0-10.10156,7.07068A7.30371,7.30371,0,0,0,26.667,35.9165a7.41675,7.41675,0,1,0,0,14.8335H39.25V61.3233A4.67858,4.67858,0,0,0,35.324,65.25H28.75V62a.7502.7502,0,0,0-.75-.75H20a.7502.7502,0,0,0-.75.75v8a.7502.7502,0,0,0,.75.75h8a.7502.7502,0,0,0,.75-.75V66.75h6.574a4.73182,4.73182,0,0,0,9.35206,0H51.25V70a.7502.7502,0,0,0,.75.75h8a.7502.7502,0,0,0,.75-.75V62a.7502.7502,0,0,0-.75-.75H52a.7502.7502,0,0,0-.75.75v3.25H44.676a4.67858,4.67858,0,0,0-3.926-3.9267V50.75Zm-.74219-39.04834a3.25,3.25,0,1,1,4.5957,4.59668,3.32791,3.32791,0,0,1-4.5957,0A3.25353,3.25353,0,0,1,53.70215,11.70166Zm-27.4043,4.59668a3.32791,3.32791,0,0,1-4.5957,0,3.25,3.25,0,1,1,4.5957,0ZM27.25,69.25h-6.5v-6.5h6.5Zm25.5-6.5h6.5v6.5h-6.5Zm-16-45.5v-6.5h6.5v6.5Zm5.54785,46.45166a3.25353,3.25353,0,0,1,0,4.59668,3.32791,3.32791,0,0,1-4.5957,0,3.25,3.25,0,1,1,4.5957-4.59668ZM26.667,49.25a5.91675,5.91675,0,1,1,0-11.8335,5.85984,5.85984,0,0,1,2.56836.59375.74908.74908,0,0,0,1.03125-.41992,10.35182,10.35182,0,0,1,20.04492,2.54785.75052.75052,0,0,0,1.207.523,4.74342,4.74342,0,0,1,2.92579-1.02246,4.80567,4.80567,0,0,1,0,9.61133Z"/></svg>