<svg xmlns="http://www.w3.org/2000/svg" viewBox="0 0 80 80"><path d="M14,55.25a.7502.7502,0,0,0-.75.75v5.32587a4.75,4.75,0,1,0,1.5,0V56.75h24.5v4.57587a4.75,4.75,0,1,0,1.5,0V56.75h24.5v4.57587a4.75,4.75,0,1,0,1.5,0V56a.7502.7502,0,0,0-.75-.75H40.75v-4.5H70a.7502.7502,0,0,0,.75-.75V30a.7502.7502,0,0,0-.75-.75H40.75v-4.5H66a.7502.7502,0,0,0,.75-.75V18.67413a4.75,4.75,0,1,0-1.5,0V23.25H40.75V18.67413a4.75,4.75,0,1,0-1.5,0V23.25H14.75V18.67413a4.75,4.75,0,1,0-1.5,0V24a.7502.7502,0,0,0,.75.75H39.25v4.5H10a.7502.7502,0,0,0-.75.75V50a.7502.7502,0,0,0,.75.75H39.25v4.5ZM17.25,66A3.25,3.25,0,1,1,14,62.75,3.25377,3.25377,0,0,1,17.25,66Zm52,0A3.25,3.25,0,1,1,66,62.75,3.25377,3.25377,0,0,1,69.25,66Zm-6.5-52A3.25,3.25,0,1,1,66,17.25,3.25377,3.25377,0,0,1,62.75,14Zm-52,0A3.25,3.25,0,1,1,14,17.25,3.25377,3.25377,0,0,1,10.75,14ZM39.999,45.251a3.25,3.25,0,1,1,3.25-3.25A3.25377,3.25377,0,0,1,39.999,45.251ZM36.75,14A3.25,3.25,0,1,1,40,17.25,3.25377,3.25377,0,0,1,36.75,14Zm-26,35.25V30.75h28.5v2.53894a8.75733,8.75733,0,0,0-8.001,8.712h1.5a7.25,7.25,0,0,1,14.5,0h1.5a8.75741,8.75741,0,0,0-7.999-8.71192V30.75h28.5v18.5H40.75v-2.575a4.75045,4.75045,0,1,0-1.5.00018V49.25ZM40,62.75A3.25,3.25,0,1,1,36.75,66,3.25377,3.25377,0,0,1,40,62.75Z"/></svg>