<svg xmlns="http://www.w3.org/2000/svg" viewBox="0 0 80 80"><path d="M39.01465,41.99512h1.24316a.19558.19558,0,0,0,.19531-.19532V34.21094a.19558.19558,0,0,0-.19531-.19532H38.582a.20093.20093,0,0,0-.18457.13038L36.416,39.80029,34.32715,34.1416a.19516.19516,0,0,0-.18262-.126h-1.708a.19558.19558,0,0,0-.19531.19532V41.7998a.19558.19558,0,0,0,.19531.19532h1.22266a.19579.19579,0,0,0,.19629-.19532v-4.582l1.76074,4.64991a.1958.1958,0,0,0,.18262.12744h1.18164a.19556.19556,0,0,0,.18359-.1294l1.65528-4.5791V41.7998A.19558.19558,0,0,0,39.01465,41.99512Z"/><path d="M44.49609,40.74072a1.95962,1.95962,0,0,1-1.10449-.28467,1.19768,1.19768,0,0,1-.52637-.85839.19639.19639,0,0,0-.19335-.16358H41.333a.19839.19839,0,0,0-.14844.06836.19543.19543,0,0,0-.04492.15625,2.70533,2.70533,0,0,0,.96582,1.73438,3.68475,3.68475,0,0,0,2.40039.76074,3.80892,3.80892,0,0,0,2.29687-.64844,2.15634,2.15634,0,0,0,.95606-1.82324,2.11359,2.11359,0,0,0-.67578-1.63135l-.001-.001a5.65633,5.65633,0,0,0-2.26465-1.02441,5.08226,5.08226,0,0,1-1.34765-.47314.61664.61664,0,0,1-.31739-.5708.55425.55425,0,0,1,.21973-.46827,1.75464,1.75464,0,0,1,1.06055-.25341,2.155,2.155,0,0,1,1.03027.21582.88837.88837,0,0,1,.47363.67871.1946.1946,0,0,0,.19336.16992H47.458a.19556.19556,0,0,0,.19238-.22412,2.38753,2.38753,0,0,0-.918-1.58155,3.667,3.667,0,0,0-2.2793-.66064,3.80345,3.80345,0,0,0-2.13085.53662,1.93229,1.93229,0,0,0-.9209,1.70215A2.00327,2.00327,0,0,0,42,37.6084a4.60179,4.60179,0,0,0,1.96094.91308,7.0993,7.0993,0,0,1,1.59863.56153.76567.76567,0,0,1,.44824.70312.79165.79165,0,0,1-.28711.6294A1.929,1.929,0,0,1,44.49609,40.74072Z"/><path d="M61,51.25A9.75,9.75,0,1,0,70.75,61,9.76128,9.76128,0,0,0,61,51.25Zm0,18A8.25,8.25,0,1,1,69.25,61,8.25965,8.25965,0,0,1,61,69.25Z"/><path d="M60,62.93945l-2.46973-2.46972-1.06054,1.06054,3,3a.74971.74971,0,0,0,1.06054,0l6-6-1.06054-1.06054Z"/><path d="M19.25,10V70a.7502.7502,0,0,0,.75.75H50v-1.5H20.75V10.75h24.5V24a.7502.7502,0,0,0,.75.75H59.25V48h1.5V24a.75027.75027,0,0,0-.21973-.53027l-14-14A.74942.74942,0,0,0,46,9.25H20A.7502.7502,0,0,0,19.25,10Zm27.5,1.81055L58.18945,23.25H46.75Z"/></svg>