<svg xmlns="http://www.w3.org/2000/svg" viewBox="0 0 80 80"><path d="M31.86719,33.8501a.14921.14921,0,0,0-.14258.10351L29.668,40.28906l-2.03613-6.335a.149.149,0,0,0-.14258-.104H26a.14983.14983,0,0,0-.1416.19873l2.7666,8a.1498.1498,0,0,0,.1416.10107h1.74512a.14888.14888,0,0,0,.1416-.10107l2.74414-8a.14944.14944,0,0,0-.1416-.19873Z"/><path d="M40.95605,42.1499h1.31153A.15.15,0,0,0,42.418,42V34a.15.15,0,0,0-.15039-.1499H40.501a.15051.15051,0,0,0-.1416.1001l-2.14063,6.10693-2.25586-6.10889a.14977.14977,0,0,0-.14062-.09814H34.02246A.15.15,0,0,0,33.87207,34v8a.15.15,0,0,0,.15039.1499h1.28906A.15.15,0,0,0,35.46191,42V36.86426l1.96387,5.189a.1508.1508,0,0,0,.14063.09668h1.24511a.149.149,0,0,0,.14063-.09912l1.85351-5.12793V42A.15.15,0,0,0,40.95605,42.1499Z"/><path d="M51.958,42.03613l1.98828-8a.151.151,0,0,0-.02734-.12842.14946.14946,0,0,0-.11817-.05761h-1.333a.15127.15127,0,0,0-.14648.11572l-1.34863,5.7583L49.502,33.96289a.15081.15081,0,0,0-.1455-.11279H47.67871a.15039.15039,0,0,0-.14551.1123L46.041,39.73047l-1.36133-5.76514a.14943.14943,0,0,0-.14551-.11523h-1.4668a.15018.15018,0,0,0-.1455.187l2.0332,8a.15.15,0,0,0,.14551.11279h1.67773a.15039.15039,0,0,0,.14551-.1123l1.543-5.96973L50,42.03711a.15082.15082,0,0,0,.14551.11279h1.667A.14947.14947,0,0,0,51.958,42.03613Z"/><path d="M61,70.75A9.75,9.75,0,1,0,51.25,61,9.76128,9.76128,0,0,0,61,70.75Zm0-18A8.25,8.25,0,1,1,52.75,61,8.25965,8.25965,0,0,1,61,52.75Z"/><path d="M60,64.75a.74671.74671,0,0,0,.53027-.21973l6-6-1.06054-1.06054L60,62.93945l-2.46973-2.46972-1.06054,1.06054,3,3A.74671.74671,0,0,0,60,64.75Z"/><path d="M46.53027,9.46973A.74942.74942,0,0,0,46,9.25H20a.7502.7502,0,0,0-.75.75V70a.7502.7502,0,0,0,.75.75H50v-1.5H20.75V10.75h24.5V24a.7502.7502,0,0,0,.75.75H59.25V48h1.5V24a.75027.75027,0,0,0-.21973-.53027ZM46.75,23.25V11.81055L58.18945,23.25Z"/></svg>