<svg xmlns="http://www.w3.org/2000/svg" viewBox="0 0 80 80"><path d="M40.35547,9.33984a.74639.74639,0,0,0-.71094,0l-26,14A.74945.74945,0,0,0,13.25,24V56a.74945.74945,0,0,0,.39453.66016l26,14a.74816.74816,0,0,0,.71094,0l26-14A.74945.74945,0,0,0,66.75,56V24a.74945.74945,0,0,0-.39453-.66016ZM65.25,55.55225,40,69.148,14.75,55.55225V24.44775L40,10.85205l25.25,13.5957Z"/><path d="M23.25,40a16.6954,16.6954,0,0,0,4.89014,11.81506c.00732.0083.01025.01917.01806.02723.0083.00811.01905.01062.02735.01831A16.74085,16.74085,0,1,0,23.25,40Zm16-15.212V39.25H24.78809A15.24455,15.24455,0,0,1,39.25,24.788ZM24.78809,40.75H38.18945L28.7168,50.223A15.16656,15.16656,0,0,1,24.78809,40.75Zm15.74414-.22119v-.00049l.001-.001.002-.002.002-.00146v-.00049l.001-.00147h.001a.75891.75891,0,0,0,.18067-.31054v-.002h.001v-.00342l.001-.00048a.83037.83037,0,0,0,.02344-.1211V40.083l.001-.002a.85268.85268,0,0,0,.00391-.08642V24.788A15.2395,15.2395,0,1,1,29.77734,51.28357l10.75293-10.7533Z"/></svg>