<svg xmlns="http://www.w3.org/2000/svg" viewBox="0 0 80 80"><path d="M40,10.75A29.28292,29.28292,0,0,1,69.25,40h1.5a30.75,30.75,0,0,0-61.5,0h1.5A29.28292,29.28292,0,0,1,40,10.75Z"/><path d="M56,55.25H50.63281a2.73292,2.73292,0,0,0-5.26562,0H24v1.5H45.36719a2.73292,2.73292,0,0,0,5.26562,0H56Zm-8,2A1.25,1.25,0,1,1,49.25,56,1.25116,1.25116,0,0,1,48,57.25Z"/><rect x="40" y="27.25" width="12" height="1.5"/><rect x="40" y="35.25" width="12" height="1.5"/><path d="M56.75,48V24a.7502.7502,0,0,0-.75-.75H24a.7502.7502,0,0,0-.75.75V48a.7502.7502,0,0,0,.75.75H56A.7502.7502,0,0,0,56.75,48Zm-1.5-.75H24.75v-6.5h30.5Zm0-8H24.75v-6.5h30.5Zm0-8H24.75v-6.5h30.5Z"/><rect x="40" y="43.25" width="12" height="1.5"/><path d="M32,59.25a2.74452,2.74452,0,0,0-2.63281,2H24v1.5h5.36719a2.73292,2.73292,0,0,0,5.26562,0H56v-1.5H34.63281A2.74452,2.74452,0,0,0,32,59.25Zm0,4A1.25,1.25,0,1,1,33.25,62,1.25116,1.25116,0,0,1,32,63.25Z"/><circle cx="28" cy="28" r="1"/><circle cx="32" cy="28" r="1"/><circle cx="36" cy="28" r="1"/><circle cx="28" cy="36" r="1"/><circle cx="32" cy="36" r="1"/><circle cx="36" cy="36" r="1"/><circle cx="28" cy="44" r="1"/><circle cx="32" cy="44" r="1"/><circle cx="36" cy="44" r="1"/></svg>