<svg xmlns="http://www.w3.org/2000/svg" viewBox="0 0 80 80"><path d="M70,9.25H36a.7502.7502,0,0,0-.75.75V33.25H18a.7502.7502,0,0,0-.75.75V53.25H10a.7502.7502,0,0,0-.75.75V70a.7502.7502,0,0,0,.75.75H26a.7502.7502,0,0,0,.75-.75V62.75H46a.7502.7502,0,0,0,.75-.75V44.75H70a.7502.7502,0,0,0,.75-.75V10A.7502.7502,0,0,0,70,9.25Zm-44.75,60H10.75V54.75h6.5V62a.7502.7502,0,0,0,.75.75h7.25Zm0-8h-6.5v-6.5h6.5Zm20,0H26.75V54a.7502.7502,0,0,0-.75-.75H18.75V34.75h16.5V44a.7502.7502,0,0,0,.75.75h9.25Zm0-18h-8.5v-8.5h8.5Zm24,0H46.75V34a.7502.7502,0,0,0-.75-.75H36.75V10.75h32.5Z"/></svg>