<svg xmlns="http://www.w3.org/2000/svg" viewBox="0 0 80 80"><path d="M10,50.75h9.25v2.5H16v1.5h8v-1.5H20.75v-2.5H30a.7502.7502,0,0,0,.75-.75V44.75h1.252A4.7554,4.7554,0,0,0,36.752,40V30.75h2.5v22.5H30a.7502.7502,0,0,0-.75.75V66a.7502.7502,0,0,0,.75.75h9.25v2.5H36v1.5h8v-1.5H40.75v-2.5H50a.7502.7502,0,0,0,.75-.75V54a.7502.7502,0,0,0-.75-.75H40.752V30.75h2.5V40a4.7554,4.7554,0,0,0,4.75,4.75H49.25V50a.7502.7502,0,0,0,.75.75h9.25v2.5H56v1.5h8v-1.5H60.75v-2.5H70a.7502.7502,0,0,0,.75-.75V38a.7502.7502,0,0,0-.75-.75H50a.7502.7502,0,0,0-.75.75v5.25H48.002A3.25377,3.25377,0,0,1,44.752,40V30.75H53a5.75,5.75,0,0,0,0-11.5,5.6049,5.6049,0,0,0-2.47266.57324,10.74275,10.74275,0,0,0-20.334-2.20312A6.636,6.636,0,0,0,28,17.25a6.75,6.75,0,0,0,0,13.5h7.252V40a3.25376,3.25376,0,0,1-3.25,3.25H30.75V38a.7502.7502,0,0,0-.75-.75H10a.7502.7502,0,0,0-.75.75V50A.7502.7502,0,0,0,10,50.75Zm40.75-12h18.5v10.5H50.75Zm-1.5,16v10.5H30.75V54.75ZM28,29.25a5.25,5.25,0,0,1,0-10.5,5.1865,5.1865,0,0,1,2.27832.52686.75049.75049,0,0,0,1.03223-.41993,9.24178,9.24178,0,0,1,17.8955,2.27442.75053.75053,0,0,0,1.207.52295A4.19329,4.19329,0,0,1,53,20.75a4.25,4.25,0,0,1,0,8.5Zm-17.25,9.5h18.5v10.5H10.75Z"/></svg>