<svg xmlns="http://www.w3.org/2000/svg" viewBox="0 0 80 80"><path d="M70.53027,69.46973,52.00439,50.94385a24.77588,24.77588,0,1,0-1.06054,1.06048L69.46973,70.53027ZM50.44043,50.44043a23.23878,23.23878,0,1,1,0-32.88086A23.27813,23.27813,0,0,1,50.44043,50.44043Z"/><path d="M45,41.25c-.02148,0-.04126.006-.06274.00635L42.52734,30.41724a3.7454,3.7454,0,1,0-4.94506-4.94385L26.74365,23.06274c.00049-.02142.00635-.04126.00635-.06274a3.75,3.75,0,1,0-4.5,3.67419v4.65162A3.75,3.75,0,0,0,23,38.75a3.70432,3.70432,0,0,0,1.23828-.22675l2.23657,3.723A3.74393,3.74393,0,1,0,32.67407,45.75h8.65186A3.74993,3.74993,0,1,0,45,41.25Zm-4-16.5A2.25,2.25,0,1,1,38.75,27,2.25278,2.25278,0,0,1,41,24.75Zm-3.04248,4.42529a3.75043,3.75043,0,0,0,.38086.46131L35.2832,34.22266l-2.67285-2.673ZM26.65747,34.19293l4.48389-1.991,3.2937,3.29377-1.98291,2.97674-5.80322-2.63836a3.52793,3.52793,0,0,0,.00854-1.64112Zm-.23975-9.66632,10.83863,2.41065c-.00049.02142-.00635.04126-.00635.06274a3.73971,3.73971,0,0,0,.09253.8067l-5.8689,2.60639L26.12524,25.0647A3.75272,3.75272,0,0,0,26.41772,24.52661Zm3.58716,6.53882L26.04272,32.825A3.75077,3.75077,0,0,0,23.75,31.32581V26.67419a3.72593,3.72593,0,0,0,1.3147-.549ZM20.75,23A2.25,2.25,0,1,1,23,25.25,2.25278,2.25278,0,0,1,20.75,23ZM23,37.25A2.25,2.25,0,1,1,25.25,35,2.25278,2.25278,0,0,1,23,37.25Zm6,10A2.25,2.25,0,1,1,31.25,45,2.25278,2.25278,0,0,1,29,47.25Zm1.41431-5.71851a3.59832,3.59832,0,0,0-2.65259-.05474l-2.23657-3.723a3.76236,3.76236,0,0,0,.499-.55615l5.58545,2.53949ZM41.32593,44.25H32.67407a3.74228,3.74228,0,0,0-1.01245-1.8866l1.33081-1.99762L41.35107,44.166C41.34448,44.1947,41.33179,44.221,41.32593,44.25Zm-7.491-5.14886L35.5166,36.577l6.03028,6.03033ZM36.3645,35.304l3.22119-4.83545A3.72359,3.72359,0,0,0,41,30.75c.02148,0,.04126-.006.06274-.00635l2.40992,10.83911a3.759,3.759,0,0,0-.53736.29206ZM45,47.25A2.25,2.25,0,1,1,47.25,45,2.25278,2.25278,0,0,1,45,47.25Z"/></svg>