<svg xmlns="http://www.w3.org/2000/svg" viewBox="0 0 80 80"><path d="M15,59.25a5.771,5.771,0,1,0,4.55518,2.25482L30.19556,50.86444a21.34,21.34,0,0,0,19.6084.00012L60.44482,61.50482a5.77053,5.77053,0,1,0,1.06055-1.06048l-9.655-9.65455.00025-.00024-.67969-.6795a27.81889,27.81889,0,0,0,9.47265-9.72431.7536.7536,0,0,0,0-.77148,27.81673,27.81673,0,0,0-9.4729-9.72443L61.50488,19.5553a5.771,5.771,0,1,0-1.06054-1.06067L49.804,29.13544a21.33945,21.33945,0,0,0-19.60792,0L19.55518,18.49518a5.77053,5.77053,0,1,0-1.06055,1.06048l9.655,9.65455-.00025.00024.67969.6795a27.81889,27.81889,0,0,0-9.47265,9.72431.7536.7536,0,0,0,0,.77148A27.81869,27.81869,0,0,0,28.8291,50.11L18.49463,60.44427A5.71372,5.71372,0,0,0,15,59.25Zm50,1.5A4.25,4.25,0,1,1,60.75,65,4.25475,4.25475,0,0,1,65,60.75Zm0-50A4.25,4.25,0,1,1,60.75,15,4.25475,4.25475,0,0,1,65,10.75Zm-50,8.5A4.25,4.25,0,1,1,19.25,15,4.25475,4.25475,0,0,1,15,19.25Zm25,9c7.54492,0,14.49219,4.27588,19.12207,11.75a26.00417,26.00417,0,0,1-9.05078,9.0105l-3.38184-3.38184A8.74144,8.74144,0,0,0,34.37109,33.31073l-3.05273-3.05261A19.95955,19.95955,0,0,1,40,28.25Zm-4.56494,6.12463A7.24363,7.24363,0,0,1,45.62549,44.56482Zm9.12988,11.25074A7.24363,7.24363,0,0,1,34.37451,35.43518ZM20.87793,40a26.00417,26.00417,0,0,1,9.05078-9.0105l3.38184,3.38184A8.74144,8.74144,0,0,0,45.62891,46.68927l3.05273,3.05261A19.95955,19.95955,0,0,1,40,51.75C32.45508,51.75,25.50781,47.47412,20.87793,40ZM15,69.25A4.25,4.25,0,1,1,19.25,65,4.25475,4.25475,0,0,1,15,69.25Z"/></svg>