<svg xmlns="http://www.w3.org/2000/svg" viewBox="0 0 80 80"><path d="M14,62.75a4.74122,4.74122,0,0,0,.75-9.42413V48.75h24.5v4.57587a4.75,4.75,0,1,0,1.5,0V48.75h24.5v4.57587a4.75,4.75,0,1,0,1.5,0V48a.7502.7502,0,0,0-.75-.75H40.75v-8.5H54.44434a6.30567,6.30567,0,0,0,0-12.61133,6.14621,6.14621,0,0,0-2.80762.67676,11.85329,11.85329,0,0,0-22.48828-2.4668A7.30371,7.30371,0,0,0,26.667,23.9165a7.41675,7.41675,0,1,0,0,14.8335H39.25v8.5H14a.7502.7502,0,0,0-.75.75v5.32587A4.74122,4.74122,0,0,0,14,62.75ZM69.25,58A3.25,3.25,0,1,1,66,54.75,3.25377,3.25377,0,0,1,69.25,58ZM26.667,37.25a5.91675,5.91675,0,1,1,0-11.8335,5.85984,5.85984,0,0,1,2.56836.59375.74908.74908,0,0,0,1.03125-.41992,10.35182,10.35182,0,0,1,20.04492,2.54785.75052.75052,0,0,0,1.207.523,4.74342,4.74342,0,0,1,2.92579-1.02246,4.80567,4.80567,0,0,1,0,9.61133ZM40,54.75A3.25,3.25,0,1,1,36.75,58,3.25377,3.25377,0,0,1,40,54.75Zm-26,0A3.25,3.25,0,1,1,10.75,58,3.25377,3.25377,0,0,1,14,54.75Z"/><polygon points="64.7 14.15 64.7 7.85 63.324 7.85 63.324 10.4 60.976 10.4 60.976 7.85 59.608 7.85 59.608 14.15 60.976 14.15 60.976 11.533 63.324 11.533 63.324 14.15 64.7 14.15"/><polygon points="72.184 7.85 70.654 7.85 69.326 9.791 68.021 7.85 66.389 7.85 68.501 10.9 66.247 14.15 67.788 14.15 69.224 12.005 70.628 14.15 72.283 14.15 70.033 10.844 72.184 7.85"/></svg>