<svg xmlns="http://www.w3.org/2000/svg" viewBox="0 0 80 80"><path d="M25.25,34V46a.7502.7502,0,0,0,.75.75H54a.7502.7502,0,0,0,.75-.75V34a.7502.7502,0,0,0-.75-.75H26A.7502.7502,0,0,0,25.25,34Zm1.5.75h26.5v10.5H26.75Z"/><rect x="38" y="39.25" width="12" height="1.5"/><path d="M47.47559,21.37744l.83789,1.24512c7.09961-4.77393,9.76757-3.48047,11.15625-2.09229,1.38281,1.3833,2.67773,4.03516-2.03321,11.06885l1.2461.835c4.05371-6.05273,4.64062-10.17187,1.84765-12.96435C57.7666,16.70605,53.49707,17.33008,47.47559,21.37744Z"/><path d="M21.30078,47.58252c-4.042,6.041-4.624,10.15527-1.83105,12.94775a5.65345,5.65345,0,0,0,4.16308,1.72754c2.34375,0,5.23047-1.18066,8.78418-3.5581l-.834-1.24707c-7.01758,4.69629-9.669,3.40039-11.05274,2.01709S17.85059,55.436,22.54688,48.4165Z"/><path d="M19.46973,19.46973c-2.79785,2.79687-2.19141,6.94043,1.9082,13.04l1.24414-.83692c-4.76855-7.09473-3.47754-9.75732-2.0918-11.14258,1.38672-1.38623,4.04395-2.68506,11.06934,2.01856l.834-1.2461C26.4707,17.31055,22.22852,16.709,19.46973,19.46973Z"/><path d="M48.417,57.43848l-.834,1.24609c3.56054,2.38428,6.45117,3.56738,8.7959,3.56689a5.63687,5.63687,0,0,0,4.15136-1.72119c2.75977-2.75927,2.16114-6.999-1.83105-12.9624l-1.2461.834c4.70313,7.02587,3.40333,9.68164,2.01661,11.06787C58.08984,60.84912,55.44043,62.14014,48.417,57.43848Z"/><path d="M58.05371,14.02979a.1503.1503,0,0,0,.1416-.09913l.4668-1.29834h2.249l.4668,1.29834a.1503.1503,0,0,0,.1416.09913h1.11035a.14958.14958,0,0,0,.13965-.20411L60.5332,8.07617a.15028.15028,0,0,0-.13965-.0957H59.24414a.15029.15029,0,0,0-.13965.0957l-2.23633,5.74951a.14959.14959,0,0,0,.13965.20411ZM59.80078,9.5,60.54,11.582H59.043Z"/><path d="M65.68848,8.94336a1.38589,1.38589,0,0,1,.8291.24219,1.20986,1.20986,0,0,1,.46777.8291.15014.15014,0,0,0,.14844.12646h1.03027a.1484.1484,0,0,0,.11133-.0498.1505.1505,0,0,0,.03809-.1167,2.20934,2.20934,0,0,0-.73536-1.44482,2.73644,2.73644,0,0,0-1.88964-.669,2.76765,2.76765,0,0,0-1.97168.71094,3.17356,3.17356,0,0,0-.89453,2.42529,3.42131,3.42131,0,0,0,.68164,2.227,2.59389,2.59389,0,0,0,2.12011.92578,2.82953,2.82953,0,0,0,1.80274-.57568,2.38586,2.38586,0,0,0,.91015-1.7417.14983.14983,0,0,0-.14941-.1626H67.14941A.14929.14929,0,0,0,67,11.81006a1.26081,1.26081,0,0,1-1.35938,1.24951,1.236,1.236,0,0,1-.98242-.4209,2.42027,2.42027,0,0,1-.48047-1.6416,2.55534,2.55534,0,0,1,.37989-1.50293A1.28306,1.28306,0,0,1,65.68848,8.94336Z"/><path d="M69.042,7.98047h1.02295a.1499.1499,0,0,1,.1499.1499v5.749a.15039.15039,0,0,1-.15039.15039H69.0415a.1499.1499,0,0,1-.1499-.1499v-5.749A.15039.15039,0,0,1,69.042,7.98047Z"/><path d="M40.75,24V11.81055l2.71973,2.71972,1.06054-1.06054-4-4a.74972.74972,0,0,0-1.06054,0l-4,4,1.06054,1.06054L39.25,11.81055V24Z"/><path d="M39.25,56V68.18945l-2.71973-2.71972-1.06054,1.06054,4,4a.74971.74971,0,0,0,1.06054,0l4-4-1.06054-1.06054L40.75,68.18945V56Z"/><path d="M13.46973,44.53027l1.06054-1.06054L11.81055,40.75H22v-1.5H11.81055l2.71972-2.71973-1.06054-1.06054-4,4a.74972.74972,0,0,0,0,1.06054Z"/><path d="M70.53027,39.46973l-4-4-1.06054,1.06054L68.18945,39.25H58v1.5H68.18945l-2.71972,2.71973,1.06054,1.06054,4-4A.74972.74972,0,0,0,70.53027,39.46973Z"/><circle cx="30" cy="40" r="1"/><circle cx="34" cy="40" r="1"/></svg>