<svg xmlns="http://www.w3.org/2000/svg" viewBox="0 0 80 80"><rect x="63.25" y="36" width="1.5" height="8"/><rect x="15.25" y="36" width="1.5" height="8"/><rect x="63.25" y="20" width="1.5" height="8"/><rect x="15.25" y="20" width="1.5" height="8"/><path d="M10,64.75H70a.7502.7502,0,0,0,.75-.75V16a.7502.7502,0,0,0-.75-.75H10a.7502.7502,0,0,0-.75.75V64A.7502.7502,0,0,0,10,64.75Zm.75-48h58.5v14.5H10.75Zm0,16h58.5v14.5H10.75Zm0,16h58.5v14.5H10.75Z"/><rect x="63.25" y="52" width="1.5" height="8"/><rect x="15.25" y="52" width="1.5" height="8"/><circle cx="58" cy="24" r="1"/><circle cx="58" cy="40" r="1"/><circle cx="58" cy="56" r="1"/></svg>