<svg xmlns="http://www.w3.org/2000/svg" viewBox="0 0 80 80"><path d="M10.75,40a29.25,29.25,0,0,1,58.5,0h1.5a30.75,30.75,0,0,0-61.5,0Z"/><path d="M30,35.25A2.75,2.75,0,1,0,32.75,38a2.71639,2.71639,0,0,0-.3584-1.331L38.669,30.3916a2.65087,2.65087,0,0,0,2.6621,0L47.6084,36.669a2.65087,2.65087,0,0,0,0,2.6621L41.33105,45.6084A2.71639,2.71639,0,0,0,40,45.25,2.75,2.75,0,1,0,42.75,48a2.71639,2.71639,0,0,0-.3584-1.331L48.669,40.3916A2.71639,2.71639,0,0,0,50,40.75a2.75,2.75,0,0,0,0-5.5,2.71639,2.71639,0,0,0-1.331.3584L42.3916,29.33105A2.71639,2.71639,0,0,0,42.75,28a2.75,2.75,0,0,0-5.5,0,2.71639,2.71639,0,0,0,.3584,1.33105L31.33105,35.6084A2.71639,2.71639,0,0,0,30,35.25Zm0,4A1.25,1.25,0,1,1,31.25,38,1.25116,1.25116,0,0,1,30,39.25Zm10,10A1.25,1.25,0,1,1,41.25,48,1.25116,1.25116,0,0,1,40,49.25Zm10-12.5A1.25,1.25,0,1,1,48.75,38,1.25116,1.25116,0,0,1,50,36.75Zm-10-10A1.25,1.25,0,1,1,38.75,28,1.25116,1.25116,0,0,1,40,26.75Z"/><path d="M60,40.75A2.75,2.75,0,1,0,57.25,38a2.71639,2.71639,0,0,0,.3584,1.331L51.33105,45.6084A2.71639,2.71639,0,0,0,50,45.25,2.7528,2.7528,0,0,0,47.25,48a2.71639,2.71639,0,0,0,.3584,1.331L41.33105,55.6084A2.71639,2.71639,0,0,0,40,55.25,2.75,2.75,0,1,0,42.75,58a2.71639,2.71639,0,0,0-.3584-1.331L48.669,50.3916A2.71639,2.71639,0,0,0,50,50.75,2.7528,2.7528,0,0,0,52.75,48a2.71639,2.71639,0,0,0-.3584-1.331L58.669,40.3916A2.71639,2.71639,0,0,0,60,40.75Zm0-4A1.25,1.25,0,1,1,58.75,38,1.25116,1.25116,0,0,1,60,36.75ZM40,59.25A1.25,1.25,0,1,1,41.25,58,1.25116,1.25116,0,0,1,40,59.25Zm10-10A1.25,1.25,0,1,1,51.25,48,1.25116,1.25116,0,0,1,50,49.25Z"/><path d="M40,40.75A2.75,2.75,0,1,0,37.25,38a2.71639,2.71639,0,0,0,.3584,1.331L31.33105,45.6084a2.65087,2.65087,0,0,0-2.6621,0L22.3916,39.33105A2.71639,2.71639,0,0,0,22.75,38,2.75,2.75,0,1,0,20,40.75a2.71639,2.71639,0,0,0,1.33105-.3584L27.6084,46.669A2.71639,2.71639,0,0,0,27.25,48a2.75,2.75,0,0,0,5.5,0,2.71639,2.71639,0,0,0-.3584-1.331L38.669,40.3916A2.71639,2.71639,0,0,0,40,40.75Zm0-4A1.25,1.25,0,1,1,38.75,38,1.25116,1.25116,0,0,1,40,36.75Zm-20,2.5A1.25,1.25,0,1,1,21.25,38,1.25116,1.25116,0,0,1,20,39.25Zm10,10A1.25,1.25,0,1,1,31.25,48,1.25116,1.25116,0,0,1,30,49.25Z"/></svg>