<svg xmlns="http://www.w3.org/2000/svg" viewBox="0 0 80 80"><path d="M40,29.25a14.75046,14.75046,0,1,0,10.42969,4.32031A14.65009,14.65009,0,0,0,40,29.25Zm9.36914,24.11914A13.24988,13.24988,0,1,1,53.25,44,13.163,13.163,0,0,1,49.36914,53.36914Z"/><path d="M46.87988,36.05957l-1.14306,1.14124A8.89907,8.89907,0,0,0,33.70508,50.29492l1.06054-1.06054a7.40258,7.40258,0,0,1,9.90967-10.97376L41.30786,41.6225A2.70591,2.70591,0,0,0,39.9541,41.25a2.73755,2.73755,0,1,0,2.73828,2.7373,2.70317,2.70317,0,0,0-.33838-1.29058l5.58643-5.5766ZM39.9541,45.2251a1.23755,1.23755,0,1,1,1.23828-1.2378A1.23865,1.23865,0,0,1,39.9541,45.2251Z"/><path d="M9.25,24V64a.7502.7502,0,0,0,.75.75H70a.7502.7502,0,0,0,.75-.75V16a.7502.7502,0,0,0-.75-.75H10a.7502.7502,0,0,0-.75.75Zm1.5-7.25h58.5v6.5H10.75Zm0,8h58.5v38.5H10.75Z"/><circle cx="16" cy="20" r="1"/><circle cx="22" cy="20" r="1"/><circle cx="28" cy="20" r="1"/></svg>