<svg xmlns="http://www.w3.org/2000/svg" viewBox="0 0 80 80"><path d="M40.75,24V11.81055l2.71973,2.71972,1.06054-1.06054-4-4a.74972.74972,0,0,0-1.06054,0l-4,4,1.06054,1.06054L39.25,11.81055V24Z"/><path d="M39.25,56V68.18945l-2.71973-2.71972-1.06054,1.06054,4,4a.74971.74971,0,0,0,1.06054,0l4-4-1.06054-1.06054L40.75,68.18945V56Z"/><path d="M13.46973,44.53027l1.06054-1.06054L11.81055,40.75H22v-1.5H11.81055l2.71972-2.71973-1.06054-1.06054-4,4a.74972.74972,0,0,0,0,1.06054Z"/><path d="M66.53027,44.53027l4-4a.74972.74972,0,0,0,0-1.06054l-4-4-1.06054,1.06054L68.18945,39.25H58v1.5H68.18945l-2.71972,2.71973Z"/><path d="M25.25,34V46a.7502.7502,0,0,0,.75.75H54a.7502.7502,0,0,0,.75-.75V34a.7502.7502,0,0,0-.75-.75H26A.7502.7502,0,0,0,25.25,34Zm1.5.75h26.5v10.5H26.75Z"/><path d="M41.43359,39.792a1.68308,1.68308,0,0,0,.27051-.25049,1.49854,1.49854,0,0,0,.39063-1.023,1.55532,1.55532,0,0,0-.59278-1.27343,2.36081,2.36081,0,0,0-1.51074-.47022,2.53842,2.53842,0,0,0-1.42578.3916,1.82838,1.82838,0,0,0-.83691,1.28858.25.25,0,0,0,.24707.28906h.82421a.251.251,0,0,0,.24708-.209.6419.6419,0,0,1,.23437-.40821,1.21148,1.21148,0,0,1,1.24219-.05322.55707.55707,0,0,1,.27148.502.66885.66885,0,0,1-.20117.51465.68054.68054,0,0,1-.49609.19043h-.457a.25017.25017,0,0,0-.25.25V40.208a.25017.25017,0,0,0,.25.25h.47364a.96588.96588,0,0,1,.57129.16455.74743.74743,0,0,1,.30468.6626.7047.7047,0,0,1-.209.53125A1.07138,1.07138,0,0,1,40,42.07178a.843.843,0,0,1-.96484-.6875.24925.24925,0,0,0-.24317-.19385H37.96a.25009.25009,0,0,0-.248.28369,1.8637,1.8637,0,0,0,.64649,1.208,2.44908,2.44908,0,0,0,1.65722.543,2.52575,2.52575,0,0,0,1.54688-.4585A1.74937,1.74937,0,0,0,42.29,41.30176a1.69221,1.69221,0,0,0-.38477-1.11572A1.74106,1.74106,0,0,0,41.43359,39.792Z"/><path d="M58.68262,32.43408c4.05371-6.05273,4.64062-10.17187,1.84765-12.96435-2.76269-2.76368-7.0332-2.13965-13.05468,1.90771l.83789,1.24512c7.09961-4.77393,9.76757-3.48047,11.15625-2.09229,1.38281,1.3833,2.67773,4.03516-2.03321,11.06885Z"/><path d="M21.30078,47.58252c-4.042,6.041-4.624,10.15527-1.83105,12.94775a5.65345,5.65345,0,0,0,4.16308,1.72754c2.34375,0,5.23047-1.18066,8.78418-3.5581l-.834-1.24707c-7.01758,4.69629-9.669,3.40039-11.05274,2.01709S17.85059,55.436,22.54688,48.4165Z"/><path d="M19.46973,19.46973c-2.79785,2.79687-2.19141,6.94043,1.9082,13.04l1.24414-.83692c-4.76855-7.09473-3.47754-9.75732-2.0918-11.14258,1.38672-1.38623,4.04395-2.68506,11.06934,2.01856l.834-1.2461C26.46973,17.31055,22.22949,16.709,19.46973,19.46973Z"/><path d="M57.45312,48.40186c4.70313,7.02587,3.40333,9.68164,2.01661,11.06787-1.37989,1.37939-4.0293,2.67041-11.05274-2.03125l-.834,1.24609c3.56054,2.38428,6.45117,3.56738,8.7959,3.56689a5.63687,5.63687,0,0,0,4.15136-1.72119c2.75977-2.75927,2.16114-6.999-1.83105-12.9624Z"/></svg>