<svg xmlns="http://www.w3.org/2000/svg" viewBox="0 0 80 80"><path d="M31,56.25a3.75657,3.75657,0,0,0-3.67432,3H24v1.5h3.32568a3.7501,3.7501,0,0,0,7.34864,0H56v-1.5H34.67432A3.75657,3.75657,0,0,0,31,56.25Zm0,6A2.25,2.25,0,1,1,33.25,60,2.25278,2.25278,0,0,1,31,62.25Z"/><path d="M56,51.25H52.67432a3.7501,3.7501,0,0,0-7.34864,0H24v1.5H45.32568a3.7501,3.7501,0,0,0,7.34864,0H56Zm-7,3A2.25,2.25,0,1,1,51.25,52,2.25278,2.25278,0,0,1,49,54.25Z"/><path d="M56,43.25H38.67432a3.7501,3.7501,0,0,0-7.34864,0H24v1.5h7.32568a3.7501,3.7501,0,0,0,7.34864,0H56Zm-21,3A2.25,2.25,0,1,1,37.25,44,2.25278,2.25278,0,0,1,35,46.25Z"/><path d="M20,52.75v-1.5a9.25,9.25,0,0,1,0-18.5,9.1545,9.1545,0,0,1,4.01562.92773.7491.7491,0,0,0,1.03126-.41992,15.9031,15.9031,0,0,1,30.79394,3.91455.75047.75047,0,0,0,1.207.52344A7.48766,7.48766,0,0,1,61.667,36.0835a7.58325,7.58325,0,0,1,0,15.1665H60v1.5h1.667a9.08325,9.08325,0,0,0,0-18.1665,8.88462,8.88462,0,0,0-4.49023,1.21875,17.404,17.404,0,0,0-33.251-3.80127A10.58906,10.58906,0,0,0,20,31.25a10.75,10.75,0,0,0,0,21.5Z"/></svg>