<svg xmlns="http://www.w3.org/2000/svg" viewBox="0 0 80 80"><path d="M70.53027,39.46973l-4-4-1.06054,1.06054L68.18945,39.25H62.67407A4.74118,4.74118,0,1,0,57.25,44.67407V65.25H44.67407A4.73734,4.73734,0,0,0,40.75,61.32593V18.67407A4.74118,4.74118,0,1,0,35.32593,13.25H24a.7502.7502,0,0,0-.75.75V39.25H18.67407a4.75,4.75,0,1,0,0,1.5H24a.7502.7502,0,0,0,.75-.75V14.75H35.32593A4.73734,4.73734,0,0,0,39.25,18.67407V61.32593A4.74118,4.74118,0,1,0,44.67407,66.75H58a.7502.7502,0,0,0,.75-.75V44.67407A4.73734,4.73734,0,0,0,62.67407,40.75h5.51538l-2.71972,2.71973,1.06054,1.06054,4-4A.74972.74972,0,0,0,70.53027,39.46973ZM14,43.25A3.25,3.25,0,1,1,17.25,40,3.25377,3.25377,0,0,1,14,43.25ZM36.75,14A3.25,3.25,0,1,1,40,17.25,3.25377,3.25377,0,0,1,36.75,14ZM40,69.25A3.25,3.25,0,1,1,43.25,66,3.25377,3.25377,0,0,1,40,69.25Zm18-26A3.25,3.25,0,1,1,61.25,40,3.25377,3.25377,0,0,1,58,43.25Z"/><polygon points="30.53 42.53 32 41.061 33.47 42.53 34.53 41.47 33.061 40 34.53 38.53 33.47 37.47 32 38.939 30.53 37.47 29.47 38.53 30.939 40 29.47 41.47 30.53 42.53"/><polygon points="49.47 37.47 48 38.939 46.53 37.47 45.47 38.53 46.939 40 45.47 41.47 46.53 42.53 48 41.061 49.47 42.53 50.53 41.47 49.061 40 50.53 38.53 49.47 37.47"/></svg>