<svg xmlns="http://www.w3.org/2000/svg" viewBox="0 0 80 80"><path d="M10,62.75h7.25v2.5H14v1.5h8v-1.5H18.75v-2.5H26a.7502.7502,0,0,0,.75-.75V52a.7502.7502,0,0,0-.75-.75H10a.7502.7502,0,0,0-.75.75V62A.7502.7502,0,0,0,10,62.75Zm.75-10h14.5v8.5H10.75Z"/><path d="M55.40039,63.1416H69a1.75212,1.75212,0,0,0,1.75-1.75V53.2085a1.75212,1.75212,0,0,0-1.75-1.75H55.40039a1.75212,1.75212,0,0,0-1.75,1.75v8.1831A1.75212,1.75212,0,0,0,55.40039,63.1416Zm-.25-9.9331a.25048.25048,0,0,1,.25-.25H69a.25048.25048,0,0,1,.25.25v8.1831a.25048.25048,0,0,1-.25.25H55.40039a.25048.25048,0,0,1-.25-.25Z"/><rect x="52" y="65.25" width="20" height="1.5"/><path d="M37.00488,66.75h6a1.75212,1.75212,0,0,0,1.75-1.75V53a1.75212,1.75212,0,0,0-1.75-1.75h-6a1.75213,1.75213,0,0,0-1.75,1.75V65A1.75213,1.75213,0,0,0,37.00488,66.75Zm-.25-13.75a.25048.25048,0,0,1,.25-.25h6a.25048.25048,0,0,1,.25.25V65a.25048.25048,0,0,1-.25.25h-6a.25048.25048,0,0,1-.25-.25Z"/><path d="M39.25,8V37.32587a4.75,4.75,0,1,0,1.5,0V8Zm4,34A3.25,3.25,0,1,1,40,38.75,3.25377,3.25377,0,0,1,43.25,42Z"/><path d="M47.25,8V29.74072a.75019.75019,0,0,0,.75.75H61.25v6.83515a4.75,4.75,0,1,0,1.5,0V29.74072a.7502.7502,0,0,0-.75-.75H48.75V8Zm18,34A3.25,3.25,0,1,1,62,38.75,3.25377,3.25377,0,0,1,65.25,42Z"/><path d="M32,30.75a.7502.7502,0,0,0,.75-.75V8h-1.5V29.25H18a.7502.7502,0,0,0-.75.75v7.32587a4.75,4.75,0,1,0,1.5,0V30.75ZM21.25,42A3.25,3.25,0,1,1,18,38.75,3.25377,3.25377,0,0,1,21.25,42Z"/></svg>