<svg xmlns="http://www.w3.org/2000/svg" viewBox="0 0 80 80"><path d="M12,60.75H39.25v2.5H28v1.5H52v-1.5H40.75v-2.5H68A2.7528,2.7528,0,0,0,70.75,58V22A2.7528,2.7528,0,0,0,68,19.25H12A2.7528,2.7528,0,0,0,9.25,22V58A2.7528,2.7528,0,0,0,12,60.75ZM10.75,22A1.25116,1.25116,0,0,1,12,20.75H68A1.25116,1.25116,0,0,1,69.25,22V58A1.25116,1.25116,0,0,1,68,59.25H12A1.25116,1.25116,0,0,1,10.75,58Z"/><path d="M67.46973,9.46973,64,12.93945v2.1211l4-4,4,4v-2.1211L68.53027,9.46973A.74972.74972,0,0,0,67.46973,9.46973Z"/><path d="M25.33887,44.29785h1.42187a.15.15,0,0,0,.15039-.1499V40.80908h3.23242V44.148a.15.15,0,0,0,.1504.1499h1.43359a.15.15,0,0,0,.15039-.1499v-8a.15.15,0,0,0-.15039-.1499H30.294a.15.15,0,0,0-.1504.1499v3.25H26.91113v-3.25a.15.15,0,0,0-.15039-.1499H25.33887a.15.15,0,0,0-.15039.1499v8A.15.15,0,0,0,25.33887,44.29785Z"/><path d="M34.14941,44.29785a.15166.15166,0,0,0,.125-.0664L36.1709,41.398l1.85351,2.832a.15106.15106,0,0,0,.126.06787h1.72168a.14972.14972,0,0,0,.124-.23437l-2.80761-4.124,2.66113-3.7041a.14983.14983,0,0,0-.12207-.2373H38.18262a.15023.15023,0,0,0-.124.06543l-1.752,2.562-1.72168-2.561a.14864.14864,0,0,0-.124-.0664H32.77148a.14968.14968,0,0,0-.123.23535l2.61914,3.78125L32.46,44.0625a.14988.14988,0,0,0,.123.23535Z"/><path d="M40.72754,44.29785h2.72168a4.30926,4.30926,0,0,0,2.85254-.90185,4.03633,4.03633,0,0,0,1.28711-3.24854,4.30062,4.30062,0,0,0-.96094-2.99023,4.06473,4.06473,0,0,0-3.14551-1.15918H40.72754a.15.15,0,0,0-.15039.1499v8A.15.15,0,0,0,40.72754,44.29785ZM42.2998,37.353h1.19434a2.24909,2.24909,0,0,1,1.63965.5791,3.00725,3.00725,0,0,1,.72168,2.21533,3.22927,3.22927,0,0,1-.54688,2.00928,2.12737,2.12737,0,0,1-1.792.76367H42.2998Z"/><path d="M48.68359,44.29785h1.42188a.15.15,0,0,0,.15039-.1499V41.52h1.13867c2.26758,0,3.417-.92139,3.417-2.73877,0-1.84668-1.14941-2.7832-3.417-2.7832H48.68359a.15.15,0,0,0-.15039.1499v8A.15.15,0,0,0,48.68359,44.29785Zm1.57227-6.93359H51.417a1.90123,1.90123,0,0,1,1.16211.3125,1.30414,1.30414,0,0,1,.4541,1.10449c0,.92334-.52832,1.37207-1.61621,1.37207H50.25586Z"/></svg>