<svg xmlns="http://www.w3.org/2000/svg" viewBox="0 0 80 80"><path d="M27.25,22A12.75,12.75,0,1,0,40,9.25,12.76457,12.76457,0,0,0,27.25,22ZM40,10.75A11.25,11.25,0,1,1,28.75,22,11.26294,11.26294,0,0,1,40,10.75Z"/><path d="M64.75,52A12.76457,12.76457,0,0,0,52,39.25H28A12.76457,12.76457,0,0,0,15.25,52V72h1.5V52A11.26294,11.26294,0,0,1,28,40.75H52A11.26294,11.26294,0,0,1,63.25,52V72h1.5Z"/><path d="M48,50.93945l-2.53027,2.53028a.74972.74972,0,0,0,0,1.06054L48,57.06055,49.06055,56l-2-2,2-2Z"/><path d="M56,57.06055l2.53027-2.53028a.74972.74972,0,0,0,0-1.06054L56,50.93945,54.93945,52l2,2-2,2Z"/><rect x="45.67544" y="53.24958" width="12.64911" height="1.50085" transform="translate(-15.67274 86.25523) rotate(-71.56505)"/></svg>