<svg xmlns="http://www.w3.org/2000/svg" viewBox="0 0 80 80"><path d="M12,70.75H40A2.7528,2.7528,0,0,0,42.75,68V52.38239a16.75,16.75,0,1,0,0-24.76478V12A2.7528,2.7528,0,0,0,40,9.25H12A2.7528,2.7528,0,0,0,9.25,12V68A2.7528,2.7528,0,0,0,12,70.75Zm42-46a15.25061,15.25061,0,1,1-10.7832,4.4668A15.14934,15.14934,0,0,1,54,24.75ZM10.75,12A1.25116,1.25116,0,0,1,12,10.75H40A1.25116,1.25116,0,0,1,41.25,12V29.15515a16.70135,16.70135,0,0,0,0,21.6897V68A1.25116,1.25116,0,0,1,40,69.25H12A1.25116,1.25116,0,0,1,10.75,68Z"/><rect x="22" y="15.25" width="8" height="1.5"/><path d="M26,59.25A2.75,2.75,0,1,0,28.75,62,2.7528,2.7528,0,0,0,26,59.25Zm0,4A1.25,1.25,0,1,1,27.25,62,1.25116,1.25116,0,0,1,26,63.25Z"/><path d="M26,34.81787a10.21151,10.21151,0,0,1,7.456,3.26123l1.0879-1.03222a11.6525,11.6525,0,0,0-17.0879,0L18.544,38.0791A10.21151,10.21151,0,0,1,26,34.81787Z"/><path d="M20.12305,39.85889l1.08789,1.03222a6.51979,6.51979,0,0,1,9.57812,0L31.877,39.85889a8.01839,8.01839,0,0,0-11.7539,0Z"/><path d="M22.78906,42.67139,23.877,43.70361a2.95208,2.95208,0,0,1,4.2461,0l1.08789-1.03222a4.38447,4.38447,0,0,0-6.42188,0Z"/><path d="M47.46,46.53955a9.24521,9.24521,0,0,1,12.52368-13.5838l-4.65259,4.65271A2.71644,2.71644,0,0,0,54,37.25,2.75,2.75,0,1,0,56.75,40a2.71616,2.71616,0,0,0-.3584-1.331l8.13867-8.13874-1.06054-1.06054L61.04419,31.8952A10.74319,10.74319,0,0,0,46.39941,47.6001ZM54,41.25A1.25,1.25,0,1,1,55.25,40,1.25116,1.25116,0,0,1,54,41.25Z"/><circle cx="26" cy="45.87238" r="1"/></svg>