<svg xmlns="http://www.w3.org/2000/svg" viewBox="0 0 80 80"><rect x="31.25" y="40" width="1.5" height="2"/><rect x="35.25" y="38" width="1.5" height="4"/><path d="M67.10742,51.78125a4.731,4.731,0,0,0-8.26465-1.76855L53.19141,46.75H56a.7502.7502,0,0,0,.75-.75V34a.7502.7502,0,0,0-.75-.75H53.19629L58.834,29.99091a4.78477,4.78477,0,1,0-.74023-1.30451L50.19922,33.25H40.75V18.67419A4.74124,4.74124,0,0,0,40.01172,9.25H40.001a4.74089,4.74089,0,0,0-.751,9.42352V33.25h-2.5V24h-1.5v9.25H32.751L32.75,28h-1.5l.001,5.25h-1.4502l-7.8916-4.56183a4.72,4.72,0,0,0-2.041-5.79608,4.75313,4.75313,0,1,0-1.166,8.69873,4.70076,4.70076,0,0,0,2.45605-1.60443L26.80371,33.25H24a.7502.7502,0,0,0-.75.75V46a.7502.7502,0,0,0,.75.75h2.61133l-5.46,3.25537a4.75767,4.75767,0,1,0,.75049,1.2984L29.53906,46.75H39.25V61.32581A4.74124,4.74124,0,0,0,39.98828,70.75H39.999a4.74089,4.74089,0,0,0,.751-9.42352V46.75h9.44189l7.89942,4.56085A4.73634,4.73634,0,0,0,62.50879,57.749a4.74882,4.74882,0,0,0,4.59863-5.96777Zm-6.21-27.59961a3.23785,3.23785,0,0,1,1.61426-.4331,3.27682,3.27682,0,0,1,.85351.11425,3.24979,3.24979,0,1,1-2.46777.31885ZM20.294,28.63135A3.24837,3.24837,0,1,1,20.625,26.166,3.227,3.227,0,0,1,20.294,28.63135Zm-1.19141,27.187a3.24947,3.24947,0,1,1,1.19922-4.437A3.23149,3.23149,0,0,1,19.10254,55.81836ZM36.75,13.99268A3.25,3.25,0,0,1,40.001,10.75h.00683a3.25,3.25,0,0,1-.00879,6.5h-.00683A3.254,3.254,0,0,1,36.75,13.99268Zm6.5,52.01464A3.25,3.25,0,0,1,39.999,69.25h-.00683a3.25,3.25,0,0,1,.00879-6.5h.00683A3.254,3.254,0,0,1,43.25,66.00732ZM24.75,45.25V34.75h30.5v10.5Zm40.57812,9.38135A3.24981,3.24981,0,1,1,65.6582,52.166,3.255,3.255,0,0,1,65.32812,54.63135Z"/><circle cx="46" cy="40" r="1"/><circle cx="50" cy="40" r="1"/></svg>