<svg xmlns="http://www.w3.org/2000/svg" viewBox="0 0 80 80"><path d="M39.3291,9.66455l-4,8A.75023.75023,0,0,0,36,18.75h6.78613l-3.457,6.91455,1.3418.6709,4-8A.75023.75023,0,0,0,44,17.25H37.21387l3.457-6.91455Z"/><path d="M9.25,70a.7502.7502,0,0,0,.75.75H70a.7502.7502,0,0,0,.75-.75V58h-1.5V69.25H10.75V58H9.25Z"/><path d="M9.25,52a.7502.7502,0,0,0,.75.75H70a.7502.7502,0,0,0,.75-.75V40h-1.5V51.25H10.75V40H9.25Z"/><path d="M9.25,22V34a.7502.7502,0,0,0,.75.75H70a.7502.7502,0,0,0,.75-.75V22h-1.5V33.25H10.75V22Z"/></svg>