<svg xmlns="http://www.w3.org/2000/svg" viewBox="0 0 80 80"><path d="M60.666,64.6665V43.3335a2.00157,2.00157,0,0,0-1.99805-2H56.68262c.03491-.44129.06738-.8833.06738-1.3335a16.68,16.68,0,0,0-.85718-5.25H57.333a7.41675,7.41675,0,1,0,0-14.8335,7.24014,7.24014,0,0,0-3.47949.88965,14.07329,14.07329,0,0,0-26.79395-2.998A8.62594,8.62594,0,0,0,24,17.25a8.75,8.75,0,0,0,0,17.5h.105A16.66083,16.66083,0,0,0,23.25,40c0,.44775.02856.89124.06323,1.3335H21.36035a2.00157,2.00157,0,0,0-1.998,2v21.333a2.00157,2.00157,0,0,0,1.998,2H39.31348v2.6333H30.21387v1.4004H49.81445V69.2998H40.71387V66.6665H58.668A2.00157,2.00157,0,0,0,60.666,64.6665ZM24,33.25a7.25,7.25,0,0,1,0-14.5,7.18043,7.18043,0,0,1,3.14746.727.7491.7491,0,0,0,1.03125-.41992,12.5725,12.5725,0,0,1,24.34473,3.09473.75088.75088,0,0,0,1.207.52294A5.83813,5.83813,0,0,1,57.333,21.4165a5.91675,5.91675,0,1,1,0,11.8335H26.3457A15.2535,15.2535,0,0,1,40,24.75h.18945l-2.71972,2.71973,1.06054,1.06054,4-4a.74972.74972,0,0,0,0-1.06054l-4-4-1.06054,1.06054L40.18945,23.25H40a16.76585,16.76585,0,0,0-15.31763,10ZM55.25,40c0,.4502-.0293.89319-.06763,1.3335H24.81323C24.7749,40.89185,24.75,40.44775,24.75,40a15.14182,15.14182,0,0,1,.95093-5.25H54.30566A15.17686,15.17686,0,0,1,55.25,40ZM21.36035,65.3335a.66736.66736,0,0,1-.666-.667V43.3335a.66736.66736,0,0,1,.666-.667H23.478a16.61147,16.61147,0,0,0,.98974,3.61475l1.39063-.5625a15.102,15.102,0,0,1-.86646-3.05225H55.00146A15.26405,15.26405,0,0,1,40,55.25h-.18945l2.71972-2.71973-1.06054-1.06054-4,4a.74972.74972,0,0,0,0,1.06054l4,4,1.06054-1.06054L39.81055,56.75H40A16.762,16.762,0,0,0,56.51709,42.6665H58.668a.66736.66736,0,0,1,.666.667v21.333a.66736.66736,0,0,1-.666.667Z"/></svg>