<svg xmlns="http://www.w3.org/2000/svg" viewBox="0 0 80 80"><path d="M27.25,22A12.75,12.75,0,1,0,40,9.25,12.76457,12.76457,0,0,0,27.25,22Zm24,0A11.25,11.25,0,1,1,40,10.75,11.26294,11.26294,0,0,1,51.25,22Z"/><path d="M64.75,72V52A12.76457,12.76457,0,0,0,52,39.25H28A12.76457,12.76457,0,0,0,15.25,52V72h1.5V52A11.26294,11.26294,0,0,1,28,40.75H52A11.26294,11.26294,0,0,1,63.25,52V72Z"/><path d="M51.46973,45.46973l-4.83789,4.838a8.82181,8.82181,0,1,0,.885,1.236l5.01342-5.01349ZM40,63.25a7.25,7.25,0,1,1,5.57153-11.88208L40,56.93945l-3.46973-3.46972-1.06054,1.06054,4,4a.74971.74971,0,0,0,1.06054,0l5.88892-5.889A7.241,7.241,0,0,1,40,63.25Z"/></svg>