<svg xmlns="http://www.w3.org/2000/svg" viewBox="0 0 80 80"><path d="M70.708,49.9043,67.9043,31.12646a.718.718,0,0,0-.03369-.13671A11.59153,11.59153,0,0,0,56.51514,21.228a11.16667,11.16667,0,0,0-6.77442,2H30.25928a11.11478,11.11478,0,0,0-6.7461-2,11.59121,11.59121,0,0,0-11.355,9.7583.75353.75353,0,0,0-.03418.14013L9.31885,49.91211a7.695,7.695,0,0,0,6.24463,8.75342,7.53811,7.53811,0,0,0,7.499-3.29151l4.51172-8.64892a3.4174,3.4174,0,0,1,3.477-1.95313H48c.74609,0,3.25342.13526,4.20361,1.87549l4.80762,8.80371a7.55668,7.55668,0,0,0,6.2207,3.31934,7.30657,7.30657,0,0,0,1.23291-.105,7.695,7.695,0,0,0,6.24463-8.75342ZM47.25,43.228H32.75V40.75h14.5ZM64.2041,57.144a5.94716,5.94716,0,0,1-5.87744-2.49658L53.55811,45.9082c-1.1023-2.02026-3.36939-2.52929-4.80811-2.64428V40a.7502.7502,0,0,0-.75-.75H32a.7502.7502,0,0,0-.75.75v3.228h-.19873a4.94236,4.94236,0,0,0-4.84522,2.7832L21.74023,54.583a5.96808,5.96808,0,0,1-5.916,2.561,6.23188,6.23188,0,0,1-4.97754-7.0122l2.78418-18.64746a.76985.76985,0,0,0,.02832-.11573,10.05839,10.05839,0,0,1,9.854-8.59668,9.51559,9.51559,0,0,1,6.01172,1.83594A.77218.77218,0,0,0,30,24.772H50a.77218.77218,0,0,0,.4751-.16406,9.56206,9.56206,0,0,1,6.04-1.83594,10.05839,10.05839,0,0,1,9.854,8.59668.7388.7388,0,0,0,.02783.11328l2.78418,18.646A6.23315,6.23315,0,0,1,64.2041,57.144Z"/><polygon points="22.764 28.001 21.264 27.999 21.258 31.25 18 31.25 18 32.75 21.255 32.75 21.25 35.999 22.75 36.001 22.755 32.75 26 32.75 26 31.25 22.758 31.25 22.764 28.001"/><rect x="34" y="31.25" width="4.1377" height="1.5"/><rect x="42.01416" y="31.25" width="4.1377" height="1.5"/><circle cx="54.01416" cy="32" r="1"/><circle cx="62.01416" cy="32" r="1"/><circle cx="58.01416" cy="28" r="1"/><circle cx="58.01416" cy="36" r="1"/></svg>