<svg xmlns="http://www.w3.org/2000/svg" viewBox="0 0 80 80"><path d="M60.76416,40V10a.74978.74978,0,0,0-1.08545-.6709L40.01416,19.16162,20.34961,9.3291A.74978.74978,0,0,0,19.26416,10V40a.75019.75019,0,0,0,.41455.6709l8,4,.6709-1.3418-7.58545-3.79248v-8.323L39.67871,40.6709a.75084.75084,0,0,0,.6709,0l18.91455-9.45728v8.323L51.67871,43.3291l.6709,1.3418,8-4A.75019.75019,0,0,0,60.76416,40Zm-1.5-10.46362-19.25,9.62524-19.25-9.62524V21.21362L39.67871,30.6709a.75084.75084,0,0,0,.6709,0l18.91455-9.45728Zm0-10-19.25,9.62524-19.25-9.62524v-8.323L39.67871,20.6709a.75082.75082,0,0,0,.6709,0l18.91455-9.45752Z"/><path d="M31.3833,52.8252l1.06055,1.06054a10.706,10.706,0,0,1,15.14062,0L48.645,52.8252a12.20544,12.20544,0,0,0-17.26172,0Z"/><path d="M34.0835,55.52539,35.144,56.58594a6.88782,6.88782,0,0,1,9.74024,0l1.06054-1.06055a8.38727,8.38727,0,0,0-11.86132,0Z"/><path d="M36.78369,58.22559l1.06055,1.06054a3.14267,3.14267,0,0,1,4.33984,0l1.06055-1.06054a4.56791,4.56791,0,0,0-6.46094,0Z"/><path d="M40.01416,43.25A12.75,12.75,0,1,0,52.76416,56,12.76457,12.76457,0,0,0,40.01416,43.25Zm0,24A11.25,11.25,0,1,1,51.26416,56,11.26294,11.26294,0,0,1,40.01416,67.25Z"/><circle cx="40.01416" cy="62" r="1"/></svg>