<svg xmlns="http://www.w3.org/2000/svg" viewBox="0 0 80 80"><path d="M9.4834,70.53027a.7496.7496,0,0,0,.76758.18116l48-16a.75035.75035,0,0,0,.293-1.2417L51.4873,46.41321A3.49684,3.49684,0,0,0,53.51367,43.25a2.00229,2.00229,0,0,1,2-2,3.50424,3.50424,0,0,0,3.5-3.5,2.00229,2.00229,0,0,1,2-2,3.50424,3.50424,0,0,0,3.5-3.5,2.00229,2.00229,0,0,1,2-2,3.50424,3.50424,0,0,0,3.5-3.5h-1.5a2.00229,2.00229,0,0,1-2,2,3.50424,3.50424,0,0,0-3.5,3.5,2.00229,2.00229,0,0,1-2,2,3.50424,3.50424,0,0,0-3.5,3.5,2.00229,2.00229,0,0,1-2,2,3.50424,3.50424,0,0,0-3.5,3.5,1.99666,1.99666,0,0,1-1.718,1.97144L36.55664,31.4823A3.49038,3.49038,0,0,0,38.25,28.5a2.00229,2.00229,0,0,1,2-2,3.50424,3.50424,0,0,0,3.5-3.5,2.00229,2.00229,0,0,1,2-2,3.50424,3.50424,0,0,0,3.5-3.5,2.00229,2.00229,0,0,1,2-2,3.50424,3.50424,0,0,0,3.5-3.5h-1.5a2.00229,2.00229,0,0,1-2,2,3.50424,3.50424,0,0,0-3.5,3.5,2.00229,2.00229,0,0,1-2,2,3.50424,3.50424,0,0,0-3.5,3.5,2.00229,2.00229,0,0,1-2,2,3.50424,3.50424,0,0,0-3.5,3.5,1.99781,1.99781,0,0,1-1.30688,1.8689L26.544,21.46973a.75042.75042,0,0,0-1.24219.293l-16,48A.74955.74955,0,0,0,9.4834,70.53027ZM26.3418,23.38818,34.20337,31.25H23.72119ZM23.22119,32.75H35.70337l6.49975,6.5H21.0542Zm-2.667,8H43.70312l6.49976,6.5H18.38745Zm-2.66675,8H51.70288L56.625,53.67236,51.89209,55.25H15.7207Zm-2.66675,8H47.39185L27.8916,63.25H13.054Zm-2.66674,8h10.8374L11.19922,68.814Z"/><rect x="38" y="11.25" width="4" height="1.5"/><rect x="46" y="31.25" width="4" height="1.5"/><rect x="53.26367" y="22" width="1.5" height="4"/><rect x="31.25" y="12" width="1.5" height="4"/><rect x="65.26367" y="44" width="1.5" height="4"/><rect x="65.39235" y="11.75008" width="4.24264" height="1.49984" transform="translate(10.93546 51.40054) rotate(-45)"/><rect x="62.01367" y="21.25" width="4" height="1.5"/></svg>