<svg xmlns="http://www.w3.org/2000/svg" viewBox="0 0 80 80"><path d="M62.76367,16a2.7528,2.7528,0,0,0-2.75-2.75h-11.25V10a.7502.7502,0,0,0-.75-.75h-16a.7502.7502,0,0,0-.75.75v3.25h-11.25a2.7528,2.7528,0,0,0-2.75,2.75V68a2.7528,2.7528,0,0,0,2.75,2.75h40a2.7528,2.7528,0,0,0,2.75-2.75Zm-30-5.25h14.5v4.5h-14.5Zm28.5,57.25a1.25116,1.25116,0,0,1-1.25,1.25h-40a1.25116,1.25116,0,0,1-1.25-1.25V16a1.25116,1.25116,0,0,1,1.25-1.25h11.25V16a.7502.7502,0,0,0,.75.75h16a.7502.7502,0,0,0,.75-.75V14.75h11.25a1.25116,1.25116,0,0,1,1.25,1.25Z"/><rect x="32" y="21.25" width="24" height="1.5"/><rect x="32" y="25.25" width="18" height="1.5"/><path d="M28,33.25H24.01367a.7502.7502,0,0,0-.75.75v3.98584a.7502.7502,0,0,0,.75.75H28a.7502.7502,0,0,0,.75-.75V34A.7502.7502,0,0,0,28,33.25Zm-.75,3.98584H24.76367V34.75H27.25Z"/><rect x="32" y="33.25" width="24" height="1.5"/><rect x="32" y="37.25" width="18" height="1.5"/><path d="M28,45.25H24.01367a.7502.7502,0,0,0-.75.75v3.98584a.7502.7502,0,0,0,.75.75H28a.7502.7502,0,0,0,.75-.75V46A.7502.7502,0,0,0,28,45.25Zm-.75,3.98584H24.76367V46.75H27.25Z"/><rect x="32" y="45.25" width="24" height="1.5"/><rect x="32" y="49.25" width="18" height="1.5"/><path d="M28,57.25H24.01367a.7502.7502,0,0,0-.75.75v3.98584a.7502.7502,0,0,0,.75.75H28a.7502.7502,0,0,0,.75-.75V58A.7502.7502,0,0,0,28,57.25Zm-.75,3.98584H24.76367V58.75H27.25Z"/><rect x="32" y="57.25" width="24" height="1.5"/><rect x="32" y="61.25" width="18" height="1.5"/><polygon points="24.53 26.53 26 25.061 27.47 26.53 28.53 25.47 27.061 24 28.53 22.53 27.47 21.47 26 22.939 24.53 21.47 23.47 22.53 24.939 24 23.47 25.47 24.53 26.53"/></svg>