<svg xmlns="http://www.w3.org/2000/svg" viewBox="0 0 80 80"><path d="M40.01367,23.25a8.75,8.75,0,1,0,8.75,8.75A8.75967,8.75967,0,0,0,40.01367,23.25Zm0,16a7.25,7.25,0,1,1,7.25-7.25A7.258,7.258,0,0,1,40.01367,39.25Z"/><path d="M53.72656,26.69287a.74982.74982,0,0,0,.81739-.1626L58.32422,22.75h5.68945a2.7528,2.7528,0,0,0,2.75-2.75V12a2.7528,2.7528,0,0,0-2.75-2.75h-16a2.7528,2.7528,0,0,0-2.75,2.75v8a2.7528,2.7528,0,0,0,2.75,2.75h5.25V26A.75009.75009,0,0,0,53.72656,26.69287ZM48.01367,21.25a1.25116,1.25116,0,0,1-1.25-1.25V12a1.25116,1.25116,0,0,1,1.25-1.25h16a1.25116,1.25116,0,0,1,1.25,1.25v8a1.25116,1.25116,0,0,1-1.25,1.25h-6a.74942.74942,0,0,0-.53027.21973l-2.71973,2.71972V22a.7502.7502,0,0,0-.75-.75Z"/><path d="M68.01367,29.25H52v1.5H68.01367a1.25116,1.25116,0,0,1,1.25,1.25V59.25h-16.5V52a6.75769,6.75769,0,0,0-6.75-6.75h-12a6.75769,6.75769,0,0,0-6.75,6.75v7.25H10.76416V32a1.25116,1.25116,0,0,1,1.25-1.25H28v-1.5H12.01416a2.7528,2.7528,0,0,0-2.75,2.75V64a2.7528,2.7528,0,0,0,2.75,2.75H39.26367v2.5h-13.25v1.5h28v-1.5h-13.25v-2.5h27.25a2.7528,2.7528,0,0,0,2.75-2.75V32A2.7528,2.7528,0,0,0,68.01367,29.25ZM28.76367,52a5.25605,5.25605,0,0,1,5.25-5.25h12a5.25605,5.25605,0,0,1,5.25,5.25v7.25h-22.5Zm40.5,12a1.25116,1.25116,0,0,1-1.25,1.25H12.01416a1.25116,1.25116,0,0,1-1.25-1.25V60.75H69.26367Z"/></svg>