<svg xmlns="http://www.w3.org/2000/svg" viewBox="0 0 80 80"><path d="M50,70.75a.7502.7502,0,0,0,.75-.75V44.29932C55.24316,39.332,58.29053,21.23,46.53027,9.46973A.74993.74993,0,0,0,45.25,10V70a.7502.7502,0,0,0,.75.75ZM46.75,11.90137c10.314,11.84228,6.18555,28.10205,2.71973,31.56836A.75027.75027,0,0,0,49.25,44V69.25h-2.5Z"/><path d="M23.26416,10V26a6.755,6.755,0,0,0,4,6.15845V70a.7502.7502,0,0,0,.75.75h4a.7502.7502,0,0,0,.75-.75V32.15845a6.755,6.755,0,0,0,4-6.15845V10h-1.5V26a5.25,5.25,0,0,1-10.5,0V10Zm5.5,22.62927a6.53142,6.53142,0,0,0,2.5,0V69.25h-2.5Z"/><rect x="27.26416" y="10" width="1.5" height="16"/><rect x="31.26416" y="10" width="1.5" height="16"/></svg>