<svg xmlns="http://www.w3.org/2000/svg" viewBox="0 0 80 80"><path d="M68,23.32178H55.75V18A2.75311,2.75311,0,0,0,53,15.25H27A2.75311,2.75311,0,0,0,24.25,18v5.32178H12a2.75311,2.75311,0,0,0-2.75,2.75V62A2.75311,2.75311,0,0,0,12,64.75H68A2.75311,2.75311,0,0,0,70.75,62V26.07178A2.75311,2.75311,0,0,0,68,23.32178ZM25.75,18A1.25116,1.25116,0,0,1,27,16.75H53A1.25116,1.25116,0,0,1,54.25,18v5.32178H25.75Zm43.5,44A1.25116,1.25116,0,0,1,68,63.25H12A1.25116,1.25116,0,0,1,10.75,62V40.3938a2.98237,2.98237,0,0,0,1.39844.3562H36.99805v3.24756a.75019.75019,0,0,0,.75.75H42.334a.75019.75019,0,0,0,.75-.75V40.61768L67.85156,40.75A2.98237,2.98237,0,0,0,69.25,40.3938ZM38.49805,43.24756V36.47949H41.584v6.76807ZM69.25,38a1.33046,1.33046,0,0,1-1.39453,1.25L43.084,39.11768V35.72949a.75019.75019,0,0,0-.75-.75H37.74805a.75019.75019,0,0,0-.75.75V39.25H12.14844A1.33162,1.33162,0,0,1,10.75,38V26.07178a1.22612,1.22612,0,0,1,.082-.40625,1.18967,1.18967,0,0,1,.134-.2544c.0105-.01635.02124-.03222.03248-.04809a1.417,1.417,0,0,1,.84863-.5105c.01123-.00147.02148-.00537.033-.00659a1.56172,1.56172,0,0,1,.26831-.02417H67.85156a1.56172,1.56172,0,0,1,.26831.02417c.01148.00122.02173.00512.033.00659a1.41679,1.41679,0,0,1,.84888.51074c.011.01563.02173.03125.032.04736a1.19574,1.19574,0,0,1,.13428.25513,1.22349,1.22349,0,0,1,.082.406Z"/></svg>