<svg xmlns="http://www.w3.org/2000/svg" viewBox="0 0 80 80"><path d="M70,19.25H10a.7502.7502,0,0,0-.75.75V60a.7502.7502,0,0,0,.75.75H70a.7502.7502,0,0,0,.75-.75V20A.7502.7502,0,0,0,70,19.25Zm-.75,40H10.75V32.75h58.5Zm0-28H10.75v-4.5h58.5Zm0-6H10.75v-4.5h58.5Z"/><path d="M16,48.75H28a.7502.7502,0,0,0,.75-.75V40a.7502.7502,0,0,0-.75-.75H16a.7502.7502,0,0,0-.75.75v8A.7502.7502,0,0,0,16,48.75Zm8.75-8h2.5v2.5h-2.5Zm0,4h2.5v2.5h-2.5Zm-8-4h2.5v2.5h-2.5Zm0,4H20a.7502.7502,0,0,0,.75-.75V40.75h2.5v6.5h-6.5Z"/><rect x="36" y="41.25" width="28" height="1.5"/><rect x="48" y="45.25" width="16" height="1.5"/></svg>