<svg xmlns="http://www.w3.org/2000/svg" viewBox="0 0 80 80"><path d="M60.80664,40.7793c5.23535-.27808,8-3.29517,8-8.7793A.80656.80656,0,0,0,68,31.19336c-3.32642,0-5.74121,1.021-7.19336,2.98779v-13.395c5.23926-.27636,8-3.2998,8-8.78613A.80656.80656,0,0,0,68,11.19336c-5.76172,0-8.80664,3.04541-8.80664,8.80664v4.18115C57.74121,22.21436,55.32642,21.19336,52,21.19336A.80656.80656,0,0,0,51.19336,22c0,5.48413,2.76465,8.50122,8,8.7793V47.19336H40.80664V40.7793c5.23535-.27808,8-3.29517,8-8.7793A.80656.80656,0,0,0,48,31.19336c-3.32642,0-5.74121,1.021-7.19336,2.98779v-13.395c5.23926-.27636,8-3.2998,8-8.78613A.80656.80656,0,0,0,48,11.19336c-5.76172,0-8.80664,3.04541-8.80664,8.80664v4.18115C37.74121,22.21436,35.32642,21.19336,32,21.19336A.80656.80656,0,0,0,31.19336,22c0,5.48413,2.76465,8.50122,8,8.7793V47.19336H20.80664V40.7793c5.23535-.27808,8-3.29517,8-8.7793A.80656.80656,0,0,0,28,31.19336c-3.32642,0-5.74121,1.021-7.19336,2.98779V20.7793c5.23535-.27808,8-3.29517,8-8.7793A.80656.80656,0,0,0,28,11.19336c-5.76172,0-8.80664,3.04541-8.80664,8.80664v4.18115C17.74121,22.21436,15.32642,21.19336,12,21.19336A.80656.80656,0,0,0,11.19336,22c0,5.48413,2.76465,8.50122,8,8.7793V47.19336H8v1.61328H72V47.19336H60.80664Zm6.36328-7.94922c-.23633,4.06787-2.27148,6.104-6.33984,6.33984C61.06641,35.10205,63.10156,33.06592,67.16992,32.83008Zm0-20c-.23633,4.06787-2.27148,6.104-6.33984,6.33984C61.06641,15.10205,63.10156,13.06592,67.16992,12.83008Zm-14.33984,10c4.06836.23584,6.10351,2.272,6.33984,6.33984C55.10156,28.93408,53.06641,26.898,52.83008,22.83008Zm-5.66016,10c-.23633,4.06787-2.27148,6.104-6.33984,6.33984C41.06641,35.10205,43.10156,33.06592,47.16992,32.83008Zm0-20c-.23633,4.06787-2.27148,6.104-6.33984,6.33984C41.06641,15.10205,43.10156,13.06592,47.16992,12.83008Zm-14.33984,10c4.06836.23584,6.10351,2.272,6.33984,6.33984C35.10156,28.93408,33.06641,26.898,32.83008,22.83008Zm-5.66016,10c-.23633,4.06787-2.27148,6.104-6.33984,6.33984C21.06641,35.10205,23.10156,33.06592,27.16992,32.83008Zm0-20c-.23633,4.06787-2.27148,6.104-6.33984,6.33984C21.06641,15.10205,23.10156,13.06592,27.16992,12.83008Zm-14.33984,10c4.06836.23584,6.10351,2.272,6.33984,6.33984C15.10156,28.93408,13.06641,26.898,12.83008,22.83008Z"/><path d="M8,54.80664H38.39624a18.78233,18.78233,0,0,0-6.13989,4.38672H8v1.61328H30.89648a18.54268,18.54268,0,0,0-2.40722,4.38672H8v1.61328H27.938A18.67262,18.67262,0,0,0,27.19336,72h1.61328a17.17207,17.17207,0,0,1,4.38477-11.4624A17.20043,17.20043,0,0,1,46,54.80664H72V53.19336H8Z"/><path d="M36.90137,65.5957A12.78811,12.78811,0,0,0,35.19336,72h1.61328A11.17416,11.17416,0,0,1,48,60.80664H72V59.19336H48A12.85745,12.85745,0,0,0,36.90137,65.5957Z"/><path d="M43.19336,72h1.61328A5.19937,5.19937,0,0,1,50,66.80664H72V65.19336H50A6.81437,6.81437,0,0,0,43.19336,72Z"/></svg>