<svg xmlns="http://www.w3.org/2000/svg" viewBox="0 0 80 80"><path d="M70.01367,15.25h-60a.7502.7502,0,0,0-.75.75V27a5.73518,5.73518,0,0,0,2,4.34961V64a.7502.7502,0,0,0,.75.75h56a.7502.7502,0,0,0,.75-.75V31.34961a5.73518,5.73518,0,0,0,2-4.34961V16A.7502.7502,0,0,0,70.01367,15.25Zm-19.25,1.5h8.5V27a4.25,4.25,0,0,1-8.5,0Zm-10,0h8.5V27a4.25,4.25,0,0,1-8.5,0Zm-10,0h8.5V27a4.25,4.25,0,0,1-8.5,0Zm-10,0h8.5V27a4.25,4.25,0,0,1-8.5,0Zm-10,10.25V16.75h8.5V27a4.25,4.25,0,0,1-8.5,0Zm20.5,36.25h-12.5V38.75h12.5Zm36,0h-34.5V38a.7502.7502,0,0,0-.75-.75h-14a.7502.7502,0,0,0-.75.75V63.25h-4.5V32.29077a5.74037,5.74037,0,0,0,7.25-2.46167,5.74,5.74,0,0,0,10,0,5.74,5.74,0,0,0,10,0,5.74,5.74,0,0,0,10,0,5.74,5.74,0,0,0,10,0,5.74037,5.74037,0,0,0,7.25,2.46167Zm2-36.25a4.25,4.25,0,1,1-8.5,0V16.75h8.5Z"/><path d="M62.01367,37.25h-24a.7502.7502,0,0,0-.75.75V52a.7502.7502,0,0,0,.75.75h24a.7502.7502,0,0,0,.75-.75V38A.7502.7502,0,0,0,62.01367,37.25Zm-.75,14h-22.5V38.75h22.5Z"/></svg>