<svg xmlns="http://www.w3.org/2000/svg" viewBox="0 0 80 80"><path d="M66.32812,31.2832a26.74672,26.74672,0,0,0-52.65624,0A4.74146,4.74146,0,0,0,9.25,36v8A4.7554,4.7554,0,0,0,14,48.75h4a.7502.7502,0,0,0,.75-.75V32a.7502.7502,0,0,0-.75-.75H15.22168a25.22476,25.22476,0,0,1,49.55664,0H62a.7502.7502,0,0,0-.75.75V48a.7502.7502,0,0,0,.75.75h3.21191A17.25643,17.25643,0,0,1,48,65.25H44.67407a4.75,4.75,0,1,0,0,1.5H48A18.7581,18.7581,0,0,0,66.71582,48.67773,4.74428,4.74428,0,0,0,70.75,44V36A4.74146,4.74146,0,0,0,66.32812,31.2832ZM17.25,32.75v14.5H14A3.25377,3.25377,0,0,1,10.75,44V36A3.25377,3.25377,0,0,1,14,32.75ZM40,69.25A3.25,3.25,0,1,1,43.25,66,3.25377,3.25377,0,0,1,40,69.25ZM69.25,44A3.25377,3.25377,0,0,1,66,47.25H62.75V32.75H66A3.25377,3.25377,0,0,1,69.25,36Z"/><path d="M43.9502,48c0-2.88965,0-2.88965,2.98046-5.86963A7.34975,7.34975,0,0,0,48.75,36.7998a8.75,8.75,0,0,0-17.5,0,7.34975,7.34975,0,0,0,1.81934,5.33057c2.98046,2.98,2.98046,2.98,2.98046,5.86963a.7502.7502,0,0,0,.75.75h6.4004A.7502.7502,0,0,0,43.9502,48Zm-6.40479-.75c-.03223-2.707-.35547-3.12109-3.41553-6.18018a6.09526,6.09526,0,0,1-1.37988-4.27,7.25,7.25,0,0,1,14.5,0,6.09526,6.09526,0,0,1-1.37988,4.27c-3.06006,3.05909-3.3833,3.47315-3.41553,6.18018Z"/><rect x="36.7998" y="50.4502" width="6.40039" height="1.5"/></svg>