<svg xmlns="http://www.w3.org/2000/svg" viewBox="0 0 80 80"><path d="M9.25,58V70a.7502.7502,0,0,0,.75.75H22a.7502.7502,0,0,0,.75-.75V58a.7502.7502,0,0,0-.75-.75H10A.7502.7502,0,0,0,9.25,58Zm1.5.75h4.5V64h1.5V58.75h4.5v10.5H10.75Z"/><path d="M70,9.25H58a.7502.7502,0,0,0-.75.75V22a.7502.7502,0,0,0,.75.75H70a.7502.7502,0,0,0,.75-.75V10A.7502.7502,0,0,0,70,9.25Zm-.75,12H58.75v-4.5h10.5Zm0-6H58.75v-4.5h10.5Z"/><path d="M28,15.25c-10.13477,0-14.75,6.60938-14.75,12.75S17.86523,40.75,28,40.75H52c9.10352,0,13.25,5.83154,13.25,11.25S61.10352,63.25,52,63.25H26v1.5H52c10.13477,0,14.75-6.60938,14.75-12.75S62.13477,39.25,52,39.25H28c-9.10352,0-13.25-5.83154-13.25-11.25S18.89648,16.75,28,16.75H52.18945l-4.71972,4.71973,1.06054,1.06054,6-6a.74972.74972,0,0,0,0-1.06054l-6-6-1.06054,1.06054L52.18945,15.25H28Z"/></svg>