<svg xmlns="http://www.w3.org/2000/svg" viewBox="0 0 80 80"><path d="M22.53027,9.46973a.74971.74971,0,0,0-1.05761-.00293l-12,11.86572A.74973.74973,0,0,0,9.46777,22.394l18,18.13428A.74988.74988,0,0,0,27.999,40.75H28a.74942.74942,0,0,0,.53027-.21973l12-12a.74972.74972,0,0,0,0-1.06054ZM28.002,38.9375,11.06152,21.87061l10.93555-10.813L38.93945,28Z"/><path d="M52.53027,39.46973a.74972.74972,0,0,0-1.05761-.00293l-12,11.86572a.74973.74973,0,0,0-.00489,1.06152l18,18.13428A.74988.74988,0,0,0,57.999,70.75H58a.74942.74942,0,0,0,.53027-.21973l12-12a.74972.74972,0,0,0,0-1.06054ZM58.002,68.9375,41.06152,51.87061l10.93555-10.813L68.93945,58Z"/><path d="M50.75,36.00049a.75031.75031,0,0,0-.21973-.53028l-6-6a.74973.74973,0,0,0-1.06054,0L30.65527,42.28467a10.63366,10.63366,0,0,0-3.89453-.2583,12.66993,12.66993,0,0,0-7.291,3.44336.74972.74972,0,0,0,0,1.06054l6.5166,6.51661-.59424.59472A2.7234,2.7234,0,0,0,24,53.25,2.75,2.75,0,1,0,26.75,56a2.71767,2.71767,0,0,0-.3252-1.27l.62208-.62256,6.42285,6.42285a.74971.74971,0,0,0,1.06054,0,12.80948,12.80948,0,0,0,3.48926-7.23681,10.6068,10.6068,0,0,0-.2373-4.01538l12.748-12.74732A.75027.75027,0,0,0,50.75,36.00049ZM24,57.25A1.25,1.25,0,1,1,25.25,56,1.25116,1.25116,0,0,1,24,57.25Zm12.53125-4.14355A11.38684,11.38684,0,0,1,33.97852,58.918L21.084,46.023c3.16016-2.668,9.06348-4.08936,13.07032-.083A8.34875,8.34875,0,0,1,36.53125,53.10645Zm.688-5.38624a10.07634,10.07634,0,0,0-4.98682-4.8916L44,31.061l4.93945,4.93945Z"/><path d="M22,61.25A3.25377,3.25377,0,0,1,18.75,58h-1.5A4.7554,4.7554,0,0,0,22,62.75Z"/><path d="M14.75,58h-1.5A8.75967,8.75967,0,0,0,22,66.75v-1.5A7.258,7.258,0,0,1,14.75,58Z"/><path d="M22,70.75v-1.5A11.26294,11.26294,0,0,1,10.75,58H9.25A12.76457,12.76457,0,0,0,22,70.75Z"/></svg>