<svg xmlns="http://www.w3.org/2000/svg" viewBox="0 0 80 80"><path d="M40,70.75a4.74517,4.74517,0,0,0,4.67407-4H48A18.7581,18.7581,0,0,0,66.71582,48.67773,4.74428,4.74428,0,0,0,70.75,44V36a4.74146,4.74146,0,0,0-4.42188-4.7168,26.74672,26.74672,0,0,0-52.65624,0A4.74146,4.74146,0,0,0,9.25,36v8A4.7554,4.7554,0,0,0,14,48.75h4a.7502.7502,0,0,0,.75-.75V32a.7502.7502,0,0,0-.75-.75H15.22168a25.22476,25.22476,0,0,1,49.55664,0H62a.7502.7502,0,0,0-.75.75V48a.7502.7502,0,0,0,.75.75h3.21191A17.25643,17.25643,0,0,1,48,65.25H44.67407A4.74248,4.74248,0,1,0,40,70.75Zm-22.75-38v14.5H14A3.25377,3.25377,0,0,1,10.75,44V36A3.25377,3.25377,0,0,1,14,32.75Zm45.5,14.5V32.75H66A3.25377,3.25377,0,0,1,69.25,36v8A3.25377,3.25377,0,0,1,66,47.25ZM40,62.75A3.25,3.25,0,1,1,36.75,66,3.25377,3.25377,0,0,1,40,62.75Z"/><path d="M31.21191,40.28271a2.28141,2.28141,0,0,0-.56933,1.55518,2.17883,2.17883,0,0,0,.23633,1.00293,2.39634,2.39634,0,0,0,.65234.78564,3.04022,3.04022,0,0,0,.98145.501,4.17537,4.17537,0,0,0,1.22949.17188,4.06213,4.06213,0,0,0,1.2334-.17871,3.01955,3.01955,0,0,0,.98046-.51368,2.39689,2.39689,0,0,0,.65137-.80859,2.3159,2.3159,0,0,0,.23438-1.0376,2.09673,2.09673,0,0,0-.169-.85107,2.4818,2.4818,0,0,0-.41211-.64893,2.66665,2.66665,0,0,0-.55664-.4751c-.03711-.02441-.07519-.04785-.11328-.0708l.04-.02978a2.67733,2.67733,0,0,0,.45508-.437,2.16524,2.16524,0,0,0,.33886-.57325,1.91324,1.91324,0,0,0,.13086-.71484,2.11174,2.11174,0,0,0-.24707-1.0459,2.06688,2.06688,0,0,0-.64648-.71142,2.82986,2.82986,0,0,0-.89649-.394,4.22006,4.22006,0,0,0-2.0498.00733,2.69016,2.69016,0,0,0-.90234.42041,2.15356,2.15356,0,0,0-.88477,1.80078,2.10278,2.10278,0,0,0,.12988.75439,2.14129,2.14129,0,0,0,.75684.99121l-.05566.03418A2.5709,2.5709,0,0,0,31.21191,40.28271Zm1.42969-2.67382a.79675.79675,0,0,1,.23926-.271,1.0976,1.0976,0,0,1,.37207-.17236,1.92422,1.92422,0,0,1,.48926-.06153,1.60364,1.60364,0,0,1,.47851.06983,1.12244,1.12244,0,0,1,.3711.186.84937.84937,0,0,1,.23437.27491.712.712,0,0,1,.0791.34716.9419.9419,0,0,1-.085.41358,1.26837,1.26837,0,0,1-.23926.33691,1.88342,1.88342,0,0,1-.34375.26856,2.27963,2.27963,0,0,1-.31152.15771c-.14062-.02051-.29-.05029-.44433-.08789a1.518,1.518,0,0,1-.46-.19287,1.10869,1.10869,0,0,1-.33593-.34375,1.01792,1.01792,0,0,1-.12891-.55225A.7644.7644,0,0,1,32.6416,37.60889Zm-.17676,3.64843v-.00048a1.3514,1.3514,0,0,1,.28711-.38672,1.77409,1.77409,0,0,1,.39746-.27735,2.44033,2.44033,0,0,1,.373-.15088c.18457.03907.374.08643.56836.13916a2.017,2.017,0,0,1,.542.23438,1.12493,1.12493,0,0,1,.36231.36182,1.09844,1.09844,0,0,1,.12988.58349.97494.97494,0,0,1-.32129.76953,1.54589,1.54589,0,0,1-1.06152.30567,1.99865,1.99865,0,0,1-.65039-.09375,1.1861,1.1861,0,0,1-.418-.23487.94174.94174,0,0,1-.23438-.33056,1.06181,1.06181,0,0,1-.08007-.416A1.11345,1.11345,0,0,1,32.46484,41.25732Z"/><path d="M36.833,44.05322a.15041.15041,0,0,0,.13379.08155h1.6084a.151.151,0,0,0,.124-.065l1.31543-1.91894,1.34668,1.91992a.151.151,0,0,0,.123.064h1.65527a.15008.15008,0,0,0,.12109-.23877l-2.28613-3.105L42.92676,38.064a.14983.14983,0,0,0-.12207-.2373H41.23047a.14937.14937,0,0,0-.124.06592L40.00684,39.523l-1.15821-1.6333a.1482.1482,0,0,0-.12207-.063H37.09668a.14981.14981,0,0,0-.12109.23828l2.043,2.80713-2.17382,3.02539A.15157.15157,0,0,0,36.833,44.05322Z"/><path d="M47.35059,42.43164a1.221,1.221,0,0,1-.42774.28174,1.49405,1.49405,0,0,1-.55078.10058,1.41675,1.41675,0,0,1-.9209-.26708,1.17589,1.17589,0,0,1-.415-.64454l-.02636-.11474a.15007.15007,0,0,0-.14649-.11621H43.45117a.14911.14911,0,0,0-.11426.05273.15258.15258,0,0,0-.03418.12158l.02832.17237a2.47527,2.47527,0,0,0,.31836.86035,2.75367,2.75367,0,0,0,.627.72656,3.03585,3.03585,0,0,0,.91406.50732,3.49978,3.49978,0,0,0,1.16992.187,3.36868,3.36868,0,0,0,1.29-.23633,2.84309,2.84309,0,0,0,.9668-.645,2.7938,2.7938,0,0,0,.60254-.9458,3.11288,3.11288,0,0,0,.208-1.12891,3.24023,3.24023,0,0,0-.22656-1.25146v-.00049a2.7291,2.7291,0,0,0-.6123-.91651,2.51024,2.51024,0,0,0-.89551-.56054,3.02113,3.02113,0,0,0-2.41895.12256L45.3291,37.335H48.958a.15.15,0,0,0,.15039-.1499V35.99951a.15.15,0,0,0-.15039-.1499h-5.0127a.14963.14963,0,0,0-.14941.144l-.17676,4.4043a.148.148,0,0,0,.041.10986.15063.15063,0,0,0,.10839.0459h1.15528a.14823.14823,0,0,0,.11328-.05225l.0459-.05273a1.56948,1.56948,0,0,1,.61523-.45459,1.85349,1.85349,0,0,1,.69531-.14307,1.33174,1.33174,0,0,1,.98829.35791,1.47866,1.47866,0,0,1,.36132,1.08985,1.91228,1.91228,0,0,1-.10742.66553A1.32405,1.32405,0,0,1,47.35059,42.43164Z"/></svg>