<svg xmlns="http://www.w3.org/2000/svg" viewBox="0 0 80 80"><path d="M23.33594,39.89941a14.65422,14.65422,0,0,0-4.32032-10.42968l-1.06054,1.06054a13.24988,13.24988,0,0,1,0,18.73828l1.06054,1.06055A14.65255,14.65255,0,0,0,23.33594,39.89941Z"/><path d="M19.33594,39.89941a10.67879,10.67879,0,0,0-3.14844-7.60107L15.127,33.35889a9.25074,9.25074,0,0,1,0,13.08154L16.1875,47.501A10.67994,10.67994,0,0,0,19.33594,39.89941Z"/><path d="M13.3584,44.67236a6.74872,6.74872,0,0,0,0-9.5459L12.29785,36.187a5.24926,5.24926,0,0,1,0,7.42481Z"/><path d="M10.53027,41.84424a2.75016,2.75016,0,0,0,0-3.88965L9.46973,39.01611a1.24837,1.24837,0,0,1,0,1.7666Z"/><path d="M55.05273,30.90625,69.8125,34.72607l.375-1.45214L55.35059,29.43848a4.66588,4.66588,0,0,0-2.80567.45068L49.82324,31.25H26a.7502.7502,0,0,0-.75.75V48a.7502.7502,0,0,0,.75.75H47.25V50A2.7528,2.7528,0,0,0,50,52.75,2.76329,2.76329,0,0,0,52.75,50v-.73926l.38965.38965a2.75025,2.75025,0,0,0,4.69043-1.95019,2.70106,2.70106,0,0,0-.324-1.26124A11.94592,11.94592,0,0,0,60,46.75a11.18527,11.18527,0,0,0,6.01978-2H70v-1.5H67.84717a3.96083,3.96083,0,0,0,.85595-1.189l-1.40624-.52247C67.02148,42.28125,63.626,45.25,60,45.25c-1.792,0-4.55859-.76465-5.44141-1.75A.74847.74847,0,0,0,54,43.25H46.15625a1.40624,1.40624,0,0,1-.23047-2.79346l12.17871-1.71386-.209-1.48536L54.75,37.7002V32a.7502.7502,0,0,0-.75-.75h-.82324l.042-.021A3.159,3.159,0,0,1,55.05273,30.90625ZM54.75,48V45.6106l1.21,1.20922a1.23718,1.23718,0,0,1-1.63769,1.85083A.746.746,0,0,0,54.75,48Zm-3.5,2A1.26382,1.26382,0,0,1,50,51.25,1.25116,1.25116,0,0,1,48.75,50V48.75h2.5Zm2-17.25v5.16113l-7.54492,1.062A2.906,2.906,0,0,0,46.15625,44.75H53.25v2.5H26.75V32.75Z"/><path d="M30,42.75h6a.7502.7502,0,0,0,.75-.75V38a.7502.7502,0,0,0-.75-.75H30a.7502.7502,0,0,0-.75.75v4A.7502.7502,0,0,0,30,42.75Zm.75-4h4.5v2.5h-4.5Z"/></svg>