<svg xmlns="http://www.w3.org/2000/svg" viewBox="0 0 80 80"><path d="M51.55566,16.36133a5.0642,5.0642,0,0,0-2.13867.47217,9.63221,9.63221,0,0,0-18.17871-1.94141A5.99831,5.99831,0,0,0,29.333,14.5835a6.08325,6.08325,0,0,0,0,12.1665H51.55566a5.19434,5.19434,0,1,0,0-10.38867Zm0,8.88867H29.333a4.58326,4.58326,0,1,1,1.99023-8.707.7491.7491,0,0,0,1.03125-.41992,8.13128,8.13128,0,0,1,15.74512,2.001.74989.74989,0,0,0,1.20605.52344,3.65383,3.65383,0,0,1,2.25-.78613,3.69434,3.69434,0,1,1,0,7.38867Z"/><path d="M68.75,40a.7502.7502,0,0,0-.75-.75H52a.7502.7502,0,0,0-.75.75V69.25h-4.5V48a.7502.7502,0,0,0-.75-.75H34a.7502.7502,0,0,0-.75.75V69.25h-4.5V44a.7502.7502,0,0,0-.75-.75H12a.7502.7502,0,0,0-.75.75V69.25H8v1.5H72v-1.5H68.75ZM27.25,69.25H12.75V44.75h14.5Zm18,0H34.75V48.75h10.5Zm22,0H52.75V40.75h14.5Z"/><rect x="63.25" y="44" width="1.5" height="4"/><rect x="59.25" y="44" width="1.5" height="4"/><rect x="55.25" y="44" width="1.5" height="4"/><rect x="23.25" y="52" width="1.5" height="4"/><rect x="19.25" y="52" width="1.5" height="4"/><rect x="15.25" y="52" width="1.5" height="4"/><rect x="23.25" y="60" width="1.5" height="4"/><rect x="19.25" y="60" width="1.5" height="4"/><rect x="15.25" y="60" width="1.5" height="4"/><rect x="63.25" y="52" width="1.5" height="4"/><rect x="59.25" y="52" width="1.5" height="4"/><rect x="55.25" y="52" width="1.5" height="4"/><rect x="63.25" y="60" width="1.5" height="4"/><rect x="59.25" y="60" width="1.5" height="4"/><rect x="55.25" y="60" width="1.5" height="4"/><rect x="41.25" y="52" width="1.5" height="4"/><rect x="37.25" y="52" width="1.5" height="4"/><rect x="41.25" y="60" width="1.5" height="4"/><rect x="37.25" y="60" width="1.5" height="4"/><circle cx="20" cy="40" r="1"/><circle cx="24.66455" cy="36.66797" r="1"/><circle cx="29.33423" cy="33.33374" r="1"/><circle cx="40" cy="30" r="1"/><circle cx="40" cy="34.66504" r="1"/><circle cx="34" cy="30" r="1"/><circle cx="46.20776" cy="30" r="1"/><circle cx="60" cy="36" r="1"/><circle cx="55.40747" cy="34.03149" r="1"/><circle cx="50.80518" cy="32.05688" r="1"/><circle cx="40" cy="39.33032" r="1"/><circle cx="40" cy="44" r="1"/></svg>