<svg xmlns="http://www.w3.org/2000/svg" viewBox="0 0 80 80"><path d="M60.80664,45.23413v-18.448c5.23926-.27636,8-3.2998,8-8.78613A.80656.80656,0,0,0,68,17.19336c-5.76172,0-8.80664,3.04541-8.80664,8.80664v2.18115C57.74121,26.21436,55.32642,25.19336,52,25.19336A.80656.80656,0,0,0,51.19336,26c0,5.48413,2.76465,8.50122,8,8.7793V45.23413a8.81629,8.81629,0,0,0-7.95923,7.95923H40.80664V40A3.19709,3.19709,0,0,1,44,36.80664V35.19336A4.81208,4.81208,0,0,0,39.19336,40v2.43457A4.76818,4.76818,0,0,0,36,41.19336v1.61328A3.19709,3.19709,0,0,1,39.19336,46v7.19336H28A.80656.80656,0,0,0,27.19336,54a7.19336,7.19336,0,0,1-14.38672,0A.80656.80656,0,0,0,12,53.19336H8v1.61328h3.22949a8.80762,8.80762,0,0,0,17.541,0H72V53.19336H68.76587A8.81629,8.81629,0,0,0,60.80664,45.23413Zm6.36328-26.404c-.23633,4.06787-2.27148,6.104-6.33984,6.33984C61.06641,21.102,63.10156,19.06592,67.16992,18.83008Zm-14.33984,8c4.06836.23584,6.10351,2.272,6.33984,6.33984C55.10156,32.93408,53.06641,30.898,52.83008,26.83008Zm.0249,26.36328a7.19,7.19,0,0,1,14.29,0Z"/><path d="M21.19336,54A.80656.80656,0,0,0,22,54.80664c3.09961,0,4.80664-1.707,4.80664-4.80664A.80656.80656,0,0,0,26,49.19336C22.90039,49.19336,21.19336,50.90039,21.19336,54Zm1.67383-.86719a2.43683,2.43683,0,0,1,2.26562-2.26562A2.43683,2.43683,0,0,1,22.86719,53.13281Z"/><path d="M16,53.19336A.80656.80656,0,0,0,15.19336,54c0,3.09961,1.707,4.80664,4.80664,4.80664A.80656.80656,0,0,0,20.80664,58C20.80664,54.90039,19.09961,53.19336,16,53.19336Zm.86719,1.67383a2.43683,2.43683,0,0,1,2.26562,2.26562A2.43683,2.43683,0,0,1,16.86719,54.86719Z"/><path d="M16,45.19336A.80656.80656,0,0,0,15.19336,46c0,3.09961,1.707,4.80664,4.80664,4.80664A.80656.80656,0,0,0,20.80664,50C20.80664,46.90039,19.09961,45.19336,16,45.19336Zm.86719,1.67383a2.43683,2.43683,0,0,1,2.26562,2.26562A2.43683,2.43683,0,0,1,16.86719,46.86719Z"/></svg>