<svg xmlns="http://www.w3.org/2000/svg" viewBox="0 0 80 80"><path d="M70,17.25H22.75V12a.7502.7502,0,0,0-.75-.75H16A6.75769,6.75769,0,0,0,9.25,18V62A6.75769,6.75769,0,0,0,16,68.75H70a.7502.7502,0,0,0,.75-.75V18A.7502.7502,0,0,0,70,17.25ZM10.75,18A5.25605,5.25605,0,0,1,16,12.75h5.25v42.5H16a6.73806,6.73806,0,0,0-5.25,2.5166Zm58.5,49.25H16a5.25,5.25,0,0,1,0-10.5h6a.7502.7502,0,0,0,.75-.75V18.75h46.5Z"/><path d="M32,56.75H60a.7502.7502,0,0,0,.75-.75V28a.7502.7502,0,0,0-.75-.75H32a.7502.7502,0,0,0-.75.75V56A.7502.7502,0,0,0,32,56.75Zm12.417-28h3.166v12.5H44.417Zm-11.667,0H42.917V42a.7502.7502,0,0,0,.75.75h4.666a.7502.7502,0,0,0,.75-.75V28.75H59.25v26.5H32.75Z"/></svg>