<svg xmlns="http://www.w3.org/2000/svg" viewBox="0 0 80 80"><path d="M25.63184,48.52881l14,7.875a.75265.75265,0,0,0,.73632,0l14-7.875A.75132.75132,0,0,0,54.75,47.875V40.75H58a12.75,12.75,0,0,0,0-25.5H22.70581a6.68614,6.68614,0,0,0-.66064-2.23462L25.06055,10,24,8.93945l-2.7832,2.78321a6.74789,6.74789,0,1,0,1.489,5.02734H58a11.25,11.25,0,0,1,0,22.5H54.75V32.125a.75132.75132,0,0,0-.38184-.65381l-14-7.875a.75431.75431,0,0,0-.73632,0l-14,7.875A.75132.75132,0,0,0,25.25,32.125V39.25H22a12.75,12.75,0,0,0,0,25.5H57.29419a6.75,6.75,0,1,0,0-1.5H22a11.25,11.25,0,0,1,0-22.5h3.25v7.125A.75132.75132,0,0,0,25.63184,48.52881ZM16,21.25a5.25009,5.25009,0,1,1,4.13525-8.4458L16,16.93945l-2-2L12.93945,16l2.53028,2.53027a.74971.74971,0,0,0,1.06054,0l4.36939-4.36938A5.19423,5.19423,0,0,1,21.25,16,5.25605,5.25605,0,0,1,16,21.25ZM26.75,32.56348,40,25.11035l13.25,7.45313v14.873L40,54.88965,26.75,47.43652ZM64,58.75A5.25,5.25,0,1,1,58.75,64,5.25605,5.25605,0,0,1,64,58.75Z"/><path d="M45.25,46h1.5a6.75477,6.75477,0,0,0-3.9873-6.1521,4.75,4.75,0,1,0-5.5254,0A6.75477,6.75477,0,0,0,33.25,46h1.5a5.25,5.25,0,0,1,10.5,0Zm-8.5-10A3.25,3.25,0,1,1,40,39.25,3.25377,3.25377,0,0,1,36.75,36Z"/></svg>