<svg xmlns="http://www.w3.org/2000/svg" viewBox="0 0 80 80"><path d="M40,56.75A16.75,16.75,0,1,0,23.25,40,16.76884,16.76884,0,0,0,40,56.75Zm.47388-16.1817A.73761.73761,0,0,0,40.75,40V24.788A15.23959,15.23959,0,1,1,28.79761,50.31189l11.68286-9.73572ZM39.25,24.788V39.25H24.788A15.24486,15.24486,0,0,1,39.25,24.788ZM24.788,40.75H37.9281L27.83643,49.15979A15.14279,15.14279,0,0,1,24.788,40.75Z"/><path d="M61.25,17.78192A30.47112,30.47112,0,0,0,40,9.25,30.7615,30.7615,0,0,0,12.68506,54.13721l1.332-.69043A28.92622,28.92622,0,0,1,10.75,40,29.28292,29.28292,0,0,1,40,10.75a28.9906,28.9906,0,0,1,20.60278,8.5H54v1.5h8a.7502.7502,0,0,0,.75-.75V12h-1.5Z"/><path d="M40,69.25a28.9906,28.9906,0,0,1-20.60278-8.5H26v-1.5H18a.7502.7502,0,0,0-.75.75v8h1.5V62.21808A30.47112,30.47112,0,0,0,40,70.75,30.76074,30.76074,0,0,0,67.31445,25.86279l-1.332.69043A28.92523,28.92523,0,0,1,69.25,40,29.28292,29.28292,0,0,1,40,69.25Z"/></svg>