<svg xmlns="http://www.w3.org/2000/svg" viewBox="0 0 80 80"><path d="M66.28418,61.47314,58.875,57.77686,48.68066,35.68555A.74836.74836,0,0,0,48,35.25H42v1.5h5.52051L57.624,58.645a.74691.74691,0,0,0,.34571.35644l7.79687,3.88965a.74746.74746,0,0,0,.335.0791,3.13991,3.13991,0,1,1,0,6.27979H54.40625c-1.12988,0-3.2207-1.96729-5.43457-4.05029-4.46191-4.19776-10.57129-9.94629-18.21094-9.94629h-.00586C28.90332,55.08008,28.75,52.66943,28.75,50h-1.5c0,2.40527,0,6.43164,3.43457,6.75,7.11719,0,12.97949,5.51514,17.25977,9.54248,2.75,2.58789,4.7373,4.45752,6.46191,4.45752H66.10156a4.64007,4.64007,0,0,0,.18262-9.27686Z"/><path d="M33.62012,47.1626a6.848,6.848,0,0,0,1.44824,3.45654A6.17,6.17,0,0,0,40,53.17139c4.24609,0,7.21191-2.77344,7.21191-6.74414a7.48443,7.48443,0,0,0-7.13183-7.17676,1.8982,1.8982,0,0,1-1.17285-.915c-1.707-2.67774-1.11719-9.96973.34863-15.78955a5.45466,5.45466,0,0,0-3.89453-6.55908l-25.168-6.71143a.75008.75008,0,0,0-.94141.66846C8.18359,24.127,10.3584,33.98291,15.90039,40.0752,19.98047,44.55957,25.93652,46.94336,33.62012,47.1626ZM40,40.75a5.99928,5.99928,0,0,1,5.71191,5.67725c0,3.18554-2.24218,5.24414-5.71191,5.24414a5.24259,5.24259,0,0,1-4.877-4.99317.75039.75039,0,0,0-.70508-1.00634h-.40332C27.6521,45.55011,22.55151,43.88879,18.79053,40.75ZM10.68359,10.9585l24.291,6.47754a3.94724,3.94724,0,0,1,2.82617,4.74365c-.19214.76343-.38818,1.64892-.57226,2.59985l-26.63623-4.441A76.64923,76.64923,0,0,1,10.68359,10.9585Zm.01905,10.91888,26.25879,4.37817a43.25607,43.25607,0,0,0-.59351,5.976L12.19141,30.12622A40.5974,40.5974,0,0,1,10.70264,21.87738Zm25.679,11.8609a11.135,11.135,0,0,0,1.261,5.40381c.02539.03992.05615.0694.08252.10791H17.199c-.0603-.06445-.12963-.11914-.1892-.18457a21.84319,21.84319,0,0,1-4.30811-7.38922Z"/></svg>