<svg xmlns="http://www.w3.org/2000/svg" viewBox="0 0 80 80"><path d="M24,38.75A14.72189,14.72189,0,0,0,35.8313,15.22931l2.699-2.699-1.06054-1.06054L34.87231,14.0672A14.74023,14.74023,0,1,0,24,38.75Zm0-28a13.20416,13.20416,0,0,1,9.812,4.37738L20,28.93945l-5.46973-5.46972-1.06054,1.06054,6,6a.74971.74971,0,0,0,1.06054,0l14.231-14.23095A13.236,13.236,0,1,1,24,10.75Z"/><path d="M55.88867,38.75A14.72208,14.72208,0,0,0,67.76,15.283l2.76831-2.75128-1.05664-1.06348L66.8064,14.11719A14.74022,14.74022,0,1,0,55.88867,38.75Zm0-28A13.20614,13.20614,0,0,1,65.743,15.17389l-13.85242,13.767L46.419,23.46973,45.3584,24.53027l6,6a.74913.74913,0,0,0,1.05859.00147l14.27027-14.1825A13.23724,13.23724,0,1,1,55.88867,10.75Z"/><path d="M24,70.75A14.72189,14.72189,0,0,0,35.8313,47.22931l2.699-2.699-1.06054-1.06054L34.87231,46.0672A14.74023,14.74023,0,1,0,24,70.75Zm0-28a13.20416,13.20416,0,0,1,9.812,4.37738L20,60.93945l-5.46973-5.46972-1.06054,1.06054,6,6a.74971.74971,0,0,0,1.06054,0l14.231-14.23095A13.236,13.236,0,1,1,24,42.75Z"/><path d="M55.88867,70.75A14.72208,14.72208,0,0,0,67.76,47.283l2.76831-2.75128-1.05664-1.06348L66.8064,46.11719A14.74022,14.74022,0,1,0,55.88867,70.75Zm0-28A13.20614,13.20614,0,0,1,65.743,47.17389l-13.85242,13.767L46.419,55.46973,45.3584,56.53027l6,6a.74913.74913,0,0,0,1.05859.00147l14.27027-14.1825A13.23724,13.23724,0,1,1,55.88867,42.75Z"/></svg>