<svg xmlns="http://www.w3.org/2000/svg" viewBox="0 0 80 80"><path d="M10,70.75H72v-1.5H10.75V8H9.25V70A.7502.7502,0,0,0,10,70.75Z"/><path d="M68,26.75A2.75,2.75,0,1,0,65.25,24,2.7528,2.7528,0,0,0,68,26.75Zm0-4A1.25,1.25,0,1,1,66.75,24,1.25116,1.25116,0,0,1,68,22.75Z"/><path d="M58,44.75A2.75,2.75,0,1,0,55.25,42,2.7528,2.7528,0,0,0,58,44.75Zm0-4A1.25,1.25,0,1,1,56.75,42,1.25116,1.25116,0,0,1,58,40.75Z"/><path d="M48,52.75A2.75,2.75,0,1,0,45.25,50,2.7528,2.7528,0,0,0,48,52.75Zm0-4A1.25,1.25,0,1,1,46.75,50,1.25116,1.25116,0,0,1,48,48.75Z"/><path d="M18,64.75A2.75,2.75,0,1,0,15.25,62,2.7528,2.7528,0,0,0,18,64.75Zm0-4A1.25,1.25,0,1,1,16.75,62,1.25116,1.25116,0,0,1,18,60.75Z"/><path d="M28,62.75A2.75,2.75,0,1,0,25.25,60,2.7528,2.7528,0,0,0,28,62.75Zm0-4A1.25,1.25,0,1,1,26.75,60,1.25116,1.25116,0,0,1,28,58.75Z"/><path d="M38,58.75A2.75,2.75,0,1,0,35.25,56,2.7528,2.7528,0,0,0,38,58.75Zm0-4A1.25,1.25,0,1,1,36.75,56,1.25116,1.25116,0,0,1,38,54.75Z"/></svg>