<svg xmlns="http://www.w3.org/2000/svg" viewBox="0 0 80 80"><path d="M24,40.75a.74671.74671,0,0,0,.53027-.21973l8-8-1.06054-1.06054L24,38.93945l-3.46973-3.46972-1.06054,1.06054,4,4A.74671.74671,0,0,0,24,40.75Z"/><path d="M70,19.25H10a.7502.7502,0,0,0-.75.75V60a.7502.7502,0,0,0,.75.75H70a.7502.7502,0,0,0,.75-.75V20A.7502.7502,0,0,0,70,19.25Zm-.75,40H10.75V20.75h58.5Z"/><path d="M19.25,44.35516V54a.75024.75024,0,0,0,1.166.624L26,50.90137,31.584,54.624A.75024.75024,0,0,0,32.75,54V44.35516a10.75,10.75,0,1,0-13.5,0Zm12,8.24347L26.416,49.376a.74991.74991,0,0,0-.832,0L20.75,52.59863v-7.227a10.68707,10.68707,0,0,0,10.5,0ZM26,26.75A9.25,9.25,0,1,1,16.75,36,9.26032,9.26032,0,0,1,26,26.75Z"/><rect x="42" y="31.25" width="22" height="1.5"/><rect x="42" y="39.25" width="22" height="1.5"/><rect x="42" y="47.25" width="14" height="1.5"/></svg>