<svg xmlns="http://www.w3.org/2000/svg" viewBox="0 0 80 80"><path d="M40,44.75A8.75,8.75,0,1,0,31.25,36,8.76,8.76,0,0,0,40,44.75Zm0-16A7.25,7.25,0,1,1,32.75,36,7.25834,7.25834,0,0,1,40,28.75Z"/><path d="M52.75,54A6.75738,6.75738,0,0,0,46,47.25H34A6.75738,6.75738,0,0,0,27.25,54V72h1.5V54A5.25574,5.25574,0,0,1,34,48.75H46A5.25574,5.25574,0,0,1,51.25,54V72h1.5Z"/><path d="M35.3877,20.49951A4.0832,4.0832,0,0,1,37.25,24a.7502.7502,0,0,0,.75.75h4a.7502.7502,0,0,0,.75-.75,4.0856,4.0856,0,0,1,1.85791-3.49854.72235.72235,0,0,0,.1543-.11425,6.36131,6.36131,0,0,0,.00049-9.23828,6.92151,6.92151,0,0,0-9.52491,0,6.36077,6.36077,0,0,0,0,9.23828A.801.801,0,0,0,35.3877,20.49951ZM36.27734,12.23a5.42248,5.42248,0,0,1,7.4458,0,4.86107,4.86107,0,0,1,.05713,7.02,5.59141,5.59141,0,0,0-2.48535,4H40.75v-6.5H42v-1.5H38v1.5h1.25v6.5h-.54492a5.59141,5.59141,0,0,0-2.48535-4,4.86054,4.86054,0,0,1,.05761-7.02Z"/><path d="M13.25,45A5.75,5.75,0,1,0,19,39.25,5.75671,5.75671,0,0,0,13.25,45Zm10,0A4.25,4.25,0,1,1,19,40.75,4.25507,4.25507,0,0,1,23.25,45Z"/><path d="M10.75,59A4.25507,4.25507,0,0,1,15,54.75h9v-1.5H15A5.75671,5.75671,0,0,0,9.25,59V72h1.5Z"/><path d="M61,39.25A5.75,5.75,0,1,0,66.75,45,5.75671,5.75671,0,0,0,61,39.25Zm0,10A4.25,4.25,0,1,1,65.25,45,4.25507,4.25507,0,0,1,61,49.25Z"/><path d="M70.75,72V59A5.75671,5.75671,0,0,0,65,53.25H56v1.5h9A4.25507,4.25507,0,0,1,69.25,59V72Z"/></svg>