<svg xmlns="http://www.w3.org/2000/svg" viewBox="0 0 80 80"><path d="M12,62.75H68A2.7528,2.7528,0,0,0,70.75,60V30A2.7528,2.7528,0,0,0,68,27.25H37.75684a1.26315,1.26315,0,0,1-.88916-.37158l-4.92334-4.82276A2.73173,2.73173,0,0,0,30,21.25H12A2.7528,2.7528,0,0,0,9.25,24V60A2.7528,2.7528,0,0,0,12,62.75ZM10.75,24A1.25116,1.25116,0,0,1,12,22.75H30a1.26231,1.26231,0,0,1,.88916.37158l4.92334,4.82276c.03638.03643.07959.06268.11768.0968l-.01758.01452L31.084,32.88379a1.25871,1.25871,0,0,1-.88378.36621H12a2.71534,2.71534,0,0,0-1.25.31451Zm0,14V36A1.25116,1.25116,0,0,1,12,34.75H30.2002a2.73171,2.73171,0,0,0,1.94433-.80566l4.82861-4.82813a1.25873,1.25873,0,0,1,.88379-.36621H68A1.25116,1.25116,0,0,1,69.25,30V60A1.25116,1.25116,0,0,1,68,61.25H12A1.25116,1.25116,0,0,1,10.75,60Z"/></svg>