<svg xmlns="http://www.w3.org/2000/svg" viewBox="0 0 80 80"><rect x="26" y="31.25" width="28" height="1.5"/><rect x="26" y="37.25" width="28" height="1.5"/><rect x="26" y="43.25" width="28" height="1.5"/><rect x="26" y="49.25" width="20" height="1.5"/><path d="M19.25,10V70a.7502.7502,0,0,0,.75.75H60a.7502.7502,0,0,0,.75-.75V24a.75027.75027,0,0,0-.21973-.53027l-14-14A.74942.74942,0,0,0,46,9.25H20A.7502.7502,0,0,0,19.25,10Zm27.5,1.81055L58.18945,23.25H46.75ZM20.75,10.75h24.5V24a.7502.7502,0,0,0,.75.75H59.25v44.5H20.75Z"/></svg>