<svg xmlns="http://www.w3.org/2000/svg" viewBox="0 0 80 80"><path d="M50.74512,9.4458A.92829.92829,0,0,0,50,9.07129H30a.92837.92837,0,0,0-.88086.63525l-10,30A.92844.92844,0,0,0,20,40.92871H34.86719L29.08936,69.81787a.92855.92855,0,0,0,1.65234.74072l30-39.81689a.92858.92858,0,0,0-.731-1.48731l-14.76709-.16894,5.646-18.81836A.92974.92974,0,0,0,50.74512,9.4458ZM43.11035,29.73291a.92908.92908,0,0,0,.87891,1.1958l14.16406.16211L31.70947,66.188l5.20117-26.00586A.92851.92851,0,0,0,36,39.07129H21.28857l9.38086-28.14258H48.752Z"/></svg>