<svg xmlns="http://www.w3.org/2000/svg" viewBox="0 0 80 80"><path d="M47.95166,10.30518A30.78764,30.78764,0,0,0,10.29,32.04834l1.44922.38867A29.24981,29.24981,0,1,1,68.24561,47.57764l1.44921.38867A30.74982,30.74982,0,0,0,47.95166,10.30518Z"/><path d="M46.39844,16.10059a24.74951,24.74951,0,0,0-30.31238,17.501l-.00012-.00006a9.19638,9.19638,0,0,1-6.313,6.478l.42676,1.43848a10.68946,10.68946,0,0,0,7.33545-7.52784A23.2497,23.2497,0,1,1,62.4502,46.0249,56.883,56.883,0,0,1,52.27344,66.46729l1.18164.92382A58.38258,58.38258,0,0,0,63.89941,46.41357a24.75053,24.75053,0,0,0-17.501-30.313Z"/><path d="M23.33057,35.543a17.24982,17.24982,0,1,1,33.32422,8.92871,51.03755,51.03755,0,0,1-15.35352,24.9585l.998,1.11914A52.53232,52.53232,0,0,0,58.104,44.86035a18.75025,18.75025,0,0,0-36.22265-9.706A15.23764,15.23764,0,0,1,10.60352,46.06494l.34082,1.46094A16.73588,16.73588,0,0,0,23.33057,35.543Z"/><path d="M51.03418,33.63281a12.75014,12.75014,0,0,0-23.35742,3.07471,21.31158,21.31158,0,0,1-15.14844,15.062l.38086,1.45117A22.81842,22.81842,0,0,0,29.126,37.09619,11.24971,11.24971,0,1,1,50.85889,42.919,45.243,45.243,0,0,1,32.665,68.57959l.84473,1.23926A46.74512,46.74512,0,0,0,52.30811,43.30762,12.66537,12.66537,0,0,0,51.03418,33.63281Z"/><path d="M15.63086,57.10791l.46777,1.4248A28.68379,28.68379,0,0,0,34.92126,38.64886l.00013.00007a5.2499,5.2499,0,1,1,10.14209,2.71728A39.39134,39.39134,0,0,1,25.59961,65.85156l.70508,1.32422a40.9,40.9,0,0,0,20.208-25.4209,6.75033,6.75033,0,0,0-13.04053-3.49463l.72461.19434-.72461-.19385A27.18848,27.18848,0,0,1,15.63086,57.10791Z"/><path d="M39.26807,39.813a33.01905,33.01905,0,0,1-19.5459,22.17822l.56836,1.38867A34.51171,34.51171,0,0,0,40.71729,40.20166Z"/></svg>