<svg xmlns="http://www.w3.org/2000/svg" viewBox="0 0 80 80"><path d="M70,9.25H52a.7502.7502,0,0,0-.75.75V24.58478l-7.291-12.6297a.74851.74851,0,0,0-1.02441-.27442l-15.58984,9a.74949.74949,0,0,0-.27442,1.02442l7.492,12.97693-12.907-7.45154a.7485.7485,0,0,0-1.02441.27441l-9,15.59033a.74917.74917,0,0,0,.27441,1.02442L24.25146,51.25H10a.7502.7502,0,0,0-.75.75V70a.7502.7502,0,0,0,.75.75H70a.7502.7502,0,0,0,.75-.75V10A.7502.7502,0,0,0,70,9.25Zm-46.75,60H10.75V52.75h12.5ZM56.28418,36.30615,46.82935,41.764l-9.67017-5.58283-1.41626-2.45331,14.29028-8.2503ZM60.82764,49.8454,48.33008,42.63031l8.70386-5.02515L63.28149,48.428Zm3.20361-.11841.87915,1.523H63.2605l-.93335-.53876ZM60.2605,51.25H57.14844l.77783-1.34766ZM28.74414,21.60449l14.291-8.25,6.24829,10.8241L34.99316,32.429ZM44.50586,42.1546,39.25732,51.25H27.25073l-1.82348-1.05316,8.252-14.29273ZM24.12842,49.44672,13.30469,43.19531l8.25-14.291,10.82568,6.24994ZM37.25,69.25H24.75V52.75h12.5Zm14,0H38.75V52.75h12.5Zm-10.261-18,4.81592-8.34552,10.82227,6.248L55.4165,51.25H40.989Zm28.261,18H52.75V52.75h16.5Zm0-18H66.64355l-7.21606-12.5H69.25Zm0-14H58.56152L52.75,27.18311V24.75h16.5Zm0-14H52.75V10.75h16.5Z"/><path d="M61,64.82178A3.822,3.822,0,1,0,57.17773,61,3.82642,3.82642,0,0,0,61,64.82178Zm0-6.14405A2.322,2.322,0,1,1,58.67773,61,2.3252,2.3252,0,0,1,61,58.67773Z"/></svg>