<svg xmlns="http://www.w3.org/2000/svg" viewBox="0 0 80 80"><path d="M44,48.75A4.7554,4.7554,0,0,0,48.75,44V36a4.75,4.75,0,0,0-9.5,0v8A4.7554,4.7554,0,0,0,44,48.75ZM40.75,36a3.25,3.25,0,0,1,6.5,0v8a3.25,3.25,0,0,1-6.5,0Z"/><path d="M59.25,44a4.75,4.75,0,0,0,9.5,0V36a4.75,4.75,0,0,0-9.5,0Zm1.5-8a3.25,3.25,0,0,1,6.5,0v8a3.25,3.25,0,0,1-6.5,0Z"/><path d="M56,47.25H54.75V32a.74993.74993,0,0,0-1.28027-.53027l-2,2,1.06054,1.06054.71973-.71972V47.25H52v1.5h4Z"/><path d="M64,69.25v1.5h4v-1.5H66.75V54a.74993.74993,0,0,0-1.28027-.53027l-2,2,1.06054,1.06054.71973-.71972V69.25Z"/><path d="M58.28711,53.30713a.74809.74809,0,0,0-.81738.1626l-2,2,1.06054,1.06054.71973-.71972V69.25H56v1.5h4v-1.5H58.75V54A.75009.75009,0,0,0,58.28711,53.30713Z"/><path d="M12,47.25v1.5h4v-1.5H14.75V32a.74993.74993,0,0,0-1.28027-.53027l-2,2,1.06054,1.06054.71973-.71972V47.25Z"/><path d="M36,69.25v1.5h4v-1.5H38.75V54a.74993.74993,0,0,0-1.28027-.53027l-2,2,1.06054,1.06054.71973-.71972V69.25Z"/><path d="M24,47.25H22.75V32a.74993.74993,0,0,0-1.28027-.53027l-2,2,1.06054,1.06054.71973-.71972V47.25H20v1.5h4Z"/><path d="M20.75,22V14a4.75,4.75,0,0,0-9.5,0v8a4.75,4.75,0,0,0,9.5,0Zm-8,0V14a3.25,3.25,0,0,1,6.5,0v8a3.25,3.25,0,0,1-6.5,0Z"/><path d="M11.25,66a4.75,4.75,0,0,0,9.5,0V58a4.75,4.75,0,0,0-9.5,0Zm1.5-8a3.25,3.25,0,0,1,6.5,0v8a3.25,3.25,0,0,1-6.5,0Z"/><path d="M28,70.75A4.7554,4.7554,0,0,0,32.75,66V58a4.75,4.75,0,0,0-9.5,0v8A4.7554,4.7554,0,0,0,28,70.75ZM24.75,58a3.25,3.25,0,0,1,6.5,0v8a3.25,3.25,0,0,1-6.5,0Z"/><path d="M36,26.75A4.7554,4.7554,0,0,0,40.75,22V14a4.75,4.75,0,0,0-9.5,0v8A4.7554,4.7554,0,0,0,36,26.75ZM32.75,14a3.25,3.25,0,0,1,6.5,0v8a3.25,3.25,0,0,1-6.5,0Z"/><path d="M48,70.75A4.7554,4.7554,0,0,0,52.75,66V58a4.75,4.75,0,0,0-9.5,0v8A4.7554,4.7554,0,0,0,48,70.75ZM44.75,58a3.25,3.25,0,0,1,6.5,0v8a3.25,3.25,0,0,1-6.5,0Z"/><path d="M36.75,44V36a4.75,4.75,0,0,0-9.5,0v8a4.75,4.75,0,0,0,9.5,0Zm-1.5,0a3.25,3.25,0,0,1-6.5,0V36a3.25,3.25,0,0,1,6.5,0Z"/><path d="M64,26.75A4.7554,4.7554,0,0,0,68.75,22V14a4.75,4.75,0,0,0-9.5,0v8A4.7554,4.7554,0,0,0,64,26.75ZM60.75,14a3.25,3.25,0,0,1,6.5,0v8a3.25,3.25,0,0,1-6.5,0Z"/><path d="M26.28711,9.30713a.75021.75021,0,0,0-.81738.1626l-2,2,1.06054,1.06054.71973-.71972V25.25H24v1.5h4v-1.5H26.75V10A.75009.75009,0,0,0,26.28711,9.30713Z"/><path d="M54.28711,9.30713a.75021.75021,0,0,0-.81738.1626l-2,2,1.06054,1.06054.71973-.71972V25.25H52v1.5h4v-1.5H54.75V10A.75009.75009,0,0,0,54.28711,9.30713Z"/><path d="M46.28711,9.30713a.75021.75021,0,0,0-.81738.1626l-2,2,1.06054,1.06054.71973-.71972V25.25H44v1.5h4v-1.5H46.75V10A.75009.75009,0,0,0,46.28711,9.30713Z"/></svg>