<svg xmlns="http://www.w3.org/2000/svg" viewBox="0 0 80 80"><path d="M40,44.75A4.75,4.75,0,1,0,35.25,40,4.7554,4.7554,0,0,0,40,44.75Zm0-8A3.25,3.25,0,1,1,36.75,40,3.25377,3.25377,0,0,1,40,36.75Z"/><path d="M35.16943,31.63477a2.63284,2.63284,0,0,1-2.8374-.13965,1.495,1.495,0,0,0-2.01416.21,12.6814,12.6814,0,0,0-2.32715,4.01367,1.5159,1.5159,0,0,0,.81055,1.89551,2.62025,2.62025,0,0,1,.00146,4.77246,1.5168,1.5168,0,0,0-.8125,1.88721,12.20186,12.20186,0,0,0,2.30469,3.99072,1.51583,1.51583,0,0,0,2.04053.24023,2.62067,2.62067,0,0,1,4.1333,2.38672,1.51525,1.51525,0,0,0,1.23633,1.6499,12.67295,12.67295,0,0,0,4.63916-.00927,1.49475,1.49475,0,0,0,1.189-1.64014A2.6205,2.6205,0,0,1,47.668,48.50488a1.49331,1.49331,0,0,0,2.01416-.21,12.6814,12.6814,0,0,0,2.32715-4.01367,1.5159,1.5159,0,0,0-.81055-1.89551,2.62025,2.62025,0,0,1-.00146-4.77246,1.5168,1.5168,0,0,0,.8125-1.88721,12.20186,12.20186,0,0,0-2.30469-3.99072,1.517,1.517,0,0,0-2.04053-.24023,2.62067,2.62067,0,0,1-4.1333-2.38672,1.51525,1.51525,0,0,0-1.23633-1.6499,12.69653,12.69653,0,0,0-4.63916.00927,1.49475,1.49475,0,0,0-1.189,1.64014A2.63306,2.63306,0,0,1,35.16943,31.63477Zm2.7627-2.69239a10.594,10.594,0,0,1,4.106.023,4.121,4.121,0,0,0,6.49658,3.752c.02246-.01709.02881-.00879.03271-.0044a10.94789,10.94789,0,0,1,1.18116,1.65772,9.093,9.093,0,0,1,.82568,1.87841,4.13551,4.13551,0,0,0-2.41406,3.75049,4.18717,4.18717,0,0,0,2.436,3.77832,10.57526,10.57526,0,0,1-2.05762,3.50537,4.13546,4.13546,0,0,0-4.458-.21679,4.07958,4.07958,0,0,0-2.0127,3.99121,10.59394,10.59394,0,0,1-4.106-.023,4.11522,4.11522,0,0,0-4.09863-4.5166,4.24761,4.24761,0,0,0-2.43066.769,10.94789,10.94789,0,0,1-1.18116-1.65772,9.093,9.093,0,0,1-.82568-1.87841,4.13551,4.13551,0,0,0,2.41406-3.75049,4.18717,4.18717,0,0,0-2.436-3.77832,10.57526,10.57526,0,0,1,2.05762-3.50537,4.13653,4.13653,0,0,0,4.458.21679A4.07958,4.07958,0,0,0,37.93213,28.94238Z"/><path d="M26,59.25H18a.7502.7502,0,0,0-.75.75v8h1.5V62.21808A30.47112,30.47112,0,0,0,40,70.75,30.7615,30.7615,0,0,0,67.31494,25.86279l-1.332.69043A28.92622,28.92622,0,0,1,69.25,40,29.28324,29.28324,0,0,1,40,69.25a28.99145,28.99145,0,0,1-20.60278-8.5H26Z"/><path d="M12.68506,54.13721l1.332-.69043A28.92622,28.92622,0,0,1,10.75,40,29.28324,29.28324,0,0,1,40,10.75a28.99145,28.99145,0,0,1,20.60278,8.5H54v1.5h8a.7502.7502,0,0,0,.75-.75V12h-1.5v5.78192A30.47112,30.47112,0,0,0,40,9.25,30.7615,30.7615,0,0,0,12.68506,54.13721Z"/></svg>