<svg xmlns="http://www.w3.org/2000/svg" viewBox="0 0 80 80"><path d="M56.75,40A16.75,16.75,0,1,0,40,56.75,16.76915,16.76915,0,0,0,56.75,40Zm-32,0A15.25,15.25,0,1,1,40,55.25,15.26751,15.26751,0,0,1,24.75,40Z"/><path d="M44.53027,43.46973,40.75,39.68945V28h-1.5V40a.75027.75027,0,0,0,.21973.53027l4,4Z"/><path d="M40,70.75a30.75,30.75,0,0,0,0-61.5,30.47112,30.47112,0,0,0-21.25,8.53192V12h-1.5v8a.7502.7502,0,0,0,.75.75h8v-1.5H19.39722A28.99145,28.99145,0,0,1,40,10.75,29.25,29.25,0,1,1,10.75,40a28.92622,28.92622,0,0,1,3.26709-13.44678l-1.332-.69043A30.7615,30.7615,0,0,0,40,70.75Z"/></svg>