<svg xmlns="http://www.w3.org/2000/svg" viewBox="0 0 80 80"><path d="M69.5918,60.69775a8.47539,8.47539,0,0,0,0-8.56152L59.61816,34.86279l-1.29882.75L68.293,52.88623a7.06164,7.06164,0,0,1-6.11524,10.59131H44.042l4.29883-4.29883-1.06055-1.06055-5.5791,5.57911a.74972.74972,0,0,0,0,1.06054l5.5791,5.5791,1.06055-1.06054L44.042,64.97754H62.17773A8.47524,8.47524,0,0,0,69.5918,60.69775Z"/><path d="M17.82227,64.97754H37.76855v-1.5H17.82227A7.06164,7.06164,0,0,1,11.707,52.88623L20.77539,37.1806l1.57324,5.87262,1.44922-.38867-2.042-7.62109a.74819.74819,0,0,0-.91895-.53028l-7.62109,2.042.38867,1.44921,5.87207-1.5736L10.4082,52.13623a8.56055,8.56055,0,0,0,7.41407,12.84131Z"/><path d="M33.88477,14.47363a7.06162,7.06162,0,0,1,12.23046,0l9.06739,15.70594L49.31055,28.606l-.38867,1.44922,7.62109,2.042a.77.77,0,0,0,.19433.02539.75009.75009,0,0,0,.72461-.55567l2.042-7.62109-1.44922-.38867-1.57324,5.87244L47.41406,13.72363a8.56126,8.56126,0,0,0-14.82812,0L22.61328,30.99756l1.29883.75Z"/></svg>