<svg xmlns="http://www.w3.org/2000/svg" viewBox="0 0 80 80"><path d="M28.76367,65a3.75,3.75,0,1,0-3.75,3.75A3.75442,3.75442,0,0,0,28.76367,65Zm-6,0a2.25,2.25,0,1,1,2.25,2.25A2.25278,2.25278,0,0,1,22.76367,65Z"/><path d="M62.76367,65a3.75,3.75,0,1,0-3.75,3.75A3.75442,3.75442,0,0,0,62.76367,65Zm-6,0a2.25,2.25,0,1,1,2.25,2.25A2.25278,2.25278,0,0,1,56.76367,65Z"/><path d="M23.28418,58.17383a.74912.74912,0,0,0,.72949.57617h40v-1.5H24.60645l-1.106-4.645,38.5874-3.85895a.74928.74928,0,0,0,.64258-.52539l8-26a.74955.74955,0,0,0-.7168-.9707H42a.7502.7502,0,0,0-.75.75V38.18945l-4.71973-4.71972-1.06054,1.06054,6,6a.74971.74971,0,0,0,1.06054,0l6-6-1.06054-1.06054L42.75,38.18945V22.75H68.99805L61.44336,47.30322,23.1499,51.13306,16.39185,22.75H38v-1.5H16.03467l-1.29151-5.42383a.7491.7491,0,0,0-.72949-.57617h-6v1.5H13.4209Z"/></svg>