<svg xmlns="http://www.w3.org/2000/svg" viewBox="0 0 80 80"><path d="M62,70.75a.7502.7502,0,0,0,.75-.75V24a.75027.75027,0,0,0-.21973-.53027l-14-14A.74942.74942,0,0,0,48,9.25H18a.7502.7502,0,0,0-.75.75V70a.7502.7502,0,0,0,.75.75ZM48.75,11.81055,60.18945,23.25H48.75ZM18.75,10.75h28.5V24a.7502.7502,0,0,0,.75.75H61.25v44.5H18.75Z"/><path d="M24.75,38.56885v-1.4917a.75.75,0,0,0-1.5,0v1.4917a.75.75,0,0,0,1.5,0Z"/><path d="M28,39.31885a.7502.7502,0,0,0,.75-.75V35.09863a.75.75,0,0,0-1.5,0v3.47022A.7502.7502,0,0,0,28,39.31885Z"/><path d="M32,40.75a.7502.7502,0,0,0,.75-.75V32.34473a.75.75,0,0,0-1.5,0V40A.7502.7502,0,0,0,32,40.75Z"/><path d="M36,39.31885a.7502.7502,0,0,0,.75-.75V35.09863a.75.75,0,0,0-1.5,0v3.47022A.7502.7502,0,0,0,36,39.31885Z"/><path d="M40,39.31885a.7502.7502,0,0,0,.75-.75V37.08154a.75.75,0,1,0-1.5,0v1.48731A.7502.7502,0,0,0,40,39.31885Z"/><path d="M44,39.31885a.7502.7502,0,0,0,.75-.75V35.09863a.75.75,0,0,0-1.5,0v3.47022A.7502.7502,0,0,0,44,39.31885Z"/><path d="M48,40.75a.7502.7502,0,0,0,.75-.75V32.34473a.75.75,0,0,0-1.5,0V40A.7502.7502,0,0,0,48,40.75Z"/><path d="M52,39.31885a.7502.7502,0,0,0,.75-.75V35.09863a.75.75,0,0,0-1.5,0v3.47022A.7502.7502,0,0,0,52,39.31885Z"/><path d="M56,36.32715a.7502.7502,0,0,0-.75.75v1.4917a.75.75,0,0,0,1.5,0v-1.4917A.7502.7502,0,0,0,56,36.32715Z"/><rect x="24" y="47.25" width="32" height="1.5"/><rect x="24" y="53.25" width="22" height="1.5"/></svg>