<svg xmlns="http://www.w3.org/2000/svg" viewBox="0 0 80 80"><path d="M62.66113,56.75h.001a5.41044,5.41044,0,0,0,4.86035-3.02148A30.75836,30.75836,0,0,0,41.05957,9.26807a30.75026,30.75026,0,1,0-1.47266,61.47949c.13965.002.27832.00244.418.00244a30.45733,30.45733,0,0,0,18.44824-6.15039l-.90039-1.19922a28.77679,28.77679,0,0,1-17.94628,5.84717A29.23732,29.23732,0,1,1,66.18066,53.05811,3.91993,3.91993,0,0,1,62.66211,55.25h-.001A3.9156,3.9156,0,0,1,58.75,51.33936V24h-1.5v8.65839a18.75,18.75,0,1,0,0,14.68322v3.99775A5.41724,5.41724,0,0,0,62.66113,56.75ZM40,57.25A17.25,17.25,0,1,1,57.25,40,17.26949,17.26949,0,0,1,40,57.25Z"/></svg>