<svg xmlns="http://www.w3.org/2000/svg" viewBox="0 0 80 80"><path d="M40,53.95215a10.66985,10.66985,0,0,0,10.75-10.563V19.81348a10.75165,10.75165,0,0,0-21.5,0V43.38916A10.66985,10.66985,0,0,0,40,53.95215ZM30.75,19.81348A9.25173,9.25173,0,0,1,49.221,19.25H44v1.5h5.25v4.5H44v1.5h5.25v4.5H44v1.5h5.25V43.38916a9.25193,9.25193,0,0,1-18.5,0Z"/><path d="M54.75,43.03125V38h-1.5v5.03125C53.25,50.87158,47.30566,57.25,40,57.25S26.75,50.87158,26.75,43.03125V38h-1.5v5.03125c0,8.39771,6.21655,15.25806,14,15.67828V69.25h-10v1.5h21.5v-1.5h-10V58.70953C48.53345,58.28931,54.75,51.429,54.75,43.03125Z"/></svg>