<svg xmlns="http://www.w3.org/2000/svg" viewBox="0 0 80 80"><path d="M51.22705,63.7124a5.21547,5.21547,0,0,1-3.7124,1.5376h-14.686a2.732,2.732,0,0,0-1.94482.80566l-3.41406,3.41407,1.06054,1.06054,3.41407-3.41406a1.242,1.242,0,0,1,.88427-.36621h14.686A6.70541,6.70541,0,0,0,52.2876,64.773L66.51025,50.55029a3.61071,3.61071,0,0,0,0-5.10058,3.55472,3.55472,0,0,0-5.022.00146l-1.41687,1.42377-.59973-.5683A3.54235,3.54235,0,0,0,54.542,46.354l-6.91675,6.95917A3.72327,3.72327,0,0,0,47,53.25H32.48535a6.70541,6.70541,0,0,0-4.77295,1.977L13.46973,69.46973l1.06054,1.06054L28.773,56.2876a5.21547,5.21547,0,0,1,3.7124-1.5376H47A2.25246,2.25246,0,0,1,49.25,57a2.30093,2.30093,0,0,1-.70349,1.45618l-.05383.05407.00122.00116a2.20458,2.20458,0,0,1-1.428.73029L35.99951,59.25l.001,1.5,11.06592-.0083a3.70858,3.70858,0,0,0,2.55688-1.24121l12.927-12.99024a2.05353,2.05353,0,0,1,2.89942,0,2.1095,2.1095,0,0,1,0,2.9795Zm-.54663-7.40057a3.75006,3.75006,0,0,0-1.54663-2.38873l6.46435-6.50367a2.04344,2.04344,0,0,1,2.84229-.02343l.57275.54242Z"/><path d="M15.99951,35.58838a3.54283,3.54283,0,0,0,2.51221-1.03955l1.81335-1.82221,1.02014.96674a3.54205,3.54205,0,0,0,4.9292-.04736l6.85437-6.896H47.51465a6.70541,6.70541,0,0,0,4.77295-1.977L66.53027,10.53027,65.46973,9.46973,51.22705,23.7124a5.21547,5.21547,0,0,1-3.7124,1.5376H33A2.25246,2.25246,0,0,1,30.75,23a2.30093,2.30093,0,0,1,.70349-1.45618l.05383-.05407-.00122-.00116a2.20458,2.20458,0,0,1,1.428-.73029L44.00049,20.75l-.001-1.5-11.06592.0083a3.70858,3.70858,0,0,0-2.55688,1.24121l-12.927,12.99024a2.05353,2.05353,0,0,1-2.89942,0,2.1095,2.1095,0,0,1,0-2.9795L28.773,16.2876a5.21547,5.21547,0,0,1,3.7124-1.5376h14.686a2.732,2.732,0,0,0,1.94482-.80566l3.41406-3.41407L51.46973,9.46973l-3.41407,3.41406a1.242,1.242,0,0,1-.88427.36621h-14.686a6.70541,6.70541,0,0,0-4.77295,1.97705L13.48975,29.44971a3.61071,3.61071,0,0,0,0,5.10058A3.53811,3.53811,0,0,0,15.99951,35.58838ZM29.31958,23.68817a3.748,3.748,0,0,0,2.07007,2.684l-6.17139,6.20838a2.04378,2.04378,0,0,1-2.8418.02343l-.99316-.94073Z"/><path d="M43.82959,33.25a4.85505,4.85505,0,0,0-3.44678,1.41064l-.3833.34082-.3501-.31005a4.92005,4.92005,0,0,0-6.96191,6.9541l6.77832,6.88086a.74981.74981,0,0,0,1.06836,0l6.77441-6.877a4.92041,4.92041,0,0,0-3.479-8.39941Zm2.41455,7.34277L40,46.93115l-6.248-6.34228a3.42087,3.42087,0,1,1,4.86914-4.80616l.88086.78223a.75084.75084,0,0,0,.9961,0l.91308-.813a3.50255,3.50255,0,0,1,4.83692,0,3.41975,3.41975,0,0,1-.00391,4.84082Z"/></svg>