<svg xmlns="http://www.w3.org/2000/svg" viewBox="0 0 80 80"><path d="M32.39844,46.39844,33.459,47.459a9.2614,9.2614,0,0,1,13.082,0l1.06054-1.06054A10.76259,10.76259,0,0,0,32.39844,46.39844Z"/><path d="M36.39844,50.7417,37.459,51.80225a3.599,3.599,0,0,1,5.082,0l1.06054-1.06055A5.10016,5.10016,0,0,0,36.39844,50.7417Z"/><path d="M27.46973,42.44043,28.53027,43.501a16.2205,16.2205,0,0,1,22.93946,0l1.06054-1.06055a17.71994,17.71994,0,0,0-25.06054,0Z"/><path d="M40,9.25A14.76686,14.76686,0,0,0,25.25,24v6.7005a22.75,22.75,0,1,0,29.5,0V24A14.76686,14.76686,0,0,0,40,9.25ZM26.75,24a13.25,13.25,0,0,1,26.5,0v5.52441a22.67367,22.67367,0,0,0-26.5,0Zm34.5,24A21.25,21.25,0,1,1,40,26.75,21.27376,21.27376,0,0,1,61.25,48Z"/><circle cx="40" cy="56" r="1"/></svg>