<svg xmlns="http://www.w3.org/2000/svg" viewBox="0 0 80 80"><path d="M9.876,54.3667l5.58642,9.77722a.71576.71576,0,0,0,.04761.083l.074.12952A4.76,4.76,0,0,0,19.708,66.75H34a.7502.7502,0,0,0,.75-.75V54a.7502.7502,0,0,0-.75-.75H22.96509l4.71069-8.24414,3.35645,1.79883a.74976.74976,0,0,0,1.07519-.86719l-4-14a.74954.74954,0,0,0-.91992-.51709l-14,3.85645a.75033.75033,0,0,0-.15527,1.38427l3.31787,1.778L9.88672,49.63477A4.76568,4.76568,0,0,0,9.876,54.3667ZM33.25,54.75v10.5H19.708a3.25214,3.25214,0,0,1-2.73682-1.51031L22.10791,54.75ZM11.18555,50.38525l6.85058-11.8667.00366-.01074.00806-.00976a.72251.72251,0,0,0,.04175-.13861.74462.74462,0,0,0,.04053-.13483.72624.72624,0,0,0-.0105-.1507.4105.4105,0,0,0-.08032-.27148.72055.72055,0,0,0-.0625-.11847.74646.74646,0,0,0-.11914-.10516.70675.70675,0,0,0-.09595-.08466l-.01074-.0036-.00977-.00812L15.39453,36.2251,26.87012,33.064,30.17871,44.645l-2.4375-1.30615a.75046.75046,0,0,0-1.00586.28906L16.10156,62.238l-4.92285-8.61542A3.25722,3.25722,0,0,1,11.18555,50.38525Z"/><path d="M41.25293,32.06934a.75054.75054,0,0,0,.541.65185l14,4A.75992.75992,0,0,0,56,36.75a.74885.74885,0,0,0,.7207-.544l4-14a.74956.74956,0,0,0-1.05468-.87744L56.418,22.94434,49.80469,11.60645A4.2971,4.2971,0,0,0,46,9.25H33.98535a4.22649,4.22649,0,0,0-3.78808,2.39355L23.34863,23.62793a.75054.75054,0,0,0,.26563,1.01514l10,6a.75042.75042,0,0,0,1.02929-.25733L40,21.45752l4.94043,8.23389L41.665,31.3291A.74974.74974,0,0,0,41.25293,32.06934Zm-7.50977-3.09815-8.72754-5.23633L31.5,12.3877a2.83581,2.83581,0,0,1,2.0918-1.61036L39.125,20ZM46.335,30.6709a.75113.75113,0,0,0,.30859-1.05664l-5.99316-9.9878-.01562-.02587L35.32422,10.75H46a2.8064,2.8064,0,0,1,2.50977,1.6123l6.96679,11.94385a.74882.74882,0,0,0,.98145.29346l2.35351-1.1709-3.32617,11.644L44.05957,31.80859Z"/><path d="M70.11328,49.502,63.25684,37.625a.71085.71085,0,0,0-.092-.10455.76668.76668,0,0,0-.0979-.11121.734.734,0,0,0-.12158-.06384.40945.40945,0,0,0-.27539-.07947.72807.72807,0,0,0-.14331-.01.76124.76124,0,0,0-.14209.04334.72348.72348,0,0,0-.13452.04107L51.92871,42.92871a.75064.75064,0,0,0-.29785,1.02393L56.793,53.25H48.75V50a.74993.74993,0,0,0-1.28027-.53027l-10,10a.74972.74972,0,0,0,0,1.06054l10,10A.74993.74993,0,0,0,48.75,70V66.75H60.27441a4.75515,4.75515,0,0,0,4.13379-2.41162l5.63086-9.95459.01758-.03027.07715-.13819A4.76949,4.76949,0,0,0,70.11328,49.502ZM63.10352,63.6001A3.25682,3.25682,0,0,1,60.27441,65.25H48a.7502.7502,0,0,0-.75.75v2.18945L39.06055,60,47.25,51.81055V54a.7502.7502,0,0,0,.75.75H68.1084ZM68.94531,53.25H58.50781l-5.19824-9.36279,9.01343-4.88L68.81445,50.252A3.26382,3.26382,0,0,1,68.94531,53.25Z"/></svg>