<svg xmlns="http://www.w3.org/2000/svg" viewBox="0 0 80 80"><path d="M50.75,66c0-7.58936,6.68555-14.43311,6.751-14.499a24.75012,24.75012,0,1,0-35.00489-.00244C22.56445,51.56689,29.25,58.41064,29.25,66v.75h21.5Zm-20.01855-.75c-.39649-7.88916-6.88477-14.52051-7.17188-14.80957a23.25028,23.25028,0,1,1,32.87891.002c-.28516.28711-6.77344,6.91846-7.16993,14.80762Z"/><rect x="30" y="69.25" width="20" height="1.5"/><path d="M40.01367,21.25A10.8671,10.8671,0,0,0,29.15918,32.10547h1.5a9.355,9.355,0,1,1,18.71,0c0,3.79346-2.80176,5.85889-5.51074,7.85644-2.36328,1.74219-4.59473,3.38819-4.59473,6.03272l-.01367,2,1.5.01074L40.76367,46c0-1.89258,1.84668-3.25391,3.98535-4.83057,2.86817-2.11523,6.12012-4.51318,6.12012-9.064A10.86793,10.86793,0,0,0,40.01367,21.25Z"/><path d="M40.01367,53.25a2.75,2.75,0,1,0,2.75,2.75A2.7528,2.7528,0,0,0,40.01367,53.25Zm0,4a1.25,1.25,0,1,1,1.25-1.25A1.25116,1.25116,0,0,1,40.01367,57.25Z"/></svg>