<svg xmlns="http://www.w3.org/2000/svg" viewBox="0 0 80 80"><path d="M52,52.75a.7502.7502,0,0,0,.75-.75V28a.7502.7502,0,0,0-.75-.75H28a.7502.7502,0,0,0-.75.75V52a.7502.7502,0,0,0,.75.75Zm-13.25-24h2.5v10.5h-2.5Zm-10,0h8.5V40a.7502.7502,0,0,0,.75.75h4a.7502.7502,0,0,0,.75-.75V28.75h8.5v22.5H28.75Z"/><path d="M40,70.75a30.75,30.75,0,0,0,0-61.5,30.47112,30.47112,0,0,0-21.25,8.53192V12h-1.5v8a.7502.7502,0,0,0,.75.75h8v-1.5H19.39722A28.9906,28.9906,0,0,1,40,10.75,29.25,29.25,0,1,1,10.75,40a28.92523,28.92523,0,0,1,3.26758-13.44678l-1.332-.69043A30.76074,30.76074,0,0,0,40,70.75Z"/></svg>