<svg xmlns="http://www.w3.org/2000/svg" viewBox="0 0 80 80"><path d="M11.25,46.2962V50a.7502.7502,0,0,0,.75.75h8a.7502.7502,0,0,0,.75-.75V46.2962A3.73876,3.73876,0,0,0,22.75,43V37a3.73876,3.73876,0,0,0-2-3.2962V30a.7502.7502,0,0,0-.75-.75H12a.7502.7502,0,0,0-.75.75v3.7038A3.73876,3.73876,0,0,0,9.25,37v6A3.73876,3.73876,0,0,0,11.25,46.2962Zm8,2.9538h-6.5v-2.5h6.5Zm-6.5-18.5h6.5v2.5h-6.5Zm-2,6.25A2.25278,2.25278,0,0,1,13,34.75h6A2.25278,2.25278,0,0,1,21.25,37v6A2.25278,2.25278,0,0,1,19,45.25H13A2.25278,2.25278,0,0,1,10.75,43Z"/><path d="M50,66.75a.7502.7502,0,0,0,.75-.75V54a.7502.7502,0,0,0-.75-.75H30a.7502.7502,0,0,0-.75.75V66a.7502.7502,0,0,0,.75.75h9.25v2.5H36v1.5h8v-1.5H40.75v-2.5Zm-19.25-1.5V54.75h18.5v10.5Z"/><path d="M70.75,42a2.74592,2.74592,0,0,0-2.03247-2.64307,8.74052,8.74052,0,0,0-17.43506,0A2.74592,2.74592,0,0,0,49.25,42v2A2.7528,2.7528,0,0,0,52,46.75h2a.7502.7502,0,0,0,.75-.75V40a.7502.7502,0,0,0-.75-.75H52.78906a7.24982,7.24982,0,0,1,14.42188,0H66a.7502.7502,0,0,0-.75.75v6a.7502.7502,0,0,0,.75.75h2A2.7528,2.7528,0,0,0,70.75,44Zm-17.5-1.25v4.5H52A1.25116,1.25116,0,0,1,50.75,44V42A1.25116,1.25116,0,0,1,52,40.75Zm16,3.25A1.25116,1.25116,0,0,1,68,45.25H66.75v-4.5H68A1.25116,1.25116,0,0,1,69.25,42Z"/><path d="M52.75,24V14A2.7528,2.7528,0,0,0,50,11.25H46.31055L44.53027,9.46973A.74942.74942,0,0,0,44,9.25H36a.74942.74942,0,0,0-.53027.21973L33.68945,11.25H30A2.7528,2.7528,0,0,0,27.25,14V24A2.7528,2.7528,0,0,0,30,26.75H50A2.7528,2.7528,0,0,0,52.75,24Zm-24,0V14A1.25116,1.25116,0,0,1,30,12.75h4a.74942.74942,0,0,0,.53027-.21973L36.31055,10.75h7.3789l1.78028,1.78027A.74942.74942,0,0,0,46,12.75h4A1.25116,1.25116,0,0,1,51.25,14V24A1.25116,1.25116,0,0,1,50,25.25H30A1.25116,1.25116,0,0,1,28.75,24Z"/><path d="M40,13.25A4.75,4.75,0,1,0,44.75,18,4.7554,4.7554,0,0,0,40,13.25Zm0,8A3.25,3.25,0,1,1,43.25,18,3.25377,3.25377,0,0,1,40,21.25Z"/><circle cx="48" cy="16" r="1"/></svg>