<svg xmlns="http://www.w3.org/2000/svg" viewBox="0 0 80 80"><path d="M22,34.75h1.25V38a.74992.74992,0,0,0,1.28027.53027L28.31055,34.75H32A2.7528,2.7528,0,0,0,34.75,32V28A2.7528,2.7528,0,0,0,32,25.25H22A2.7528,2.7528,0,0,0,19.25,28v4A2.7528,2.7528,0,0,0,22,34.75ZM20.75,28A1.25116,1.25116,0,0,1,22,26.75H32A1.25116,1.25116,0,0,1,33.25,28v4A1.25116,1.25116,0,0,1,32,33.25H28a.74942.74942,0,0,0-.53027.21973L24.75,36.18945V34a.7502.7502,0,0,0-.75-.75H22A1.25116,1.25116,0,0,1,20.75,32Z"/><path d="M22,50.75h1.25V54a.74992.74992,0,0,0,1.28027.53027L28.31055,50.75H32A2.7528,2.7528,0,0,0,34.75,48V44A2.7528,2.7528,0,0,0,32,41.25H22A2.7528,2.7528,0,0,0,19.25,44v4A2.7528,2.7528,0,0,0,22,50.75ZM20.75,44A1.25116,1.25116,0,0,1,22,42.75H32A1.25116,1.25116,0,0,1,33.25,44v4A1.25116,1.25116,0,0,1,32,49.25H28a.74942.74942,0,0,0-.53027.21973L24.75,52.18945V50a.7502.7502,0,0,0-.75-.75H22A1.25116,1.25116,0,0,1,20.75,48Z"/><path d="M48,34.75h1.25V38a.74992.74992,0,0,0,1.28027.53027L54.31055,34.75H58A2.7528,2.7528,0,0,0,60.75,32V28A2.7528,2.7528,0,0,0,58,25.25H48A2.7528,2.7528,0,0,0,45.25,28v4A2.7528,2.7528,0,0,0,48,34.75ZM46.75,28A1.25116,1.25116,0,0,1,48,26.75H58A1.25116,1.25116,0,0,1,59.25,28v4A1.25116,1.25116,0,0,1,58,33.25H54a.74942.74942,0,0,0-.53027.21973L50.75,36.18945V34a.7502.7502,0,0,0-.75-.75H48A1.25116,1.25116,0,0,1,46.75,32Z"/><path d="M48,50.75h1.25V54a.74992.74992,0,0,0,1.28027.53027L54.31055,50.75H58A2.7528,2.7528,0,0,0,60.75,48V44A2.7528,2.7528,0,0,0,58,41.25H48A2.7528,2.7528,0,0,0,45.25,44v4A2.7528,2.7528,0,0,0,48,50.75ZM46.75,44A1.25116,1.25116,0,0,1,48,42.75H58A1.25116,1.25116,0,0,1,59.25,44v4A1.25116,1.25116,0,0,1,58,49.25H54a.74942.74942,0,0,0-.53027.21973L50.75,52.18945V50a.7502.7502,0,0,0-.75-.75H48A1.25116,1.25116,0,0,1,46.75,48Z"/><path d="M11.25,24V56A2.7528,2.7528,0,0,0,14,58.75H66A2.7528,2.7528,0,0,0,68.75,56V24A2.7528,2.7528,0,0,0,66,21.25H14A2.7528,2.7528,0,0,0,11.25,24Zm56,0V56A1.25116,1.25116,0,0,1,66,57.25H14A1.25116,1.25116,0,0,1,12.75,56V24A1.25116,1.25116,0,0,1,14,22.75H66A1.25116,1.25116,0,0,1,67.25,24Z"/><rect x="8" y="61.25" width="64" height="1.5"/><rect x="39.25" y="28" width="1.5" height="24"/></svg>