<svg xmlns="http://www.w3.org/2000/svg" viewBox="0 0 80 80"><path d="M50.75,66c0-7.58936,6.686-14.43311,6.751-14.499a24.75012,24.75012,0,1,0-35.0044-.00244C22.564,51.56689,29.25,58.41064,29.25,66v.75h21.5ZM39.25,49.1626c-3.47559-.792-6.2998-7.00647-6.4812-14.4126H39.25ZM31.26917,34.75c.13354,6.02991,1.851,11.13684,4.40441,13.86572A15.26369,15.26369,0,0,1,24.788,34.75ZM24.788,33.25A15.26369,15.26369,0,0,1,35.67358,19.38428c-2.55346,2.72888-4.27087,7.83581-4.40441,13.86572Zm14.462,0H32.7688c.1814-7.40613,3.00561-13.62061,6.4812-14.4126Zm1.5,32V50.71191a16.75,16.75,0,1,0-1.5,0V65.25H30.731c-.39649-7.88916-6.88477-14.52051-7.17139-14.80957a23.25028,23.25028,0,1,1,32.87842.002c-.28418.28711-6.77246,6.91846-7.169,14.80762Zm7.98083-32c-.13354-6.02991-1.85095-11.13684-4.40441-13.86572A15.26369,15.26369,0,0,1,55.212,33.25Zm6.48121,1.5A15.26369,15.26369,0,0,1,44.32642,48.61572c2.55346-2.72888,4.27087-7.83581,4.40441-13.86572Zm-7.98084-1.5H40.75V18.8374C44.22559,19.62939,47.0498,25.84387,47.2312,33.25Zm0,1.5c-.1814,7.40613-3.00561,13.62061-6.4812,14.4126V34.75Z"/><rect x="30" y="69.25" width="20" height="1.5"/></svg>