<svg xmlns="http://www.w3.org/2000/svg" viewBox="0 0 80 80"><path d="M40,34.75A12.75,12.75,0,1,0,27.25,22,12.76457,12.76457,0,0,0,40,34.75Zm0-24A11.25,11.25,0,1,1,28.75,22,11.26294,11.26294,0,0,1,40,10.75Z"/><path d="M15.25,52V72h1.5V52A11.25643,11.25643,0,0,1,27.70435,40.76489L38.18945,51.25H34a.7502.7502,0,0,0-.75.75V64a.7502.7502,0,0,0,.75.75H46a.7502.7502,0,0,0,.75-.75V52a.7502.7502,0,0,0-.75-.75H41.81055l10.4851-10.48511A11.25643,11.25643,0,0,1,63.25,52V72h1.5V52A12.76457,12.76457,0,0,0,52,39.25H28A12.76457,12.76457,0,0,0,15.25,52Zm30,11.25H34.75v-6.5h10.5Zm0-10.5v2.5H34.75v-2.5Zm4.93945-12L40,50.93945,29.81055,40.75Z"/></svg>