<svg xmlns="http://www.w3.org/2000/svg" viewBox="0 0 80 80"><path d="M23.25,14v3.25H12A2.75311,2.75311,0,0,0,9.25,20V62.19092a2.75311,2.75311,0,0,0,2.75,2.75H68a2.75311,2.75311,0,0,0,2.75-2.75V20A2.75311,2.75311,0,0,0,68,17.25H56.75V14h-1.5v3.25H24.75V14Zm46,48.19092a1.25116,1.25116,0,0,1-1.25,1.25H12a1.25116,1.25116,0,0,1-1.25-1.25V28.75h58.5ZM55.25,18.75V22h1.5V18.75H68A1.25116,1.25116,0,0,1,69.25,20v7.25H10.75V20A1.25116,1.25116,0,0,1,12,18.75H23.25V22h1.5V18.75Z"/><path d="M48,60.75H66a.7502.7502,0,0,0,.75-.75V32a.7502.7502,0,0,0-.75-.75H48a.7502.7502,0,0,0-.75.75V60A.7502.7502,0,0,0,48,60.75Zm.75-28h16.5v6.5H48.75Zm0,8h16.5v4.5H48.75Zm0,6h16.5v8.5H48.75Zm0,10h16.5v2.5H48.75Z"/><path d="M24,60.75H42a.7502.7502,0,0,0,.75-.75V32a.7502.7502,0,0,0-.75-.75H24a.7502.7502,0,0,0-.75.75V60A.7502.7502,0,0,0,24,60.75Zm.75-28h16.5v2.5H24.75Zm0,4h16.5v8.5H24.75Zm0,10h16.5v4.5H24.75Zm0,6h16.5v6.5H24.75Z"/><rect x="14" y="33.25" width="4" height="1.5"/><rect x="14" y="41.25" width="4" height="1.5"/><rect x="14" y="49.25" width="4" height="1.5"/><rect x="14" y="57.25" width="4" height="1.5"/></svg>