<svg xmlns="http://www.w3.org/2000/svg" viewBox="0 0 80 80"><path d="M48.01367,9.25h-16a.7502.7502,0,0,0-.75.75v3.25h-11.25a2.7528,2.7528,0,0,0-2.75,2.75V68a2.7528,2.7528,0,0,0,2.75,2.75h40a2.7528,2.7528,0,0,0,2.75-2.75V16a2.7528,2.7528,0,0,0-2.75-2.75h-11.25V10A.7502.7502,0,0,0,48.01367,9.25Zm-15.25,1.5h14.5v4.5h-14.5Zm27.25,4a1.25116,1.25116,0,0,1,1.25,1.25V68a1.25116,1.25116,0,0,1-1.25,1.25h-40a1.25116,1.25116,0,0,1-1.25-1.25V16a1.25116,1.25116,0,0,1,1.25-1.25h11.25V16a.7502.7502,0,0,0,.75.75h16a.7502.7502,0,0,0,.75-.75V14.75Z"/><path d="M37.26367,30a8.75,8.75,0,1,0,8.75-8.75A8.75967,8.75967,0,0,0,37.26367,30Zm16,0a7.25,7.25,0,1,1-7.25-7.25A7.258,7.258,0,0,1,53.26367,30Z"/><path d="M42.76367,30h-1.5a4.75,4.75,0,0,0,9.5,0h-1.5a3.25,3.25,0,0,1-6.5,0Z"/><path d="M46.01367,45.25a8.75,8.75,0,1,0,8.75,8.75A8.75967,8.75967,0,0,0,46.01367,45.25Zm0,16a7.25,7.25,0,1,1,7.25-7.25A7.258,7.258,0,0,1,46.01367,61.25Z"/><path d="M46.01367,53.25a4.7554,4.7554,0,0,0-4.75,4.75h1.5a3.25,3.25,0,0,1,6.5,0h1.5A4.7554,4.7554,0,0,0,46.01367,53.25Z"/><path d="M32.01367,25.25h-8a.7502.7502,0,0,0-.75.75v8a.7502.7502,0,0,0,.75.75h8a.7502.7502,0,0,0,.75-.75V26A.7502.7502,0,0,0,32.01367,25.25Zm-.75,8h-6.5v-6.5h6.5Z"/><path d="M32.01367,49.25h-8a.7502.7502,0,0,0-.75.75v8a.7502.7502,0,0,0,.75.75h8a.7502.7502,0,0,0,.75-.75V50A.7502.7502,0,0,0,32.01367,49.25Zm-.75,8h-6.5v-6.5h6.5Z"/></svg>