<svg xmlns="http://www.w3.org/2000/svg" viewBox="0 0 80 80"><path d="M54.04492,24.6084a19.84182,19.84182,0,0,0-28.06152,0L27.044,25.669a18.34236,18.34236,0,0,1,25.94043,0Z"/><path d="M60.544,17.46973A28.34409,28.34409,0,0,0,40.01367,9.25,28.34727,28.34727,0,0,0,19.4834,17.46973L20.544,18.53027A26.87887,26.87887,0,0,1,40.01367,10.75,26.87569,26.87569,0,0,1,59.4834,18.53027Z"/><path d="M47.29785,32.11816a10.297,10.297,0,0,0-14.56152,0l1.06055,1.06055a8.79749,8.79749,0,0,1,12.44042,0Z"/><path d="M15.41406,21.54346a30.75224,30.75224,0,1,0,49.2002,0l-1.19922.90136a29.25222,29.25222,0,1,1-46.80176,0Z"/><path d="M40.01367,60.75A20.7522,20.7522,0,0,0,56.61426,27.54785l-1.19922.90039a19.25067,19.25067,0,1,1-30.80176.00049l-1.19922-.90137A20.75159,20.75159,0,0,0,40.01367,60.75Z"/><path d="M30.1582,35.7002a10.7532,10.7532,0,0,0,17.457,11.90136,10.814,10.814,0,0,0,2.21485-11.99023l-1.36914.6123A9.25162,9.25162,0,0,1,33.47363,46.541,9.203,9.203,0,0,1,31.5332,36.2998Z"/><path d="M37.26367,40a2.75,2.75,0,1,0,2.75-2.75A2.7528,2.7528,0,0,0,37.26367,40Zm4,0a1.25,1.25,0,1,1-1.25-1.25A1.25116,1.25116,0,0,1,41.26367,40Z"/></svg>