<svg xmlns="http://www.w3.org/2000/svg" viewBox="0 0 80 80"><path d="M40.01416,11.25A24.74912,24.74912,0,0,0,22.543,53.5293l16.93994,17a.74974.74974,0,0,0,1.0625,0L57.48486,53.52979A24.74912,24.74912,0,0,0,40.01416,11.25Zm0,57.6875-13.217-13.26379a5.24144,5.24144,0,0,1,5.217-4.92371h16a5.24144,5.24144,0,0,1,5.217,4.92371ZM56.42432,52.46924l-.00147.00146-1.87146,1.87805A6.75554,6.75554,0,0,0,48.01416,49.25h-16a6.75551,6.75551,0,0,0-6.53723,5.09888L23.604,52.46924a23.25,23.25,0,1,1,32.82032,0Z"/><path d="M40.01416,25.25A10.75,10.75,0,1,0,50.76416,36,10.762,10.762,0,0,0,40.01416,25.25Zm0,20a9.25,9.25,0,1,1,9.25-9.25A9.26032,9.26032,0,0,1,40.01416,45.25Z"/></svg>