<svg xmlns="http://www.w3.org/2000/svg" viewBox="0 0 80 80"><path d="M68.01367,58.75a2.7528,2.7528,0,0,0,2.75-2.75V22a2.7528,2.7528,0,0,0-2.75-2.75h-56a2.7528,2.7528,0,0,0-2.75,2.75V56a2.7528,2.7528,0,0,0,2.75,2.75h27.25v2.5h-13.25v1.5h28v-1.5h-13.25v-2.5Zm-56-1.5a1.25116,1.25116,0,0,1-1.25-1.25V22a1.25116,1.25116,0,0,1,1.25-1.25h56a1.25116,1.25116,0,0,1,1.25,1.25V56a1.25116,1.25116,0,0,1-1.25,1.25Z"/><path d="M47.74316,36.41943l-.89648-1.20312c-2.66211,1.9834-5.60449,5.8584-7.72656,8.96826,1.02539-3.42773,2.6123-7.14307,2.63476-7.19629L40.376,36.397c-.0763.17871-1.129,2.64551-2.07788,5.43848-2.31861,2.27234-4.94214,4.08142-5.57837,3.79687-.17774-.07861-.19825-.15478-.21094-.20068-.24317-.90771,1.75-3.63184,2.60156-4.79541a.75016.75016,0,0,0-1.05859-1.04053c-6.10156,4.62891-13.60449,8.74268-15.26563,7.438-.30468-1.28125,3.24512-7.89355,5.376-11.86279a55.32047,55.32047,0,0,0,3.79883-7.78076l-1.45117-.377a58.227,58.227,0,0,1-3.66895,7.44825c-4.916,9.15673-6.35059,12.40527-5.14062,13.61425a2.76361,2.76361,0,0,0,1.9541.57422c1.92968,0,5.52441-1.00146,11.97558-5.4458a3.82739,3.82739,0,0,0-.56933,2.61621,1.7736,1.7736,0,0,0,1.05566,1.18506c1.32642.58362,3.5398-.87134,5.3103-2.34814a18.37292,18.37292,0,0,0-.64038,3.28857.74992.74992,0,0,0,1.38575.44873C39.84375,45.69238,44.12207,39.1167,47.74316,36.41943Z"/><path d="M51.1582,42.751c-1.25781,1.10937-4.59765,4.06543-5.48437,3.291a2.07825,2.07825,0,0,1-.47363-2.16894c1.81542.4834,3.80761-1.19971,4.38378-1.73828.47071-.44043,1.98438-1.97608,1.669-3.22608a1.31183,1.31183,0,0,0-.98145-.94971c-1.69433-.44921-4.60156,1.85743-5.88378,4.06348-1.125,1.93555-1.04688,3.78369.25683,5.10938a2.01118,2.01118,0,0,0,1.37012.50634c1.873,0,4.27539-2.1206,6.13672-3.76269.4707-.416.87011-.77,1.15429-.98291l-.90039-1.2002C52.09863,41.92236,51.667,42.30176,51.1582,42.751Zm-1.38281-3.35059a5.167,5.167,0,0,1-1.68457,2.04248,4.05927,4.05927,0,0,1-2.209,1.01416C47.06055,40.66113,49.02441,39.4082,49.77539,39.40039Z"/><path d="M56.45312,43.52148l1.46485.31836c.792-3.6416,6.65332-12.13818,6.71191-12.22363l-1.23242-.85351C63.14844,31.12109,57.30762,39.59082,56.45312,43.52148Z"/><circle cx="36.86816" cy="34.81299" r="1"/><circle cx="56.01416" cy="48" r="1"/></svg>