<svg xmlns="http://www.w3.org/2000/svg" viewBox="0 0 80 80"><path d="M27.25,22A12.75,12.75,0,1,0,40,9.25,12.76457,12.76457,0,0,0,27.25,22Zm24,0A11.25,11.25,0,1,1,40,10.75,11.26294,11.26294,0,0,1,51.25,22Z"/><path d="M11.25,72h1.5V58.75h54.5V72h1.5V58.75H72v-1.5H64.75V52A12.76457,12.76457,0,0,0,52,39.25H44.63293A2.74488,2.74488,0,0,0,42,37.25H38a2.74488,2.74488,0,0,0-2.63293,2H28A12.76457,12.76457,0,0,0,15.25,52v5.25H8v1.5h3.25Zm33.5-24V40.75H52A11.26294,11.26294,0,0,1,63.25,52v5.25H40.75v-6.5H42A2.7528,2.7528,0,0,0,44.75,48Zm-8-8A1.25116,1.25116,0,0,1,38,38.75h4A1.25116,1.25116,0,0,1,43.25,40v8A1.25116,1.25116,0,0,1,42,49.25H38A1.25116,1.25116,0,0,1,36.75,48Zm-20,12A11.26294,11.26294,0,0,1,28,40.75h7.25V48A2.7528,2.7528,0,0,0,38,50.75h1.25v6.5H16.75Z"/></svg>