<svg xmlns="http://www.w3.org/2000/svg" viewBox="0 0 80 80"><path d="M64.01367,51.25a4.75,4.75,0,1,0,4.75,4.75A4.7554,4.7554,0,0,0,64.01367,51.25Zm0,8a3.25,3.25,0,1,1,3.25-3.25A3.25377,3.25377,0,0,1,64.01367,59.25Z"/><path d="M70.76367,72V67.38525A4.09636,4.09636,0,0,0,66.7168,63.25H61.31152a4.09656,4.09656,0,0,0-4.04785,4.13525V72h1.5V67.38525A2.59532,2.59532,0,0,1,61.31152,64.75H66.7168a2.59514,2.59514,0,0,1,2.54687,2.63525V72Z"/><path d="M43.26367,56a4.75,4.75,0,1,0,4.75-4.75A4.7554,4.7554,0,0,0,43.26367,56Zm8,0a3.25,3.25,0,1,1-3.25-3.25A3.25377,3.25377,0,0,1,51.26367,56Z"/><path d="M56.01367,43.25a4.75087,4.75087,0,0,0-4.11426,7.125l1.29883-.75a3.25028,3.25028,0,1,1,5.63086-.001l1.29883.752a4.75165,4.75165,0,0,0-4.11426-7.126Z"/><path d="M40.01367,43.25a4.75087,4.75087,0,0,0-4.11426,7.125l1.29883-.75a3.25028,3.25028,0,1,1,5.63086-.001l1.29883.752a4.75165,4.75165,0,0,0-4.11426-7.126Z"/><path d="M24.01367,43.25a4.75087,4.75087,0,0,0-4.11426,7.125l1.29883-.75a3.25028,3.25028,0,1,1,5.63086-.001l1.29883.752a4.75165,4.75165,0,0,0-4.11426-7.126Z"/><path d="M54.76367,72V67.38525A4.09636,4.09636,0,0,0,50.7168,63.25H45.31152a4.09656,4.09656,0,0,0-4.04785,4.13525V72h1.5V67.38525A2.59532,2.59532,0,0,1,45.31152,64.75H50.7168a2.59514,2.59514,0,0,1,2.54687,2.63525V72Z"/><path d="M27.26367,56a4.75,4.75,0,1,0,4.75-4.75A4.7554,4.7554,0,0,0,27.26367,56Zm8,0a3.25,3.25,0,1,1-3.25-3.25A3.25377,3.25377,0,0,1,35.26367,56Z"/><path d="M38.76367,72V67.38525A4.09636,4.09636,0,0,0,34.7168,63.25H29.31152a4.09656,4.09656,0,0,0-4.04785,4.13525V72h1.5V67.38525A2.59532,2.59532,0,0,1,29.31152,64.75H34.7168a2.59514,2.59514,0,0,1,2.54687,2.63525V72Z"/><path d="M11.26367,56a4.75,4.75,0,1,0,4.75-4.75A4.7554,4.7554,0,0,0,11.26367,56Zm8,0a3.25,3.25,0,1,1-3.25-3.25A3.25377,3.25377,0,0,1,19.26367,56Z"/><path d="M9.26367,67.38525V72h1.5V67.38525A2.59532,2.59532,0,0,1,13.31152,64.75H18.7168a2.59514,2.59514,0,0,1,2.54687,2.63525V72h1.5V67.38525A4.09636,4.09636,0,0,0,18.7168,63.25H13.31152A4.09656,4.09656,0,0,0,9.26367,67.38525Z"/><path d="M48.75,26.75H50v-1.5H46.75v-2.252a3.75233,3.75233,0,0,0-3.748-3.748h-6.0039a3.75233,3.75233,0,0,0-3.748,3.748V25.25H30v1.5h1.25v10.5H8v1.5H72v-1.5H48.75Zm-14-3.752a2.25069,2.25069,0,0,1,2.248-2.248H43.002a2.25069,2.25069,0,0,1,2.248,2.248V25.25H34.75ZM47.25,37.25H32.75V26.75h14.5Z"/><path d="M36.25,13A3.75,3.75,0,1,0,40,9.25,3.75442,3.75442,0,0,0,36.25,13Zm6,0A2.25,2.25,0,1,1,40,10.75,2.25278,2.25278,0,0,1,42.25,13Z"/></svg>