<svg xmlns="http://www.w3.org/2000/svg" viewBox="0 0 80 80"><path d="M64.01367,60.75a4.75,4.75,0,1,0-4.75-4.75A4.7554,4.7554,0,0,0,64.01367,60.75Zm0-8a3.25,3.25,0,1,1-3.25,3.25A3.25377,3.25377,0,0,1,64.01367,52.75Z"/><path d="M66.7168,63.25H61.31152a4.09656,4.09656,0,0,0-4.04785,4.13525V72h1.5V67.38525A2.59532,2.59532,0,0,1,61.31152,64.75H66.7168a2.59514,2.59514,0,0,1,2.54687,2.63525V72h1.5V67.38525A4.09636,4.09636,0,0,0,66.7168,63.25Z"/><path d="M48.01367,51.25a4.75,4.75,0,1,0,4.75,4.75A4.7554,4.7554,0,0,0,48.01367,51.25Zm0,8a3.25,3.25,0,1,1,3.25-3.25A3.25377,3.25377,0,0,1,48.01367,59.25Z"/><path d="M60.12793,50.376a4.75028,4.75028,0,1,0-8.22852-.001l1.29883-.75a3.25028,3.25028,0,1,1,5.63086-.001Z"/><path d="M43.26367,48a3.24111,3.24111,0,0,1-.43457,1.624l1.29883.752a4.75028,4.75028,0,1,0-8.22852-.001l1.29883-.75A3.25031,3.25031,0,1,1,43.26367,48Z"/><path d="M24.01367,44.75a3.25039,3.25039,0,0,1,2.81543,4.874l1.29883.752a4.75028,4.75028,0,1,0-8.22852-.001l1.29883-.75a3.25116,3.25116,0,0,1,2.81543-4.875Z"/><path d="M54.76367,72V67.38525A4.09636,4.09636,0,0,0,50.7168,63.25H45.31152a4.09656,4.09656,0,0,0-4.04785,4.13525V72h1.5V67.38525A2.59532,2.59532,0,0,1,45.31152,64.75H50.7168a2.59514,2.59514,0,0,1,2.54687,2.63525V72Z"/><path d="M27.26367,56a4.75,4.75,0,1,0,4.75-4.75A4.7554,4.7554,0,0,0,27.26367,56Zm4.75-3.25a3.25,3.25,0,1,1-3.25,3.25A3.25377,3.25377,0,0,1,32.01367,52.75Z"/><path d="M38.76367,72V67.38525A4.09636,4.09636,0,0,0,34.7168,63.25H29.31152a4.09656,4.09656,0,0,0-4.04785,4.13525V72h1.5V67.38525A2.59532,2.59532,0,0,1,29.31152,64.75H34.7168a2.59514,2.59514,0,0,1,2.54687,2.63525V72Z"/><path d="M11.26367,56a4.75,4.75,0,1,0,4.75-4.75A4.7554,4.7554,0,0,0,11.26367,56Zm4.75-3.25a3.25,3.25,0,1,1-3.25,3.25A3.25377,3.25377,0,0,1,16.01367,52.75Z"/><path d="M21.26367,67.38525V72h1.5V67.38525A4.09636,4.09636,0,0,0,18.7168,63.25H13.31152a4.09656,4.09656,0,0,0-4.04785,4.13525V72h1.5V67.38525A2.59532,2.59532,0,0,1,13.31152,64.75H18.7168A2.59514,2.59514,0,0,1,21.26367,67.38525Z"/><path d="M36.66406,22a4.75,4.75,0,1,0-4.75,4.75A4.7554,4.7554,0,0,0,36.66406,22Zm-8,0a3.25,3.25,0,1,1,3.25,3.25A3.25377,3.25377,0,0,1,28.66406,22Z"/><path d="M25.16406,33.02246V40h1.5V33.02246A2.42459,2.42459,0,0,1,29.21191,30.75h5.40528a2.4243,2.4243,0,0,1,2.54687,2.27246V40h1.5V33.02246A3.92139,3.92139,0,0,0,34.61719,29.25H29.21191A3.92166,3.92166,0,0,0,25.16406,33.02246Z"/><path d="M64.76367,32V12a2.7528,2.7528,0,0,0-2.75-2.75h-44a2.7528,2.7528,0,0,0-2.75,2.75V32a2.7528,2.7528,0,0,0,2.75,2.75h4v-1.5h-4a1.25116,1.25116,0,0,1-1.25-1.25V12a1.25116,1.25116,0,0,1,1.25-1.25h44a1.25116,1.25116,0,0,1,1.25,1.25V32a1.25116,1.25116,0,0,1-1.25,1.25h-20v1.5h20A2.7528,2.7528,0,0,0,64.76367,32Z"/></svg>