<svg xmlns="http://www.w3.org/2000/svg" viewBox="0 0 80 80"><path d="M68.01416,58.75a2.7528,2.7528,0,0,0,2.75-2.75V22a2.7528,2.7528,0,0,0-2.75-2.75h-56a2.7528,2.7528,0,0,0-2.75,2.75V56a2.7528,2.7528,0,0,0,2.75,2.75h27.25v2.5h-13.25v1.5h28v-1.5h-13.25v-2.5Zm-56-1.5a1.25116,1.25116,0,0,1-1.25-1.25V22a1.25116,1.25116,0,0,1,1.25-1.25h56a1.25116,1.25116,0,0,1,1.25,1.25V56a1.25116,1.25116,0,0,1-1.25,1.25Z"/><rect x="14" y="25.25" width="4" height="1.5"/><rect x="14" y="33.25" width="4" height="1.5"/><rect x="14" y="41.25" width="4" height="1.5"/><rect x="14" y="49.25" width="4" height="1.5"/><path d="M66,23.25H48a.7502.7502,0,0,0-.75.75V52a.7502.7502,0,0,0,.75.75H66a.7502.7502,0,0,0,.75-.75V24A.7502.7502,0,0,0,66,23.25Zm-.75,28H48.75v-2.5h16.5Zm0-4H48.75v-8.5h16.5Zm0-10H48.75v-4.5h16.5Zm0-6H48.75v-6.5h16.5Z"/><path d="M42,23.25H24a.7502.7502,0,0,0-.75.75V52a.7502.7502,0,0,0,.75.75H42a.7502.7502,0,0,0,.75-.75V24A.7502.7502,0,0,0,42,23.25Zm-.75,28H24.75v-6.5h16.5Zm0-8H24.75v-4.5h16.5Zm0-6H24.75v-8.5h16.5Zm0-10H24.75v-2.5h16.5Z"/></svg>