<svg xmlns="http://www.w3.org/2000/svg" viewBox="0 0 80 80"><path d="M24,65.25a.7502.7502,0,0,0-.75.75v4a.7502.7502,0,0,0,.75.75H56a.7502.7502,0,0,0,.75-.75V66a.7502.7502,0,0,0-.75-.75A13.26522,13.26522,0,0,1,42.75,52V48.39917c4.8833-1.21362,9.23438-5.60547,12.43506-12.0293A24.27664,24.27664,0,0,0,66.75,16a.7502.7502,0,0,0-.75-.75H60.55444c.12525-1.71826.19556-3.46863.19556-5.25A.7502.7502,0,0,0,60,9.25H20a.7502.7502,0,0,0-.75.75c0,1.78137.07031,3.53174.19556,5.25H14a.7502.7502,0,0,0-.75.75A24.27664,24.27664,0,0,0,24.81494,36.36987C28.01562,42.7937,32.3667,47.18555,37.25,48.39917V52A13.26522,13.26522,0,0,1,24,65.25Zm31.25,4H24.75v-2.5h30.5Zm4.80835-49.33325c.01636-.11524.03394-.22974.0498-.34546.05787-.4292.11036-.86133.1604-1.29517q.0553-.47131.10425-.94653c.01978-.19409.04566-.38477.06372-.57959H65.2373a22.59157,22.59157,0,0,1-8.75781,16.86133A57.21337,57.21337,0,0,0,60.05835,19.91675ZM14.7627,16.75h4.80078c.01806.19482.04394.3855.06372.57959q.04907.47534.10425.94653c.05.43384.10253.866.1604,1.29517.01586.11572.03344.23022.0498.34546a57.21337,57.21337,0,0,0,3.57886,13.69458A22.59157,22.59157,0,0,1,14.7627,16.75ZM26.03931,35.61084a.72635.72635,0,0,0-.03833-.12793,53.80421,53.80421,0,0,1-4.71143-16.74939c-.00488-.04126-.01074-.08215-.01562-.12341q-.16041-1.30078-.27247-2.629c-.14306-1.70862-.22924-3.45374-.24755-5.23108H59.24609c-.01831,1.77734-.10449,3.52246-.24755,5.23108q-.11206,1.32769-.27247,2.629c-.00488.04126-.01074.08215-.01562.12341A53.80421,53.80421,0,0,1,53.999,35.48291a.72635.72635,0,0,0-.03833.12793C50.45044,42.77222,45.49146,47.25,40,47.25S29.54956,42.77222,26.03931,35.61084ZM38.75,52V48.67334a10.22943,10.22943,0,0,0,2.5,0V52a14.75344,14.75344,0,0,0,8.31152,13.25h-19.123A14.75344,14.75344,0,0,0,38.75,52Z"/><path d="M14.50171,54.43774l-5.032,5.032A.74965.74965,0,0,0,10,60.75H22a.74965.74965,0,0,0,.53027-1.28027l-5.032-5.032C20.53809,53.18152,22.75,48.17236,22.75,42a.7502.7502,0,0,0-.75-.75H10a.7502.7502,0,0,0-.75.75C9.25,48.17236,11.46191,53.18152,14.50171,54.43774ZM20.18945,59.25h-8.3789L16,55.06055Zm1.04883-16.5c-.1875,5.76465-2.50976,10.5-5.23828,10.5s-5.05078-4.73535-5.23828-10.5Z"/><path d="M70.75,42a.7502.7502,0,0,0-.75-.75H58a.7502.7502,0,0,0-.75.75c0,6.17236,2.21191,11.18152,5.25171,12.43774l-5.032,5.032A.74965.74965,0,0,0,58,60.75H70a.74965.74965,0,0,0,.53027-1.28027l-5.032-5.032C68.53809,53.18152,70.75,48.17236,70.75,42ZM68.18945,59.25h-8.3789L64,55.06055ZM64,53.25c-2.72852,0-5.05078-4.73535-5.23828-10.5H69.23828C69.05078,48.51465,66.72852,53.25,64,53.25Z"/></svg>