<svg xmlns="http://www.w3.org/2000/svg" viewBox="0 0 80 80"><path d="M8,18.75h3.25v42.5H8v1.5H72v-1.5H68.75V18.75H72v-1.5H8Zm59.25,42.5H56.458c-1.1084-6.84009,2.18237-14.42358,3.83752-16.44873a12.76083,12.76083,0,0,0,1.5575.16064,11.22124,11.22124,0,0,0-2.603,7.16553h1.5c0-3.37549,1.50439-5.27539,2.95947-7.1123l.13233-.16822A8.69015,8.69015,0,0,0,67.25,43.49438Zm0-19.61279a7.70313,7.70313,0,0,1-6.5,1.72949v-.96a79.45144,79.45144,0,0,0,6.5-4.68335Zm0-22.88721V35.6958a27.29506,27.29506,0,0,1-3.04407,2.49976l-.19372-.2273c-2.52491-2.95459-3.79248-4.4375-5.28516-10.3584l-1.4541.36621c1.57861,6.26221,3.00635,7.93311,5.59912,10.9668l.11157.131q-.433.30543-.84253.58777c-4.5653-2.72485-8.10522-7.65442-11.44531-15.94189l-1.3916.56054c3.32934,8.26026,6.89819,13.3429,11.47632,16.30579-.32971.2207-.60425.40247-.80689.53552C48.24683,34.68848,45.08716,26.88538,42.96924,18.75Zm-25.83276,0C43.54419,27.03442,46.832,35.62793,59.25,42.44153v1.27893C57.30237,45.98169,53.885,53.9873,54.95532,61.25H25.04468c1.07031-7.2627-2.347-15.26831-4.29468-17.52954V42.44153C33.168,35.62793,36.45581,27.03442,38.58276,18.75ZM12.75,18.75H37.03076c-2.11792,8.13538-5.27759,15.9386-17.00439,22.37158-.20264-.13305-.47718-.31482-.80689-.53552,4.57813-2.96289,8.14685-8.04553,11.47632-16.30579l-1.3916-.56054c-3.34021,8.28759-6.88013,13.217-11.44531,15.94189q-.40907-.28217-.84253-.58765l.11157-.1311c2.59277-3.03369,4.02051-4.70459,5.59912-10.9668l-1.4541-.36621c-1.49268,5.9209-2.76025,7.40381-5.28516,10.3584l-.19384.22742A27.28581,27.28581,0,0,1,12.75,35.6958Zm0,18.97339a79.45144,79.45144,0,0,0,6.5,4.68335v.96a7.70136,7.70136,0,0,1-6.5-1.72962Zm0,5.771a8.68712,8.68712,0,0,0,3.40845,1.35279l.13208.168C17.74561,46.85205,19.25,48.752,19.25,52.12744h1.5a11.22124,11.22124,0,0,0-2.603-7.16553,12.76139,12.76139,0,0,0,1.55738-.16064c1.65527,2.02515,4.946,9.60864,3.83764,16.44873H12.75Z"/></svg>