<svg xmlns="http://www.w3.org/2000/svg" viewBox="0 0 80 80"><path d="M13.03027,13.92334l-4,4A.74958.74958,0,0,0,9.103,19.04785L34.42627,38.52637l-9.166,9.166L12.0249,47.25a.77722.77722,0,0,0-.55664.2207L9.02881,49.92383A.75031.75031,0,0,0,9.2251,51.124l11.10473,5.55225c-.75366,1.73267-1.31836,3.13037-1.46557,3.49853a.74967.74967,0,0,0,.97461.97461c.36841-.14721,1.76611-.71191,3.49878-1.46557l5.552,11.10425a.74773.74773,0,0,0,.55176.40527.7.7,0,0,0,.11914.00976.749.749,0,0,0,.53174-.2207l2.43945-2.45312a.74869.74869,0,0,0,.21777-.55371L32.3208,54.75391l9.18311-9.18262c.48632.66992,1.29,1.71484,2.5874,3.40137l16.875,21.9375a.7501.7501,0,0,0,1.12451.07324l4-4a.74949.74949,0,0,0,.15674-.83106L58.53979,48.53442l3.551-3.551a.74973.74973,0,0,0,0-1.06055l-4-4a.74973.74973,0,0,0-1.06055,0l-1.57068,1.5708L52.453,34.62109l4.63782-4.63769-.0033-.00342c2.0774-2.07007,4.96619-4.95874,9.00379-8.99609a20.74483,20.74483,0,0,0,3.6001-5.42285c.87011-1.88477,1.6455-4.39209.39941-5.6377-1.24658-1.24756-3.75391-.47022-5.63721.39941a20.74882,20.74882,0,0,0-5.42334,3.60059L45.39209,27.56055,38.52,24.5542l1.5708-1.5708a.74972.74972,0,0,0,0-1.06055l-4-3.99951a.74973.74973,0,0,0-1.06055,0l-3.551,3.55078L13.86133,13.7666A.74815.74815,0,0,0,13.03027,13.92334ZM10.82373,50.24609l1.47754-1.48535,11.79248.39405a51.49617,51.49617,0,0,0-3.15686,6.14794ZM29.76465,69.18457,24.71082,59.0769a51.51733,51.51733,0,0,0,6.147-3.15625l.382,11.78052Zm27.7959-27.6709L60.5,44.45312l-2.60571,2.60572-1.78919-4.0896Zm7.10791,24.77149-3.03418,3.0332C58.78,65.6084,45.06885,47.78345,42.55652,44.51758l8.75732-8.75733ZM46.09082,28.9834l14-13.99951A19.423,19.423,0,0,1,65.082,11.68457c2.19776-1.01367,3.56641-1.083,3.94824-.70068.38233.38232.31348,1.751-.70068,3.94824a19.414,19.414,0,0,1-3.29883,4.99121s-4.98047,4.98022-9.00024,8.99976l-.00025-.00025-17,17,.00025.00025-8.00025,7.99975c-1.30029,1.29981-6.74951,3.749-10.09277,5.15332,1.4043-3.34375,3.85352-8.793,5.15332-10.09277l8-8,2-2ZM35.56055,19.51416,38.5,22.45312l-1.45557,1.45557-4.0896-1.78906Zm8.69238,9.186L35.496,37.457,10.69482,18.37988,13.729,15.3457Z"/><rect x="24.31791" y="50.70321" width="8.48528" height="1.49984" transform="translate(-28.01766 35.26563) rotate(-45)"/></svg>