<svg xmlns="http://www.w3.org/2000/svg" viewBox="0 0 80 80"><path d="M70.75,64V58a.7502.7502,0,0,0-.75-.75H44.75v-2.5H70v-1.5H68.731A28.77391,28.77391,0,0,0,40.75,25.269V22.75h4.28711v-1.5H34.96289v1.5H39.25v2.519A28.77391,28.77391,0,0,0,11.269,53.25H10v1.5H35.25v2.5H10a.7502.7502,0,0,0-.75.75v6a.7502.7502,0,0,0,.75.75H70A.7502.7502,0,0,0,70.75,64ZM12.75977,53.25a27.25057,27.25057,0,0,1,54.48046,0H12.75977ZM43.25,54.75v2.5h-6.5v-2.5Zm26,8.5H10.75v-4.5h58.5Z"/><rect x="39.25" y="8" width="1.5" height="10"/><rect x="13.25008" y="20.34315" width="1.49984" height="11.31371" transform="translate(-14.28427 17.51472) rotate(-45)"/><rect x="60.34315" y="25.25008" width="11.31371" height="1.49984" transform="translate(0.94618 54.28427) rotate(-45)"/></svg>