<svg xmlns="http://www.w3.org/2000/svg" viewBox="0 0 80 80"><path d="M67.01416,19.25h-54a3.7541,3.7541,0,0,0-3.75,3.75V41a3.75442,3.75442,0,0,0,3.75,3.75h2.32593a4.73087,4.73087,0,0,0,9.34814,0H26.7395c-.043.14355-.09692.28223-.12671.43164l-1.334,6.6709c-.0044.02246.0039.04443.00159.06714A.70193.70193,0,0,0,25.26416,52v6A4.74267,4.74267,0,0,0,29.333,62.68115a4.729,4.729,0,0,0,9.35522.06885H55.88159a4.73087,4.73087,0,0,0,9.34815,0h4.78442a.7502.7502,0,0,0,.75-.75V57.458a6.21548,6.21548,0,0,0-6.2085-6.208H60.98022l-1.52465-2.541a4.64269,4.64269,0,0,0,5.2185-3.959h2.34009a3.75442,3.75442,0,0,0,3.75-3.75V23A3.7541,3.7541,0,0,0,67.01416,19.25Zm-16.25,1.5h8.5v8.88135a14.54811,14.54811,0,0,0-3.25-.38135h-5.25Zm0,10h5.25a13.07564,13.07564,0,0,1,3.25.41992v8.15454a4.73871,4.73871,0,0,0-3.84558,3.48828A6.93063,6.93063,0,0,0,51.06641,41.25h-.30225ZM55.708,45.37793,59.231,51.25H48.76416v-8.5h2.30225A5.43988,5.43988,0,0,1,55.708,45.37793ZM40.76416,20.75h8.5v8.5h-8.5Zm-10,0h8.5v8.5h-8.5Zm-10,0h8.5v8.5h-8.5Zm-10,2.25a2.25278,2.25278,0,0,1,2.25-2.25h6.25v8.5h-8.5Zm9.25,24.25a3.25,3.25,0,1,1,3.25-3.25A3.25377,3.25377,0,0,1,20.01416,47.25Zm4.67407-4a4.73087,4.73087,0,0,0-9.34814,0H13.01416a2.25278,2.25278,0,0,1-2.25-2.25V30.75h38.5v10.5H31.40967a4.88776,4.88776,0,0,0-3.92114,2Zm22.57593-.5v8.5h-8.5v-8.5Zm-10,0v8.5H26.9292l1.1543-5.77344A3.40081,3.40081,0,0,1,31.40967,42.75Zm-3.25,22.5a3.25,3.25,0,1,1,3.25-3.25A3.25377,3.25377,0,0,1,34.01416,65.25Zm26.5415,0a3.25,3.25,0,1,1,3.25-3.25A3.25377,3.25377,0,0,1,60.55566,65.25Zm0-12.5h4a4.71383,4.71383,0,0,1,4.7085,4.708V61.25H65.22974a4.73087,4.73087,0,0,0-9.34815,0H38.68823a4.73349,4.73349,0,0,0-9.34106-.07031A3.2546,3.2546,0,0,1,26.76416,58V52.75ZM60,47.25a3.2167,3.2167,0,0,1-1.72351-.50635l-1.28235-2.1372c-.06763-.1128-.14966-.21387-.22339-.322A2.50954,2.50954,0,0,1,56.75,44,3.25,3.25,0,1,1,60,47.25Zm7.01416-4H64.67407a4.73842,4.73842,0,0,0-3.90991-3.92285V31.64307a13.30215,13.30215,0,0,1,8.3219,10.23364A2.25364,2.25364,0,0,1,67.01416,43.25Zm2.25-5.69141a14.89053,14.89053,0,0,0-8.5-7.5V20.75h6.25a2.25278,2.25278,0,0,1,2.25,2.25Z"/></svg>