<svg xmlns="http://www.w3.org/2000/svg" viewBox="0 0 80 80"><path d="M70,65.25H66.75V62a.7502.7502,0,0,0-.75-.75H62.75V42.75H66a.7502.7502,0,0,0,.75-.75V34a.7502.7502,0,0,0-.75-.75H62.89258V28a.7502.7502,0,0,0-.75-.75H50.64551A10.68414,10.68414,0,0,0,40.75,17.35449V14.75H46a.7502.7502,0,0,0,.75-.75V10A.7502.7502,0,0,0,46,9.25H40a.7502.7502,0,0,0-.75.75v7.35449A10.68414,10.68414,0,0,0,29.35449,27.25H17.85742a.7502.7502,0,0,0-.75.75v5.25H14a.7502.7502,0,0,0-.75.75v8a.7502.7502,0,0,0,.75.75h3.25v18.5H14a.7502.7502,0,0,0-.75.75v3.25H10a.7502.7502,0,0,0-.75.75v4a.7502.7502,0,0,0,.75.75H70a.7502.7502,0,0,0,.75-.75V66A.7502.7502,0,0,0,70,65.25ZM40.75,10.75h4.5v2.5h-4.5ZM40,18.81641A9.19566,9.19566,0,0,1,49.15332,27.25H30.84668A9.19566,9.19566,0,0,1,40,18.81641ZM18.60742,28.75H61.39258v4.5H18.60742ZM14.75,41.25v-6.5h50.5v6.5Zm46.5,1.5v18.5h-8.5V42.75Zm-10,0v18.5H40.75V42.75Zm-12,0v18.5H28.75V42.75Zm-12,0v18.5h-8.5V42.75Zm-12.5,20h50.5v2.5H14.75Zm54.5,6.5H10.75v-2.5h58.5Z"/></svg>