<svg xmlns="http://www.w3.org/2000/svg" viewBox="0 0 80 80"><path d="M68.75,25a15.75005,15.75005,0,1,0-29.11047,8.2998L27.46973,45.46973A.74942.74942,0,0,0,27.25,46v9.792l-5.64978,9.41675A34.68812,34.68812,0,0,1,10,67.25v1.5c15.82422,0,27.82959-10.61621,38.42139-19.98242C56.92773,41.24609,64.27393,34.75,72,34.75v-1.5a17.6245,17.6245,0,0,0-6.56152,1.376A15.65429,15.65429,0,0,0,68.75,25ZM35.25,57.73267a57.136,57.136,0,0,1-11.37366,6.59765l4.76673-7.94458A.75028.75028,0,0,0,28.75,56V50.75h6.5ZM47.42773,47.64453C44.04041,50.63965,40.50427,53.76343,36.75,56.616V50a.7502.7502,0,0,0-.75-.75H28.75V46.31055L40.50732,34.55322a15.60224,15.60224,0,0,0,15.36744,5.92139C53.09045,42.64453,50.28638,45.1167,47.42773,47.64453ZM53,39.25A14.25,14.25,0,1,1,67.25,25,14.26621,14.26621,0,0,1,53,39.25Z"/><path d="M28,31.25A4.75,4.75,0,1,0,32.75,36,4.7554,4.7554,0,0,0,28,31.25Zm0,8A3.25,3.25,0,1,1,31.25,36,3.25377,3.25377,0,0,1,28,39.25Z"/></svg>