<svg xmlns="http://www.w3.org/2000/svg" viewBox="0 0 80 80"><path d="M70,17.25H22a.7502.7502,0,0,0-.75.75v9.25H16a.7502.7502,0,0,0-.75.75v9.25H10a.7502.7502,0,0,0-.75.75V60a.7502.7502,0,0,0,.75.75H39.68945l3.78028,3.78027a.74971.74971,0,0,0,1.06054,0L48.31055,60.75H58a.7502.7502,0,0,0,.75-.75V50.75H64a.7502.7502,0,0,0,.75-.75V40.75H70a.7502.7502,0,0,0,.75-.75V18A.7502.7502,0,0,0,70,17.25Zm-12.75,42H48a.74942.74942,0,0,0-.53027.21973L44,62.93945l-3.46973-3.46972A.74942.74942,0,0,0,40,59.25H10.75V38.75h4.5V50a.7502.7502,0,0,0,.75.75H45.68945l3.78028,3.78027a.74971.74971,0,0,0,1.06054,0L54.31055,50.75H57.25Zm6-10H54a.74942.74942,0,0,0-.53027.21973L50,52.93945l-3.46973-3.46972A.74942.74942,0,0,0,46,49.25H16.75V28.75h4.5V40a.7502.7502,0,0,0,.75.75H51.68945l3.78028,3.78027a.74971.74971,0,0,0,1.06054,0L60.31055,40.75H63.25Zm6-10H60a.74942.74942,0,0,0-.53027.21973L56,42.93945l-3.46973-3.46972A.74942.74942,0,0,0,52,39.25H22.75V18.75h46.5Z"/><path d="M46,33.5a1.87705,1.87705,0,0,1-1.875-1.875h-1.5a3.3761,3.3761,0,0,0,2.625,3.28418V36h1.5V34.90918A3.37142,3.37142,0,0,0,46,28.25a1.875,1.875,0,1,1,1.875-1.875h1.5a3.3761,3.3761,0,0,0-2.625-3.28418V22h-1.5v1.09082A3.37142,3.37142,0,0,0,46,29.75a1.875,1.875,0,0,1,0,3.75Z"/></svg>