<svg xmlns="http://www.w3.org/2000/svg" viewBox="0 0 80 80"><path d="M68.75,72V60A2.7528,2.7528,0,0,0,66,57.25H58.75V54a.7502.7502,0,0,0-.75-.75H52.75V50A12.76457,12.76457,0,0,0,40,37.25H24A12.76457,12.76457,0,0,0,11.25,50V72h1.5V50A11.26294,11.26294,0,0,1,24,38.75H40A11.26294,11.26294,0,0,1,51.25,50v3.25H46a.7502.7502,0,0,0-.75.75v3.25H38A2.7528,2.7528,0,0,0,35.25,60V72h1.5V60A1.25116,1.25116,0,0,1,38,58.75H66A1.25116,1.25116,0,0,1,67.25,60V72ZM57.25,57.25H46.75v-2.5h10.5Z"/><path d="M50,36.75v-1.5c-3.38574,0-5.25-1.7124-5.25-4.82129V21.14258C44.75,14.80713,38.792,9.25,32,9.25S19.25,14.80713,19.25,21.14258v9.28613C19.25,33.5376,17.38574,35.25,14,35.25v1.5c4.22656,0,6.75-2.36328,6.75-6.32129V21.14258C20.75,15.70361,26.1123,10.75,32,10.75s11.25,4.95361,11.25,10.39258v9.28613C43.25,34.38672,45.77344,36.75,50,36.75Z"/><path d="M32.75,14a.7502.7502,0,0,0-.75-.75A8.75967,8.75967,0,0,0,23.25,22v4a8.75,8.75,0,0,0,17.5,0V22a.7502.7502,0,0,0-.75-.75A7.258,7.258,0,0,1,32.75,14Zm6.5,12a7.25,7.25,0,0,1-14.5,0V22a7.26053,7.26053,0,0,1,6.53516-7.21484A8.76509,8.76509,0,0,0,39.25,22.71826Z"/></svg>