<svg xmlns="http://www.w3.org/2000/svg" viewBox="0 0 80 80"><path d="M12.09277,27.62207A20.35824,20.35824,0,0,0,9.25,38v.75H21.28516V38a32.78787,32.78787,0,0,1,1.42968-9.77344l.30957-.97656H12.30957ZM20.99414,28.75a33.99412,33.99412,0,0,0-1.20215,8.5H10.76465a18.85965,18.85965,0,0,1,2.41113-8.5Z"/><path d="M18.1875,24.75H61.23633L60.665,23.65332A23.41493,23.41493,0,0,0,40.46191,11.272V11.25h-1.5v.022A23.41493,23.41493,0,0,0,18.75879,23.65332Zm40.5332-1.5H52.60645c-.03833-.12549-.08326-.2417-.123-.36548-.09131-.28467-.18482-.56567-.28272-.84106q-.10693-.3003-.21948-.59278-.15272-.39807-.31494-.78173c-.07959-.18873-.15991-.37647-.24292-.56006-.11377-.25122-.23193-.49536-.35205-.73682-.08594-.17334-.17139-.34741-.2605-.51562-.12817-.24146-.26172-.47339-.39624-.70411-.08935-.15356-.17676-.31005-.269-.459-.14942-.24121-.30567-.4707-.46216-.69922-.08472-.12378-.16675-.25293-.25366-.37305-.20288-.28051-.41358-.54663-.62744-.80664-.04639-.05615-.08985-.11816-.13672-.17334q-.40063-.47277-.82471-.897c-.05054-.05029-.104-.094-.15478-.14355-.23243-.22535-.46778-.44385-.71021-.64771-.01685-.01392-.03223-.03076-.04907-.04468A21.61073,21.61073,0,0,1,58.7207,23.25ZM40.46191,12.7854c.1377.01074.27442.02539.41065.042.123.0149.24731.02613.36914.0459.1831.02954.36279.07056.543.1106.11352.02539.22827.04565.34057.07519.19385.05078.38379.1145.57373.17774.09424.03149.19068.05664.28394.09106.26733.09839.53052.21.78955.33276.01367.00635.02759.011.041.01758.27148.13037.53808.27515.8.43189.09008.05395.17675.11694.26562.17407.16968.10889.34009.2168.50537.33667.10327.07495.20288.15845.3042.23755.147.11474.29443.228.43774.35156.10376.0896.20435.187.30616.28125.1355.12549.27148.25025.40332.38379.1018.103.20019.2124.2998.32007.127.13745.25342.27514.377.42016.09741.11475.19213.23487.28735.3545.11987.15039.23852.302.35474.46.092.12549.18212.25512.272.38525.11328.16431.2251.33106.33447.50269.08618.135.17041.27295.25415.41235q.16077.26844.31519.54761.119.215.23413.43579c.1018.19531.20044.39526.2976.59814.07178.14942.14307.29956.21241.45313.0957.21289.18823.43139.27929.6521.06372.154.12793.30737.189.46533.09082.2334.17724.47339.26245.7146.05493.15576.11108.30981.16406.46875.02.0603.03784.12378.05738.18457H40.46191Zm-7.51025,2.74292c.11816-.11035.23511-.22314.356-.32715.11792-.10156.23974-.19385.36035-.2893.1272-.10059.25268-.20508.38232-.29883.11817-.08521.24-.1604.36011-.24.13721-.09082.27271-.18653.4126-.27.1018-.06079.20727-.11084.3103-.16773a9.797,9.797,0,0,1,.94727-.45581c.1145-.04761.227-.10156.343-.14453.14624-.0542.29639-.096.44483-.14282.13794-.04321.27417-.09107.41382-.12818.1416-.03735.28637-.064.42993-.095.1521-.03247.303-.06787.457-.093.13721-.02246.27685-.03565.41577-.052.125-.01489.25049-.0288.377-.03857V23.25H28.39673c.01929-.05957.03662-.12207.05639-.18115.0542-.16309.11182-.321.16846-.481.08374-.23657.16821-.47192.25684-.70093.06323-.16235.12915-.32055.19458-.47876.08911-.21557.17944-.4292.27319-.6372.07129-.15845.14453-.313.21851-.467.09472-.198.1914-.39307.29028-.58375q.11865-.22778.241-.44824.15051-.27209.30688-.5332c.08667-.14478.17407-.28784.26343-.42773.10522-.165.21289-.32544.32178-.4834.09424-.137.18872-.27344.28589-.405.10961-.14917.22241-.29273.33569-.43531.10181-.12841.20337-.25732.3081-.37988.11353-.1333.23023-.26.34668-.38672.10987-.11938.219-.24048.33155-.354C32.7124,15.749,32.83252,15.6394,32.95166,15.52832Zm-.45557-1.61963c-.01855.01538-.03564.03369-.054.04932-.22925.19262-.45142.40039-.67163.61255-.063.06054-.12891.115-.19116.177q-.42152.42188-.81958.8916c-.05372.06323-.10376.13379-.15674.19849-.20777.25317-.41284.51147-.61011.78393-.08594.1189-.16675.24658-.25073.36914-.15772.23023-.31519.46143-.46582.70459-.09082.14624-.17676.3003-.26465.45093-.13623.23364-.27149.46851-.40088.71314-.08789.16552-.17188.33691-.25659.50732-.12134.24438-.241.49145-.356.74585-.08179.18066-.16064.36523-.239.55078q-.16443.38928-.31909.79272-.11023.28821-.21582.58326c-.09913.27832-.19361.5625-.28589.85034-.03907.12207-.08326.23657-.1211.36035H20.70312A21.60649,21.60649,0,0,1,32.49609,13.90869Z"/><path d="M9.25,42a20.23034,20.23034,0,0,0,2.85156,10.37988l.21778.37012H23.01172l-.31348-.979A32.02442,32.02442,0,0,1,21.25879,42v-.75H9.25Zm10.51562.75a33.72349,33.72349,0,0,0,1.21,8.5h-7.793a18.71729,18.71729,0,0,1-2.418-8.5Z"/><path d="M24.77637,52.75H38.75V41.25H23.28711V42a37.46524,37.46524,0,0,0,1.334,10.20459ZM37.25,42.75v8.5H25.915a35.87347,35.87347,0,0,1-1.12109-8.5Z"/><path d="M38.74805,27.25H24.72754l-.1543.54785A37.87382,37.87382,0,0,0,23.25,38v.75H38.74805Zm-1.5,10H24.75684a36.94529,36.94529,0,0,1,1.11328-8.5H37.24805Z"/><path d="M67.90723,52.37793A20.36083,20.36083,0,0,0,70.75,42v-.75H58.71484V42a32.78787,32.78787,0,0,1-1.42968,9.77344l-.30957.97656H67.69043ZM59.00586,51.25a33.99412,33.99412,0,0,0,1.20215-8.5h9.02734a18.86309,18.86309,0,0,1-2.41113,8.5Z"/><path d="M70.75,38a20.23034,20.23034,0,0,0-2.85156-10.37988L67.68066,27.25H56.9873l.31446.979A31.98768,31.98768,0,0,1,58.74219,38v.75H70.75Zm-10.51465-.75a33.67259,33.67259,0,0,0-1.21094-8.5h7.793a18.71729,18.71729,0,0,1,2.418,8.5Z"/><path d="M56.71289,38a37.46524,37.46524,0,0,0-1.334-10.20459L55.22363,27.25H41.25v11.5H56.71289ZM42.75,37.25v-8.5H54.085a35.87347,35.87347,0,0,1,1.12109,8.5Z"/><path d="M55.42676,52.20215A37.87382,37.87382,0,0,0,56.75,42v-.75H41.252v11.5H55.27246ZM54.12988,51.25H42.752v-8.5H55.24316A36.94529,36.94529,0,0,1,54.12988,51.25Z"/><path d="M39.71191,68.75h.75v-.022A23.41833,23.41833,0,0,0,60.665,56.34668L61.23633,55.25H18.1875l.57129,1.09668A23.41727,23.41727,0,0,0,38.96191,68.728v.022ZM51.417,59.89453c.084-.18555.165-.37524.24561-.56616q.16113-.382.31323-.77759.1128-.29406.22021-.59521c.09791-.27491.19117-.55518.28248-.83936.03955-.124.08471-.24048.123-.36621H58.7207a21.61063,21.61063,0,0,1-11.7998,9.34326c.01953-.01611.0376-.03564.05713-.052.22046-.18555.43408-.386.64648-.5896.07129-.06836.14551-.12988.21582-.2002q.41968-.4204.81616-.88769c.05909-.06958.114-.14722.17261-.21875.20191-.24683.40161-.4978.59375-.76318.08985-.124.17432-.25708.26172-.38526.154-.22485.30762-.45019.45459-.6875.09351-.15063.18237-.30957.273-.46533.1333-.22876.26587-.45874.39282-.69824.09009-.16992.17652-.34571.26343-.521C51.187,60.38525,51.3042,60.14355,51.417,59.89453ZM40.46191,56.75H51.022c-.01953.06079-.03735.12427-.05737.18457-.053.15967-.10962.31421-.1648.4707-.085.23975-.17065.47852-.26074.71045-.062.15943-.12646.31446-.19092.47-.09033.219-.18212.436-.27734.64746-.07007.15552-.14209.30738-.21484.45874q-.14357.3003-.29346.59034-.11718.22485-.23828.44336-.152.275-.3103.53906c-.08545.14258-.17163.28369-.25953.42139-.10668.16748-.21582.33007-.32617.49023-.09277.13477-.18579.2688-.28125.39844-.11181.15234-.22656.29858-.342.44384-.09936.125-.19873.251-.30078.37085-.11645.13721-.23657.26734-.3562.39747-.10693.116-.21289.23364-.322.344-.12036.12158-.2439.23486-.36719.34961-.11426.1062-.227.21557-.344.31592-.12329.10644-.25049.20312-.37647.30273-.12182.096-.24194.19629-.36621.28613-.12573.09107-.25561.17139-.38379.25611-.12939.0852-.25683.17578-.38867.25439-.12451.07422-.25293.13672-.3794.20508q-.41271.223-.84033.40308c-.12768.05371-.25342.11352-.383.16162-.14209.05273-.28809.09326-.43262.13891-.14136.04468-.2815.094-.42529.13184-.13965.03686-.28272.06323-.42432.09375-.15332.033-.30591.06885-.46143.094-.13647.02246-.27539.03565-.41333.05176-.12548.01489-.25122.02881-.37793.03882Zm-19.75879,0h6.11915c.03833.12573.08349.24219.123.36621.09131.28418.18457.56445.28247.83936q.10731.30175.22022.59521.152.397.31372.77881c.08008.18994.16064.37842.24414.563.11377.25122.23193.49512.35181.73657.08569.17261.17065.34619.25952.51392.12939.24389.2644.47827.40039.71142.08764.15039.17358.3042.26416.45044.15185.24536.31079.47876.47021.71118.08228.12012.16162.24561.24585.36206.20777.28711.42285.55982.64209.82544.04151.0503.08032.10547.12232.15528q.40063.47277.82544.89746c.05249.05249.10791.09814.16089.14941.22973.2229.4624.43921.70214.64087.01758.01465.0337.032.05127.04663A21.61193,21.61193,0,0,1,20.70312,56.75ZM38.55371,67.17285c-.124-.01514-.24927-.02637-.37207-.04639-.18262-.02929-.3623-.07031-.542-.11035-.11328-.02539-.228-.04541-.34009-.075-.19556-.05151-.38721-.11572-.5791-.17969-.09229-.03076-.18652-.05542-.27783-.08911q-.40907-.15087-.80567-.33984l-.02466-.01025c-.27172-.13062-.53833-.27588-.80053-.43287-.08618-.05151-.1687-.11157-.25366-.166-.17408-.11133-.34839-.22241-.51783-.34546-.10009-.07251-.19677-.15381-.29516-.23071-.14966-.11646-.29981-.23194-.44532-.35767-.10253-.08838-.20141-.18457-.302-.27734-.137-.127-.27441-.25342-.408-.38843-.10009-.10132-.197-.20947-.29516-.31543-.12818-.13867-.25611-.27808-.38062-.42456-.09668-.11377-.19067-.23291-.28491-.35156-.12036-.15113-.24-.304-.35669-.46265-.09155-.12476-.18115-.25366-.27051-.3833-.11352-.1648-.22583-.33228-.33569-.5044-.08569-.13452-.16943-.27172-.25269-.41064q-.16113-.26916-.3164-.5498-.11865-.21425-.2334-.43457c-.10156-.19483-.2002-.39429-.29688-.59668-.07226-.1504-.144-.30152-.21337-.45606-.09546-.21167-.18726-.4292-.27808-.64844-.06421-.15527-.12866-.30981-.19019-.46875-.09057-.23291-.17675-.47241-.26171-.71313-.05518-.15576-.11133-.31006-.16431-.469-.02-.0603-.03784-.124-.05737-.18481H38.96191V67.2146C38.825,67.2041,38.689,67.18921,38.55371,67.17285Z"/></svg>