<svg xmlns="http://www.w3.org/2000/svg" viewBox="0 0 80 80"><path d="M26.18848,40.5293a5.64381,5.64381,0,0,0,.60058-.78174,2.80879,2.80879,0,0,0,.44629-1.57031,2.41488,2.41488,0,0,0-.22168-1.03907,2.28729,2.28729,0,0,0-.60449-.78564,2.734,2.734,0,0,0-.88672-.48828,3.625,3.625,0,0,0-2.23047.0122,2.92227,2.92227,0,0,0-.91308.51465,2.678,2.678,0,0,0-.63477.77832,2.85312,2.85312,0,0,0-.31348.95655l-.0205.14209a.15327.15327,0,0,0,.15136.17431h1.374a.15161.15161,0,0,0,.15136-.13623l.01172-.11035a1.08119,1.08119,0,0,1,.39258-.76709,1.42676,1.42676,0,0,1,.918-.28271,1.26352,1.26352,0,0,1,.89062.28466.98126.98126,0,0,1,.2959.75733,1.55314,1.55314,0,0,1-.06543.45508,1.795,1.795,0,0,1-.2207.44384,5.04461,5.04461,0,0,1-.4248.54053c-.17481.1958-.39551.41992-.65625.66651l-2.52344,2.4248-.03906.03564a.15057.15057,0,0,0-.04981.1128V44.02a.15254.15254,0,0,0,.15234.15234h5.28028a.15254.15254,0,0,0,.15234-.15234V42.79639a.15254.15254,0,0,0-.15234-.15235H24.02734l1.27149-1.20849C25.6416,41.10742,25.94141,40.80273,26.18848,40.5293Z"/><path d="M32.34863,35.86133H31.04688a.15092.15092,0,0,0-.12891.07129l-3.37988,5.397a.14921.14921,0,0,0-.02344.081v1.146a.15254.15254,0,0,0,.15234.15234h3.25V44.02a.15254.15254,0,0,0,.15235.15234h1.27929A.15254.15254,0,0,0,32.501,44.02V42.709h1.10058a.15254.15254,0,0,0,.15235-.15234V41.40039a.15254.15254,0,0,0-.15235-.15234H32.501V36.01367A.15254.15254,0,0,0,32.34863,35.86133ZM30.917,41.24805H29.46777L30.917,38.84912Z"/><path d="M33.68555,44.08984a.15225.15225,0,0,0,.13574.08252h1.56055a.15294.15294,0,0,0,.126-.06591l1.33985-1.95215,1.37207,1.9541a.15138.15138,0,0,0,.124.064h1.60742a.15273.15273,0,0,0,.123-.24267l-2.28809-3.10694,1.95215-2.72558a.1523.1523,0,0,0-.124-.24121H38.08691a.1536.1536,0,0,0-.127.06738l-1.11914,1.66211-1.18164-1.66553a.15138.15138,0,0,0-.124-.064h-1.582a.15228.15228,0,0,0-.123.24218l2.042,2.80518-2.1748,3.02783A.1524.1524,0,0,0,33.68555,44.08984Z"/><path d="M45.70312,35.86133H40.52246a.15254.15254,0,0,0-.15234.15234v1.20117a.15254.15254,0,0,0,.15234.15235h3.48731L40.86621,43.9541a.15247.15247,0,0,0,.1377.21826h1.48437a.15306.15306,0,0,0,.13867-.08789l3.20313-6.877a.15376.15376,0,0,0,.01367-.063l.01172-1.12939a.15173.15173,0,0,0-.15235-.15381Z"/><path d="M45.75684,44.08984a.15225.15225,0,0,0,.13574.08252h1.56054a.153.153,0,0,0,.126-.06591L48.919,42.1543,50.291,44.1084a.15137.15137,0,0,0,.124.064h1.60742a.15273.15273,0,0,0,.123-.24267l-2.28809-3.10694,1.95215-2.72558a.1523.1523,0,0,0-.124-.24121H50.15918a.15134.15134,0,0,0-.126.06689l-1.12109,1.6626-1.18164-1.66553a.15138.15138,0,0,0-.124-.064h-1.582a.15228.15228,0,0,0-.123.24218l2.042,2.80616-2.17481,3.02685A.15242.15242,0,0,0,45.75684,44.08984Z"/><path d="M57.126,35.86133H55.82422a.15093.15093,0,0,0-.12891.07129l-3.38086,5.397a.14928.14928,0,0,0-.02343.081v1.146a.15254.15254,0,0,0,.15234.15234h3.25V44.02a.15254.15254,0,0,0,.15234.15234H57.126a.15254.15254,0,0,0,.15234-.15234V42.709h1.10059a.15254.15254,0,0,0,.15234-.15234V41.40039a.15254.15254,0,0,0-.15234-.15234H57.27832V36.01367A.15254.15254,0,0,0,57.126,35.86133Zm-1.43262,5.38672H54.24512l1.44824-2.39893Z"/><path d="M70.75,36a4.74146,4.74146,0,0,0-4.42188-4.7168,26.74672,26.74672,0,0,0-52.65624,0A4.74146,4.74146,0,0,0,9.25,36v8A4.7554,4.7554,0,0,0,14,48.75h4a.7502.7502,0,0,0,.75-.75V32a.7502.7502,0,0,0-.75-.75H15.22168a25.22476,25.22476,0,0,1,49.55664,0H62a.7502.7502,0,0,0-.75.75V48a.7502.7502,0,0,0,.75.75h3.21191A17.25643,17.25643,0,0,1,48,65.25H44.67407a4.75,4.75,0,1,0,0,1.5H48A18.7581,18.7581,0,0,0,66.71582,48.67773,4.74428,4.74428,0,0,0,70.75,44Zm-53.5-3.25v14.5H14A3.25377,3.25377,0,0,1,10.75,44V36A3.25377,3.25377,0,0,1,14,32.75ZM40,69.25A3.25,3.25,0,1,1,43.25,66,3.25377,3.25377,0,0,1,40,69.25ZM69.25,44A3.25377,3.25377,0,0,1,66,47.25H62.75V32.75H66A3.25377,3.25377,0,0,1,69.25,36Z"/></svg>