<svg xmlns="http://www.w3.org/2000/svg" viewBox="0 0 80 80"><path d="M29.25,30V50a.7502.7502,0,0,0,.75.75H50a.7502.7502,0,0,0,.75-.75V30a.7502.7502,0,0,0-.75-.75H30A.7502.7502,0,0,0,29.25,30Zm9.5.75h2.5v6.5h-2.5Zm-8,0h6.5v8h5.5v-8h6.5v18.5H30.75Z"/><path d="M70.53027,39.46973l-4-4-1.06054,1.06054L68.18945,39.25H56v1.5H68.18945l-2.71972,2.71973,1.06054,1.06054,4-4A.74972.74972,0,0,0,70.53027,39.46973Z"/><path d="M13.46973,44.53027l1.06054-1.06054L11.81055,40.75H24v-1.5H11.81055l2.71972-2.71973-1.06054-1.06054-4,4a.74972.74972,0,0,0,0,1.06054Z"/><path d="M40.75,24V11.81055l2.71973,2.71972,1.06054-1.06054-4-4a.74972.74972,0,0,0-1.06054,0l-4,4,1.06054,1.06054L39.25,11.81055V24Z"/><path d="M39.25,56V68.18945l-2.71973-2.71972-1.06054,1.06054,4,4a.74971.74971,0,0,0,1.06054,0l4-4-1.06054-1.06054L40.75,68.18945V56Z"/><path d="M56.53027,24.53027,67.25,13.81055v3.84619h1.5V12a.7502.7502,0,0,0-.75-.75H62.34277v1.5h3.84668L55.46973,23.46973Z"/><path d="M11.25,62.34326V68a.7502.7502,0,0,0,.75.75h5.65723v-1.5H13.81055L24.53027,56.53027l-1.06054-1.06054L12.75,66.18945V62.34326Z"/><path d="M68.75,68V62.34326h-1.5v3.84619L56.53027,55.46973l-1.06054,1.06054L66.18945,67.25H62.34277v1.5H68A.7502.7502,0,0,0,68.75,68Z"/><path d="M17.65723,11.25H12a.7502.7502,0,0,0-.75.75v5.65674h1.5V13.81055L23.46973,24.53027l1.06054-1.06054L13.81055,12.75h3.84668Z"/></svg>