<svg xmlns="http://www.w3.org/2000/svg" viewBox="0 0 80 80"><path d="M42.7627,37.8479a4.75,4.75,0,1,0-5.5254,0A6.75477,6.75477,0,0,0,33.25,44h1.5a5.25,5.25,0,0,1,10.5,0h1.5A6.75477,6.75477,0,0,0,42.7627,37.8479ZM40,37.25A3.25,3.25,0,1,1,43.25,34,3.25377,3.25377,0,0,1,40,37.25Z"/><path d="M45,54c0-3.86621,4.43652-7.42773,4.54785-7.523a13.54481,13.54481,0,0,0,3.38477-5.727H58a12.75,12.75,0,0,0,0-25.5H22.70581a6.68614,6.68614,0,0,0-.66064-2.23462L25.06055,10,24,8.93945l-2.7832,2.78321a6.74789,6.74789,0,1,0,1.489,5.02734H58a11.25,11.25,0,0,1,0,22.5H53.27637a13.66436,13.66436,0,0,0-3.72852-12.0127,13.42512,13.42512,0,0,0-19.0957,0A13.62469,13.62469,0,0,0,26.73706,39.25H22a12.75,12.75,0,0,0,0,25.5H57.29419a6.75,6.75,0,1,0,0-1.5H22a11.25,11.25,0,0,1,0-22.5h5.08252a13.72669,13.72669,0,0,0,3.436,5.78662C30.56348,46.57227,35,50.13379,35,54a.7502.7502,0,0,0,.75.75h8.5A.7502.7502,0,0,0,45,54ZM16,21.25a5.25009,5.25009,0,1,1,4.13525-8.4458L16,16.93945l-2-2L12.93945,16l2.53028,2.53027a.74971.74971,0,0,0,1.06054,0l4.36939-4.36938A5.19423,5.19423,0,0,1,21.25,16,5.25605,5.25605,0,0,1,16,21.25Zm48,37.5A5.25,5.25,0,1,1,58.75,64,5.25605,5.25605,0,0,1,64,58.75Zm-27.542-5.5c-.47559-4.26074-4.80957-7.73242-4.94141-7.82959a12.19585,12.19585,0,0,1,0-17.12646,11.92563,11.92563,0,0,1,16.9668,0,12.18557,12.18557,0,0,1,.06738,17.0664c-.19531.15381-4.5332,3.62842-5.00879,7.88965Z"/><rect x="35.75" y="57.25" width="8.5" height="1.5"/></svg>