<svg xmlns="http://www.w3.org/2000/svg" viewBox="0 0 80 80"><path d="M39.25,14v1.57593A4.12109,4.12109,0,0,0,40,23.75a2.625,2.625,0,1,1-2.625,2.625h-1.5a4.12628,4.12628,0,0,0,3.375,4.04907V32h1.5V30.42407A4.12109,4.12109,0,0,0,40,22.25a2.625,2.625,0,1,1,2.625-2.625h1.5a4.12628,4.12628,0,0,0-3.375-4.04907V14Z"/><path d="M70.76367,32a2.7528,2.7528,0,0,0-2.75-2.75H56v1.5H68.01367a1.25116,1.25116,0,0,1,1.25,1.25V59.25h-58.5V32a1.25116,1.25116,0,0,1,1.25-1.25H24v-1.5H12.01367a2.7528,2.7528,0,0,0-2.75,2.75V64a2.7528,2.7528,0,0,0,2.75,2.75H39.25v2.5H26.01367v1.5h28v-1.5H40.75v-2.5H68.01367a2.7528,2.7528,0,0,0,2.75-2.75Zm-1.5,32a1.25116,1.25116,0,0,1-1.25,1.25h-56a1.25116,1.25116,0,0,1-1.25-1.25V60.75h58.5Z"/><path d="M26.24512,23a13.75,13.75,0,1,0,13.75-13.75A13.76556,13.76556,0,0,0,26.24512,23Zm26,0a12.25,12.25,0,1,1-12.25-12.25A12.26361,12.26361,0,0,1,52.24512,23Z"/></svg>