<svg xmlns="http://www.w3.org/2000/svg" viewBox="0 0 80 80"><path d="M17.25,12V68A2.7528,2.7528,0,0,0,20,70.75H60A2.7528,2.7528,0,0,0,62.75,68V12A2.7528,2.7528,0,0,0,60,9.25H20A2.7528,2.7528,0,0,0,17.25,12Zm1.5,0A1.25116,1.25116,0,0,1,20,10.75H60A1.25116,1.25116,0,0,1,61.25,12V68A1.25116,1.25116,0,0,1,60,69.25H20A1.25116,1.25116,0,0,1,18.75,68Z"/><rect x="36" y="15.25" width="6" height="1.5"/><path d="M40,61.25A2.75,2.75,0,1,0,42.75,64,2.7528,2.7528,0,0,0,40,61.25Zm0,4A1.25,1.25,0,1,1,41.25,64,1.25116,1.25116,0,0,1,40,65.25Z"/></svg>