<svg xmlns="http://www.w3.org/2000/svg" viewBox="0 0 80 80"><path d="M58,28.75A3.25377,3.25377,0,0,1,61.25,32h1.5A4.7554,4.7554,0,0,0,58,27.25Z"/><path d="M58,24.75A7.25834,7.25834,0,0,1,65.25,32h1.5A8.76,8.76,0,0,0,58,23.25Z"/><path d="M69.25,32h1.5A12.76457,12.76457,0,0,0,58,19.25v1.5A11.26294,11.26294,0,0,1,69.25,32Z"/><path d="M10.76416,22a1.25116,1.25116,0,0,1,1.25-1.25H54v-1.5H12.01416a2.7528,2.7528,0,0,0-2.75,2.75V56a2.7528,2.7528,0,0,0,2.75,2.75h27.25v2.5h-13.25v1.5h28v-1.5h-13.25v-2.5h27.25a2.7528,2.7528,0,0,0,2.75-2.75V36h-1.5V51.25h-58.5Zm58.5,30.75V56a1.25116,1.25116,0,0,1-1.25,1.25h-56a1.25116,1.25116,0,0,1-1.25-1.25V52.75Z"/><circle cx="58" cy="32" r="1"/></svg>