<svg xmlns="http://www.w3.org/2000/svg" viewBox="0 0 80 80"><path d="M9.25,44a.7502.7502,0,0,0,.75.75h3.25V68h1.5V44.75h34.5V68h1.5V60.75h14.5V68h1.5V44.75H70a.7502.7502,0,0,0,.75-.75V38a.7502.7502,0,0,0-.75-.75H64.75V30a.7502.7502,0,0,0-.75-.75H60.75V28A3.25377,3.25377,0,0,1,64,24.75v-1.5a4.72162,4.72162,0,0,0-3.25,1.30432V24A4.7554,4.7554,0,0,0,56,19.25v1.5A3.25377,3.25377,0,0,1,59.25,24v5.25H56a.7502.7502,0,0,0-.75.75v7.25H32.75v-2.5H48A2.7528,2.7528,0,0,0,50.75,32V14A2.7528,2.7528,0,0,0,48,11.25H16A2.7528,2.7528,0,0,0,13.25,14V32A2.7528,2.7528,0,0,0,16,34.75H31.25v2.5H10a.7502.7502,0,0,0-.75.75Zm56,15.25H50.75v-6.5h14.5Zm0-8H50.75v-6.5h14.5Zm-8.5-20.5h6.5v6.5h-6.5ZM14.75,14A1.25116,1.25116,0,0,1,16,12.75H48A1.25116,1.25116,0,0,1,49.25,14V29.25H14.75ZM16,33.25A1.25116,1.25116,0,0,1,14.75,32V30.75h34.5V32A1.25116,1.25116,0,0,1,48,33.25Zm-5.25,5.5h58.5v4.5H10.75Z"/><circle cx="58" cy="48" r="1"/><circle cx="58" cy="56" r="1"/><circle cx="58" cy="64" r="1"/></svg>