<svg xmlns="http://www.w3.org/2000/svg" viewBox="0 0 80 80"><path d="M26,9.25A2.7528,2.7528,0,0,0,23.25,12V68A2.7528,2.7528,0,0,0,26,70.75H54A2.7528,2.7528,0,0,0,56.75,68V12A2.7528,2.7528,0,0,0,54,9.25ZM55.25,12V68A1.25116,1.25116,0,0,1,54,69.25H26A1.25116,1.25116,0,0,1,24.75,68V12A1.25116,1.25116,0,0,1,26,10.75H54A1.25116,1.25116,0,0,1,55.25,12Z"/><rect x="36" y="15.25" width="8" height="1.5"/><path d="M40,59.25A2.75,2.75,0,1,0,42.75,62,2.7528,2.7528,0,0,0,40,59.25Zm0,4A1.25,1.25,0,1,1,41.25,62,1.25116,1.25116,0,0,1,40,63.25Z"/><path d="M31.36914,36.8252l1.06055,1.06054a10.706,10.706,0,0,1,15.14062,0l1.06055-1.06054a12.20544,12.20544,0,0,0-17.26172,0Z"/><path d="M34.06934,39.52539l1.06054,1.06055a6.88782,6.88782,0,0,1,9.74024,0l1.06054-1.06055a8.38727,8.38727,0,0,0-11.86132,0Z"/><path d="M36.76953,42.22559l1.06055,1.06054a3.14267,3.14267,0,0,1,4.33984,0l1.06055-1.06054a4.56791,4.56791,0,0,0-6.46094,0Z"/><circle cx="40" cy="46" r="1"/></svg>