<svg xmlns="http://www.w3.org/2000/svg" viewBox="0 0 80 80"><path d="M12,60.75h5.25V64A4.7554,4.7554,0,0,0,22,68.75H36A4.7554,4.7554,0,0,0,40.75,64V60.75H68A2.7528,2.7528,0,0,0,70.75,58V22A2.7528,2.7528,0,0,0,68,19.25H32A2.7528,2.7528,0,0,0,29.25,22V58A2.7528,2.7528,0,0,0,32,60.75h7.25V64A3.25377,3.25377,0,0,1,36,67.25H22A3.25377,3.25377,0,0,1,18.75,64V60.75H24A2.7528,2.7528,0,0,0,26.75,58V22A2.7528,2.7528,0,0,0,24,19.25H12A2.7528,2.7528,0,0,0,9.25,22V58A2.7528,2.7528,0,0,0,12,60.75Zm52.75-40H68A1.25116,1.25116,0,0,1,69.25,22V35.25h-4.5Zm-28,0h26.5v14.5H36.75Zm-6,1.25A1.25116,1.25116,0,0,1,32,20.75h3.25v14.5h-4.5ZM32,59.25A1.25116,1.25116,0,0,1,30.75,58V36.75h38.5V58A1.25116,1.25116,0,0,1,68,59.25ZM10.75,22A1.25116,1.25116,0,0,1,12,20.75H24A1.25116,1.25116,0,0,1,25.25,22V58A1.25116,1.25116,0,0,1,24,59.25H12A1.25116,1.25116,0,0,1,10.75,58Z"/><rect x="38" y="41.25" width="6" height="1.5"/><rect x="38" y="47.25" width="6" height="1.5"/><rect x="38" y="53.25" width="6" height="1.5"/><circle cx="50" cy="42" r="1"/><circle cx="56" cy="42" r="1"/><circle cx="62" cy="42" r="1"/><circle cx="50" cy="48" r="1"/><circle cx="56" cy="48" r="1"/><circle cx="62" cy="48" r="1"/><circle cx="50" cy="54" r="1"/><circle cx="56" cy="54" r="1"/><circle cx="62" cy="54" r="1"/></svg>