<svg xmlns="http://www.w3.org/2000/svg" viewBox="0 0 80 80"><rect x="26.5" y="45.25" width="5" height="1.5"/><rect x="56" y="21.2998" width="4" height="1.5"/><circle cx="58" cy="42" r="1"/><path d="M12,64.75H39.25v2.5H26v1.5H54v-1.5H40.75v-2.5H68A2.7528,2.7528,0,0,0,70.75,62V28A2.7528,2.7528,0,0,0,68,25.25H66.75V20A2.7528,2.7528,0,0,0,64,17.25H52A2.7528,2.7528,0,0,0,49.25,20v5.25h-4.5V12A2.7528,2.7528,0,0,0,42,9.25H16A2.7528,2.7528,0,0,0,13.25,12V25.25H12A2.7528,2.7528,0,0,0,9.25,28V62A2.7528,2.7528,0,0,0,12,64.75ZM50.75,20A1.25116,1.25116,0,0,1,52,18.75H64A1.25116,1.25116,0,0,1,65.25,20V44A1.25116,1.25116,0,0,1,64,45.25H52A1.25116,1.25116,0,0,1,50.75,44Zm-36-8A1.25116,1.25116,0,0,1,16,10.75H42A1.25116,1.25116,0,0,1,43.25,12V48A1.25116,1.25116,0,0,1,42,49.25H16A1.25116,1.25116,0,0,1,14.75,48Zm-4,16A1.25116,1.25116,0,0,1,12,26.75h1.25V48A2.7528,2.7528,0,0,0,16,50.75H42A2.7528,2.7528,0,0,0,44.75,48V26.75h4.5V44A2.7528,2.7528,0,0,0,52,46.75H64A2.7528,2.7528,0,0,0,66.75,44V26.75H68A1.25116,1.25116,0,0,1,69.25,28V57.25H10.75Zm0,30.75h58.5V62A1.25116,1.25116,0,0,1,68,63.25H12A1.25116,1.25116,0,0,1,10.75,62Z"/></svg>