<svg xmlns="http://www.w3.org/2000/svg" viewBox="0 0 80 80"><path d="M52,14.75a2.75,2.75,0,0,0,0-5.5H48a.7502.7502,0,0,0-.75.75V25.25h-8.5v-4.5H42a2.75,2.75,0,0,0,0-5.5H38a.7502.7502,0,0,0-.75.75v9.25h-4.5V10A.7502.7502,0,0,0,32,9.25H28a2.75,2.75,0,0,0,0,5.5h3.25v10.5H30a.7502.7502,0,0,0-.75.75v1.25H26A2.7528,2.7528,0,0,0,23.25,30v1.25h-.16309A1.83923,1.83923,0,0,0,21.25,33.08691V56.91309A1.83923,1.83923,0,0,0,23.08691,58.75H23.25V60A2.7528,2.7528,0,0,0,26,62.75h3.25V68A2.7528,2.7528,0,0,0,32,70.75H48A2.7528,2.7528,0,0,0,50.75,68V54.63281A2.74452,2.74452,0,0,0,52.75,52V40a2.74452,2.74452,0,0,0-2-2.63281V26a.7502.7502,0,0,0-.75-.75H48.75V14.75Zm-3.25-4H52a1.25,1.25,0,0,1,0,2.5H48.75Zm-10,6H42a1.25,1.25,0,0,1,0,2.5H38.75ZM23.08691,57.25a.33759.33759,0,0,1-.33691-.33691V33.08691a.33759.33759,0,0,1,.33691-.33691h1.82618a.33759.33759,0,0,1,.33691.33691V56.91309a.33759.33759,0,0,1-.33691.33691ZM29.25,32V61.25H26A1.25116,1.25116,0,0,1,24.75,60V58.75h.16309A1.83923,1.83923,0,0,0,26.75,56.91309V33.08691A1.83923,1.83923,0,0,0,24.91309,31.25H24.75V30A1.25116,1.25116,0,0,1,26,28.75h3.25ZM28,13.25a1.25,1.25,0,0,1,0-2.5h3.25v2.5ZM49.25,68A1.25116,1.25116,0,0,1,48,69.25H32A1.25116,1.25116,0,0,1,30.75,68V64.75h18.5Zm0-4.75H30.75V32.75h18.5v4.5H44a.7502.7502,0,0,0-.75.75V54a.7502.7502,0,0,0,.75.75h5.25Zm2-11.25A1.25116,1.25116,0,0,1,50,53.25H44.75V42.75h6.5Zm0-12v1.25h-6.5v-2.5H50A1.25116,1.25116,0,0,1,51.25,40Zm-2-13.25v4.5H30.75v-4.5Z"/></svg>