<svg xmlns="http://www.w3.org/2000/svg" viewBox="0 0 80 80"><path d="M70.09863,17.25H10a.7502.7502,0,0,0-.75.75V62a.7502.7502,0,0,0,.75.75H70.09863a.75019.75019,0,0,0,.75-.75V18A.75019.75019,0,0,0,70.09863,17.25Zm-.75,44H10.75V18.75H69.34863Z"/><rect x="39.24121" y="22" width="1.5" height="36"/><path d="M20.71777,45.94531V40.72949h2.51465V58h1.53516V22H23.23242V39.22949H20.71777v-5.1748a.75018.75018,0,0,0-.75-.75H14v1.5h5.21777V45.19531H14v1.5h5.96777A.75018.75018,0,0,0,20.71777,45.94531Z"/><polygon points="32.75 58 32.759 58 32.759 22 32.75 22 31.259 22 31.25 22 31.25 58 31.259 58 32.75 58"/><rect x="35.25" y="54" width="1.5" height="2"/><rect x="27.25" y="54" width="1.5" height="2"/><path d="M56.76953,40.77051h2.49414v5.1748a.75019.75019,0,0,0,.75.75h5.96875v-1.5H60.76367V34.80469h5.21875v-1.5H60.01367a.75019.75019,0,0,0-.75.75v5.21582H56.76953V22h-1.5V58h1.5Z"/><polygon points="48.778 58 48.786 58 48.786 22 48.778 22 47.286 22 47.278 22 47.278 58 47.286 58 48.778 58"/><rect x="51.25" y="54" width="1.5" height="2"/><rect x="35.25" y="24" width="1.5" height="2"/><rect x="27.25" y="24" width="1.5" height="2"/><rect x="51.25" y="24" width="1.5" height="2"/><rect x="43.25" y="54" width="1.5" height="2"/><rect x="43.25" y="24" width="1.5" height="2"/></svg>