<svg xmlns="http://www.w3.org/2000/svg" viewBox="0 0 80 80"><path d="M64.75,34A24.75,24.75,0,1,0,31.51123,57.25H30a.7502.7502,0,0,0-.75.75v4a.7502.7502,0,0,0,.75.75h6A1.25116,1.25116,0,0,1,37.25,64v8h1.5V64A2.7528,2.7528,0,0,0,36,61.25H30.75v-2.5h18.5v2.5H44A2.7528,2.7528,0,0,0,41.25,64v8h1.5V64A1.25116,1.25116,0,0,1,44,62.75h6a.7502.7502,0,0,0,.75-.75V58a.7502.7502,0,0,0-.75-.75H48.48877A24.792,24.792,0,0,0,64.75,34ZM40,57.25A23.25,23.25,0,1,1,63.25,34,23.27605,23.27605,0,0,1,40,57.25Z"/><path d="M49.25,48h1.5A3.25377,3.25377,0,0,1,54,44.75v-1.5A4.7554,4.7554,0,0,0,49.25,48Z"/><path d="M43.25,42h1.5A3.25377,3.25377,0,0,1,48,38.75v-1.5A4.7554,4.7554,0,0,0,43.25,42Z"/><path d="M53.25,38h1.5A3.25377,3.25377,0,0,1,58,34.75v-1.5A4.7554,4.7554,0,0,0,53.25,38Z"/><path d="M39.25,52h1.5A3.25377,3.25377,0,0,1,44,48.75v-1.5A4.7554,4.7554,0,0,0,39.25,52Z"/><path d="M52,28.75v-1.5A4.7554,4.7554,0,0,0,47.25,32h1.5A3.25377,3.25377,0,0,1,52,28.75Z"/><path d="M33.25,46h1.5A3.25377,3.25377,0,0,1,38,42.75v-1.5A4.7554,4.7554,0,0,0,33.25,46Z"/></svg>