<svg xmlns="http://www.w3.org/2000/svg" viewBox="0 0 80 80"><rect x="35.42871" y="13.25" width="9.14258" height="1.5"/><path d="M39.46875,32.53027a.74972.74972,0,0,0,1.06055,0l4.10058-4.10058a6.54868,6.54868,0,1,0-9.26172,0Zm-3.04-12.30078a5.04884,5.04884,0,1,1,7.14063,7.13965L39.999,30.93945l-3.57031-3.57031A5.05537,5.05537,0,0,1,36.42871,20.22949Z"/><path d="M39.999,26.75a2.75,2.75,0,0,0,1.94434-4.69434,2.8152,2.8152,0,0,0-3.88867,0A2.75,2.75,0,0,0,39.999,26.75Zm-.88379-3.63379a1.24987,1.24987,0,1,1,1.76758,1.76758,1.27893,1.27893,0,0,1-1.76758,0A1.25133,1.25133,0,0,1,39.11523,23.11621Z"/><path d="M40.75,48.541l5.4873-1.82911a.75061.75061,0,0,0,0-1.42382l-6-2a.7579.7579,0,0,0-.67578.10351A.75007.75007,0,0,0,39.25,44V58h1.5Zm0-3.5L43.62793,46,40.75,46.959Z"/><path d="M56,70.75a3.04,3.04,0,0,0,3.03613-3.03613v-56A3.03912,3.03912,0,0,0,56,8.67871H24a3.03912,3.03912,0,0,0-3.03613,3.03516v56A3.04,3.04,0,0,0,24,70.75ZM22.46387,11.71387A1.53748,1.53748,0,0,1,24,10.17871H56a1.53748,1.53748,0,0,1,1.53613,1.53516V38.70361a25.87806,25.87806,0,0,0-19.62988.8042L34.22607,41.2063l.01123-.03345L22.46387,37.24829Zm0,27.11645,9.81884,3.273L22.46387,46.635Zm0,28.88355V48.28662l16.07129-7.41748a24.373,24.373,0,0,1,19.001-.56665V67.71387A1.53831,1.53831,0,0,1,56,69.25H24A1.53831,1.53831,0,0,1,22.46387,67.71387Z"/><path d="M40,66.75A2.75,2.75,0,1,0,37.25,64,2.7528,2.7528,0,0,0,40,66.75Zm0-4A1.25,1.25,0,1,1,38.75,64,1.25116,1.25116,0,0,1,40,62.75Z"/></svg>