<svg xmlns="http://www.w3.org/2000/svg" viewBox="0 0 80 80"><path d="M55,63.25c-3.10254,0-5.501,3.167-5.60156,3.30176a.75.75,0,0,0,0,.89648C49.499,67.583,51.89746,70.75,55,70.75s5.501-3.167,5.60156-3.30176a.75.75,0,0,0,0-.89648C60.501,66.417,58.10254,63.25,55,63.25Zm0,6c-1.75,0-3.32617-1.4873-4.02246-2.25391C51.78027,66.11133,53.36426,64.75,55,64.75c1.75,0,3.32617,1.4873,4.02246,2.25391C58.21973,67.88867,56.63574,69.25,55,69.25Z"/><path d="M29.25,38v6A2.7528,2.7528,0,0,0,32,46.75a2.71455,2.71455,0,0,0,1.25-.31445v4.918A2.75554,2.75554,0,0,0,31.25,54v2a2.75554,2.75554,0,0,0,2,2.64648V70a.7502.7502,0,0,0,.75.75H46a.7502.7502,0,0,0,.75-.75V58.64648A2.75554,2.75554,0,0,0,48.75,56V54a2.75554,2.75554,0,0,0-2-2.64648v-4.918A2.71455,2.71455,0,0,0,48,46.75,2.7528,2.7528,0,0,0,50.75,44V34.75H52a.7502.7502,0,0,0,.75-.75V30A4.7554,4.7554,0,0,0,48,25.25H32A4.7554,4.7554,0,0,0,27.25,30v4a.7502.7502,0,0,0,.75.75h1.25ZM32,45.25A1.25116,1.25116,0,0,1,30.75,44V38.75h2.5V44A1.25116,1.25116,0,0,1,32,45.25Zm-1.25-8v-2.5h2.5v2.5Zm8.5,32h-4.5V69a2.25,2.25,0,0,1,4.5,0Zm0-3.23071a3.675,3.675,0,0,0-4.5,0V62.75h4.5Zm6,3.23071h-4.5V69a2.25,2.25,0,0,1,4.5,0Zm0-3.23071a3.675,3.675,0,0,0-4.5,0V62.75h4.5ZM47.25,54v2A1.25116,1.25116,0,0,1,46,57.25a.7502.7502,0,0,0-.75.75v3.25h-4.5V50h-1.5V61.25h-4.5V58a.7502.7502,0,0,0-.75-.75A1.25116,1.25116,0,0,1,32.75,56V54A1.25116,1.25116,0,0,1,34,52.75a.7502.7502,0,0,0,.75-.75V46.75h10.5V52a.7502.7502,0,0,0,.75.75A1.25116,1.25116,0,0,1,47.25,54Zm2-10a1.25,1.25,0,0,1-2.5,0V38.75h2.5Zm0-6.75h-2.5v-2.5h2.5Zm-6.096-10.5a3.23961,3.23961,0,0,1-6.3081,0ZM28.75,33.25V30A3.25377,3.25377,0,0,1,32,26.75h3.32593a4.73087,4.73087,0,0,0,9.34814,0H48A3.25377,3.25377,0,0,1,51.25,30v3.25H46a.7502.7502,0,0,0-.75.75V45.25H34.75V34a.7502.7502,0,0,0-.75-.75H28.75Z"/><path d="M46.75,22V16a6.75,6.75,0,0,0-13.5,0v2A4.7408,4.7408,0,0,0,42,20.53931V20.75h3.25V22Zm-5.5-6v2a3.25,3.25,0,0,1-6.5,0V16a5.25007,5.25007,0,0,1,10.44629-.75H42A.7502.7502,0,0,0,41.25,16Zm1.312,3.25A4.6912,4.6912,0,0,0,42.75,18V16.75h2.5v2.5Z"/><path d="M40,42.75A2.7528,2.7528,0,0,0,42.75,40V36a2.75,2.75,0,0,0-5.5,0v4A2.7528,2.7528,0,0,0,40,42.75ZM38.75,36a1.25,1.25,0,0,1,2.5,0v4a1.25,1.25,0,0,1-2.5,0Z"/></svg>