<svg xmlns="http://www.w3.org/2000/svg" viewBox="0 0 80 80"><path d="M40,9.25A30.75,30.75,0,1,0,70.75,40,30.78426,30.78426,0,0,0,40,9.25Zm0,1.5a29.16689,29.16689,0,0,1,7.83008,1.07275l-8.011,2.64454-7.96216-2.55542A29.15056,29.15056,0,0,1,40,10.75ZM50.66846,36.43945,48.6792,42.61206l-2.1626,6.65552H33.03809L29.05884,37.021l-.18506-.57056,10.908-7.9209ZM17.00806,21.95117a29.38105,29.38105,0,0,1,12.45849-9.23144l9.60376,3.083-.03125,11.40674-11.178,8.12158L16.98169,31.75659ZM15.5022,24.04663l-.022,8.073-4.69531,6.50488A29.05657,29.05657,0,0,1,15.5022,24.04663Zm-4.72193,17.147,5.72315-7.92846,10.89429,3.49707.0437.13379,4.21411,13.00341-6.56983,9.105-.116.16065-9.38623-3.085A29.06182,29.06182,0,0,1,10.78027,41.1936ZM17.0918,58.15576l7.70459,2.53174,4.99072,6.71924A29.37591,29.37591,0,0,1,17.0918,58.15576ZM40,69.25a29.1742,29.1742,0,0,1-7.75537-1.05151l-6.05762-8.156,6.69507-9.2749,13.80225.01562,6.70532,9.25586-6.08179,8.28662A29.199,29.199,0,0,1,40,69.25Zm9.71021-1.66357,5.06616-6.90259,8.2998-2.74219A29.36341,29.36341,0,0,1,49.71021,67.58643ZM69.231,39.25122,64.03906,32.083,64.001,23.31055A29.06614,29.06614,0,0,1,69.231,39.25122Zm-.03833,2.50513a29.05426,29.05426,0,0,1-4.64551,14.12011l-9.90259,3.27173L47.906,49.90088l2.22216-6.89551,2.03223-6.25366,4.40454-1.45532,6.4436-2.07959ZM62.53784,31.74341l-6.37378,2.10571-4.4873,1.44776-11.1377-8.082.03174-11.4165,9.67285-3.19287A29.371,29.371,0,0,1,62.49243,21.324Z"/></svg>