<svg xmlns="http://www.w3.org/2000/svg" viewBox="0 0 80 80"><path d="M49.39844,66.55176a.75.75,0,0,0,0,.89648C49.499,67.583,51.89746,70.75,55,70.75s5.501-3.167,5.60156-3.30176a.75.75,0,0,0,0-.89648C60.501,66.417,58.10254,63.25,55,63.25S49.499,66.417,49.39844,66.55176ZM55,64.75c1.75,0,3.32617,1.4873,4.02246,2.25391C58.21973,67.88867,56.63574,69.25,55,69.25c-1.75,0-3.32617-1.4873-4.02246-2.25391C51.78027,66.11133,53.36426,64.75,55,64.75Z"/><path d="M45.75,15A5.75,5.75,0,1,0,40,20.75,5.75608,5.75608,0,0,0,45.75,15Zm-10,0A4.25,4.25,0,1,1,40,19.25,4.25444,4.25444,0,0,1,35.75,15Z"/><path d="M27.25,28v4a.7502.7502,0,0,0,.75.75h1.25V44A2.7528,2.7528,0,0,0,32,46.75a2.71455,2.71455,0,0,0,1.25-.31445v4.918A2.75554,2.75554,0,0,0,31.25,54v2a2.75554,2.75554,0,0,0,2,2.64648V70a.7502.7502,0,0,0,.75.75H46a.7502.7502,0,0,0,.75-.75V58.64648A2.75554,2.75554,0,0,0,48.75,56V54a2.75554,2.75554,0,0,0-2-2.64648v-4.918A2.71455,2.71455,0,0,0,48,46.75,2.7528,2.7528,0,0,0,50.75,44V32.75H52a.7502.7502,0,0,0,.75-.75V28A4.7554,4.7554,0,0,0,48,23.25H32A4.7554,4.7554,0,0,0,27.25,28ZM32,45.25A1.25116,1.25116,0,0,1,30.75,44V36.75h2.5V44A1.25116,1.25116,0,0,1,32,45.25Zm-1.25-10v-2.5h2.5v2.5Zm8.5,34h-4.5V69a2.25,2.25,0,0,1,4.5,0Zm0-3.23071a3.675,3.675,0,0,0-4.5,0V62.75h4.5Zm6,3.23071h-4.5V69a2.25,2.25,0,0,1,4.5,0Zm0-3.23071a3.675,3.675,0,0,0-4.5,0V62.75h4.5ZM47.25,54v2A1.25116,1.25116,0,0,1,46,57.25a.7502.7502,0,0,0-.75.75v3.25h-4.5V50a.75.75,0,0,0-1.5,0V61.25h-4.5V58a.7502.7502,0,0,0-.75-.75A1.25116,1.25116,0,0,1,32.75,56V54A1.25116,1.25116,0,0,1,34,52.75a.7502.7502,0,0,0,.75-.75V44.75h10.5V52a.7502.7502,0,0,0,.75.75A1.25116,1.25116,0,0,1,47.25,54Zm2-10a1.25,1.25,0,0,1-2.5,0V36.75h2.5Zm0-8.75h-2.5v-2.5h2.5Zm-6.096-10.5a3.23961,3.23961,0,0,1-6.3081,0ZM40,28.75a4.74517,4.74517,0,0,0,4.67407-4H48A3.25377,3.25377,0,0,1,51.25,28v3.25H46a.7502.7502,0,0,0-.75.75V43.25H34.75V32a.7502.7502,0,0,0-.75-.75H28.75V28A3.25377,3.25377,0,0,1,32,24.75h3.32593A4.74517,4.74517,0,0,0,40,28.75Z"/><path d="M17.25,64v2a4.74241,4.74241,0,0,0,8.62866,2.72559A.72252.72252,0,0,0,26,68.75h3.25V70a.75.75,0,0,0,1.5,0V64a6.75,6.75,0,0,0-13.5,0Zm12,3.25H26.562A4.6912,4.6912,0,0,0,26.75,66V64.75h2.5Zm-.05371-4H26a.7502.7502,0,0,0-.75.75v2a3.25,3.25,0,0,1-6.5,0V64a5.25007,5.25007,0,0,1,10.44629-.75Z"/><path d="M40,40.75A2.7528,2.7528,0,0,0,42.75,38V34a2.75,2.75,0,0,0-5.5,0v4A2.7528,2.7528,0,0,0,40,40.75ZM38.75,34a1.25,1.25,0,0,1,2.5,0v4a1.25,1.25,0,0,1-2.5,0Z"/><circle cx="22" cy="66" r="1"/></svg>