<svg xmlns="http://www.w3.org/2000/svg" viewBox="0 0 80 80"><path d="M66.75,53.32593V44.7998a1.75644,1.75644,0,0,0-.89355-1.52734A1.71684,1.71684,0,0,0,64.75,43.07764V34a.7502.7502,0,0,0-.75-.75H60.75V30a.7502.7502,0,0,0-.75-.75H56a.7502.7502,0,0,0-.75.75v3.25h-2.5V32a.7502.7502,0,0,0-.75-.75H48a.7502.7502,0,0,0-.75.75v5.25H44a.7502.7502,0,0,0-.75.75v5.08081a1.70354,1.70354,0,0,0-1.10645.19165A1.75644,1.75644,0,0,0,41.25,44.7998V53.25H39.14551l1.562-26.5H42v-1.5H32.75V10.55371a.21369.21369,0,0,1,.08691-.17383.206.206,0,0,1,.15821-.043L39.752,12.708l.4961-1.416L33.46,8.91113a1.71544,1.71544,0,0,0-2.21,1.64258V25.25H12v1.5h1.29248l1.562,26.5H14a4.74087,4.74087,0,0,0-2.75,8.60913V62A8.75935,8.75935,0,0,0,20,70.75H60A8.75935,8.75935,0,0,0,68.75,62v-.13916a5.31307,5.31307,0,0,0,.61426-.50439A4.73962,4.73962,0,0,0,66.75,53.32593ZM60.75,44V34.75h2.5v8.97778a12.16311,12.16311,0,0,1-1.47266.53687c-.32055.09936-.66626.189-1.02734.2727Zm-4,0V30.75h2.5V44.82227c-.35229.05981-.70068.124-1.06152.17187l-.28028.03125c-.40039.04907-.782.08521-1.1582.11475Zm-4-9.25h2.5V45.21558c-.34521.01367-.6853.03442-1.04.03442H54c-.42358,0-.83521-.02148-1.25-.03735Zm-4,9.25V32.75h2.5V45.13184c-.64771-.051-1.2832-.11475-1.8877-.20508-.20678-.02881-.40747-.06787-.6123-.10181Zm-4-5.25h2.5v5.77393a16.13569,16.13569,0,0,1-1.90527-.54932c-.21363-.07739-.4043-.16016-.59473-.24316Zm-2,6.0498a.24713.24713,0,0,1,.12988-.21972.21822.21822,0,0,1,.22852,0,9.44314,9.44314,0,0,0,1.72168.80273,18.286,18.286,0,0,0,3.02246.8125c.415.083.85937.15625,1.29687.2168.8877.13184,1.833.22559,2.80469.27734.665.04,1.35059.06055,2.0459.06055h.21c.62793,0,1.24512-.02051,1.82324-.06055.65918-.02832,1.332-.08593,2.04785-.17383l.28711-.03222c.61817-.082,1.21387-.17481,1.76465-.28516a17.74449,17.74449,0,0,0,2.07617-.49707,13.12962,13.12962,0,0,0,2.126-.81055c.1377-.06835.26465-.1416.38867-.21386l.165-.09473a.21558.21558,0,0,1,.23145-.002.24713.24713,0,0,1,.12988.21972V53.25H42.75ZM14.7959,26.75H39.2041l-1.562,26.5H16.35791ZM67.25,62A7.25771,7.25771,0,0,1,60,69.25H20A7.25771,7.25771,0,0,1,12.75,62V60A1.25116,1.25116,0,0,1,14,58.75H66A1.25116,1.25116,0,0,1,67.25,60Zm1.47632-2.23413A2.74385,2.74385,0,0,0,66,57.25H14a2.75361,2.75361,0,0,0-2.73828,2.49609A3.24558,3.24558,0,0,1,14,54.75H66a3.24752,3.24752,0,0,1,2.72632,5.01587Z"/></svg>