<svg xmlns="http://www.w3.org/2000/svg" viewBox="0 0 80 80"><path d="M62,15.25H18A8.75935,8.75935,0,0,0,9.25,24V40a.7502.7502,0,0,0,.75.75H21.25V70a.7502.7502,0,0,0,.75.75H58a.7502.7502,0,0,0,.75-.75V40.75H70a.7502.7502,0,0,0,.75-.75V24A8.75935,8.75935,0,0,0,62,15.25Zm-14.06641,1.5a9.24354,9.24354,0,0,1-15.86718,0ZM21.25,39.25H10.75v-2.5h10.5Zm36,30H22.75v-2.5h34.5Zm12-30H58.75v-2.5h10.5Zm0-4H58a.7502.7502,0,0,0-.75.75V65.25H22.75V36a.7502.7502,0,0,0-.75-.75H10.75V24A7.25771,7.25771,0,0,1,18,16.75H30.3667a10.73337,10.73337,0,0,0,19.2666,0H62A7.25771,7.25771,0,0,1,69.25,24Z"/><path d="M40,27.25A4.7554,4.7554,0,0,0,35.25,32v8a4.75,4.75,0,0,0,9.5,0V32A4.7554,4.7554,0,0,0,40,27.25ZM43.25,40a3.25,3.25,0,0,1-6.5,0V32a3.25,3.25,0,0,1,6.5,0Z"/></svg>