<svg xmlns="http://www.w3.org/2000/svg" viewBox="0 0 80 80"><path d="M48,56.75A4.75,4.75,0,1,0,43.25,52,4.76933,4.76933,0,0,0,48,56.75Zm0-8a3.25173,3.25173,0,0,1,2.81641,4.874h-.001A3.2501,3.2501,0,1,1,48,48.75Z"/><path d="M64,39.25a4.75031,4.75031,0,0,0-4.11328,7.126l1.29687-.752a3.25,3.25,0,1,1,5.63282,0l1.29687.752A4.75031,4.75031,0,0,0,64,39.25Z"/><path d="M32,39.25a4.75031,4.75031,0,0,0-4.11328,7.126l1.29687-.752a3.25,3.25,0,1,1,5.63282,0l1.29687.752A4.75031,4.75031,0,0,0,32,39.25Z"/><path d="M52.11328,38.376a4.74951,4.74951,0,1,0-8.22754,0l1.29883-.752a3.24951,3.24951,0,1,1,5.63184,0Z"/><path d="M20.11328,38.376a4.74951,4.74951,0,1,0-8.22754,0l1.29883-.752a3.24951,3.24951,0,1,1,5.63184,0Z"/><path d="M50.70312,59.25H45.29688A4.09679,4.09679,0,0,0,41.25,63.38574V71.2002h1.5V63.38574A2.59557,2.59557,0,0,1,45.29688,60.75h5.40624A2.59557,2.59557,0,0,1,53.25,63.38574V71.2002h1.5V63.38574A4.09679,4.09679,0,0,0,50.70312,59.25Z"/><path d="M16,56.75A4.75,4.75,0,1,0,11.25,52,4.7554,4.7554,0,0,0,16,56.75Zm0-8A3.25,3.25,0,1,1,12.75,52,3.25377,3.25377,0,0,1,16,48.75Z"/><path d="M18.70312,59.25H13.29688A4.09679,4.09679,0,0,0,9.25,63.38574V71.2002h1.5V63.38574A2.59557,2.59557,0,0,1,13.29688,60.75h5.40624A2.59557,2.59557,0,0,1,21.25,63.38574V71.2002h1.5V63.38574A4.09679,4.09679,0,0,0,18.70312,59.25Z"/><rect x="27.25" y="22" width="1.5" height="8"/><rect x="30.44055" y="26.58358" width="6.1189" height="1.49983" transform="translate(-6.75927 43.09931) rotate(-60.59754)"/><rect x="21.75009" y="24.27404" width="1.49983" height="6.1189" transform="translate(-10.51134 14.54203) rotate(-29.35925)"/><path d="M64.74512,20.082a.74952.74952,0,0,0-.41016-.75293l-8-4A.75.75,0,0,0,55.25,16V29.96h1.5v-7.374l7.43164-1.8584A.74977.74977,0,0,0,64.74512,20.082Zm-7.99512.957V17.21387l5.10156,2.5498Z"/></svg>