<svg xmlns="http://www.w3.org/2000/svg" viewBox="0 0 80 80"><path d="M38,9.25H22.459a3.21291,3.21291,0,0,0-3.209,3.21094L19.2644,17.25H17A1.75213,1.75213,0,0,0,15.25,19v2A1.75213,1.75213,0,0,0,17,22.75h2.28076l.0918,30.5H17A1.75213,1.75213,0,0,0,15.25,55v2A1.75213,1.75213,0,0,0,17,58.75h2.38916l.00732,2.5H17A1.75213,1.75213,0,0,0,15.25,63v2A1.75213,1.75213,0,0,0,17,66.75h2.41309L19.42285,70a.74958.74958,0,0,0,.749.74805L21.999,70.75h.00586c4.06739,0,7.30762-3.9707,8.292-7.708l8.38867-31.87988A.74324.74324,0,0,0,38.75,30.8584v-.03711a.74875.74875,0,0,0-.37891-.65137l-1.64843-1.64453a7.11111,7.11111,0,0,1-2.96973-5.38769c-.05273-2.69336,1.7207-5.89942,4.74414-8.57618A.749.749,0,0,0,38.75,14V10A.7502.7502,0,0,0,38,9.25Zm-18.75,12H17a.25048.25048,0,0,1-.25-.25V19a.25048.25048,0,0,1,.25-.25h2.25Zm0,36H17a.25048.25048,0,0,1-.25-.25V55a.25048.25048,0,0,1,.25-.25h2.25Zm0,8H17a.25048.25048,0,0,1-.25-.25V63a.25048.25048,0,0,1,.25-.25h2.25ZM35.71777,29.63672l1.43946,1.43945-2.05982,7.82715-2.365-.62793-.38476,1.44922,2.36816.62866-.63843,2.42652-2.38208-.64307L31.30469,43.584l2.39111.64551-.63525,2.41382-2.39844-.63745-.38477,1.44922,2.40186.63818-3.8335,14.5669C27.99316,65.90039,25.20117,69.25,22.00488,69.25H22.001l-1.08008-.001-.07739-25.72631L35.19482,29.17236C35.36572,29.32837,35.53271,29.48584,35.71777,29.63672Zm-1.5625-1.5459L20.83716,41.4082l-.0105-3.5249,11.9917-11.9917A8.501,8.501,0,0,0,34.15527,28.09082ZM37.25,13.666c-1.71387,1.57226-5.081,5.21582-4.99609,9.501a7.64673,7.64673,0,0,0,.10254,1.06543L20.82007,35.7688,20.75,12.459a1.71086,1.71086,0,0,1,1.709-1.709H37.25Z"/><path d="M63,13.25H60.58691L60.57715,10a.74958.74958,0,0,0-.749-.748L58.001,9.25h-.00586c-4.06739,0-7.30762,3.9707-8.292,7.708L41.31445,48.83789a.74324.74324,0,0,0-.06445.30371v.03711a.74875.74875,0,0,0,.37891.65137l1.64843,1.64453a7.11111,7.11111,0,0,1,2.96973,5.38769c.05273,2.69336-1.7207,5.89942-4.74414,8.57618A.749.749,0,0,0,41.25,66v4a.7502.7502,0,0,0,.75.75H57.541a3.21291,3.21291,0,0,0,3.209-3.21094L60.7356,62.75H63A1.75213,1.75213,0,0,0,64.75,61V59A1.75213,1.75213,0,0,0,63,57.25H60.71924l-.0918-30.5H63A1.75213,1.75213,0,0,0,64.75,25V23A1.75213,1.75213,0,0,0,63,21.25H60.61084l-.00732-2.5H63A1.75213,1.75213,0,0,0,64.75,17V15A1.75213,1.75213,0,0,0,63,13.25ZM44.28223,50.36328l-1.43946-1.43945,2.05982-7.82715,2.365.62793.38476-1.44922-2.36816-.62866.63843-2.42652,2.38208.64307.39062-1.44726-2.39111-.64551.63525-2.41382,2.39844.63745.38477-1.44922-2.40186-.63818,3.8335-14.5669c.85254-3.24023,3.64453-6.58984,6.84082-6.58984h.0039l1.08008.001.07739,25.72631L44.80518,50.82764C44.63428,50.67163,44.46729,50.51416,44.28223,50.36328Zm1.5625,1.5459L59.16284,38.5918l.0105,3.5249L47.18164,54.1084A8.501,8.501,0,0,0,45.84473,51.90918ZM57.541,69.25H42.75V66.334c1.71387-1.57226,5.081-5.21582,4.99609-9.501a7.64673,7.64673,0,0,0-.10254-1.06543L59.17993,44.2312,59.25,67.541A1.71086,1.71086,0,0,1,57.541,69.25Zm3.209-10.5H63a.25048.25048,0,0,1,.25.25v2a.25048.25048,0,0,1-.25.25H60.75Zm0-36H63a.25048.25048,0,0,1,.25.25v2a.25048.25048,0,0,1-.25.25H60.75ZM63.25,17a.25048.25048,0,0,1-.25.25H60.75v-2.5H63a.25048.25048,0,0,1,.25.25Z"/></svg>