<svg xmlns="http://www.w3.org/2000/svg" viewBox="0 0 80 80"><path d="M63.05762,26.57324A40.64355,40.64355,0,0,0,40,19.25a40.64355,40.64355,0,0,0-23.05762,7.32324C10.96387,30.76758,7.25,35.91211,7.25,40s3.71387,9.23242,9.69238,13.42676A40.64355,40.64355,0,0,0,40,60.75a40.64355,40.64355,0,0,0,23.05762-7.32324C69.03613,49.23242,72.75,44.08789,72.75,40S69.03613,30.76758,63.05762,26.57324ZM40,59.25c-17.39233,0-30.27124-11.74731-31.19189-18.5H31.25V42h1.5V40.75h2.5V42h1.5V40.75h2.5V42h1.5V40.75h2.5V42h1.5V40.75h2.5V42h1.5V40.75H71.19189C70.27124,47.50269,57.39233,59.25,40,59.25Zm8.75-20V38h-1.5v1.25h-2.5V38h-1.5v1.25h-2.5V38h-1.5v1.25h-2.5V38h-1.5v1.25h-2.5V38h-1.5v1.25H8.80811C9.72876,32.49731,22.60767,20.75,40,20.75s30.27124,11.74731,31.19189,18.5Z"/></svg>