<svg xmlns="http://www.w3.org/2000/svg" viewBox="0 0 80 80"><path d="M64,47.25A4.75,4.75,0,1,0,68.75,52,4.7554,4.7554,0,0,0,64,47.25Zm0,8A3.25,3.25,0,1,1,67.25,52,3.25377,3.25377,0,0,1,64,55.25Z"/><path d="M64,31.25A4.7554,4.7554,0,0,0,59.25,36h1.5A3.25,3.25,0,1,1,64,39.25v1.5a4.75,4.75,0,0,0,0-9.5Z"/><path d="M66.70312,59.25H61.29688A4.22667,4.22667,0,0,0,57.25,63.627V72h1.5V63.627a2.73047,2.73047,0,0,1,2.54688-2.877h5.40624A2.73047,2.73047,0,0,1,69.25,63.627V72h1.5V63.627A4.22667,4.22667,0,0,0,66.70312,59.25Z"/><path d="M43.25,52A4.75,4.75,0,1,0,48,47.25,4.7554,4.7554,0,0,0,43.25,52Zm8,0A3.25,3.25,0,1,1,48,48.75,3.25377,3.25377,0,0,1,51.25,52Z"/><path d="M59.25,44a3.25024,3.25024,0,0,1-.43359,1.624l1.29687.752a4.75,4.75,0,1,0-8.22656,0l1.29687-.752A3.25046,3.25046,0,1,1,59.25,44Z"/><path d="M43.25,44a3.25024,3.25024,0,0,1-.43359,1.624l1.29687.752a4.75,4.75,0,1,0-8.22656,0l1.29687-.752A3.25046,3.25046,0,1,1,43.25,44Z"/><path d="M27.25,44a3.25024,3.25024,0,0,1-.43359,1.624l1.29687.752a4.75,4.75,0,1,0-8.22656,0l1.29687-.752A3.25046,3.25046,0,1,1,27.25,44Z"/><path d="M50.70312,59.25H45.29688A4.22667,4.22667,0,0,0,41.25,63.627V72h1.5V63.627a2.73047,2.73047,0,0,1,2.54688-2.877h5.40624A2.73047,2.73047,0,0,1,53.25,63.627V72h1.5V63.627A4.22667,4.22667,0,0,0,50.70312,59.25Z"/><path d="M27.25,52A4.75,4.75,0,1,0,32,47.25,4.7554,4.7554,0,0,0,27.25,52Zm8,0A3.25,3.25,0,1,1,32,48.75,3.25377,3.25377,0,0,1,35.25,52Z"/><path d="M34.70312,59.25H29.29688A4.22667,4.22667,0,0,0,25.25,63.627V72h1.5V63.627a2.73047,2.73047,0,0,1,2.54688-2.877h5.40624A2.73047,2.73047,0,0,1,37.25,63.627V72h1.5V63.627A4.22667,4.22667,0,0,0,34.70312,59.25Z"/><path d="M16,56.75A4.75,4.75,0,1,0,11.25,52,4.7554,4.7554,0,0,0,16,56.75Zm0-8A3.25,3.25,0,1,1,12.75,52,3.25377,3.25377,0,0,1,16,48.75Z"/><path d="M11.25,36A4.7554,4.7554,0,0,0,16,40.75v-1.5A3.25,3.25,0,1,1,19.25,36h1.5a4.75,4.75,0,0,0-9.5,0Z"/><path d="M18.70312,59.25H13.29688A4.22667,4.22667,0,0,0,9.25,63.627V72h1.5V63.627a2.73047,2.73047,0,0,1,2.54688-2.877h5.40624A2.73047,2.73047,0,0,1,21.25,63.627V72h1.5V63.627A4.22667,4.22667,0,0,0,18.70312,59.25Z"/><path d="M27.25,36h1.5a3.25,3.25,0,0,1,6.5,0h1.5a4.75,4.75,0,0,0-9.5,0Z"/><path d="M44.75,36a3.25,3.25,0,0,1,6.5,0h1.5a4.75,4.75,0,0,0-9.5,0Z"/><rect x="39.25" y="20" width="1.5" height="8"/><rect x="42.44055" y="24.58358" width="6.1189" height="1.49983" transform="translate(1.09182 52.53551) rotate(-60.59754)"/><rect x="33.75009" y="22.27404" width="1.49983" height="6.1189" transform="translate(-7.99341 20.20061) rotate(-29.40246)"/><path d="M64.335,19.3291l-8-4A.75.75,0,0,0,55.25,16V29.96h1.5v-7.374l7.43164-1.8584A.75.75,0,0,0,64.335,19.3291Zm-7.585,1.71V17.21387l5.10156,2.5498Z"/><path d="M24.75,30V12a.74949.74949,0,0,0-1.02832-.69629l-10,4a.74977.74977,0,0,0,0,1.39258L23.25,20.50757V30ZM16.01953,16,23.25,13.10742v5.78516Z"/></svg>