<svg xmlns="http://www.w3.org/2000/svg" viewBox="0 0 80 80"><path d="M65.98242,26.55322A28.92523,28.92523,0,0,1,69.25,40,29.28292,29.28292,0,0,1,40,69.25a28.99035,28.99035,0,0,1-20.60278-8.5H26v-1.5H18a.7502.7502,0,0,0-.75.75v8h1.5V62.218A30.47123,30.47123,0,0,0,40,70.75,30.76074,30.76074,0,0,0,67.31445,25.86279Z"/><path d="M62.75,20V12h-1.5v5.782A30.47123,30.47123,0,0,0,40,9.25,30.76074,30.76074,0,0,0,12.68555,54.13721l1.332-.69043A28.92523,28.92523,0,0,1,10.75,40,29.28292,29.28292,0,0,1,40,10.75a28.99035,28.99035,0,0,1,20.60278,8.5H54v1.5h8A.7502.7502,0,0,0,62.75,20Z"/><path d="M23.25,40.73242v1.4917a.75.75,0,0,0,1.5,0v-1.4917a.75.75,0,1,0-1.5,0Z"/><path d="M27.25,38.75391v3.47021a.75.75,0,0,0,1.5,0V38.75391a.75.75,0,1,0-1.5,0Z"/><path d="M31.25,36v7.65527a.75.75,0,0,0,1.5,0V36a.75.75,0,0,0-1.5,0Z"/><path d="M35.25,38.75391v3.47021a.75.75,0,0,0,1.5,0V38.75391a.75.75,0,1,0-1.5,0Z"/><path d="M39.25,40.73682v1.4873a.75.75,0,0,0,1.5,0v-1.4873a.75.75,0,1,0-1.5,0Z"/><path d="M43.25,38.75391v3.47021a.75.75,0,0,0,1.5,0V38.75391a.75.75,0,1,0-1.5,0Z"/><path d="M47.25,36v7.65527a.75.75,0,0,0,1.5,0V36a.75.75,0,0,0-1.5,0Z"/><path d="M51.25,38.75391v3.47021a.75.75,0,0,0,1.5,0V38.75391a.75.75,0,1,0-1.5,0Z"/><path d="M55.25,40.73242v1.4917a.75.75,0,0,0,1.5,0v-1.4917a.75.75,0,1,0-1.5,0Z"/></svg>