<svg xmlns="http://www.w3.org/2000/svg" viewBox="0 0 80 80"><path d="M34,48.75a.75023.75023,0,0,0,.335-.0791l16-8a.74977.74977,0,0,0,0-1.3418l-16-8A.74955.74955,0,0,0,33.25,32V48a.74924.74924,0,0,0,.75.75Zm.75-15.53662L48.32324,40,34.75,46.78662Z"/><path d="M10,66.75H70a.7502.7502,0,0,0,.75-.75V14a.7502.7502,0,0,0-.75-.75H10a.7502.7502,0,0,0-.75.75V66A.7502.7502,0,0,0,10,66.75Zm23.25-1.5H22.75v-6.5h10.5Zm12,0H34.75v-6.5h10.5Zm12,0H46.75v-6.5h10.5Zm12,0H58.75v-6.5h10.5Zm-10.5-50.5h10.5v6.5H58.75Zm-12,0h10.5v6.5H46.75Zm-12,0h10.5v6.5H34.75Zm-12,0h10.5v6.5H22.75Zm-12,0h10.5v6.5H10.75Zm0,8h58.5v34.5H10.75Zm0,36h10.5v6.5H10.75Z"/></svg>