<svg xmlns="http://www.w3.org/2000/svg" viewBox="0 0 80 80"><path d="M68.75,68V12A2.7528,2.7528,0,0,0,66,9.25H26A2.7528,2.7528,0,0,0,23.25,12V68A2.7528,2.7528,0,0,0,26,70.75H66A2.7528,2.7528,0,0,0,68.75,68Zm-1.5,0A1.25116,1.25116,0,0,1,66,69.25H26A1.25116,1.25116,0,0,1,24.75,68V12A1.25116,1.25116,0,0,1,26,10.75H66A1.25116,1.25116,0,0,1,67.25,12Z"/><rect x="42" y="15.25" width="6" height="1.5"/><path d="M46,61.25A2.75,2.75,0,1,0,48.75,64,2.7528,2.7528,0,0,0,46,61.25Zm0,4A1.25,1.25,0,1,1,47.25,64,1.25116,1.25116,0,0,1,46,65.25Z"/><path d="M14,9.25a.74994.74994,0,0,0-.71143.5127l-2,6A.75482.75482,0,0,0,11.25,16V68a2.75,2.75,0,0,0,5.5,0V16a.75482.75482,0,0,0-.03857-.2373l-2-6A.74994.74994,0,0,0,14,9.25ZM15.25,68a1.25,1.25,0,0,1-2.5,0V16.12158l1.25-3.75,1.25,3.75Z"/></svg>