<svg xmlns="http://www.w3.org/2000/svg" viewBox="0 0 80 80"><path d="M12,62.75H68A2.7528,2.7528,0,0,0,70.75,60V24A2.7528,2.7528,0,0,0,68,21.25H50.31055l-3.78028-3.78027A.75027.75027,0,0,0,46,17.25H34a.75027.75027,0,0,0-.53027.21973L29.68945,21.25H26.75V18a.7502.7502,0,0,0-.75-.75H16a.7502.7502,0,0,0-.75.75v3.25H12A2.7528,2.7528,0,0,0,9.25,24V60A2.7528,2.7528,0,0,0,12,62.75Zm4.75-44h8.5v2.5h-8.5Zm-6,5.25A1.25116,1.25116,0,0,1,12,22.75H30a.75027.75027,0,0,0,.53027-.21973L34.31055,18.75h11.3789l3.78028,3.78027A.75027.75027,0,0,0,50,22.75H68A1.25116,1.25116,0,0,1,69.25,24V60A1.25116,1.25116,0,0,1,68,61.25H12A1.25116,1.25116,0,0,1,10.75,60Z"/><path d="M40,56.75A14.75,14.75,0,1,0,25.25,42,14.76655,14.76655,0,0,0,40,56.75Zm0-28A13.25,13.25,0,1,1,26.75,42,13.26491,13.26491,0,0,1,40,28.75Z"/><path d="M58,32.75h8a.7502.7502,0,0,0,.75-.75V26a.7502.7502,0,0,0-.75-.75H58a.7502.7502,0,0,0-.75.75v6A.7502.7502,0,0,0,58,32.75Zm.75-6h6.5v4.5h-6.5Z"/></svg>