<svg xmlns="http://www.w3.org/2000/svg" viewBox="0 0 80 80"><path d="M70.75,68V47A3.75442,3.75442,0,0,0,67,43.25H52.75V40a.7502.7502,0,0,0-.75-.75H46.75v-2.5H64a.7502.7502,0,0,0,.75-.75V24a.7502.7502,0,0,0-.75-.75H16a.7502.7502,0,0,0-.75.75V36a.7502.7502,0,0,0,.75.75H33.25v2.5H28a.7502.7502,0,0,0-.75.75v3.25H12A2.7528,2.7528,0,0,0,9.25,46V68h1.5V46A1.25116,1.25116,0,0,1,12,44.75H27.25V48a.7502.7502,0,0,0,.75.75H52a.7502.7502,0,0,0,.75-.75V44.75H67A2.25278,2.25278,0,0,1,69.25,47V68Zm-24-42A1.25116,1.25116,0,0,1,48,24.75H63.25v10.5H48A1.25116,1.25116,0,0,1,46.75,34Zm-30,9.25V24.75H45.56445A2.71455,2.71455,0,0,0,45.25,26v8a2.71455,2.71455,0,0,0,.31445,1.25H16.75Zm28.5,1.5v2.5H34.75v-2.5Zm6,10.5H28.75v-6.5h22.5Z"/><path d="M40,32.75A2.75,2.75,0,1,0,37.25,30,2.7528,2.7528,0,0,0,40,32.75Zm0-4A1.25,1.25,0,1,1,38.75,30,1.25116,1.25116,0,0,1,40,28.75Z"/><circle cx="34" cy="30" r="1"/></svg>