<svg xmlns="http://www.w3.org/2000/svg" viewBox="0 0 80 80"><path d="M44.79,22.85889l-.59766-1.375a5.7938,5.7938,0,0,0-3.47168,5.32324h1.5A4.29645,4.29645,0,0,1,44.79,22.85889Z"/><path d="M40.74048,15.1748c-.064-.06652-.131-.12866-.19751-.19213-.08838-.0835-.177-.166-.26978-.2439-.09961-.08472-.20239-.16419-.30664-.24219-.063-.04663-.126-.09253-.19043-.13672q-.197-.13585-.40295-.25586c-.04187-.02417-.08411-.04736-.12659-.07067-.15478-.08533-.31213-.16517-.47387-.23694-.03248-.01453-.06568-.02735-.09852-.04126-.16735-.071-.33642-.137-.51-.19312-.041-.01343-.08288-.02368-.12426-.03613-.16443-.04956-.32935-.09644-.49842-.13257-.079-.01709-.15954-.02685-.23925-.041-.135-.02319-.26892-.04956-.40625-.0642a5.809,5.809,0,0,0-1.49915.02221c-.06836.009-.13562.02014-.20337.03137a6.22969,6.22969,0,0,0-.69275.15394c-.03393.00976-.06848.01635-.102.02661a6.26046,6.26046,0,0,0-.75415.28564c-.05127.02319-.10058.04932-.15112.07373a6.27606,6.27606,0,0,0-.58814.32422c-.04614.02881-.0935.0553-.139.08521a6.379,6.379,0,0,0-.629.47265c-.04029.03443-.07752.07178-.117.10718a6.42574,6.42574,0,0,0-.47424.47351c-.03979.04419-.08057.08679-.11914.1322a6.40051,6.40051,0,0,0-.49158.65283c-.0105.01612-.01953.03321-.02978.04932a6.37545,6.37545,0,0,0-.394.71582c-.00781.01636-.01855.03076-.02612.04736a5.28564,5.28564,0,0,0-5.99512,5.19678,4.38,4.38,0,0,0,1.084,8.60877V30.75H54.42578v-.00256a4.38846,4.38846,0,0,0,.71387-8.70691c-.00781-.11719-.0398-.22681-.05591-.34156-.01978-.14123-.03674-.282-.0686-.41894a4.72285,4.72285,0,0,0-.14746-.478c-.04517-.12939-.08545-.25964-.141-.38354a4.688,4.688,0,0,0-.23645-.43872c-.06677-.115-.12768-.23218-.20349-.34082a4.75686,4.75686,0,0,0-.31726-.3877c-.0852-.0979-.16357-.20056-.25635-.29126a4.774,4.774,0,0,0-.39257-.3269c-.09925-.078-.19141-.16333-.29676-.23328a4.7,4.7,0,0,0-.47058-.25793c-.1062-.05433-.20569-.1189-.3164-.16529a4.66994,4.66994,0,0,0-.57679-.18091c-.098-.02661-.18994-.06677-.29016-.08715a4.63781,4.63781,0,0,0-2.43042.1538,5.24888,5.24888,0,0,0-.41406-.7583c-.043-.066-.092-.126-.13769-.18994a5.25772,5.25772,0,0,0-.45142-.55151c-.0564-.05982-.11206-.1189-.17114-.176a5.25123,5.25123,0,0,0-.63623-.52954c-.02466-.01745-.04651-.03833-.07154-.0553a5.21532,5.21532,0,0,0-.80883-.44323c-.07056-.0315-.1438-.0553-.21583-.08362a5.17286,5.17286,0,0,0-.682-.214c-.08753-.021-.17346-.043-.26258-.05957a5.188,5.188,0,0,0-.94848-.09668,5.24036,5.24036,0,0,0-.75879.05786c-.09192.01343-.18042.03882-.271.057-.15649.03161-.31262.06286-.46533.10852-.10034.03015-.19665.07007-.29492.10608-.14026.05139-.27954.10364-.41528.16711-.09266.04346-.18164.09375-.272.14282-.08581.04639-.17553.08448-.259.136l.00793.01282c-.08447.05237-.17419.09448-.256.15173-.10034-.12732-.21093-.24353-.31958-.36182l.00806-.00732C40.81091,15.24,40.77393,15.20947,40.74048,15.1748Zm.16577,2.31348a.75584.75584,0,0,0,.623-.209,3.74337,3.74337,0,0,1,1.17334-.782c.03723-.01562.07617-.02648.11377-.04089a3.68092,3.68092,0,0,1,.50439-.1521c.05835-.0133.1167-.02649.17578-.037a3.38922,3.38922,0,0,1,1.3418.00879c.07422.01429.14526.03809.21814.05677a3.68308,3.68308,0,0,1,.44214.13928c.078.03076.15332.06653.22888.10254a3.71967,3.71967,0,0,1,.38476.21167c.06861.04321.13709.08679.20289.13452a3.77142,3.77142,0,0,1,.35144.29358c.054.05029.111.097.162.15051a3.81446,3.81446,0,0,1,.3313.40613c.03125.04358.06861.08166.09815.12659a3.80457,3.80457,0,0,1,.311.57922c.04358.101.07276.20984.10791.31555a3.74743,3.74743,0,0,1-1.221,4.19287l.93555,1.17285A4.97857,4.97857,0,0,0,49.324,19.34509a3.14729,3.14729,0,0,1,1.11646-.23132,3.25832,3.25832,0,0,1,2.5918,5.16748l1.21484.87988a4.7214,4.7214,0,0,0,.74377-1.621A2.8899,2.8899,0,0,1,54.40039,29.25H25.59961a2.87735,2.87735,0,0,1-.88062-5.60742,5.248,5.248,0,0,0,5.02124,3.83447,5.164,5.164,0,0,0,2.34278-.55517L31.40723,25.582a3.665,3.665,0,0,1-1.667.395,3.7901,3.7901,0,1,1,.27027-7.573,6.416,6.416,0,0,0,.37622,3.71558l1.38281-.5791a4.84964,4.84964,0,0,1-.05151-3.636c.04638-.12317.09936-.24219.15454-.35986a4.91589,4.91589,0,0,1,.23877-.44409c.05908-.098.11694-.1969.18237-.28992a4.91234,4.91234,0,0,1,.40381-.49487c.04614-.05018.08618-.10657.1344-.15467a4.88174,4.88174,0,0,1,.6427-.53662c.06824-.04785.14246-.08618.21313-.13049a4.77813,4.77813,0,0,1,.52955-.29114c.0935-.04333.18908-.08166.28527-.1189a4.72828,4.72828,0,0,1,.56067-.17651c.09229-.02319.18335-.0498.27735-.06763a4.76707,4.76707,0,0,1,.87915-.08984,4.83758,4.83758,0,0,1,.87817.08984c.06714.01245.1344.02442.20068.0398a4.70074,4.70074,0,0,1,.79981.25537c.048.02051.093.04687.14014.06885a4.75062,4.75062,0,0,1,.651.37011c.0498.0337.10168.06409.15026.09974a5.10587,5.10587,0,0,1,1.31861,1.45373A.74694.74694,0,0,0,40.90625,17.48828Z"/><path d="M33.21191,22.39307v1.5a2.6591,2.6591,0,0,1,2.63868,2.67334h1.5A4.16067,4.16067,0,0,0,33.21191,22.39307Z"/><path d="M36.2168,17.42871h-1.5a4.16723,4.16723,0,0,0,4.1455,4.17969v-1.5A2.66565,2.66565,0,0,1,36.2168,17.42871Z"/><path d="M53.58789,28.46484v-1.5a2.66523,2.66523,0,0,1-2.64551-2.6792h-1.5A4.16713,4.16713,0,0,0,53.58789,28.46484Z"/><path d="M66.12109,58.75A2.60508,2.60508,0,0,0,68.75,56.17627V23.82373A2.60508,2.60508,0,0,0,66.12109,21.25H62v1.5h4.12109A1.10373,1.10373,0,0,1,67.25,23.82373V51.25H12.38672V23.82373A1.10372,1.10372,0,0,1,13.51562,22.75H18v-1.5H13.51562a2.60508,2.60508,0,0,0-2.6289,2.57373V56.17627A2.60508,2.60508,0,0,0,13.51562,58.75H39.25v4.5H26v1.5H54v-1.5H40.75v-4.5Zm-52.60547-1.5a1.10372,1.10372,0,0,1-1.1289-1.07373V52.75H67.25v3.42627A1.10373,1.10373,0,0,1,66.12109,57.25Z"/></svg>