<svg xmlns="http://www.w3.org/2000/svg" viewBox="0 0 80 80"><path d="M70.75,44V36a4.74146,4.74146,0,0,0-4.42188-4.7168,26.74672,26.74672,0,0,0-52.65624,0A4.74146,4.74146,0,0,0,9.25,36v8A4.7554,4.7554,0,0,0,14,48.75h4a.7502.7502,0,0,0,.75-.75V32a.7502.7502,0,0,0-.75-.75H15.22168a25.22476,25.22476,0,0,1,49.55664,0H62a.7502.7502,0,0,0-.75.75V48a.7502.7502,0,0,0,.75.75h3.03418A19.15887,19.15887,0,0,1,46,65.25H44.67407a4.75,4.75,0,1,0,0,1.5H46A20.65482,20.65482,0,0,0,66.5564,48.69373,4.74018,4.74018,0,0,0,70.75,44ZM17.25,32.75v14.5H14A3.25377,3.25377,0,0,1,10.75,44V36A3.25377,3.25377,0,0,1,14,32.75ZM40,69.25A3.25,3.25,0,1,1,43.25,66,3.25377,3.25377,0,0,1,40,69.25ZM69.25,44A3.25377,3.25377,0,0,1,66,47.25H62.75V32.75H66A3.25377,3.25377,0,0,1,69.25,36Z"/></svg>