<svg xmlns="http://www.w3.org/2000/svg" viewBox="0 0 80 80"><path d="M14,46.75h4v-1.5H14A3.25377,3.25377,0,0,1,10.75,42V14A3.25377,3.25377,0,0,1,14,10.75H42A3.25377,3.25377,0,0,1,45.25,14v4h1.5V14A4.7554,4.7554,0,0,0,42,9.25H14A4.7554,4.7554,0,0,0,9.25,14V42A4.7554,4.7554,0,0,0,14,46.75Z"/><path d="M26,22.75H54A3.25377,3.25377,0,0,1,57.25,26v4h1.5V26A4.7554,4.7554,0,0,0,54,21.25H26A4.7554,4.7554,0,0,0,21.25,26V54A4.7554,4.7554,0,0,0,26,58.75h4v-1.5H26A3.25377,3.25377,0,0,1,22.75,54V26A3.25377,3.25377,0,0,1,26,22.75Z"/><path d="M38,70.75H66A4.7554,4.7554,0,0,0,70.75,66V38A4.7554,4.7554,0,0,0,66,33.25H38A4.7554,4.7554,0,0,0,33.25,38V66A4.7554,4.7554,0,0,0,38,70.75ZM34.75,38A3.25377,3.25377,0,0,1,38,34.75H66A3.25377,3.25377,0,0,1,69.25,38V66A3.25377,3.25377,0,0,1,66,69.25H38A3.25377,3.25377,0,0,1,34.75,66Z"/></svg>