<svg xmlns="http://www.w3.org/2000/svg" viewBox="0 0 80 80"><path d="M39.25,70.731v.019h1.5v-.019a30.73987,30.73987,0,0,0,0-61.46192V9.25h-1.5v.019a30.73987,30.73987,0,0,0,0,61.46192Zm6.8988-2.13678c3.64759-2.65308,6.672-7.58612,8.5437-13.84418H65.24292A29.33778,29.33778,0,0,1,46.1488,68.59418ZM66.06372,53.25H55.11279a52.46324,52.46324,0,0,0,1.62683-12.5H69.231A29.04505,29.04505,0,0,1,66.06372,53.25Zm3.16724-14H56.73962a52.46324,52.46324,0,0,0-1.62683-12.5H66.06372A29.04505,29.04505,0,0,1,69.231,39.25Zm-3.988-14H54.6925c-1.8717-6.25806-4.89611-11.1911-8.5437-13.84418A29.33778,29.33778,0,0,1,65.24292,25.25ZM40.75,10.7865c5.291.494,9.87952,6.187,12.41077,14.4635H40.75Zm0,15.9635H53.58862A51.56446,51.56446,0,0,1,55.24,39.25H40.75Zm0,14H55.24a51.56446,51.56446,0,0,1-1.65137,12.5H40.75Zm0,14H53.16077C50.62952,63.02649,46.041,68.71948,40.75,69.2135Zm-1.5,14.4635c-5.291-.494-9.87952-6.187-12.41077-14.4635H39.25Zm0-15.9635H26.41138A51.56446,51.56446,0,0,1,24.76,40.75H39.25Zm0-14H24.76a51.56446,51.56446,0,0,1,1.65137-12.5H39.25Zm0-14H26.83923C29.37048,16.97351,33.959,11.28052,39.25,10.7865ZM33.8512,11.40582c-3.64759,2.65308-6.672,7.58612-8.5437,13.84418H14.75708A29.33778,29.33778,0,0,1,33.8512,11.40582ZM13.93628,26.75H24.88721a52.46324,52.46324,0,0,0-1.62683,12.5H10.769A29.04505,29.04505,0,0,1,13.93628,26.75Zm-3.16724,14H23.26038a52.46324,52.46324,0,0,0,1.62683,12.5H13.93628A29.04505,29.04505,0,0,1,10.769,40.75Zm14.53846,14c1.8717,6.25806,4.89611,11.1911,8.5437,13.84418A29.33778,29.33778,0,0,1,14.75708,54.75Z"/></svg>