<svg xmlns="http://www.w3.org/2000/svg" viewBox="0 0 80 80"><path d="M40,29.25A10.75081,10.75081,0,1,0,50.61914,40,10.69713,10.69713,0,0,0,40,29.25Zm0,20A9.25094,9.25094,0,1,1,49.11914,40,9.19559,9.19559,0,0,1,40,49.25Z"/><path d="M51.37207,59.9375a7.50537,7.50537,0,0,1,8.18164.40527,2.57119,2.57119,0,0,0,3.50293-.34179,30.66289,30.66289,0,0,0,5.53809-9.67725,2.67969,2.67969,0,0,0-1.417-3.3335,7.72275,7.72275,0,0,1-.0039-13.98193,2.684,2.684,0,0,0,1.4209-3.31836,29.502,29.502,0,0,0-5.48047-9.61523,2.62683,2.62683,0,0,0-3.56836-.418,7.5063,7.5063,0,0,1-8.17578.4043,7.73733,7.73733,0,0,1-3.752-7.39942,2.66868,2.66868,0,0,0-2.15234-2.9082,29.83118,29.83118,0,0,0-11.04883.022,2.61543,2.61543,0,0,0-2.03906,2.88574,7.73665,7.73665,0,0,1-3.75,7.40138,7.50564,7.50564,0,0,1-8.18066-.40528,2.57188,2.57188,0,0,0-3.50391.34131,30.6436,30.6436,0,0,0-5.53809,9.67773,2.67969,2.67969,0,0,0,1.417,3.3335,7.72275,7.72275,0,0,1,.0039,13.98193,2.684,2.684,0,0,0-1.4209,3.31836,29.49306,29.49306,0,0,0,5.48047,9.61474,2.62629,2.62629,0,0,0,3.56836.41846,7.50621,7.50621,0,0,1,8.17578-.4043,7.73733,7.73733,0,0,1,3.752,7.39942,2.66868,2.66868,0,0,0,2.15234,2.9082,29.84191,29.84191,0,0,0,11.04883-.022,2.61355,2.61355,0,0,0,2.03906-2.88574A7.73663,7.73663,0,0,1,51.37207,59.9375ZM46.12793,67.481a1.124,1.124,0,0,1-.82422,1.27,28.32866,28.32866,0,0,1-10.49609.021,1.16121,1.16121,0,0,1-.93164-1.293,9.24582,9.24582,0,0,0-4.48828-8.835,9.0036,9.0036,0,0,0-9.81055.48291,1.12407,1.12407,0,0,1-1.54688-.17236,28.49069,28.49069,0,0,1-3.03418-4.31494,28.8129,28.8129,0,0,1-2.17285-4.82031A1.17231,1.17231,0,0,1,13.457,48.353a9.2227,9.2227,0,0,0-.00586-16.70459,1.17239,1.17239,0,0,1-.63086-1.47461,29.17049,29.17049,0,0,1,5.26758-9.20654,1.08781,1.08781,0,0,1,1.48047-.09424,9.00877,9.00877,0,0,0,9.81738.48437,9.24482,9.24482,0,0,0,4.48633-8.83789,1.12537,1.12537,0,0,1,.82422-1.27051,28.34941,28.34941,0,0,1,10.49609-.021,1.16121,1.16121,0,0,1,.93164,1.293,9.24582,9.24582,0,0,0,4.48828,8.835,9.00587,9.00587,0,0,0,9.81055-.48291,1.125,1.125,0,0,1,1.54688.17187v.00049a28.49069,28.49069,0,0,1,3.03418,4.31494,28.8129,28.8129,0,0,1,2.17285,4.82031A1.17231,1.17231,0,0,1,66.543,31.647a9.2227,9.2227,0,0,0,.00586,16.70459,1.172,1.172,0,0,1,.63086,1.47412,29.14922,29.14922,0,0,1-5.26758,9.20655,1.08727,1.08727,0,0,1-1.47949.09472,9.01069,9.01069,0,0,0-9.81836-.48437A9.24512,9.24512,0,0,0,46.12793,67.481Z"/></svg>