<svg xmlns="http://www.w3.org/2000/svg" viewBox="0 0 80 80"><path d="M51.22705,63.7124a5.21547,5.21547,0,0,1-3.7124,1.5376h-14.686a2.732,2.732,0,0,0-1.94482.80566l-3.41406,3.41407,1.06054,1.06054,3.41407-3.41406a1.242,1.242,0,0,1,.88427-.36621h14.686A6.70541,6.70541,0,0,0,52.2876,64.773L66.51025,50.55029a3.61071,3.61071,0,0,0,0-5.10058,3.55472,3.55472,0,0,0-5.022.00146l-1.41687,1.42377-.59973-.5683A3.54235,3.54235,0,0,0,54.542,46.354l-6.91675,6.95917A3.72327,3.72327,0,0,0,47,53.25H32.48535a6.70541,6.70541,0,0,0-4.77295,1.977L13.46973,69.46973l1.06054,1.06054L28.773,56.2876a5.21547,5.21547,0,0,1,3.7124-1.5376H47A2.25246,2.25246,0,0,1,49.25,57a2.30093,2.30093,0,0,1-.70349,1.45618l-.05383.05407.00122.00116a2.20458,2.20458,0,0,1-1.428.73029L35.99951,59.25l.001,1.5,11.06592-.0083a3.70858,3.70858,0,0,0,2.55688-1.24121l12.927-12.99024a2.05353,2.05353,0,0,1,2.89942,0,2.1095,2.1095,0,0,1,0,2.9795Zm-.54663-7.40057a3.75006,3.75006,0,0,0-1.54663-2.38873l6.46435-6.50367a2.04344,2.04344,0,0,1,2.84229-.02343l.57275.54242Z"/><path d="M40,19.60986A6.39014,6.39014,0,1,0,46.39014,26,6.3975,6.3975,0,0,0,40,19.60986Zm0,11.28028A4.89014,4.89014,0,1,1,44.89014,26,4.89586,4.89586,0,0,1,40,30.89014Z"/><path d="M55.3877,30.67334a1.79817,1.79817,0,0,0,1.981-1.42725,17.58527,17.58527,0,0,0,.01172-6.42871,1.83327,1.83327,0,0,0-1.99463-1.49267,4.00249,4.00249,0,0,1-3.64648-6.31153,1.83184,1.83184,0,0,0-.28858-2.46533,16.874,16.874,0,0,0-5.5288-3.1914V9.356a1.83117,1.83117,0,0,0-2.27881.9834,4.0024,4.0024,0,0,1-7.28907-.001,1.832,1.832,0,0,0-2.29-.981A17.59288,17.59288,0,0,0,28.50244,12.583a1.80136,1.80136,0,0,0-.24512,2.4292,4.0025,4.0025,0,0,1-3.645,6.31445,1.79847,1.79847,0,0,0-1.98095,1.42725,17.58524,17.58524,0,0,0-.01172,6.42871,1.83307,1.83307,0,0,0,1.99463,1.49267,4.00249,4.00249,0,0,1,3.64648,6.31153,1.83184,1.83184,0,0,0,.28858,2.46533,16.88681,16.88681,0,0,0,5.5288,3.19189,1.82976,1.82976,0,0,0,2.27881-.9834,4.0024,4.0024,0,0,1,7.28907.001,1.82915,1.82915,0,0,0,2.29.981A17.59288,17.59288,0,0,0,51.49756,39.417a1.80136,1.80136,0,0,0,.24512-2.4292,4.0025,4.0025,0,0,1,3.645-6.31445ZM50.231,31.90576a5.52176,5.52176,0,0,0,.29,5.95313.321.321,0,0,1,0,.41943,16.087,16.087,0,0,1-5.08887,2.95117.331.331,0,0,1-.42139-.19043,5.50224,5.50224,0,0,0-10.01806-.00146.33262.33262,0,0,1-.41846.19092,15.37945,15.37945,0,0,1-5.04736-2.91407.33179.33179,0,0,1-.04395-.458,5.5026,5.5026,0,0,0-5.01172-8.67432.32929.32929,0,0,1-.376-.27,16.085,16.085,0,0,1,.01075-5.88232.31863.31863,0,0,1,.36279-.21A5.503,5.503,0,0,0,29.479,14.14111a.321.321,0,0,1,0-.41943,16.087,16.087,0,0,1,5.08887-2.95117.33162.33162,0,0,1,.42139.19043,5.50224,5.50224,0,0,0,10.01806.00146.33111.33111,0,0,1,.41846-.19043,15.36668,15.36668,0,0,1,5.04736,2.91358.33179.33179,0,0,1,.044.458,5.5026,5.5026,0,0,0,5.01172,8.67432.33156.33156,0,0,1,.376.27,16.085,16.085,0,0,1-.01075,5.88232.321.321,0,0,1-.36279.21A5.50828,5.50828,0,0,0,50.231,31.90576Z"/></svg>