<svg xmlns="http://www.w3.org/2000/svg" viewBox="0 0 80 80"><path d="M39.71191,69.69238a.749.749,0,0,0,.57618,0l16.73925-6.96679A12.50856,12.50856,0,0,0,64.75,51.14648V10A.7502.7502,0,0,0,64,9.25H16a.7502.7502,0,0,0-.75.75V51.14648a12.50856,12.50856,0,0,0,7.72266,11.57911ZM16.75,51.14648V10.75h46.5V51.14648a11.013,11.013,0,0,1-6.79883,10.19434L40,68.1875,23.54883,61.34082A11.013,11.013,0,0,1,16.75,51.14648Z"/><path d="M28,52.75H52a.7502.7502,0,0,0,.75-.75V46a.74888.74888,0,0,0-.415-.6709L48.75,43.53662V36.31055l3.78027-3.78028A.75027.75027,0,0,0,52.75,32V22a.7502.7502,0,0,0-.75-.75H48a.7502.7502,0,0,0-.75.75v3.25h-2.5V22a.7502.7502,0,0,0-.75-.75H36a.7502.7502,0,0,0-.75.75v3.25h-2.5V22a.7502.7502,0,0,0-.75-.75H28a.7502.7502,0,0,0-.75.75V32a.75027.75027,0,0,0,.21973.53027L31.25,36.31055v7.22607L27.665,45.3291A.74888.74888,0,0,0,27.25,46v6A.7502.7502,0,0,0,28,52.75Zm.75-6.28662,3.585-1.79248A.74888.74888,0,0,0,32.75,44V36a.75027.75027,0,0,0-.21973-.53027L28.75,31.68945V22.75h2.5V26a.7502.7502,0,0,0,.75.75h4a.7502.7502,0,0,0,.75-.75V22.75h6.5V26a.7502.7502,0,0,0,.75.75h4a.7502.7502,0,0,0,.75-.75V22.75h2.5v8.93945l-3.78027,3.78028A.75027.75027,0,0,0,47.25,36v8a.74888.74888,0,0,0,.415.6709l3.585,1.79248V51.25H28.75Z"/></svg>