<svg xmlns="http://www.w3.org/2000/svg" viewBox="0 0 80 80"><path d="M48.53027,40.53027l4-4a.74972.74972,0,0,0,0-1.06054l-4-4-1.06054,1.06054L50.18945,35.25H38.00684V26.69287h6.23974l-2.77685,2.77686,1.06054,1.06054,4-4a.74972.74972,0,0,0,0-1.06054l-4-4-1.06054,1.06054,2.66259,2.6626H38.00684V19.97119h-.00293a4.74674,4.74674,0,0,0-9.43555-.71338c-.1394.00775-.27.04383-.40625.0625-.15332.021-.30689.03589-.45557.07007a5.04736,5.04736,0,0,0-.52173.16223c-.14086.04877-.28344.0904-.41845.1507a5.0882,5.0882,0,0,0-.47681.259c-.12549.07294-.25488.138-.37353.22095a5.10664,5.10664,0,0,0-.4209.34753c-.10742.09326-.22071.17835-.31983.28a5.13328,5.13328,0,0,0-.355.43024c-.08545.10876-.17944.20935-.2561.32489a5.196,5.196,0,0,0-.28027.5155c-.05933.11676-.13062.22577-.1814.34748a5.12911,5.12911,0,0,0-.19678.63214c-.02905.10766-.07324.20868-.0957.319a5.11721,5.11721,0,0,0,.19116,2.73175,5.708,5.708,0,0,0-.68481.35571c-.04126.02454-.082.04919-.12281.07477a5.77292,5.77292,0,0,0-.60522.43408c-.02539.02087-.04761.04456-.07251.0658a5.78368,5.78368,0,0,0-.45337.43719c-.05078.0542-.10083.10828-.14941.16431a5.73847,5.73847,0,0,0-.42823.55243c-.02246.03332-.041.069-.06274.10284a5.72755,5.72755,0,0,0-.30664.54144c-.03052.061-.06055.12171-.08887.1839a5.71921,5.71921,0,0,0-.2644.68128c-.00537.01715-.0083.03509-.01343.05237a5.72754,5.72754,0,0,0-.15552.68444c-.01074.06318-.02051.126-.02905.18976a5.314,5.314,0,0,0,.00781,1.60864c.01465.10065.04175.1977.06177.29706.0354.17456.07178.34827.123.51862.0332.11084.07617.21759.11621.32605.05713.15576.11718.30975.188.46033.04882.10339.103.20336.158.30383.04468.08166.08008.16766.12867.24731l.01513-.00927c.071.1159.13111.23748.21045.34863-.16089.12536-.30957.26233-.45727.39966L21.1084,35.125c-.03125.02924-.05811.06232-.08862.0921-.05982.05762-.11451.11914-.17188.17865-.1062.11084-.21118.22211-.30933.3393-.08984.10589-.1726.21606-.25537.32678-.05542.07471-.11084.149-.16308.22571-.09717.1419-.18775.28741-.27393.436-.02978.05133-.05859.10266-.08691.15466-.09082.16584-.17481.33454-.25147.50751-.019.04315-.03662.08679-.05469.13031-.07421.17706-.14306.356-.20239.53943-.01733.05383-.03149.1087-.04761.163-.051.17273-.10009.34577-.13769.5232-.02051.095-.033.19165-.04956.2876-.02368.14093-.051.28057-.06616.42388a6.85516,6.85516,0,0,0-.04248.74708,6.96958,6.96958,0,0,0,.0664.90844c.01.07526.022.14936.03418.224a6.94316,6.94316,0,0,0,.17261.77753c.00952.03247.01562.06579.02539.09808a6.875,6.875,0,0,0,.3147.8313c.02637.05878.05566.11554.08349.17346a6.99169,6.99169,0,0,0,.35987.65326c.02929.04706.05591.09552.08642.14185a6.99191,6.99191,0,0,0,.51807.68933c.04272.05029.08887.09723.13306.1463a7.035,7.035,0,0,0,.51294.51288c.04711.04236.092.08636.14038.1275a6.97582,6.97582,0,0,0,.71045.53241c.03295.02161.06787.04071.10131.06177a6.93335,6.93335,0,0,0,.76123.415c.01734.008.03248.01928.04981.02722a5.58321,5.58321,0,0,0-.07031.87939,5.75639,5.75639,0,0,0,5.75,5.75H28.667a4.73779,4.73779,0,0,0,9.33692-1.12109h.00293V46.80225l6.17065-.04029-2.70776,2.70777,1.06054,1.06054,4-4a.74972.74972,0,0,0,0-1.06054l-4-4-1.06054,1.06054,2.73144,2.73145-6.19433.04047V36.75H50.18945l-2.71972,2.71973ZM36.50684,35.25H32A3.25377,3.25377,0,0,1,28.75,32h-1.5A4.7554,4.7554,0,0,0,32,36.75h4.50684V52a3.25377,3.25377,0,0,1-3.25,3.25,3.2121,3.2121,0,0,1-3.08814-2.30835,5.74792,5.74792,0,0,0,3.63794-8.10425l-1.34375.66895a4.20546,4.20546,0,0,1,.44434,1.89355,4.25,4.25,0,0,1-8.5,0c0-.13135.01513-.26452.02807-.3974a6.95747,6.95747,0,0,0,4.1272-.399l-.584-1.38184a5.44521,5.44521,0,0,1-5.34327-.63641c-.03173-.02332-.06323-.04651-.09423-.0705a5.46362,5.46362,0,0,1-.57007-.50079c-.01709-.0174-.03223-.0365-.04907-.05414a5.42258,5.42258,0,0,1-.44849-.53589c-.02466-.03314-.05029-.06525-.074-.09894a5.42606,5.42606,0,0,1-.38305-.63257c-.01929-.037-.03614-.07525-.05445-.11279a5.39959,5.39959,0,0,1-.27221-.65973c-.00611-.01892-.01441-.037-.02051-.056a5.42762,5.42762,0,0,1-.17651-.73309c-.009-.053-.01685-.10651-.02442-.16a5.407,5.407,0,0,1-.061-.77063,5.54039,5.54039,0,0,1,.04223-.655c.00708-.06061.01831-.12.02759-.18006.02441-.15893.0542-.31628.09229-.471q.022-.09082.04687-.18085c.04639-.16443.10083-.32587.16211-.48426.01587-.04083.0293-.08264.0459-.123a5.36618,5.36618,0,0,1,.63721-1.1239c.03173-.04291.0664-.084.09936-.1261.10376-.13214.21289-.26038.32935-.38318.03564-.03772.07129-.07507.10815-.11194a5.56542,5.56542,0,0,1,1.06323-.83258.74874.74874,0,0,0,.15137-1.166,4.26322,4.26322,0,0,1-.87671-1.33087c-.01831-.04376-.031-.08929-.04761-.1336a4.19676,4.19676,0,0,1-.16967-.56873c-.0149-.06634-.03-.13263-.04151-.19977a3.8829,3.8829,0,0,1,.00952-1.52136c.01612-.08441.04273-.16492.06372-.24768a4.215,4.215,0,0,1,.15577-.50067c.03466-.08868.075-.1745.11523-.26032a4.23967,4.23967,0,0,1,.23584-.43365c.04907-.07892.09839-.15741.15259-.23285a4.28864,4.28864,0,0,1,.32422-.39294c.0581-.06311.11206-.12964.17383-.18927a4.30624,4.30624,0,0,1,.438-.36164c.05469-.0401.103-.0874.15943-.12494a4.24039,4.24039,0,0,1,.64355-.34973c.11963-.0523.24854-.08752.374-.12915a4.19428,4.19428,0,0,1,1.33374-.23523,4.26217,4.26217,0,0,1,3.11621,1.36035l1.09961-1.0205a5.66193,5.66193,0,0,0-5.01636-1.77747,3.64678,3.64678,0,0,1,5.55054-4.2616l.88671-1.21093a5.09586,5.09586,0,0,0-1.8269-.83124A3.247,3.247,0,0,1,36.50684,20Z"/><path d="M24,41.25v1.5A4.7554,4.7554,0,0,0,28.75,38h-1.5A3.25377,3.25377,0,0,1,24,41.25Z"/><path d="M30,23.25v1.5A3.25377,3.25377,0,0,1,33.25,28h1.5A4.7554,4.7554,0,0,0,30,23.25Z"/><path d="M54.75,72V64.75H56A10.762,10.762,0,0,0,66.75,54V46.46338l1.7959-.898a2.74959,2.74959,0,0,0,1.23047-3.68994l-2.70606-5.41113a3.31644,3.31644,0,0,1-.335-1.38477A26.75146,26.75146,0,1,0,29.71094,60.69971l.57812-1.38477A25.25353,25.25353,0,1,1,56.96875,17.30127a25.04,25.04,0,0,1,8.2666,17.82861,4.82432,4.82432,0,0,0,.49317,2.00489l2.706,5.41162a1.24916,1.24916,0,0,1-.55859,1.67724L65.665,45.3291A.74888.74888,0,0,0,65.25,46v8A9.26032,9.26032,0,0,1,56,63.25H50v1.5h3.25V72Z"/></svg>