<svg xmlns="http://www.w3.org/2000/svg" viewBox="0 0 80 80"><path d="M12.19043,64.75H67.80957A2.94421,2.94421,0,0,0,70.75,61.80908V20.19092A2.94421,2.94421,0,0,0,67.80957,17.25H56.75V14h-1.5v3.25H24.75V14h-1.5v3.25H12.19043A2.94421,2.94421,0,0,0,9.25,20.19092V61.80908A2.94421,2.94421,0,0,0,12.19043,64.75ZM10.75,20.19092A1.44256,1.44256,0,0,1,12.19043,18.75H23.25V22h1.5V18.75h30.5V22h1.5V18.75H67.80957A1.44256,1.44256,0,0,1,69.25,20.19092v6.86816H10.75Zm0,8.36816h58.5v33.25A1.44256,1.44256,0,0,1,67.80957,63.25H12.19043A1.44256,1.44256,0,0,1,10.75,61.80908Z"/><path d="M50,54.75A4.75,4.75,0,1,0,45.25,50,4.7554,4.7554,0,0,0,50,54.75Zm0-8A3.25,3.25,0,1,1,46.75,50,3.25377,3.25377,0,0,1,50,46.75Z"/><circle cx="20" cy="34" r="1"/><circle cx="30" cy="34" r="1"/><circle cx="40" cy="34" r="1"/><circle cx="50" cy="34" r="1"/><circle cx="60" cy="34" r="1"/><circle cx="20" cy="42" r="1"/><circle cx="30" cy="42" r="1"/><circle cx="40" cy="42" r="1"/><circle cx="50" cy="42" r="1"/><circle cx="60" cy="42" r="1"/><circle cx="20" cy="50" r="1"/><circle cx="30" cy="50" r="1"/><circle cx="40" cy="50" r="1"/><circle cx="50" cy="50" r="1"/><circle cx="60" cy="50" r="1"/><circle cx="20" cy="58" r="1"/><circle cx="30" cy="58" r="1"/><circle cx="40" cy="58" r="1"/><circle cx="50" cy="58" r="1"/><circle cx="60" cy="58" r="1"/></svg>