<svg xmlns="http://www.w3.org/2000/svg" viewBox="0 0 80 80"><rect x="52" y="45.25" width="12" height="1.5"/><path d="M11.2002,42.75H27.25v2.5H20v1.5H33.25V58.74023A1.98286,1.98286,0,0,0,35.2002,60.75H51.25v2.5H44v1.5H60v-1.5H52.75v-2.5H68.7998A1.98286,1.98286,0,0,0,70.75,58.74023v-21.48A1.98329,1.98329,0,0,0,68.7998,35.25H46.75V19.26025A1.98329,1.98329,0,0,0,44.7998,17.25H11.2002A1.98329,1.98329,0,0,0,9.25,19.26025v21.48A1.98286,1.98286,0,0,0,11.2002,42.75ZM33.25,45.25h-4.5v-2.5h4.5Zm35.5498-8.5a.48964.48964,0,0,1,.4502.51025v21.48a.48918.48918,0,0,1-.4502.50977H35.2002a.48918.48918,0,0,1-.4502-.50977v-21.48a.48964.48964,0,0,1,.4502-.51025H68.7998ZM10.75,19.26025a.48964.48964,0,0,1,.4502-.51025H44.7998a.48964.48964,0,0,1,.4502.51025V35.25H35.2002A1.98329,1.98329,0,0,0,33.25,37.26025V41.25H11.2002a.48918.48918,0,0,1-.4502-.50977Z"/><path d="M40,52.75h8a.7502.7502,0,0,0,.75-.75V44a.7502.7502,0,0,0-.75-.75H40a.7502.7502,0,0,0-.75.75v8A.7502.7502,0,0,0,40,52.75Zm.75-8h6.5v6.5h-6.5Z"/><rect x="28" y="31.25" width="12" height="1.5"/><path d="M16,34.75h8a.7502.7502,0,0,0,.75-.75V26a.7502.7502,0,0,0-.75-.75H16a.7502.7502,0,0,0-.75.75v8A.7502.7502,0,0,0,16,34.75Zm.75-8h6.5v6.5h-6.5Z"/><path d="M61.46973,24.53027l4,4a.74971.74971,0,0,0,1.06054,0l4-4-1.06054-1.06054-2.80713,2.807A18.76948,18.76948,0,0,0,48,9.25v1.5A17.26988,17.26988,0,0,1,65.13574,26.0752l-2.60547-2.60547Z"/><rect x="52" y="49.25" width="12" height="1.5"/><rect x="28" y="27.25" width="12" height="1.5"/><path d="M18.53027,55.46973l-4-4a.74972.74972,0,0,0-1.06054,0l-4,4,1.06054,1.06054,2.80713-2.807A18.76948,18.76948,0,0,0,32,70.75v-1.5A17.26988,17.26988,0,0,1,14.86426,53.9248l2.60547,2.60547Z"/></svg>