<svg xmlns="http://www.w3.org/2000/svg" viewBox="0 0 80 80"><path d="M16.499,51.501a24.73228,24.73228,0,0,0,34.44483.50335L69.46973,70.53027l1.06054-1.06054L52.00439,50.94385A24.737,24.737,0,1,0,16.499,51.501Zm1.06055-33.94141a23.25028,23.25028,0,1,1,0,32.88086A23.178,23.178,0,0,1,17.55957,17.55957Z"/><path d="M29.25,46a.7502.7502,0,0,0,.75.75h8a.7502.7502,0,0,0,.75-.75c0-3.582,4.15625-6.8916,4.26562-6.98438a12.75,12.75,0,1,0-17.96386.06006C25.09375,39.1084,29.25,42.40674,29.25,46ZM26.04492,22.04492A11.253,11.253,0,0,1,42.02246,37.895c-.18359.14355-4.252,3.376-4.72754,7.355H34.75V30.75H38v-1.5H30v1.5h3.25v14.5H30.70508c-.47559-3.979-4.54-7.20752-4.66016-7.29492A11.26243,11.26243,0,0,1,26.04492,22.04492Z"/><rect x="30" y="49.25" width="8" height="1.5"/></svg>