<svg xmlns="http://www.w3.org/2000/svg" viewBox="0 0 80 80"><path d="M40,18.75A42.17459,42.17459,0,0,1,69.479,30.53955l1.042-1.0791A43.66686,43.66686,0,0,0,40,17.25,43.66686,43.66686,0,0,0,9.479,29.46045l1.042,1.0791A42.17459,42.17459,0,0,1,40,18.75Z"/><path d="M60.521,39.46045a29.75007,29.75007,0,0,0-41.042,0l1.042,1.0791a28.24993,28.24993,0,0,1,38.958,0Z"/><path d="M50.521,49.46045a15.25007,15.25007,0,0,0-21.042,0l1.042,1.0791a13.74993,13.74993,0,0,1,18.958,0Z"/><path d="M37.25,60A2.75,2.75,0,1,0,40,57.25,2.7528,2.7528,0,0,0,37.25,60Zm4,0A1.25,1.25,0,1,1,40,58.75,1.25116,1.25116,0,0,1,41.25,60Z"/></svg>