<svg xmlns="http://www.w3.org/2000/svg" viewBox="0 0 80 80"><path d="M58.74512,35.99463A18.74512,18.74512,0,1,0,40,54.73975,18.76613,18.76613,0,0,0,58.74512,35.99463ZM33.67981,19.96582A16.66475,16.66475,0,0,0,29.62109,27.25H25.1626A17.32251,17.32251,0,0,1,33.67981,19.96582ZM24.37207,28.75h4.85522a32.07259,32.07259,0,0,0-.75683,6.49463H22.793A17.10021,17.10021,0,0,1,24.37207,28.75ZM22.793,36.74463H28.4707A32.09354,32.09354,0,0,0,29.23047,43.25H24.3772A17.10093,17.10093,0,0,1,22.793,36.74463ZM25.16919,44.75h4.45605a16.66156,16.66156,0,0,0,4.05689,7.27472A17.32165,17.32165,0,0,1,25.16919,44.75ZM39.25,53.181c-3.57349-.39362-6.46631-3.57312-8.02881-8.431H39.25Zm0-9.931H30.7948a29.69921,29.69921,0,0,1-.82459-6.50537H39.25Zm0-8.00537H29.97A29.70792,29.70792,0,0,1,30.79053,28.75H39.25Zm0-7.99463H31.21606c1.56153-4.86383,4.45679-8.04755,8.03394-8.44135Zm16.3728,16H50.76953a32.09354,32.09354,0,0,0,.75977-6.50537H57.207A17.10093,17.10093,0,0,1,55.6228,43.25ZM57.207,35.24463H51.52954A32.07286,32.07286,0,0,0,50.77283,28.75h4.8551A17.10021,17.10021,0,0,1,57.207,35.24463ZM54.8374,27.25H50.37891a16.66475,16.66475,0,0,0-4.05872-7.28418A17.32251,17.32251,0,0,1,54.8374,27.25ZM40.75,18.80865c3.57715.3938,6.47241,3.57752,8.03394,8.44135H40.75Zm0,9.94135h8.45947A29.70792,29.70792,0,0,1,50.03,35.24463H40.75Zm0,7.99463h9.27979A29.69921,29.69921,0,0,1,49.2052,43.25H40.75Zm0,16.4364V44.75h8.02881C47.21631,49.60791,44.32349,52.78741,40.75,53.181Zm5.56787-1.15631A16.66156,16.66156,0,0,0,50.37476,44.75h4.456A17.32165,17.32165,0,0,1,46.31787,52.02472Z"/><path d="M13.3125,34.15625A26.79234,26.79234,0,0,0,29.71094,60.69971l.57812-1.38477A25.25353,25.25353,0,1,1,56.96875,17.30127a25.04,25.04,0,0,1,8.2666,17.82861,4.82432,4.82432,0,0,0,.49317,2.00489l2.706,5.41162a1.24916,1.24916,0,0,1-.55859,1.67724L65.665,45.3291A.74888.74888,0,0,0,65.25,46v8A9.26032,9.26032,0,0,1,56,63.25H50v1.5h3.25V72h1.5V64.75H56A10.762,10.762,0,0,0,66.75,54V46.46338l1.7959-.898a2.74959,2.74959,0,0,0,1.23047-3.68994l-2.70606-5.41113a3.31644,3.31644,0,0,1-.335-1.38477,26.75114,26.75114,0,0,0-53.42285-.92334Z"/></svg>