<svg xmlns="http://www.w3.org/2000/svg" viewBox="0 0 80 80"><path d="M54.97949,26.20264,70.4502,14.6001l-.9004-1.2002-15.8,11.8501H26.25024l-15.8-11.8501-.9004,1.2002L25.02026,26.20251,17.56458,39.25H8v1.5h9.68945l3.24976,3.24982-1.46948,1.46942a3.53687,3.53687,0,0,0,2.99817,6.06219A3.55452,3.55452,0,0,0,26,55.57617a3.61344,3.61344,0,0,0,.4679-.04474A3.55452,3.55452,0,0,0,30,59.57617a3.61344,3.61344,0,0,0,.4679-.04474,3.56933,3.56933,0,0,0,6.06237,2.99836l2.46961-2.46937,2.46985,2.46985a3.56543,3.56543,0,0,0,6.06237-2.99835A3.61344,3.61344,0,0,0,48,59.57666a3.55453,3.55453,0,0,0,3.5321-4.04474A3.61344,3.61344,0,0,0,52,55.57666a3.55453,3.55453,0,0,0,3.5321-4.04474A3.61344,3.61344,0,0,0,56,51.57666a3.57666,3.57666,0,0,0,2.53027-6.10693l-1.06054,1.06054a2.07851,2.07851,0,0,1-2.93946,2.93946l-1.06054,1.06054a2.07851,2.07851,0,0,1-2.93946,2.93946l-1.06054,1.06054a2.07851,2.07851,0,0,1-2.93946,2.93946l-1.06054,1.06054a2.07851,2.07851,0,0,1-2.93946,2.93946L40.06055,59l.46972-.46973a3.56521,3.56521,0,0,0-2.99817-6.06213,3.53932,3.53932,0,0,0-4-4.00012,3.5393,3.5393,0,0,0-4-4,3.56542,3.56542,0,0,0-6.06237-2.99829L22,42.93933l-3.06445-3.06476L26.43542,26.75h9.754l-6.71972,6.71973a.74985.74985,0,0,0-.09375.94629,6.61351,6.61351,0,0,0,5.30029,2.57812,3.79418,3.79418,0,0,0,1.65918-.32324l7.5166-3.7583L57.46973,46.52979l1.06054-1.06055-.46948-.46948L62.31055,40.75H72v-1.5H62.43506ZM38,53.92236a2.07764,2.07764,0,0,1,1.46973,3.54737l-4,3.99951a2.07851,2.07851,0,1,1-2.93946-2.93945l4-3.99952A2.07207,2.07207,0,0,1,38,53.92236Zm-4-4a2.07764,2.07764,0,0,1,1.46973,3.54737l-4,3.99951a2.07851,2.07851,0,1,1-2.93946-2.93945l4-3.99952A2.07207,2.07207,0,0,1,34,49.92236Zm-4-4a2.07764,2.07764,0,0,1,1.46973,3.54737l-4,3.99951a2.07851,2.07851,0,1,1-2.93946-2.93945l4-3.99952A2.07207,2.07207,0,0,1,30,45.92236Zm-5.46973-3.39209a2.07851,2.07851,0,0,1,2.93946,2.93946l-4,3.99951a2.07851,2.07851,0,1,1-2.93946-2.93945Zm32.47,1.40894L45.81055,32.75H50v-1.5H44a.7545.7545,0,0,0-.33545.0791l-8,4c-.86475.43067-3.33984.0625-4.65674-1.27588L38.31055,26.75h15.254l7.49987,13.12494Z"/><rect x="44.25008" y="55.58571" width="1.49984" height="2.82808" transform="translate(-27.12575 48.52345) rotate(-45.00699)"/><rect x="47.25008" y="49.1715" width="1.49984" height="5.65651" transform="translate(-22.71068 49.17582) rotate(-45.0035)"/><rect x="50.25008" y="42.75729" width="1.49984" height="8.48494" transform="translate(-18.29618 49.83118) rotate(-45.00233)"/></svg>