<svg xmlns="http://www.w3.org/2000/svg" viewBox="0 0 80 80"><path d="M9.25,70h1.5c0-13.92871,7.58887-28.22308,24.5-29.20483V44.1333a.7502.7502,0,0,0,.75.75h8a.7502.7502,0,0,0,.75-.75v-3.25H61.32593a4.75,4.75,0,1,0,0-1.5H52.11987C64.91956,35.2478,70.75,22.48163,70.75,10h-1.5c0,13.92871-7.58887,28.22308-24.5,29.20483V36.1333a.7502.7502,0,0,0-.75-.75H36a.7502.7502,0,0,0-.75.75V39.25H18.67407a4.75,4.75,0,1,0,0,1.5h8.82154C14.96631,45.01624,9.25,57.6452,9.25,70ZM66,36.8833a3.25,3.25,0,1,1-3.25,3.25A3.25377,3.25377,0,0,1,66,36.8833Zm-29.25,0h6.5v6.5h-6.5ZM14,43.25A3.25,3.25,0,1,1,17.25,40,3.25377,3.25377,0,0,1,14,43.25Z"/></svg>