<svg xmlns="http://www.w3.org/2000/svg" viewBox="0 0 80 80"><path d="M69.64355,26.38965,58.75,32.27246V24a.7502.7502,0,0,0-.75-.75H10a.7502.7502,0,0,0-.75.75V56a.7502.7502,0,0,0,.75.75H58a.7502.7502,0,0,0,.75-.75V47.68213l10.8916,5.92676A.75025.75025,0,0,0,70.75,52.9502V27.0498a.75054.75054,0,0,0-1.10645-.66015ZM69.25,51.688,58.3584,45.76123a.75025.75025,0,0,0-1.1084.65869V55.25H10.75V24.75h46.5v8.77979a.75054.75054,0,0,0,1.10645.66015L69.25,28.30713Z"/><path d="M50,27.25A2.75,2.75,0,1,0,52.75,30,2.7528,2.7528,0,0,0,50,27.25Zm0,4A1.25,1.25,0,1,1,51.25,30,1.25116,1.25116,0,0,1,50,31.25Z"/></svg>