<svg xmlns="http://www.w3.org/2000/svg" viewBox="0 0 80 80"><path d="M36.47363,64.53369a.74859.74859,0,0,0,1.05274,0l10.08008-9.94415,5.85937,5.93732a.751.751,0,0,0,1.06836,0L68.125,46.75488a9.21082,9.21082,0,0,0,.03125-12.84277,8.799,8.799,0,0,0-3.40845-2.16864c.00025-.014.0022-.02777.0022-.04181a14.2939,14.2939,0,0,0-4.23633-10.231A14.52218,14.52218,0,0,0,40.11914,21.419L37,24.49512,33.88086,21.419a14.524,14.524,0,0,0-20.39453.05175,14.37984,14.37984,0,0,0,.05273,20.4375Zm4.46973-18.83252A7.70441,7.70441,0,0,1,40.916,34.96a7.23852,7.23852,0,0,1,5.18945-2.21H46.125a7.23282,7.23282,0,0,1,5.18066,2.18311l2.16016,2.189a.774.774,0,0,0,1.06836,0l2.16016-2.189A7.23282,7.23282,0,0,1,61.875,32.75h.01953a7.26255,7.26255,0,0,1,1.29468.12524,12.79308,12.79308,0,0,1-3.781,7.96558L47.62134,52.46838ZM67.084,34.96a7.70441,7.70441,0,0,1-.02734,10.74121L54,58.93213l-5.3252-5.39636L60.46094,41.90869a14.27392,14.27392,0,0,0,4.18969-8.60358A7.35271,7.35271,0,0,1,67.084,34.96ZM14.54492,22.5332a13.02128,13.02128,0,0,1,18.2832-.04687l3.64551,3.59619a.74919.74919,0,0,0,1.05274,0l3.64551-3.59619a13.02163,13.02163,0,0,1,18.2832.04687,12.79531,12.79531,0,0,1,3.77954,8.83289A8.77935,8.77935,0,0,0,61.89844,31.25H61.875a8.725,8.725,0,0,0-6.249,2.62939L54,35.52734l-1.626-1.648A8.72467,8.72467,0,0,0,46.125,31.25h-.02344a8.72174,8.72174,0,0,0-6.25781,2.66211A9.21082,9.21082,0,0,0,39.875,46.75488l6.67822,6.76721L37,62.94629l-22.4082-22.106a12.88091,12.88091,0,0,1-.04688-18.30713Z"/></svg>