<svg xmlns="http://www.w3.org/2000/svg" viewBox="0 0 80 80"><path d="M64.75,51.84375V10A.7502.7502,0,0,0,64,9.25H16a.7502.7502,0,0,0-.75.75V51.84375A12.71277,12.71277,0,0,0,22.96875,63.606l16.73926,7.085a.75109.75109,0,0,0,.584,0l16.73926-7.085A12.712,12.712,0,0,0,64.75,51.84375ZM40,69.18555,23.55273,62.22412A11.21489,11.21489,0,0,1,16.75,51.84375V10.75h46.5V51.84375a11.21413,11.21413,0,0,1-6.80273,10.38037Z"/><path d="M56,31.25H50.75V26a10.75,10.75,0,0,0-21.5,0v5.25H24a.7502.7502,0,0,0-.75.75V54a.7502.7502,0,0,0,.75.75H56a.7502.7502,0,0,0,.75-.75V32A.7502.7502,0,0,0,56,31.25ZM30.75,26a9.25,9.25,0,0,1,18.5,0v5.25H30.75Zm24.5,27.25H24.75V32.75h30.5Z"/></svg>