<svg xmlns="http://www.w3.org/2000/svg" viewBox="0 0 80 80"><path d="M40,9.25A14.76686,14.76686,0,0,0,25.25,24v6.7005a22.75,22.75,0,1,0,29.5,0V24A14.76686,14.76686,0,0,0,40,9.25ZM26.75,24a13.25,13.25,0,0,1,26.5,0v5.52441a22.67367,22.67367,0,0,0-26.5,0Zm34.5,24A21.25,21.25,0,1,1,40,26.75,21.27376,21.27376,0,0,1,61.25,48Z"/><path d="M31.25,48A8.75,8.75,0,1,0,40,39.25,8.75967,8.75967,0,0,0,31.25,48Zm16,0A7.25,7.25,0,1,1,40,40.75,7.258,7.258,0,0,1,47.25,48Z"/><rect x="39.25" y="44" width="1.5" height="8"/></svg>