<svg xmlns="http://www.w3.org/2000/svg" viewBox="0 0 80 80"><path d="M49.33594,45A7.66454,7.66454,0,1,0,57,37.25,7.716,7.716,0,0,0,49.33594,45Zm13.82812,0A6.16465,6.16465,0,1,1,57,38.75,6.21445,6.21445,0,0,1,63.16406,45Z"/><path d="M70.75,72V62a7.02131,7.02131,0,0,0-7.25-6.75h-13A7.02131,7.02131,0,0,0,43.25,62V72h1.5V62a5.52335,5.52335,0,0,1,5.75-5.25h13A5.52335,5.52335,0,0,1,69.25,62V72Z"/><path d="M23,52.75A7.75048,7.75048,0,1,0,15.33594,45,7.716,7.716,0,0,0,23,52.75Zm0-14A6.2506,6.2506,0,1,1,16.83594,45,6.21445,6.21445,0,0,1,23,38.75Z"/><path d="M10.75,62a5.52335,5.52335,0,0,1,5.75-5.25h13A5.52335,5.52335,0,0,1,35.25,62V72h1.5V62a7.02131,7.02131,0,0,0-7.25-6.75h-13A7.02131,7.02131,0,0,0,9.25,62V72h1.5Z"/><path d="M31.70557,36.58838a.6569.6569,0,0,0,.68945-.062l7.82422-5.86817H51.55566a4.97527,4.97527,0,0,0,5.10254-4.8247V14.1665a4.97527,4.97527,0,0,0-5.10254-4.8247H28.44434a4.97527,4.97527,0,0,0-5.10254,4.8247v11.667a4.97527,4.97527,0,0,0,5.10254,4.8247H31.3418V36A.65837.65837,0,0,0,31.70557,36.58838ZM28.44434,29.3418a3.65914,3.65914,0,0,1-3.78614-3.5083V14.1665a3.65914,3.65914,0,0,1,3.78614-3.5083H51.55566a3.65914,3.65914,0,0,1,3.78614,3.5083v11.667a3.65914,3.65914,0,0,1-3.78614,3.5083H40a.659.659,0,0,0-.395.13183L32.6582,34.68408V30A.6585.6585,0,0,0,32,29.3418Z"/></svg>