<svg xmlns="http://www.w3.org/2000/svg" viewBox="0 0 80 80"><path d="M49.89648,9.25H18.13184A2.81427,2.81427,0,0,0,15.26367,12V68a2.81427,2.81427,0,0,0,2.86817,2.75H49.89648A2.8134,2.8134,0,0,0,52.76367,68V44.75h10.25a5.75639,5.75639,0,0,0,5.75-5.75V25a5.75639,5.75639,0,0,0-5.75-5.75h-10.25V12A2.8134,2.8134,0,0,0,49.89648,9.25ZM51.26367,68a1.31388,1.31388,0,0,1-1.36719,1.25H18.13184A1.31415,1.31415,0,0,1,16.76367,68V12a1.31415,1.31415,0,0,1,1.36817-1.25H49.89648A1.31388,1.31388,0,0,1,51.26367,12v7.25h-14.25a5.75639,5.75639,0,0,0-5.75,5.75V39a5.75639,5.75639,0,0,0,5.75,5.75h2.25V52a.74992.74992,0,0,0,1.28028.53027L48.32422,44.75h2.93945Zm11.75-47.25a4.25475,4.25475,0,0,1,4.25,4.25V39a4.25475,4.25475,0,0,1-4.25,4.25h-15a.74942.74942,0,0,0-.53027.21973l-6.71973,6.71972V44a.7502.7502,0,0,0-.75-.75h-3a4.25475,4.25475,0,0,1-4.25-4.25V25a4.25475,4.25475,0,0,1,4.25-4.25Z"/><path d="M34.01367,59.25a2.75,2.75,0,1,0,2.75,2.75A2.7528,2.7528,0,0,0,34.01367,59.25Zm0,4a1.25,1.25,0,1,1,1.25-1.25A1.25116,1.25116,0,0,1,34.01367,63.25Z"/><path d="M50.4707,38.53174a.75093.75093,0,0,0,1.0586,0l5.92675-5.894a4.27285,4.27285,0,0,0,0-6.12647v-.00049a4.4499,4.4499,0,0,0-6.17773-.02978l-.2793.24267-.24511-.2124a4.461,4.461,0,0,0-6.21,0,4.27386,4.27386,0,0,0-.00489,6.12256ZM45.59277,27.583a2.91255,2.91255,0,0,1,2.0459-.8291,2.99417,2.99417,0,0,1,2.09863.85888l.77051.67041a.75078.75078,0,0,0,.98438,0l.80273-.70068a2.95478,2.95478,0,0,1,4.11231,0,2.77445,2.77445,0,0,1-.00489,3.98779L51,36.94238l-5.40723-5.376a2.77486,2.77486,0,0,1,0-3.9834Z"/></svg>