<svg xmlns="http://www.w3.org/2000/svg" viewBox="0 0 80 80"><path d="M27.25,41.2002V46a12.75,12.75,0,0,0,25.5,0V30.75H62v-1.5H18v1.5h3.25V45.99316h1.5V30.75h4.5V41.2002ZM28.75,40V30.75h22.5v9.32129l-.08984-.0376c-3.98487-1.67431-8.207-.3623-11.16016,1.123A16.33245,16.33245,0,0,0,32.83691,39.251a10.24036,10.24036,0,0,0-3.99707.78271l-.08984.0376Zm0,1.69849.6709-.282c3.606-1.51464,7.55371-.15722,10.23047,1.24756a.75011.75011,0,0,0,.69726,0c2.67627-1.40527,6.624-2.76269,10.23047-1.24756l.6709.282V46a11.25,11.25,0,0,1-22.5,0Z"/><path d="M40,14.5835A3.4165,3.4165,0,1,0,43.4165,18,3.42047,3.42047,0,0,0,40,14.5835Zm0,5.333A1.9165,1.9165,0,1,1,41.9165,18,1.91883,1.91883,0,0,1,40,19.9165Z"/><path d="M47.56934,16.63623a1.26064,1.26064,0,0,0,.67285-1.56885,8.38045,8.38045,0,0,0-1.58252-2.74023,1.26027,1.26027,0,0,0-1.69483-.20117A1.49686,1.49686,0,0,1,42.603,10.7627a1.25846,1.25846,0,0,0-1.02832-1.36963,8.72216,8.72216,0,0,0-3.1836.00634A1.24448,1.24448,0,0,0,37.396,10.7627a1.49722,1.49722,0,0,1-2.3628,1.36376,1.24364,1.24364,0,0,0-1.67773.18067,8.70484,8.70484,0,0,0-1.59717,2.75439,1.25937,1.25937,0,0,0,.67236,1.57569,1.4964,1.4964,0,0,1,0,2.72656,1.26064,1.26064,0,0,0-.67285,1.56885,8.38045,8.38045,0,0,0,1.58252,2.74023,1.25882,1.25882,0,0,0,1.69483.20117A1.49686,1.49686,0,0,1,37.397,25.2373a1.25846,1.25846,0,0,0,1.02832,1.36963,8.70871,8.70871,0,0,0,3.1836-.00634,1.2463,1.2463,0,0,0,.9956-1.36329,1.4968,1.4968,0,0,1,2.36231-1.36376,1.246,1.246,0,0,0,1.67773-.18067,8.70484,8.70484,0,0,0,1.59717-2.75439,1.25937,1.25937,0,0,0-.67236-1.57569,1.4964,1.4964,0,0,1,0-2.72656Zm-2.3794,1.36328a3.0068,3.0068,0,0,0,1.56543,2.63233,7.21165,7.21165,0,0,1-1.09766,1.90136A2.99685,2.99685,0,0,0,41.09814,25.166a7.22549,7.22549,0,0,1-2.19531.00048,2.99667,2.99667,0,0,0-4.55957-2.63232,6.82309,6.82309,0,0,1-1.09814-1.90186,2.9957,2.9957,0,0,0-.00049-5.26416,7.21165,7.21165,0,0,1,1.09766-1.90136A2.99685,2.99685,0,0,0,38.90186,10.834a7.19433,7.19433,0,0,1,2.19531-.00048,2.99667,2.99667,0,0,0,4.55957,2.63232,6.82309,6.82309,0,0,1,1.09814,1.90186A3.00672,3.00672,0,0,0,45.18994,17.99951Z"/><path d="M26,62.75H54A9.26032,9.26032,0,0,1,63.25,72h1.5A10.762,10.762,0,0,0,54,61.25H26A10.762,10.762,0,0,0,15.25,72h1.5A9.26032,9.26032,0,0,1,26,62.75Z"/></svg>