<svg xmlns="http://www.w3.org/2000/svg" viewBox="0 0 80 80"><path d="M53.72705,26.69287a.74981.74981,0,0,0,.81738-.1626L58.32471,22.75h5.68945a2.7528,2.7528,0,0,0,2.75-2.75V12a2.7528,2.7528,0,0,0-2.75-2.75h-16a2.7528,2.7528,0,0,0-2.75,2.75v8a2.7528,2.7528,0,0,0,2.75,2.75h5.25V26A.75009.75009,0,0,0,53.72705,26.69287ZM48.01416,21.25a1.25116,1.25116,0,0,1-1.25-1.25V12a1.25116,1.25116,0,0,1,1.25-1.25h16a1.25116,1.25116,0,0,1,1.25,1.25v8a1.25116,1.25116,0,0,1-1.25,1.25h-6a.75027.75027,0,0,0-.53027.21973l-2.71973,2.71972V22a.7502.7502,0,0,0-.75-.75Z"/><path d="M23.25,38v4A2.7528,2.7528,0,0,0,26,44.75h2a.7502.7502,0,0,0,.75-.75V36a.7502.7502,0,0,0-.75-.75h-.95386a13.24059,13.24059,0,0,1,25.90772,0H52a.7502.7502,0,0,0-.75.75v8a.74062.74062,0,0,0,.25513.5542,13.229,13.229,0,0,1-6.15125,5.5506A3.71313,3.71313,0,0,0,43,49.25,3.75,3.75,0,1,0,46.75,53a3.70424,3.70424,0,0,0-.42285-1.69342A14.71615,14.71615,0,0,0,53.09924,44.75H54A2.7528,2.7528,0,0,0,56.75,42V38a2.74979,2.74979,0,0,0-2.261-2.70056,14.736,14.736,0,0,0-28.978,0A2.74979,2.74979,0,0,0,23.25,38ZM43,55.25A2.25,2.25,0,1,1,45.25,53,2.25246,2.25246,0,0,1,43,55.25ZM55.25,38v4A1.25116,1.25116,0,0,1,54,43.25H52.75v-6.5H54A1.25116,1.25116,0,0,1,55.25,38Zm-30.5,0A1.25116,1.25116,0,0,1,26,36.75h1.25v6.5H26A1.25116,1.25116,0,0,1,24.75,42Z"/><path d="M68.01416,66.75a2.7528,2.7528,0,0,0,2.75-2.75V30a2.7528,2.7528,0,0,0-2.75-2.75H58v1.5H68.01416a1.25116,1.25116,0,0,1,1.25,1.25V59.25h-58.5V30a1.25116,1.25116,0,0,1,1.25-1.25H24v-1.5H12.01416a2.7528,2.7528,0,0,0-2.75,2.75V64a2.7528,2.7528,0,0,0,2.75,2.75h27.25v2.5h-13.25v1.5h28v-1.5h-13.25v-2.5Zm-56-1.5a1.25116,1.25116,0,0,1-1.25-1.25V60.75h58.5V64a1.25116,1.25116,0,0,1-1.25,1.25Z"/></svg>