<svg xmlns="http://www.w3.org/2000/svg" viewBox="0 0 80 80"><path d="M40,70.75A30.75,30.75,0,1,0,9.25,40,30.78487,30.78487,0,0,0,40,70.75ZM56.75,16.04218a29.20909,29.20909,0,0,1,0,47.91564V56A8.76,8.76,0,0,0,48,47.25a7.25,7.25,0,0,1,0-14.5A8.76,8.76,0,0,0,56.75,24ZM39.25,10.769V16A7.25834,7.25834,0,0,1,32,23.25,8.76,8.76,0,0,0,23.25,32,7.25834,7.25834,0,0,1,16,39.25H10.769A29.27409,29.27409,0,0,1,39.25,10.769ZM10.769,40.75H16A8.76,8.76,0,0,0,24.75,32,7.25834,7.25834,0,0,1,32,24.75,8.76,8.76,0,0,0,40.75,16V10.769a29.06092,29.06092,0,0,1,14.5,4.28211V24A7.25834,7.25834,0,0,1,48,31.25a8.75,8.75,0,0,0,0,17.5A7.25834,7.25834,0,0,1,55.25,56v8.94885A29.07094,29.07094,0,0,1,40,69.25a29.40063,29.40063,0,0,1-3.25-.18488V58A8.76,8.76,0,0,0,28,49.25H12.25757A29.0952,29.0952,0,0,1,10.769,40.75ZM28,50.75A7.25834,7.25834,0,0,1,35.25,58V68.85834A29.33532,29.33532,0,0,1,12.80554,50.75Z"/></svg>