<svg xmlns="http://www.w3.org/2000/svg" viewBox="0 0 80 80"><path d="M34,58.73877a24.66608,24.66608,0,0,0,16.94385-6.73438L69.46973,70.53027l1.06054-1.06054L52.00439,50.94385A24.733,24.733,0,1,0,34,58.73877ZM17.55957,17.55957a23.25028,23.25028,0,1,1,0,32.88086A23.17733,23.17733,0,0,1,17.55957,17.55957Z"/><path d="M23.57178,44.42822c.00744.00745.01758.00971.02514.01679a14.7696,14.7696,0,1,0-.042-.042C23.562,44.41071,23.56433,44.42078,23.57178,44.42822Zm10.95849-9.898.00147-.00146.00049-.00049.00146-.00146.00342-.00342.00146-.00147a.74986.74986,0,0,0,.19239-.35449V34.167l.00049-.002.00048-.00244h.00049v-.002l.00049-.002.00049-.00244.00049-.002.00049-.002.001-.0039V34.148l.00049-.002.00049-.0044.00049-.00049v-.002l.00048-.00293.00049-.00146v-.00049l.00049-.00147v-.00049l.00049-.00293.00049-.002v-.001l.00049-.002V34.124l.00048-.002v-.00244a.72224.72224,0,0,0,.00977-.126V20.788a13.24087,13.24087,0,1,1-9.55933,23.08179ZM33.25,20.788V33.25H20.78809A13.24609,13.24609,0,0,1,33.25,20.788ZM32.18945,34.75l-8.05932,8.05927a13.17671,13.17671,0,0,1-3.342-8.05927Z"/></svg>