<svg xmlns="http://www.w3.org/2000/svg" viewBox="0 0 80 80"><path d="M40,34.75A6.75,6.75,0,1,0,33.25,28,6.75738,6.75738,0,0,0,40,34.75Zm0-12A5.25,5.25,0,1,1,34.75,28,5.25574,5.25574,0,0,1,40,22.75Z"/><path d="M52.75,62V44A6.75738,6.75738,0,0,0,46,37.25H34A6.75738,6.75738,0,0,0,27.25,44V62h1.5V44A5.25574,5.25574,0,0,1,34,38.75H46A5.25574,5.25574,0,0,1,51.25,44V62Z"/><path d="M19,29.25A5.75,5.75,0,1,0,24.75,35,5.75671,5.75671,0,0,0,19,29.25Zm0,10A4.25,4.25,0,1,1,23.25,35,4.25507,4.25507,0,0,1,19,39.25Z"/><path d="M10.75,49A4.25507,4.25507,0,0,1,15,44.75h9v-1.5H15A5.75671,5.75671,0,0,0,9.25,49V62h1.5Z"/><path d="M61,40.75A5.75,5.75,0,1,0,55.25,35,5.75671,5.75671,0,0,0,61,40.75Zm0-10A4.25,4.25,0,1,1,56.75,35,4.25507,4.25507,0,0,1,61,30.75Z"/><path d="M70.75,62V49A5.75671,5.75671,0,0,0,65,43.25H56v1.5h9A4.25507,4.25507,0,0,1,69.25,49V62Z"/></svg>