<svg xmlns="http://www.w3.org/2000/svg" viewBox="0 0 80 80"><path d="M51.37207,59.9375a7.50632,7.50632,0,0,1,8.18164.40527,2.5707,2.5707,0,0,0,3.50293-.34179,30.66289,30.66289,0,0,0,5.53809-9.67725,2.67969,2.67969,0,0,0-1.417-3.3335,7.72275,7.72275,0,0,1-.0039-13.98193,2.684,2.684,0,0,0,1.4209-3.31836,29.49306,29.49306,0,0,0-5.48047-9.61474,2.62678,2.62678,0,0,0-3.56836-.41846,7.50621,7.50621,0,0,1-8.17578.4043,7.73733,7.73733,0,0,1-3.752-7.39942,2.66868,2.66868,0,0,0-2.15234-2.9082,29.82075,29.82075,0,0,0-11.04883.022,2.61543,2.61543,0,0,0-2.03906,2.88574,7.73663,7.73663,0,0,1-3.75,7.40137,7.50562,7.50562,0,0,1-8.18066-.40527,2.57237,2.57237,0,0,0-3.50391.34131,30.6436,30.6436,0,0,0-5.53809,9.67773,2.67969,2.67969,0,0,0,1.417,3.3335,7.72275,7.72275,0,0,1,.0039,13.98193,2.684,2.684,0,0,0-1.4209,3.31836,29.47991,29.47991,0,0,0,5.48047,9.61474,2.62641,2.62641,0,0,0,3.56836.41846,7.51585,7.51585,0,0,1,10.74121,2.06055l1.26367-.80762A9.01352,9.01352,0,0,0,19.57715,59.127a1.124,1.124,0,0,1-1.54688-.17236,28.49069,28.49069,0,0,1-3.03418-4.31494,28.8129,28.8129,0,0,1-2.17285-4.82031A1.17231,1.17231,0,0,1,13.457,48.353a9.2227,9.2227,0,0,0-.00586-16.70459,1.17239,1.17239,0,0,1-.63086-1.47461,29.17049,29.17049,0,0,1,5.26758-9.20654,1.08771,1.08771,0,0,1,1.48047-.09424,9.00877,9.00877,0,0,0,9.81738.48437,9.24482,9.24482,0,0,0,4.48633-8.83789,1.12537,1.12537,0,0,1,.82422-1.27051,28.34946,28.34946,0,0,1,10.49609-.021,1.16121,1.16121,0,0,1,.93164,1.293,9.24582,9.24582,0,0,0,4.48828,8.835,9.00578,9.00578,0,0,0,9.81055-.48291,1.12385,1.12385,0,0,1,1.54688.17236,28.49069,28.49069,0,0,1,3.03418,4.31494,28.8129,28.8129,0,0,1,2.17285,4.82031A1.17231,1.17231,0,0,1,66.543,31.647a9.2227,9.2227,0,0,0,.00586,16.70459,1.172,1.172,0,0,1,.63086,1.47412,29.14922,29.14922,0,0,1-5.26758,9.20655,1.08777,1.08777,0,0,1-1.47949.09472A9.01579,9.01579,0,0,0,47.543,61.59619l1.26367.80762A7.52911,7.52911,0,0,1,51.37207,59.9375Z"/><path d="M44.75,72V51.82275a12.74061,12.74061,0,0,0-.501-23.84033.7497.7497,0,0,0-.999.70752V39.25h-6.5V28.68994a.7497.7497,0,0,0-.999-.70752,12.74061,12.74061,0,0,0-.501,23.84033V72h1.5V52.31427a12.33833,12.33833,0,0,0,6.5,0V72ZM40,51.25a11.24863,11.24863,0,0,1-4.75-21.4458V40a.7502.7502,0,0,0,.75.75h8a.7502.7502,0,0,0,.75-.75V29.8042A11.24863,11.24863,0,0,1,40,51.25Z"/></svg>