<svg xmlns="http://www.w3.org/2000/svg" viewBox="0 0 80 80"><path d="M12,43.25a.7502.7502,0,0,0-.75.75V70a.7502.7502,0,0,0,.75.75H38a.7502.7502,0,0,0,.75-.75V44a.7502.7502,0,0,0-.75-.75Zm25.25,26H12.75V44.75h24.5Z"/><path d="M57.03369,70.75a13.71656,13.71656,0,1,0-13.7168-13.71631A13.73211,13.73211,0,0,0,57.03369,70.75Zm0-25.93311a12.21656,12.21656,0,1,1-12.2168,12.2168A12.23026,12.23026,0,0,1,57.03369,44.81689Z"/><path d="M54.63818,38.39453a.75172.75172,0,0,0,.03272-.73l-14-28a.78134.78134,0,0,0-1.3418,0l-14,28A.74978.74978,0,0,0,26,38.75H54A.75133.75133,0,0,0,54.63818,38.39453ZM27.21338,37.25,40,11.67725,52.78662,37.25Z"/></svg>