<svg xmlns="http://www.w3.org/2000/svg" viewBox="0 0 80 80"><path d="M23.25,14v3.25146H12.19043A2.94254,2.94254,0,0,0,9.252,20.19092V61.80908a2.94254,2.94254,0,0,0,2.93848,2.93946H67.80957a2.94254,2.94254,0,0,0,2.93848-2.93946V20.19092a2.94254,2.94254,0,0,0-2.93848-2.93946H56.75V14h-1.5v3.25146H24.75V14ZM69.25195,61.80908a1.44423,1.44423,0,0,1-1.44238,1.44238H12.19043A1.44423,1.44423,0,0,1,10.748,61.80908v-33.25h58.5039ZM55.25,18.74854V22h1.5V18.74854H67.80957a1.44423,1.44423,0,0,1,1.44238,1.44238v6.86816H10.748V20.19092a1.44423,1.44423,0,0,1,1.44238-1.44238H23.25V22h1.5V18.74854Z"/><circle cx="20" cy="34" r="1"/><circle cx="30" cy="34" r="1"/><circle cx="40" cy="34" r="1"/><circle cx="50" cy="34" r="1"/><circle cx="60" cy="34" r="1"/><circle cx="20" cy="42" r="1"/><circle cx="30" cy="42" r="1"/><circle cx="40" cy="42" r="1"/><circle cx="50" cy="42" r="1"/><circle cx="60" cy="42" r="1"/><circle cx="20" cy="50" r="1"/><circle cx="30" cy="50" r="1"/><circle cx="40" cy="50" r="1"/><circle cx="50" cy="50" r="1"/><circle cx="60" cy="50" r="1"/><circle cx="20" cy="58" r="1"/><circle cx="30" cy="58" r="1"/><circle cx="40" cy="58" r="1"/><circle cx="50" cy="58" r="1"/><circle cx="60" cy="58" r="1"/></svg>