<svg xmlns="http://www.w3.org/2000/svg" viewBox="0 0 80 80"><path d="M70.75,58.07275V15.67725A2.71738,2.71738,0,0,0,68,13H12a2.71738,2.71738,0,0,0-2.75,2.67725V68a.7502.7502,0,0,0,.75.75h8a.74932.74932,0,0,0,.71094-.5127L21.21069,60.75H58.78931l2.49975,7.4873A.74932.74932,0,0,0,62,68.75h8a.7502.7502,0,0,0,.75-.75ZM17.46,67.25H10.75V60.44379A2.77315,2.77315,0,0,0,12,60.75h7.62939Zm51.79,0H62.54l-2.16943-6.5H68a2.77315,2.77315,0,0,0,1.25-.30621Zm0-11.25v2.07275A1.21665,1.21665,0,0,1,68,59.25H12a1.21665,1.21665,0,0,1-1.25-1.17725V52.70654h58.5Zm0-4.79346H10.75V15.67725A1.21665,1.21665,0,0,1,12,14.5H68a1.21665,1.21665,0,0,1,1.25,1.17725Z"/><path d="M24,36.32715a.7502.7502,0,0,0-.75.75v1.4917a.75.75,0,0,0,1.5,0v-1.4917A.7502.7502,0,0,0,24,36.32715Z"/><path d="M28,34.34863a.7502.7502,0,0,0-.75.75v3.47022a.75.75,0,0,0,1.5,0V35.09863A.7502.7502,0,0,0,28,34.34863Z"/><path d="M32,31.59473a.75019.75019,0,0,0-.75.75V40a.75.75,0,0,0,1.5,0V32.34473A.75019.75019,0,0,0,32,31.59473Z"/><path d="M36,34.34863a.7502.7502,0,0,0-.75.75v3.47022a.75.75,0,0,0,1.5,0V35.09863A.7502.7502,0,0,0,36,34.34863Z"/><path d="M40,36.33154a.7502.7502,0,0,0-.75.75v1.48731a.75.75,0,0,0,1.5,0V37.08154A.7502.7502,0,0,0,40,36.33154Z"/><path d="M44,34.34863a.7502.7502,0,0,0-.75.75v3.47022a.75.75,0,0,0,1.5,0V35.09863A.7502.7502,0,0,0,44,34.34863Z"/><path d="M48,31.59473a.75019.75019,0,0,0-.75.75V40a.75.75,0,0,0,1.5,0V32.34473A.75019.75019,0,0,0,48,31.59473Z"/><path d="M52,34.34863a.7502.7502,0,0,0-.75.75v3.47022a.75.75,0,0,0,1.5,0V35.09863A.7502.7502,0,0,0,52,34.34863Z"/><path d="M56,36.32715a.7502.7502,0,0,0-.75.75v1.4917a.75.75,0,0,0,1.5,0v-1.4917A.7502.7502,0,0,0,56,36.32715Z"/></svg>