<svg xmlns="http://www.w3.org/2000/svg" viewBox="0 0 80 80"><path d="M54,26.75H70a.7502.7502,0,0,0,.75-.75V12a.7502.7502,0,0,0-.75-.75H66.749V10.00049h-1.5V11.25H58.75V10h-1.5v1.25H54a.7502.7502,0,0,0-.75.75V26A.7502.7502,0,0,0,54,26.75Zm.75-14h2.5v1.24951h1.5V12.75h6.499v1.25049h1.5V12.75H69.25v2.5H54.75Zm0,4h14.5v8.5H54.75Z"/><path d="M31.25,26.25A8.75,8.75,0,1,0,40,17.5,8.75967,8.75967,0,0,0,31.25,26.25Zm16,0A7.25,7.25,0,1,1,40,19,7.258,7.258,0,0,1,47.25,26.25Z"/><path d="M9.25,54.25v12A.7502.7502,0,0,0,10,67h8a.74994.74994,0,0,0,.71143-.5127L21.21069,59H58.78931l2.49975,7.4873A.74932.74932,0,0,0,62,67h8a.7502.7502,0,0,0,.75-.75V30h-1.5V49.45654H52.75V44.71143A7.00018,7.00018,0,0,0,46,37.5H34a7.00018,7.00018,0,0,0-6.75,7.21143v4.74511H10.75V13.92725A1.21665,1.21665,0,0,1,12,12.75H50v-1.5H12a2.71738,2.71738,0,0,0-2.75,2.67725Zm60,11.25H62.54L60.37061,59H68a2.77315,2.77315,0,0,0,1.25-.30621ZM28.75,44.71143A5.5017,5.5017,0,0,1,34,39H46a5.5017,5.5017,0,0,1,5.25,5.71143v4.74511H28.75ZM10.75,54.25V50.95654h58.5v5.36621A1.21665,1.21665,0,0,1,68,57.5H12a1.21665,1.21665,0,0,1-1.25-1.17725Zm0,4.44379A2.77315,2.77315,0,0,0,12,59h7.62891l-2.16944,6.5H10.75Z"/></svg>