<svg xmlns="http://www.w3.org/2000/svg" viewBox="0 0 80 80"><path d="M39.46875,66.5293a.74974.74974,0,0,0,1.0625,0l25.4834-25.57618a16.352,16.352,0,0,0,.05762-22.956A15.77943,15.77943,0,0,0,54.80664,13.25h-.041a15.77356,15.77356,0,0,0-11.24609,4.689L40,21.47119,36.48047,17.939A15.77356,15.77356,0,0,0,25.23438,13.25h-.041a15.77943,15.77943,0,0,0-11.26563,4.74707,16.352,16.352,0,0,0,.05762,22.956ZM14.99609,19.05078A14.28829,14.28829,0,0,1,25.19727,14.75h.03711A14.28616,14.28616,0,0,1,35.418,18.99756L39.46875,23.063a.77251.77251,0,0,0,1.0625,0L44.582,18.99756A14.28248,14.28248,0,0,1,54.76562,14.75h.03711a14.28829,14.28829,0,0,1,10.20118,4.30078,14.8489,14.8489,0,0,1-.05176,20.84375L40,64.93751l-24.95215-25.043A14.84709,14.84709,0,0,1,14.99609,19.05078Z"/></svg>