<svg xmlns="http://www.w3.org/2000/svg" viewBox="0 0 80 80"><path d="M34,40.69531A.69528.69528,0,0,0,34.69531,40V36A.69528.69528,0,0,0,34,35.30469H30.69531V8H29.30469V35.30469H26A.69528.69528,0,0,0,25.30469,36v4A.69528.69528,0,0,0,26,40.69531h1.30469v2.60938H26A.69528.69528,0,0,0,25.30469,44V68A2.69819,2.69819,0,0,0,28,70.69531h4A2.69819,2.69819,0,0,0,34.69531,68V44A.69528.69528,0,0,0,34,43.30469H32.69531V40.69531Zm-.69531,4V68A1.30607,1.30607,0,0,1,32,69.30469H28A1.30607,1.30607,0,0,1,26.69531,68V44.69531h6.60938Zm-4.60938-1.39062V40.69531h2.60938v2.60938Zm3.30469-4H26.69531V36.69531h6.60938v2.60938Z"/><path d="M50,70.75A4.7554,4.7554,0,0,0,54.75,66V29.62915a10.73476,10.73476,0,0,0-.4502-19.47681.74986.74986,0,0,0-1.0498.6875V19.25h-6.5V10.83984a.74986.74986,0,0,0-1.0498-.6875A10.73476,10.73476,0,0,0,45.25,29.62915V66A4.7554,4.7554,0,0,0,50,70.75ZM53.25,66a3.25,3.25,0,0,1-6.5,0V30.24512a10.71285,10.71285,0,0,0,6.5,0ZM40.75,20a9.24376,9.24376,0,0,1,4.5-7.93311V20a.7502.7502,0,0,0,.75.75h8a.7502.7502,0,0,0,.75-.75V12.06689A9.2485,9.2485,0,1,1,40.75,20Z"/></svg>