<svg xmlns="http://www.w3.org/2000/svg" viewBox="0 0 80 80"><path d="M16.61133,38.93262a10.52152,10.52152,0,0,0-.7771.8117c-.11157.12818-.20752.26715-.3125.40009-.124.15875-.25244.31415-.36719.47931-.151.21576-.28516.44122-.41943.66736-.05408.09192-.11157.18158-.16284.275-.13379.24207-.25354.49048-.36768.74261-.041.09052-.08179.18055-.12036.27216-.104.24835-.19873.49982-.28357.75641-.0387.116-.07263.23315-.1073.35052-.06885.23554-.135.4712-.1875.71241-.03955.178-.06665.35827-.09692.53839-.03138.19092-.06861.37964-.08973.5733a10.51364,10.51364,0,0,0-.06921,1.1698c0,.32526.01978.64679.04895.96619.00916.10132.02209.20129.03406.30175q.04065.337.10229.66791c.01905.103.0365.20636.0586.30835.06384.29456.13659.58631.22473.87232.02234.07269.0509.14239.0747.21441.07386.22235.15345.44214.24134.65827.04419.10821.09131.21441.13879.32086q.12543.28107.267.55347c.04834.09326.0946.18731.14563.279.14526.26129.29895.51751.46545.76532.02832.042.05994.08117.08875.12274q.221.319.46472.621c.06043.07489.12293.14765.1853.22089q.21717.25461.45008.49505c.06408.06629.12658.13361.19238.19819.21448.21051.43542.41479.66785.60711.04321.03571.0896.0672.1333.10224.18884.15112.3822.29681.58178.43536.11231.07825.228.15137.34327.22528.13232.08423.26586.166.40234.24469.14136.08191.283.16223.42822.23773.09986.05164.20288.09833.30469.147.16113.07733.31934.1596.48486.22894a8.541,8.541,0,0,0-.16528,1.66052,8.71434,8.71434,0,0,0,8.70459,8.70459c.21777,0,.44629-.014.68494-.03473.13366-.0105.26623-.02362.39831-.0401l.02319-.00232-.00024-.00122c.13745-.01752.27344-.03863.40869-.0625A6.73807,6.73807,0,0,0,42.75,64V56.75H54.18945l-2.71972,2.71973,1.06054,1.06054,4-4a.74972.74972,0,0,0,0-1.06054l-4-4-1.06054,1.06054L54.18945,55.25H42.75V40.75H64.18945l-2.71972,2.71973,1.06054,1.06054,4-4a.74972.74972,0,0,0,0-1.06054l-4-4-1.06054,1.06054L64.18945,39.25H42.75V24.75H54.18945l-2.71972,2.71973,1.06054,1.06054,4-4a.74972.74972,0,0,0,0-1.06054l-4-4-1.06054,1.06054L54.18945,23.25H42.75V16a6.75083,6.75083,0,0,0-13.15137-2.14551c-.08471-.01037-.1709-.00805-.2561-.01574l.00073-.00818c-.23291-.021-.46777-.03516-.707-.03516a7.74414,7.74414,0,0,0-7.15185,10.72852c-.01063.0039-.0199.01-.03052.014a8.67593,8.67593,0,0,0-1.18262.54169l-.01965.012a8.70459,8.70459,0,0,0-.96888.63874c-.062.04657-.125.09106-.18579.13916a8.75552,8.75552,0,0,0-.83142.75042c-.0653.06708-.12512.138-.18835.20716a8.74641,8.74641,0,0,0-.59595.7276c-.04968.06781-.103.13214-.15063.20135a8.67953,8.67953,0,0,0-.56653.95294c-.04407.08551-.08386.17237-.12512.2594a8.66511,8.66511,0,0,0-.39649.97742c-.01245.038-.029.07391-.041.11212a8.62748,8.62748,0,0,0-.26966,1.13825c-.016.092-.02942.184-.04236.27685a7.85,7.85,0,0,0-.02026,2.28449c.0083.06671.01526.13311.02515.19958a8.6057,8.6057,0,0,0,.2124,1.021c.01514.05572.03369.11011.04993.16546a8.60014,8.60014,0,0,0,.33191.93256c.015.03546.02685.07184.04248.10706a8.585,8.585,0,0,0,.46533.89532c.02588.04419.04382.0921.07055.13587l.00855-.00525a8.69712,8.69712,0,0,0,.59546.86462,10.754,10.754,0,0,0-1.053.866Zm.61816,1.51617c.05921-.06274.1189-.125.18018-.18634a9.289,9.289,0,0,1,1.77881-1.39233.75.75,0,0,0,.15185-1.166,7.24559,7.24559,0,0,1-1.07763-1.43463c-.10669-.18506-.20545-.3739-.29468-.567-.03394-.07287-.07031-.14459-.10156-.21856a7.14091,7.14091,0,0,1-.28858-.81092c-.015-.052-.02515-.1054-.03882-.15777a7.13352,7.13352,0,0,1-.14953-.71851c-.012-.0766-.024-.15307-.03357-.23022a6.52176,6.52176,0,0,1,.03174-1.97992c.01-.06494.01806-.13037.02978-.1947a7.143,7.143,0,0,1,.25732-.99988c.021-.06244.04517-.12335.06775-.18506a7.17558,7.17558,0,0,1,.4242-.95746c.00708-.01312.016-.02514.02319-.03815a7.19272,7.19272,0,0,1,.55054-.83978c.04187-.05572.08179-.11285.12524-.1673a7.18825,7.18825,0,0,1,.67676-.73693c.04773-.04541.09717-.08887.14624-.133a7.17851,7.17851,0,0,1,.83765-.65668l.00732-.00439a7.20729,7.20729,0,0,1,2.1919-.96576l.001-.00055a7.15253,7.15253,0,0,1,7.43506,2.51862l1.17774-.92871A8.63452,8.63452,0,0,0,22.958,24.12207a6.24458,6.24458,0,0,1,7.02148-8.68213.74787.74787,0,0,0,.89258-.57178A5.25077,5.25077,0,0,1,41.25,16V39.25H34.31689a8.07467,8.07467,0,0,1-7.42334-4.88574l-1.37793.59375a9.57483,9.57483,0,0,0,8.80127,5.792H41.25V64a5.24712,5.24712,0,0,1-9.96094,2.30768A8.71107,8.71107,0,0,0,37.023,58.13623h-1.5a7.21058,7.21058,0,0,1-6.28857,7.13971v-.00055a7.15412,7.15412,0,0,1-8.12061-7.13916,7.03673,7.03673,0,0,1,.11414-1.18555,10.4925,10.4925,0,0,0,6.76721-.48925l-.584-1.38184a9.11206,9.11206,0,0,1-8.23266-.59534c-.09058-.05468-.18262-.10736-.27137-.165-.1156-.075-.22717-.15478-.33874-.23455-.11243-.08069-.22363-.163-.33215-.24854-.09436-.07416-.18787-.14917-.27893-.22681-.12842-.10955-.25232-.22393-.37439-.34033-.06775-.06451-.13807-.12689-.20374-.19342q-.2721-.27594-.52112-.5733c-.04529-.05438-.08594-.11243-.12988-.16785-.12085-.15222-.2384-.30713-.34949-.467-.05908-.08533-.115-.17285-.17126-.26013q-.13349-.20673-.256-.421c-.0542-.09491-.10816-.19-.15894-.28686-.08057-.15363-.15478-.311-.22668-.46967-.03907-.08618-.08179-.17047-.11829-.258q-.14685-.35293-.26416-.72046c-.02905-.09069-.05164-.18389-.07788-.27569-.04907-.17175-.09522-.34461-.134-.52033-.02295-.1029-.04285-.20672-.06226-.31066q-.05017-.27063-.08362-.54676c-.01135-.09228-.02453-.1842-.03308-.27722-.02539-.27667-.04248-.55585-.04248-.83905a9.28257,9.28257,0,0,1,.07031-1.09454c.01221-.102.03113-.20227.04663-.30341.04053-.26489.09058-.52692.15369-.78479.0249-.10229.051-.20416.07947-.3053q.11573-.41015.26953-.80529c.02685-.06965.04968-.14093.07837-.20984a8.96671,8.96671,0,0,1,1.06384-1.87653c.05383-.07306.11267-.14307.16882-.21472C16.85364,40.86707,17.03564,40.65332,17.22949,40.44879Z"/><path d="M35.99121,46.75879v-1.5A6.74863,6.74863,0,0,0,29.25,52h1.5A5.247,5.247,0,0,1,35.99121,46.75879Z"/><path d="M26.752,42.01074h-1.5A5.25782,5.25782,0,0,1,20,47.2627v1.5A6.75947,6.75947,0,0,0,26.752,42.01074Z"/><path d="M38.751,15.98145h-1.5A5.25678,5.25678,0,0,1,32,21.23242v1.5A6.75842,6.75842,0,0,0,38.751,15.98145Z"/></svg>