<svg xmlns="http://www.w3.org/2000/svg" viewBox="0 0 80 80"><path d="M68.75,56A4.75,4.75,0,1,0,64,60.75,4.7554,4.7554,0,0,0,68.75,56Zm-8,0A3.25,3.25,0,1,1,64,59.25,3.25377,3.25377,0,0,1,60.75,56Z"/><path d="M57.25,67.38525V72h1.5V67.38525A2.59523,2.59523,0,0,1,61.29736,64.75h5.40528A2.59523,2.59523,0,0,1,69.25,67.38525V72h1.5V67.38525A4.09646,4.09646,0,0,0,66.70264,63.25H61.29736A4.09646,4.09646,0,0,0,57.25,67.38525Z"/><path d="M48,60.75A4.75,4.75,0,1,0,43.25,56,4.7554,4.7554,0,0,0,48,60.75Zm0-8A3.25,3.25,0,1,1,44.75,56,3.25377,3.25377,0,0,1,48,52.75Z"/><path d="M41.25,67.38525V72h1.5V67.38525A2.59523,2.59523,0,0,1,45.29736,64.75h5.40528A2.59523,2.59523,0,0,1,53.25,67.38525V72h1.5V67.38525A4.09646,4.09646,0,0,0,50.70264,63.25H45.29736A4.09646,4.09646,0,0,0,41.25,67.38525Z"/><path d="M36.75,56A4.75,4.75,0,1,0,32,60.75,4.7554,4.7554,0,0,0,36.75,56Zm-8,0A3.25,3.25,0,1,1,32,59.25,3.25377,3.25377,0,0,1,28.75,56Z"/><path d="M25.25,67.38525V72h1.5V67.38525A2.59523,2.59523,0,0,1,29.29736,64.75h5.40528A2.59523,2.59523,0,0,1,37.25,67.38525V72h1.5V67.38525A4.09646,4.09646,0,0,0,34.70264,63.25H29.29736A4.09646,4.09646,0,0,0,25.25,67.38525Z"/><path d="M11.25,56A4.75,4.75,0,1,0,16,51.25,4.7554,4.7554,0,0,0,11.25,56Zm8,0A3.25,3.25,0,1,1,16,52.75,3.25377,3.25377,0,0,1,19.25,56Z"/><path d="M10.75,67.38525A2.59523,2.59523,0,0,1,13.29736,64.75h5.40528A2.59523,2.59523,0,0,1,21.25,67.38525V72h1.5V67.38525A4.09646,4.09646,0,0,0,18.70264,63.25H13.29736A4.09646,4.09646,0,0,0,9.25,67.38525V72h1.5Z"/><path d="M56.75,25A5.75,5.75,0,1,0,51,30.75,5.75671,5.75671,0,0,0,56.75,25Zm-10,0A4.25,4.25,0,1,1,51,29.25,4.25507,4.25507,0,0,1,46.75,25Z"/><path d="M43.25049,37.62793v8.373h1.5v-8.373a2.99637,2.99637,0,0,1,3.09717-2.877h6.30615a2.99637,2.99637,0,0,1,3.09717,2.877v8.373h1.5v-8.373a4.49628,4.49628,0,0,0-4.59717-4.377H47.84766A4.49628,4.49628,0,0,0,43.25049,37.62793Z"/><path d="M12.5,40.75H40v-1.5H12.5a1.75213,1.75213,0,0,1-1.75-1.75v-25a1.75213,1.75213,0,0,1,1.75-1.75h55a1.75213,1.75213,0,0,1,1.75,1.75v25a1.75213,1.75213,0,0,1-1.75,1.75H62v1.5h5.5a3.25377,3.25377,0,0,0,3.25-3.25v-25A3.25377,3.25377,0,0,0,67.5,9.25h-55A3.25377,3.25377,0,0,0,9.25,12.5v25A3.25377,3.25377,0,0,0,12.5,40.75Z"/><rect x="26" y="15.25" width="14" height="1.5"/><path d="M22.75,16a.7502.7502,0,0,0-.75-.75H16a.7502.7502,0,0,0-.75.75v6a.7502.7502,0,0,0,.75.75h6a.7502.7502,0,0,0,.75-.75Zm-1.5,5.25h-4.5v-4.5h4.5Z"/><rect x="26" y="19.25" width="10.5" height="1.5"/><rect x="26" y="27.25" width="14" height="1.5"/><path d="M22,27.25H16a.7502.7502,0,0,0-.75.75v6a.7502.7502,0,0,0,.75.75h6a.7502.7502,0,0,0,.75-.75V28A.7502.7502,0,0,0,22,27.25Zm-.75,6h-4.5v-4.5h4.5Z"/><rect x="26" y="31.25" width="10.5" height="1.5"/></svg>