<svg xmlns="http://www.w3.org/2000/svg" viewBox="0 0 80 80"><path d="M68,33.25H64.75V30.1001a2.7528,2.7528,0,0,0-2.75-2.75H36.72852a1.24181,1.24181,0,0,1-.88379-.36621L30.916,22.05566A2.73175,2.73175,0,0,0,28.97168,21.25H12A2.7528,2.7528,0,0,0,9.25,24V60a2.75,2.75,0,0,0,1.63232,2.50739c.01429.00738.02771.01593.04224.02294l.02783.01008A2.15752,2.15752,0,0,0,11.875,62.75H62.49121A2.7731,2.7731,0,0,0,65.146,60.71582l5.57421-24.50635a2.15814,2.15814,0,0,0-.35937-1.91211A2.848,2.848,0,0,0,68,33.25ZM10.75,55.76758V24A1.25116,1.25116,0,0,1,12,22.75H28.97168a1.25787,1.25787,0,0,1,.88379.36621l4.92871,4.92822a2.73173,2.73173,0,0,0,1.94434.80567H62a1.25116,1.25116,0,0,1,1.25,1.25V33.25H18c-1.26025,0-2.27832.95264-2.73145,2.584ZM69.26855,35.8335,63.69336,60.34326a1.25611,1.25611,0,0,1-1.20215.90674H12a1.23447,1.23447,0,0,1-.44714-.09052.64392.64392,0,0,1-.31653-.75616l5.48633-24.20215C16.81738,35.86084,17.18945,34.75,18,34.75H68a1.40353,1.40353,0,0,1,1.16064.44775A.6959.6959,0,0,1,69.26855,35.8335Z"/></svg>