<svg xmlns="http://www.w3.org/2000/svg" viewBox="0 0 80 80"><path d="M12.19043,64.75H67.80957A2.94421,2.94421,0,0,0,70.75,61.80908V20.19092A2.94421,2.94421,0,0,0,67.80957,17.25H56.75V14h-1.5v3.25H24.75V14h-1.5v3.25H12.19043A2.94421,2.94421,0,0,0,9.25,20.19092V61.80908A2.94421,2.94421,0,0,0,12.19043,64.75ZM10.75,20.19092A1.44256,1.44256,0,0,1,12.19043,18.75H23.25V22h1.5V18.75h30.5V22h1.5V18.75H67.80957A1.44256,1.44256,0,0,1,69.25,20.19092v6.86816H10.75Zm0,8.36816h58.5v33.25A1.44256,1.44256,0,0,1,67.80957,63.25H12.19043A1.44256,1.44256,0,0,1,10.75,61.80908Z"/><path d="M40,55.25A4.25475,4.25475,0,0,1,35.75,51h-1.5a5.75444,5.75444,0,0,0,5,5.69537V60h1.5V56.69537A5.74707,5.74707,0,0,0,40,45.25,4.25,4.25,0,1,1,44.25,41h1.5a5.75444,5.75444,0,0,0-5-5.69537V32h-1.5v3.30463A5.74707,5.74707,0,0,0,40,46.75a4.25,4.25,0,0,1,0,8.5Z"/></svg>