<svg xmlns="http://www.w3.org/2000/svg" viewBox="0 0 80 80"><path d="M40.54443,9.46973a.74972.74972,0,0,0-1.06054,0l-30,30A.74993.74993,0,0,0,10.01416,40.75H17.25V68a.7502.7502,0,0,0,.75.75H34.01416a.7502.7502,0,0,0,.75-.75V52.75h10.5V68a.7502.7502,0,0,0,.75.75H62a.7502.7502,0,0,0,.75-.75V40.75h7.26416a.74993.74993,0,0,0,.53027-1.28027ZM62,39.25a.7502.7502,0,0,0-.75.75V67.25H46.76416V52a.7502.7502,0,0,0-.75-.75h-12a.7502.7502,0,0,0-.75.75V67.25H18.75V40a.7502.7502,0,0,0-.75-.75H11.82471L40.01416,11.06055,68.20361,39.25Z"/></svg>