<svg xmlns="http://www.w3.org/2000/svg" viewBox="0 0 80 80"><path d="M39.25,70.731v.019h1.5v-.01892a30.49319,30.49319,0,0,0,11.5498-2.53967l.6875-.3003-.60058-1.37451-.68652.29981a29.00352,29.00352,0,0,1-5.50464,1.7738A18.30722,18.30722,0,0,0,50.624,63.83545l.416-.62451-1.249-.83106-.415.62451c-2.51831,3.78473-5.488,5.8924-8.626,6.18616V54.75h6v-1.5h-6V40.75H55.23657a54.00594,54.00594,0,0,1-.554,7.14062l-.10938.74219,1.48438.21826.10937-.74169A55.68441,55.68441,0,0,0,56.73657,40.75H69.231a28.99217,28.99217,0,0,1-2.41455,10.94971l-.29981.6875,1.374.60009.30079-.687A30.50331,30.50331,0,0,0,70.731,40.75h.019v-1.5h-.019A30.77471,30.77471,0,0,0,40.75,9.269V9.25h-1.5v.019A30.77471,30.77471,0,0,0,9.269,39.25H9.25v1.5h.019A30.77471,30.77471,0,0,0,39.25,70.731ZM69.231,39.25H56.73975A52.48275,52.48275,0,0,0,55.113,26.75H66.06372A29.0415,29.0415,0,0,1,69.231,39.25Zm-3.988-14H54.69263c-1.87159-6.25806-4.896-11.1911-8.5437-13.84418A29.33687,29.33687,0,0,1,65.24292,25.25ZM40.75,10.7865c5.29126.494,9.87988,6.187,12.41089,14.4635H40.75Zm0,15.9635H53.58887A51.57707,51.57707,0,0,1,55.24,39.25H40.75Zm-25.99292,28H25.30737c1.87159,6.25806,4.896,11.1911,8.5437,13.84418A29.33744,29.33744,0,0,1,14.75708,54.75ZM39.25,69.2135c-5.29126-.494-9.87988-6.187-12.41089-14.4635H39.25Zm0-15.9635H26.41113A51.57707,51.57707,0,0,1,24.76,40.75H39.25Zm0-14H24.76a51.57707,51.57707,0,0,1,1.65112-12.5H39.25Zm0-14H26.83911c2.531-8.27649,7.11963-13.96948,12.41089-14.4635ZM33.85107,11.40582C30.20337,14.0589,27.179,18.99194,25.30737,25.25H14.75708A29.33744,29.33744,0,0,1,33.85107,11.40582ZM13.93628,26.75H24.887a52.48275,52.48275,0,0,0-1.62671,12.5H10.769A29.0415,29.0415,0,0,1,13.93628,26.75Zm9.324,14A52.48275,52.48275,0,0,0,24.887,53.25H13.93628A29.0415,29.0415,0,0,1,10.769,40.75Z"/><path d="M70.53027,67.46973l-5.35351-5.353L70.416,58.624a.74946.74946,0,0,0-.10547-1.30664l-22-10a.75.75,0,0,0-.99317.99317l10,22a.74955.74955,0,0,0,.62207.437c.02051.00146.041.00244.06055.00244a.751.751,0,0,0,.624-.334l3.49219-5.23877,5.35352,5.353a.74972.74972,0,0,0,1.06054,0l2-2A.74972.74972,0,0,0,70.53027,67.46973ZM68,68.93945l-5.46973-5.46972A.74871.74871,0,0,0,62,63.25c-.02441,0-.04883.001-.07422.00342a.751.751,0,0,0-.5498.33056l-3.252,4.87745L49.51074,49.51025l18.9502,8.61426L63.584,61.376a.75034.75034,0,0,0-.11425,1.15429L68.93945,68Z"/></svg>