<svg xmlns="http://www.w3.org/2000/svg" viewBox="0 0 80 80"><path d="M24,35.25A4.75,4.75,0,1,0,28.75,40,4.7554,4.7554,0,0,0,24,35.25Zm0,8A3.25,3.25,0,1,1,27.25,40,3.25377,3.25377,0,0,1,24,43.25Z"/><path d="M51.25,40A4.75,4.75,0,1,0,56,35.25,4.7554,4.7554,0,0,0,51.25,40ZM56,36.75A3.25,3.25,0,1,1,52.75,40,3.25377,3.25377,0,0,1,56,36.75Z"/><path d="M40,51.25A4.75,4.75,0,1,0,44.75,56,4.7554,4.7554,0,0,0,40,51.25Zm0,8A3.25,3.25,0,1,1,43.25,56,3.25377,3.25377,0,0,1,40,59.25Z"/><path d="M40,19.25A4.75,4.75,0,1,0,44.75,24,4.7554,4.7554,0,0,0,40,19.25Zm0,8A3.25,3.25,0,1,1,43.25,24,3.25377,3.25377,0,0,1,40,27.25Z"/><path d="M54.67285,54.67236A4.75651,4.75651,0,1,0,51.31348,56.061,4.75594,4.75594,0,0,0,54.67285,54.67236Zm-5.65723-1.06054a3.25017,3.25017,0,1,1,4.59668,0A3.22761,3.22761,0,0,1,49.01562,53.61182Z"/><path d="M33.43652,28.68652a4.74622,4.74622,0,1,0-1.3916,3.3584A4.71749,4.71749,0,0,0,33.43652,28.68652Zm-2.45214,2.29786a3.24944,3.24944,0,1,1,.95214-2.29786A3.25532,3.25532,0,0,1,30.98438,30.98438Z"/><path d="M32.04492,54.67236A4.75651,4.75651,0,1,0,28.68555,56.061,4.71749,4.71749,0,0,0,32.04492,54.67236ZM26.3877,49.01562a3.25017,3.25017,0,1,1,0,4.5962A3.241,3.241,0,0,1,26.3877,49.01562Z"/><path d="M47.95508,25.32764a4.75,4.75,0,1,0,6.71777,0A4.71749,4.71749,0,0,0,47.95508,25.32764Zm5.65722,5.65674a3.24829,3.24829,0,1,1,0-4.5962A3.25532,3.25532,0,0,1,53.6123,30.98438Z"/><path d="M63.25,38v4A6.75769,6.75769,0,0,0,70,48.75h2v-1.5H70A5.25605,5.25605,0,0,1,64.75,42V38A5.25605,5.25605,0,0,1,70,32.75h2v-1.5H70A6.75769,6.75769,0,0,0,63.25,38Z"/><path d="M16.75,42V38A6.75738,6.75738,0,0,0,10,31.25H8v1.5h2A5.25574,5.25574,0,0,1,15.25,38v4A5.25574,5.25574,0,0,1,10,47.25H8v1.5h2A6.75738,6.75738,0,0,0,16.75,42Z"/><path d="M48.75,72V70A6.75769,6.75769,0,0,0,42,63.25H38A6.75769,6.75769,0,0,0,31.25,70v2h1.5V70A5.25605,5.25605,0,0,1,38,64.75h4A5.25605,5.25605,0,0,1,47.25,70v2Z"/><path d="M48.75,10V8h-1.5v2A5.25605,5.25605,0,0,1,42,15.25H38A5.25605,5.25605,0,0,1,32.75,10V8h-1.5v2A6.75769,6.75769,0,0,0,38,16.75h4A6.75769,6.75769,0,0,0,48.75,10Z"/><path d="M12.24609,22.499l-1.06054,1.06055,1.41406,1.41455a6.75817,6.75817,0,0,0,9.5459,0l2.82812-2.82861a6.74872,6.74872,0,0,0,0-9.5459l-1.41406-1.41406L22.499,12.24609l1.41407,1.41407a5.24927,5.24927,0,0,1,0,7.4248L21.085,23.91357a5.25812,5.25812,0,0,1-7.4248,0Z"/><path d="M58.915,56.08643a5.25633,5.25633,0,0,1,7.4248,0L67.75391,57.501l1.06054-1.06055-1.41406-1.41455a6.75758,6.75758,0,0,0-9.5459,0l-2.82812,2.82861a6.74872,6.74872,0,0,0,0,9.5459l1.41406,1.41406L57.501,67.75391l-1.41407-1.41407a5.24927,5.24927,0,0,1,0-7.4248Z"/><path d="M22.499,67.75391l1.06055,1.06054,1.41406-1.41406a6.74872,6.74872,0,0,0,0-9.5459l-2.82812-2.82861a6.75846,6.75846,0,0,0-9.5459,0l-1.41406,1.41455L12.24609,57.501l1.41407-1.41455a5.25723,5.25723,0,0,1,7.4248,0L23.91309,58.915a5.24927,5.24927,0,0,1,0,7.4248Z"/><path d="M68.81445,23.55957,67.75391,22.499l-1.41407,1.41455a5.25043,5.25043,0,0,1-7.4248,0L56.08691,21.085a5.24927,5.24927,0,0,1,0-7.4248L57.501,12.24609l-1.06055-1.06054-1.41406,1.41406a6.74872,6.74872,0,0,0,0,9.5459l2.82812,2.82861a6.757,6.757,0,0,0,9.5459,0Z"/></svg>