<svg xmlns="http://www.w3.org/2000/svg" viewBox="0 0 80 80"><path d="M51.22705,63.7124a5.21547,5.21547,0,0,1-3.7124,1.5376H32a.75027.75027,0,0,0-.53027.21973l-4,4,1.06054,1.06054L32.31055,66.75h15.2041A6.70541,6.70541,0,0,0,52.2876,64.773L66.51025,50.55029a3.61071,3.61071,0,0,0,0-5.10058,3.55472,3.55472,0,0,0-5.022.00146l-1.41687,1.42377-.59973-.5683A3.54234,3.54234,0,0,0,54.542,46.354l-6.91675,6.95917A3.72327,3.72327,0,0,0,47,53.25H32.48535a6.70541,6.70541,0,0,0-4.77295,1.977L13.46973,69.46973l1.06054,1.06054L28.773,56.2876a5.21547,5.21547,0,0,1,3.7124-1.5376H47A2.25246,2.25246,0,0,1,49.25,57a2.30093,2.30093,0,0,1-.70349,1.45618l-.05383.05407.00122.00116a2.20458,2.20458,0,0,1-1.428.73029L35.99951,59.25l.001,1.5,11.06592-.0083a3.70858,3.70858,0,0,0,2.55688-1.24121l12.927-12.99024a2.05353,2.05353,0,0,1,2.89942,0,2.1095,2.1095,0,0,1,0,2.9795Zm-.54663-7.40057a3.75006,3.75006,0,0,0-1.54663-2.38873l6.46435-6.50367a2.04344,2.04344,0,0,1,2.84229-.02343l.57275.54242Z"/><path d="M40.75,48.00146l.01074-5.29162a13.98057,13.98057,0,0,0,9.20313-23.86755L40.59131,9.46973a.74973.74973,0,0,0-1.06055,0L30.1582,18.84229a13.981,13.981,0,0,0,9.10254,23.86279L39.25,47.99854ZM31.21875,37.5874a12.51934,12.51934,0,0,1,0-17.68457L40.061,11.06055l8.84228,8.84228a12.484,12.484,0,0,1-8.1394,21.30811l.01-4.92426,5.75634-5.75641-1.06054-1.06054L40.7782,34.16125l.01208-5.89093,3.74-3.74-1.06054-1.06054L40.79456,26.1449l.01648-8.0824-1.5-.00293-.01661,8.17426-2.76416-2.7641-1.06054,1.06054L39.29,28.35059l-.012,5.86694-4.74781-4.7478-1.06054,1.06054,5.80407,5.80408-.00988,4.87207A12.43908,12.43908,0,0,1,31.21875,37.5874Z"/></svg>