<svg xmlns="http://www.w3.org/2000/svg" viewBox="0 0 80 80"><path d="M9.25,64A2.7528,2.7528,0,0,0,12,66.75H39.25v2.5H26v1.5H54v-1.5H40.75v-2.5H68A2.7528,2.7528,0,0,0,70.75,64V30A2.7528,2.7528,0,0,0,68,27.25H66v1.5h2A1.25116,1.25116,0,0,1,69.25,30V57.25H10.75V30A1.25116,1.25116,0,0,1,12,28.75h2v-1.5H12A2.7528,2.7528,0,0,0,9.25,30Zm1.5-5.25h58.5V64A1.25116,1.25116,0,0,1,68,65.25H12A1.25116,1.25116,0,0,1,10.75,64Z"/><path d="M62.75,50V10A.7502.7502,0,0,0,62,9.25H18a.7502.7502,0,0,0-.75.75V50h1.5V10.75h42.5V50Z"/><path d="M34,26.75a.7502.7502,0,0,0,.75-.75V16a.7502.7502,0,0,0-.75-.75H24a.7502.7502,0,0,0-.75.75V26a.7502.7502,0,0,0,.75.75Zm-9.25-10h8.5v8.5h-8.5Z"/><rect x="40" y="17.25" width="16" height="1.5"/><rect x="40" y="23.25" width="16" height="1.5"/><path d="M46,42.75H56a.7502.7502,0,0,0,.75-.75V32a.7502.7502,0,0,0-.75-.75H46a.7502.7502,0,0,0-.75.75V42A.7502.7502,0,0,0,46,42.75Zm.75-10h8.5v8.5h-8.5Z"/><rect x="24" y="39.25" width="16" height="1.5"/><rect x="24" y="33.25" width="16" height="1.5"/></svg>