<svg xmlns="http://www.w3.org/2000/svg" viewBox="0 0 80 80"><path d="M65.46973,43.46973l1.06054,1.06054,4-4a.74972.74972,0,0,0,0-1.06054l-4-4-1.06054,1.06054L68.18945,39.25H8v1.5H68.18945Z"/><rect x="48" y="55.25" width="24" height="1.5"/><path d="M64,48.75v-1.5H40a.7502.7502,0,0,0-.75.75V64a.7502.7502,0,0,0,.75.75h8v-1.5H40.75V48.75Z"/><path d="M63.25,64v8h1.5V64.75H72v-1.5H64A.7502.7502,0,0,0,63.25,64Z"/><rect x="55.25" y="64" width="1.5" height="8"/><path d="M16.75,64V56.75H32a.7502.7502,0,0,0,.75-.75V48h-1.5v7.25H16a.7502.7502,0,0,0-.75.75v7.25H8v1.5h8A.7502.7502,0,0,0,16.75,64Z"/><rect x="8" y="47.25" width="16" height="1.5"/><rect x="31.25" y="64" width="1.5" height="8"/><rect x="23.25" y="64" width="1.5" height="8"/><path d="M16.75,32V24.75H24v-1.5H16a.7502.7502,0,0,0-.75.75v7.25H8v1.5h8A.7502.7502,0,0,0,16.75,32Z"/><path d="M16.75,16V8h-1.5v7.25H8v1.5h8A.7502.7502,0,0,0,16.75,16Z"/><path d="M23.25,8v8a.7502.7502,0,0,0,.75.75h7.25v14.5H24v1.5h8a.7502.7502,0,0,0,.75-.75V16a.7502.7502,0,0,0-.75-.75H24.75V8Z"/><path d="M39.25,8V24a.7502.7502,0,0,0,.75.75h8v-1.5H40.75V8Z"/><path d="M55.25,24v7.25H40v1.5H56a.7502.7502,0,0,0,.75-.75V24.75H72v-1.5H56A.7502.7502,0,0,0,55.25,24Z"/><rect x="47.25" y="8" width="1.5" height="8"/><path d="M64.75,16V8h-1.5v7.25H56v1.5h8A.7502.7502,0,0,0,64.75,16Z"/></svg>