<svg xmlns="http://www.w3.org/2000/svg" viewBox="0 0 80 80"><path d="M10.53027,15.46973,9.46973,16.53027l2,2a.74972.74972,0,0,0,1.06054,0L14,17.06055l1.46973,1.46972a.74972.74972,0,0,0,1.06054,0L18,17.06055l1.46973,1.46972a.74972.74972,0,0,0,1.06054,0L22,17.06055l1.46973,1.46972a.74972.74972,0,0,0,1.06054,0L26,17.06055l1.46973,1.46972a.74971.74971,0,0,0,1.06054,0L30,17.06055l1.25,1.25v39.8789L14.53027,41.46973A.74942.74942,0,0,0,14,41.25H12a.7502.7502,0,0,0-.75.75v2a.75027.75027,0,0,0,.21973.53027l20,20,.12451-.12445A8.746,8.746,0,0,0,48.75,62V38.70782l4.626,7.7082c4.00293,6.00488,8.14257,12.21435,14.38672,14.29541A.75.75,0,0,0,68.75,60V52a.75417.75417,0,0,0-.10352-.38037L48.73877,17.77637a8.74314,8.74314,0,0,0-17.32788-1.426l-.88062-.88067a.74972.74972,0,0,0-1.06054,0L28,16.93945l-1.46973-1.46972a.74972.74972,0,0,0-1.06054,0L24,16.93945l-1.46973-1.46972a.74972.74972,0,0,0-1.06054,0L20,16.93945l-1.46973-1.46972a.74972.74972,0,0,0-1.06054,0L16,16.93945l-1.46973-1.46972a.74972.74972,0,0,0-1.06054,0L12,16.93945ZM48.75,20.75439,67.25,52.2041v6.709c-5.2334-2.23975-8.98633-7.87012-12.60645-13.29883L48.75,35.79169ZM32.75,18a7.25,7.25,0,0,1,14.5,0V62a7.25,7.25,0,0,1-14.5,0Zm-20,25.68945V42.75h.93945L31.25,60.31055V62c0,.06738.00854.13257.01025.19958Z"/><circle cx="40" cy="18" r="1"/><circle cx="40" cy="64" r="1"/></svg>