<svg xmlns="http://www.w3.org/2000/svg" viewBox="0 0 80 80"><path d="M51.22705,63.7124a5.21547,5.21547,0,0,1-3.7124,1.5376h-14.686a2.732,2.732,0,0,0-1.94482.80566l-3.41406,3.41407,1.06054,1.06054,3.41407-3.41406a1.242,1.242,0,0,1,.88427-.36621h14.686A6.70541,6.70541,0,0,0,52.2876,64.773L66.51025,50.55029a3.61071,3.61071,0,0,0,0-5.10058,3.55472,3.55472,0,0,0-5.022.00146l-1.41687,1.42377-.59973-.5683A3.54234,3.54234,0,0,0,54.542,46.354l-6.91675,6.95917A3.72327,3.72327,0,0,0,47,53.25H32.48535a6.70541,6.70541,0,0,0-4.77295,1.977L13.46973,69.46973l1.06054,1.06054L28.773,56.2876a5.21547,5.21547,0,0,1,3.7124-1.5376H47A2.25246,2.25246,0,0,1,49.25,57a2.30093,2.30093,0,0,1-.70349,1.45618l-.05383.05407.00122.00116a2.20458,2.20458,0,0,1-1.428.73029L35.99951,59.25l.001,1.5,11.06592-.0083a3.70858,3.70858,0,0,0,2.55688-1.24121l12.927-12.99024a2.05353,2.05353,0,0,1,2.89942,0,2.1095,2.1095,0,0,1,0,2.9795Zm-.54663-7.40057a3.75006,3.75006,0,0,0-1.54663-2.38873l6.46435-6.50367a2.04344,2.04344,0,0,1,2.84229-.02343l.57275.54242Z"/><path d="M40,42.75A16.75,16.75,0,1,0,23.25,26,16.76915,16.76915,0,0,0,40,42.75ZM50.01318,17.5791V14.52625a15.18777,15.18777,0,0,1,0,22.9475V34.4209a4.96587,4.96587,0,0,0-4.96045-4.96045,3.46045,3.46045,0,0,1,0-6.9209A4.96587,4.96587,0,0,0,50.01318,17.5791ZM40,10.75c.03113,0,.06116.00452.09229.0047v4.298a2.62131,2.62131,0,0,1-2.61866,2.61817H35.78955a4.12335,4.12335,0,0,0-4.11865,4.11865,2.62089,2.62089,0,0,1-2.61817,2.61816h-4.2185A15.2711,15.2711,0,0,1,40,10.75ZM24.75,26c0-.03113.00452-.06116.00464-.09229h4.29809a4.12253,4.12253,0,0,0,4.11817-4.11816,2.62172,2.62172,0,0,1,2.61865-2.61865h1.68408a4.123,4.123,0,0,0,4.11866-4.11817V10.83429a15.15521,15.15521,0,0,1,6.92089,2.51935V17.5791a3.46423,3.46423,0,0,1-3.46045,3.46045,4.96045,4.96045,0,0,0,0,9.9209,3.46423,3.46423,0,0,1,3.46045,3.46045v4.22546a15.026,15.026,0,0,1-10.28955,2.49121v-5.0321a4.96629,4.96629,0,0,0-4.96045-4.96094H25.66211A15.14823,15.14823,0,0,1,24.75,26Zm8.51318,6.64453a3.46465,3.46465,0,0,1,3.46045,3.46094v4.78082a15.28879,15.28879,0,0,1-10.42871-8.24176Z"/></svg>